<?xml version="1.0" encoding="UTF-8"?>
<svg xmlns="http://www.w3.org/2000/svg" xmlns:xlink="http://www.w3.org/1999/xlink" viewBox="0 0 188 188">
  <defs>
    <style>
      .cls-1, .cls-2, .cls-3, .cls-4, .cls-5, .cls-6, .cls-7, .cls-8, .cls-9, .cls-10, .cls-11, .cls-12, .cls-13, .cls-14, .cls-15, .cls-16, .cls-17, .cls-18, .cls-19, .cls-20, .cls-21, .cls-22, .cls-23, .cls-24, .cls-25, .cls-26, .cls-27, .cls-28, .cls-29, .cls-30, .cls-31, .cls-32, .cls-33, .cls-34, .cls-35, .cls-36 {
        stroke-width: 0px;
      }

      .cls-1, .cls-8 {
        fill: #3d95d1;
      }

      .cls-2 {
        fill: #003553;
      }

      .cls-3 {
        fill: #cee8f7;
      }

      .cls-4, .cls-11, .cls-21, .cls-32, .cls-33 {
        fill: #005d92;
      }

      .cls-4, .cls-34 {
        opacity: .1;
      }

      .cls-5 {
        fill: #c8e091;
      }

      .cls-37 {
        isolation: isolate;
      }

      .cls-7 {
        fill: none;
      }

      .cls-8 {
        opacity: .4;
      }

      .cls-9 {
        fill: #333;
      }

      .cls-10 {
        fill: #c8e5f7;
      }

      .cls-11 {
        opacity: .15;
      }

      .cls-12 {
        fill: #265e7e;
      }

      .cls-13 {
        fill: #76beea;
      }

      .cls-14 {
        fill: #fff;
      }

      .cls-15 {
        fill: #add8f2;
      }

      .cls-16 {
        fill: url(#linear-gradient-2);
        opacity: .8;
      }

      .cls-16, .cls-31 {
        mix-blend-mode: screen;
      }

      .cls-17 {
        fill: #fbb85d;
      }

      .cls-18 {
        fill: #3097b9;
      }

      .cls-19 {
        fill: #00466e;
      }

      .cls-20 {
        fill: #faa634;
      }

      .cls-21, .cls-29 {
        opacity: .3;
      }

      .cls-22 {
        fill: #b0c578;
      }

      .cls-23 {
        fill: #fcca85;
      }

      .cls-24 {
        fill: #feeace;
      }

      .cls-25 {
        fill: #337da8;
      }

      .cls-26 {
        fill: #64aada;
      }

      .cls-27 {
        fill: #8ba258;
      }

      .cls-28 {
        fill: #e9f5fc;
      }

      .cls-29 {
        fill: #bb7d27;
      }

      .cls-30 {
        fill: #bad875;
      }

      .cls-31 {
        fill: url(#linear-gradient);
        opacity: .5;
      }

      .cls-32 {
        opacity: .2;
      }

      .cls-35 {
        fill: #e4f2fb;
        opacity: .7;
      }

      .cls-36 {
        fill: #91cbee;
      }
    </style>
    <linearGradient id="linear-gradient" x1="138.95" y1="119.57" x2="138.95" y2="123.04" gradientUnits="userSpaceOnUse">
      <stop offset="0" stop-color="#fff"/>
      <stop offset="1" stop-color="#000"/>
    </linearGradient>
    <linearGradient id="linear-gradient-2" x1="147.11" y1="107.33" x2="136.19" y2="126.24" gradientUnits="userSpaceOnUse">
      <stop offset="0" stop-color="#fff"/>
      <stop offset=".63" stop-color="#000"/>
    </linearGradient>
  </defs>
  <g class="cls-37">
    <g id="Layer_2" data-name="Layer 2">
      <g id="Layer_1-2" data-name="Layer 1">
        <rect class="cls-22" width="188" height="188"/>
        <g>
          <g>
            <path class="cls-10" d="M92.66,137.97c-14.11,6.34-51.01,13.61-62.82-11.26-18.35-38.64,8.98-77.07,28.64-71.47,14.11,4.02,22.67,9.24,35.45-.96,14.46-11.54,57.98-16.25,74.87,4.77,14.88,18.52-1.04,33.75,5.36,48.18,23.51,52.99-42.02,31.75-54.78,26.4-12.76-5.35-19.86,1.26-26.71,4.34Z"/>
            <path class="cls-35" d="M99.12,139.29c-22.67-.56-87.03,15.32-81.87-40.42,5.16-55.74,54.37-16.59,76.68-35.24,22.31-18.65,45.32-32.62,68.13-5.09,22.81,27.53,23.34,31.04,13.49,50.55-9.85,19.52-10.12,39.52-41.46,35.27-31.34-4.25-26.14-4.85-34.96-5.07Z"/>
          </g>
          <g>
            <g>
              <path class="cls-5" d="M49.79,136.39s7.68-8.55,5.04-14.29c-4.63-10.04-10.53-8.92-11.61-16.05-1.08-7.13-11.3-11.05-12.59-5.71-1.3,5.34,2.93,6.42,2.03,9.38-.89,2.96.52,8.79,4.25,11.81,3.73,3.03-6.56,11.73,3.89,15.11,7.37,2.39,9-.26,9-.26Z"/>
              <path class="cls-27" d="M48.58,137.22c-.01-.09-1.44-9.45-2.38-13.33-.93-3.86-2.39-5.57-3.79-7.23-1.18-1.39-2.3-2.71-3.1-5.2-1.74-5.42-5.21-10.88-5.24-10.93l.1-.06c.03.05,3.51,5.53,5.26,10.96.79,2.46,1.9,3.77,3.08,5.16,1.41,1.67,2.88,3.39,3.81,7.28.94,3.88,2.37,13.24,2.38,13.34l-.11.02Z"/>
            </g>
            <g>
              <path class="cls-30" d="M46.84,135.84s-.7-9.85-5.83-11.63c-8.97-3.13-11.79,1.18-16.84-2.4-5.05-3.58-13.57.39-11.04,4.38,2.53,3.99,5.72,2.02,7.01,4.34,1.29,2.32,5.74,4.92,9.84,4.42,4.09-.5.61,5.78,11.5,5.8,6.66.01,5.36-4.9,5.36-4.9Z"/>
              <path class="cls-27" d="M46.63,137.08c-.07-.05-6.7-4.75-9.65-6.48-2.94-1.73-4.87-1.85-6.73-1.97-1.57-.1-3.05-.19-5.06-1.18-4.39-2.15-9.83-3.27-9.88-3.28l.02-.1c.05.01,5.51,1.13,9.91,3.29,2,.98,3.47,1.07,5.03,1.17,1.87.12,3.81.24,6.77,1.98,2.96,1.74,9.59,6.44,9.66,6.48l-.06.08Z"/>
            </g>
          </g>
          <g>
            <g>
              <path class="cls-19" d="M98.67,104.63h-.05v.27h-1.28l.03-.35h.04s0,0,0,0v-1.29h1.32l.03.17.61.45,1.93.55s.15.07.15.15v.15s0,.09,0,.09c0,0-.02.04-.18.09h-2.21l-.13-.18-.13-.08h-.11Z"/>
              <path class="cls-19" d="M86.38,104.63h-.05v.27h-1.28l.03-.35h.04s0,0,0,0l.29-1.29h1.32l.03.17.32.45,1.93.55s.15.07.15.15v.15s0,.09,0,.09c0,0-.02.04-.18.09h-2.21l-.13-.18-.13-.08h-.11Z"/>
            </g>
            <polygon class="cls-1" points="85.18 70.3 93.68 71.44 93.65 73.2 93.7 75.44 96.65 89.94 99.09 103.24 96.97 103.6 93.47 90.65 89.53 78.02 89.37 77.73 88.18 90.45 87.1 103.29 85.04 103.4 84.93 90.18 84.5 76.4 83.94 74.55 85.18 70.3"/>
          </g>
          <g>
            <g>
              <g>
                <path class="cls-33" d="M42.73,126.33s1.83-1.32,2-1.87c.24-.76-.35-1.35-.9-.78-.55.56-.64.92-1.1,2.66Z"/>
                <path class="cls-19" d="M44.26,123.87s-.64.77-1.52,2.43c0,0,1.44-2.14,1.52-2.43Z"/>
              </g>
              <g>
                <g>
                  <path class="cls-33" d="M35.33,109.93s1.22-1.9,1.18-2.48c-.05-.8-.82-1.12-1.12-.4-.3.72-.26,1.09-.05,2.87Z"/>
                  <path class="cls-19" d="M35.86,107.08s-.31.95-.53,2.82c0,0,.55-2.52.53-2.82Z"/>
                </g>
                <g>
                  <path class="cls-33" d="M37.38,113.37s1.83-1.32,2-1.87c.24-.76-.35-1.35-.9-.78-.55.56-.64.92-1.1,2.66Z"/>
                  <path class="cls-19" d="M38.91,110.91s-.64.77-1.52,2.43c0,0,1.44-2.14,1.52-2.43Z"/>
                </g>
                <g>
                  <path class="cls-33" d="M37.12,112.77s-2.25-.01-2.72-.36c-.64-.48-.5-1.3.28-1.16s1.06.37,2.44,1.52Z"/>
                  <path class="cls-19" d="M34.45,111.67s.97.26,2.65,1.09c0,0-2.41-.9-2.65-1.09Z"/>
                </g>
                <g>
                  <path class="cls-33" d="M38.97,116.31s-2.25-.01-2.72-.36c-.64-.48-.5-1.3.28-1.16.77.14,1.06.37,2.44,1.52Z"/>
                  <path class="cls-19" d="M36.3,115.21s.97.26,2.65,1.09c0,0-2.41-.9-2.65-1.09Z"/>
                </g>
                <g>
                  <path class="cls-33" d="M40.88,120.69s-2.24.23-2.74-.06c-.69-.4-.63-1.24.15-1.18.78.05,1.09.25,2.59,1.24Z"/>
                  <path class="cls-19" d="M38.11,119.88s.99.15,2.76.79c0,0-2.5-.64-2.76-.79Z"/>
                </g>
                <g>
                  <path class="cls-33" d="M42.46,125.16s-2.24.23-2.74-.06c-.69-.4-.63-1.24.15-1.18.78.05,1.09.25,2.59,1.24Z"/>
                  <path class="cls-19" d="M39.69,124.35s.99.15,2.76.79c0,0-2.5-.64-2.76-.79Z"/>
                </g>
                <g>
                  <path class="cls-33" d="M34.99,109.34s-2.25-.01-2.72-.36c-.64-.48-.5-1.3.28-1.16.77.14,1.06.37,2.44,1.52Z"/>
                  <path class="cls-19" d="M32.32,108.24s.97.26,2.65,1.09c0,0-2.41-.9-2.65-1.09Z"/>
                </g>
                <g>
                  <path class="cls-33" d="M32.64,106.16s-2.25-.01-2.72-.36c-.64-.48-.5-1.3.28-1.16.77.14,1.06.37,2.44,1.52Z"/>
                  <path class="cls-19" d="M29.96,105.05s.97.26,2.65,1.09c0,0-2.41-.9-2.65-1.09Z"/>
                </g>
                <g>
                  <path class="cls-33" d="M29.87,102.73s-2.25-.01-2.72-.36c-.64-.48-.5-1.3.28-1.16.77.14,1.06.37,2.44,1.52Z"/>
                  <path class="cls-19" d="M27.2,101.62s.97.26,2.65,1.09c0,0-2.41-.9-2.65-1.09Z"/>
                </g>
                <g>
                  <path class="cls-33" d="M27.11,100.04s-1.89.49-2.36.31c-.64-.26-.71-.98-.03-1.03.68-.06.97.08,2.38.73Z"/>
                  <path class="cls-19" d="M24.63,99.71s.87,0,2.46.32c0,0-2.22-.22-2.46-.32Z"/>
                </g>
                <g>
                  <path class="cls-33" d="M25.12,98.4s-1.94-.22-2.31-.56c-.51-.47-.3-1.17.35-.97.65.19.88.42,1.96,1.54Z"/>
                  <path class="cls-19" d="M22.92,97.19s.81.31,2.18,1.19c0,0-1.99-1.01-2.18-1.19Z"/>
                </g>
                <g>
                  <path class="cls-33" d="M39.43,117.46s1.83-1.32,2-1.87c.24-.76-.35-1.35-.9-.78s-.64.92-1.1,2.66Z"/>
                  <path class="cls-19" d="M40.96,115s-.64.77-1.52,2.43c0,0,1.44-2.14,1.52-2.43Z"/>
                </g>
                <g>
                  <path class="cls-33" d="M41.13,121.34s1.83-1.32,2-1.87c.24-.76-.35-1.35-.9-.78-.55.56-.64.92-1.1,2.66Z"/>
                  <path class="cls-19" d="M42.66,118.88s-.64.77-1.52,2.43c0,0,1.44-2.14,1.52-2.43Z"/>
                </g>
                <g>
                  <path class="cls-33" d="M32.96,106.54s1.22-1.9,1.18-2.48c-.05-.8-.82-1.12-1.12-.4-.3.72-.26,1.09-.05,2.87Z"/>
                  <path class="cls-19" d="M33.49,103.69s-.31.95-.53,2.82c0,0,.55-2.52.53-2.82Z"/>
                </g>
                <g>
                  <path class="cls-33" d="M30.08,103.3s1.22-1.9,1.18-2.48c-.05-.8-.82-1.12-1.12-.4-.3.72-.26,1.09-.05,2.87Z"/>
                  <path class="cls-19" d="M30.61,100.45s-.31.95-.53,2.82c0,0,.55-2.52.53-2.82Z"/>
                </g>
                <g>
                  <path class="cls-33" d="M27.52,100.47s1.02-1.59.99-2.08c-.04-.67-.69-.94-.94-.33-.25.61-.22.91-.04,2.41Z"/>
                  <path class="cls-19" d="M27.97,98.08s-.26.8-.45,2.36c0,0,.47-2.11.45-2.36Z"/>
                </g>
                <path class="cls-19" d="M44.91,136.74c0-.06-.59-6.19-3.32-13.94-2.52-7.16-7.45-17.21-16.59-24.44l.04-.05c4.04,3.2,7.6,7.21,10.59,11.92,2.39,3.77,4.41,7.99,6.02,12.55,2.74,7.76,3.32,13.9,3.33,13.96h-.06Z"/>
              </g>
            </g>
            <g>
              <g>
                <path class="cls-25" d="M38.95,125.9s1.71-2.21,1.73-2.93c.02-.99-.89-1.48-1.35-.62-.45.86-.44,1.32-.38,3.55Z"/>
                <path class="cls-12" d="M39.91,122.45s-.49,1.14-.96,3.42c0,0,.96-3.05.96-3.42Z"/>
              </g>
              <g>
                <g>
                  <path class="cls-25" d="M24.4,108.98s.78-2.68.54-3.36c-.34-.93-1.37-1.05-1.48-.08-.11.97.07,1.39.94,3.44Z"/>
                  <path class="cls-12" d="M24.04,105.41s-.04,1.24.35,3.54c0,0-.22-3.19-.35-3.54Z"/>
                </g>
                <g>
                  <path class="cls-25" d="M28.04,112.35s1.71-2.21,1.73-2.93c.02-.99-.89-1.48-1.35-.62-.45.86-.44,1.32-.38,3.55Z"/>
                  <path class="cls-12" d="M29.01,108.9s-.49,1.14-.96,3.42c0,0,.96-3.05.96-3.42Z"/>
                </g>
                <g>
                  <path class="cls-25" d="M27.53,111.74s-2.69.77-3.36.52c-.93-.34-1.04-1.37-.08-1.48.97-.1,1.39.07,3.44.95Z"/>
                  <path class="cls-12" d="M23.96,111.36s1.24-.03,3.54.37c0,0-3.19-.23-3.54-.37Z"/>
                </g>
                <g>
                  <path class="cls-25" d="M30.97,115.31s-2.69.77-3.36.52c-.93-.34-1.05-1.37-.08-1.48.97-.1,1.39.07,3.44.95Z"/>
                  <path class="cls-12" d="M27.4,114.93s1.24-.03,3.54.37c0,0-3.19-.23-3.54-.37Z"/>
                </g>
                <g>
                  <path class="cls-25" d="M34.78,119.84s-2.59,1.06-3.28.89c-.96-.24-1.19-1.25-.24-1.46.95-.21,1.39-.08,3.52.57Z"/>
                  <path class="cls-12" d="M31.19,119.86s1.23-.17,3.56-.02c0,0-3.19.12-3.56.02Z"/>
                </g>
                <g>
                  <path class="cls-25" d="M38.22,124.6s-2.59,1.06-3.28.89c-.96-.24-1.19-1.25-.24-1.46.95-.21,1.39-.08,3.52.57Z"/>
                  <path class="cls-12" d="M34.64,124.62s1.23-.17,3.56-.02c0,0-3.2.12-3.56.02Z"/>
                </g>
                <g>
                  <path class="cls-25" d="M23.8,108.4s-2.69.77-3.36.52c-.93-.34-1.05-1.37-.08-1.48.97-.1,1.39.07,3.44.95Z"/>
                  <path class="cls-12" d="M20.23,108.02s1.24-.03,3.54.37c0,0-3.19-.23-3.54-.37Z"/>
                </g>
                <g>
                  <path class="cls-25" d="M19.88,105.44s-2.69.77-3.36.52c-.93-.34-1.04-1.37-.08-1.48.97-.1,1.39.07,3.44.95Z"/>
                  <path class="cls-12" d="M16.31,105.06s1.24-.03,3.54.37c0,0-3.19-.23-3.54-.37Z"/>
                </g>
                <g>
                  <path class="cls-25" d="M15.39,102.32s-2.69.77-3.36.52c-.93-.34-1.04-1.37-.08-1.48.97-.1,1.39.07,3.44.95Z"/>
                  <path class="cls-12" d="M11.82,101.94s1.24-.03,3.54.37c0,0-3.19-.23-3.54-.37Z"/>
                </g>
                <g>
                  <path class="cls-25" d="M11.16,100.09s-2.08,1.25-2.7,1.19c-.85-.08-1.18-.92-.39-1.22.79-.3,1.18-.25,3.09.03Z"/>
                  <path class="cls-12" d="M8.09,100.57s1.03-.31,3.04-.48c0,0-2.72.52-3.04.48Z"/>
                </g>
                <g>
                  <path class="cls-25" d="M8.22,98.83s-2.39.41-2.94.14c-.77-.38-.77-1.28.07-1.28.84,0,1.19.19,2.87,1.14Z"/>
                  <path class="cls-12" d="M5.18,98.17s1.08.09,3.01.65c0,0-2.73-.5-3.01-.65Z"/>
                </g>
                <g>
                  <path class="cls-25" d="M31.92,116.5s1.71-2.21,1.73-2.93c.02-.99-.89-1.48-1.35-.62-.45.86-.44,1.32-.38,3.55Z"/>
                  <path class="cls-12" d="M32.88,113.05s-.49,1.14-.96,3.42c0,0,.96-3.05.96-3.42Z"/>
                </g>
                <g>
                  <path class="cls-25" d="M35.3,120.53s1.71-2.21,1.73-2.93c.02-.99-.89-1.48-1.35-.62-.45.86-.44,1.32-.38,3.55Z"/>
                  <path class="cls-12" d="M36.26,117.07s-.49,1.14-.96,3.42c0,0,.96-3.05.96-3.42Z"/>
                </g>
                <g>
                  <path class="cls-25" d="M20.4,105.77s.78-2.68.54-3.36c-.34-.93-1.37-1.05-1.48-.08-.11.97.07,1.39.94,3.44Z"/>
                  <path class="cls-12" d="M20.04,102.2s-.04,1.24.35,3.54c0,0-.22-3.19-.35-3.54Z"/>
                </g>
                <g>
                  <path class="cls-25" d="M15.84,102.92s.78-2.68.54-3.36c-.34-.93-1.37-1.05-1.48-.08-.11.97.07,1.39.94,3.44Z"/>
                  <path class="cls-12" d="M15.48,99.35s-.04,1.24.35,3.54c0,0-.22-3.19-.35-3.54Z"/>
                </g>
                <g>
                  <path class="cls-25" d="M11.81,100.45s.66-2.25.45-2.82c-.29-.78-1.15-.88-1.24-.07-.09.81.06,1.16.79,2.89Z"/>
                  <path class="cls-12" d="M11.5,97.46s-.03,1.04.3,2.97c0,0-.19-2.68-.3-2.97Z"/>
                </g>
                <path class="cls-12" d="M45.18,137.53c-.03-.07-2.86-7.15-8.83-15.43-5.51-7.63-14.89-17.87-28.29-23.28l.03-.07c5.93,2.39,11.57,5.92,16.77,10.48,4.16,3.65,8.05,7.97,11.56,12.83,5.98,8.28,8.81,15.37,8.84,15.44l-.07.03Z"/>
              </g>
            </g>
            <g>
              <g>
                <path class="cls-33" d="M39.88,131.61s.54-1.45.44-1.84c-.15-.53-.72-.64-.81-.11-.1.53-.02.77.38,1.94Z"/>
                <path class="cls-19" d="M39.83,129.62s-.07.69.05,1.97c0,0,.01-1.77-.05-1.97Z"/>
              </g>
              <g>
                <g>
                  <path class="cls-33" d="M29.4,125.02s-.02-1.55-.27-1.87c-.33-.44-.9-.33-.8.2.1.53.26.72,1.06,1.67Z"/>
                  <path class="cls-19" d="M28.62,123.18s.18.67.77,1.82c0,0-.64-1.66-.77-1.82Z"/>
                </g>
                <g>
                  <path class="cls-33" d="M31.88,126.21s.54-1.45.44-1.84c-.15-.53-.72-.64-.81-.11-.1.53-.02.77.38,1.94Z"/>
                  <path class="cls-19" d="M31.83,124.22s-.07.69.05,1.97c0,0,.01-1.77-.05-1.97Z"/>
                </g>
                <g>
                  <path class="cls-33" d="M31.51,125.97s-1.3.85-1.7.83c-.55-.03-.78-.56-.28-.77.5-.21.75-.19,1.98-.06Z"/>
                  <path class="cls-19" d="M29.56,126.35s.65-.22,1.94-.38c0,0-1.73.4-1.94.38Z"/>
                </g>
                <g>
                  <path class="cls-33" d="M33.92,127.3s-1.3.85-1.7.83c-.55-.03-.78-.56-.28-.77.5-.21.75-.19,1.98-.06Z"/>
                  <path class="cls-19" d="M31.96,127.68s.65-.22,1.94-.38c0,0-1.73.4-1.94.38Z"/>
                </g>
                <g>
                  <path class="cls-33" d="M36.68,129.08s-1.2.99-1.6,1.01c-.55.03-.84-.47-.36-.74.47-.27.72-.27,1.96-.27Z"/>
                  <path class="cls-19" d="M34.78,129.67s.63-.29,1.88-.59c0,0-1.68.59-1.88.59Z"/>
                </g>
                <g>
                  <path class="cls-33" d="M39.29,131.04s-1.2.99-1.6,1.01c-.55.03-.84-.47-.37-.74.47-.27.72-.27,1.96-.27Z"/>
                  <path class="cls-19" d="M37.38,131.64s.63-.29,1.88-.59c0,0-1.68.59-1.88.59Z"/>
                </g>
                <g>
                  <path class="cls-33" d="M28.98,124.81s-1.3.85-1.7.83c-.55-.03-.78-.56-.28-.77.5-.21.75-.19,1.98-.06Z"/>
                  <path class="cls-19" d="M27.03,125.19s.65-.22,1.94-.38c0,0-1.73.4-1.94.38Z"/>
                </g>
                <g>
                  <path class="cls-33" d="M26.42,123.88s-1.3.85-1.7.83c-.55-.03-.78-.56-.28-.77.5-.21.75-.19,1.98-.06Z"/>
                  <path class="cls-19" d="M24.47,124.26s.65-.22,1.94-.38c0,0-1.73.4-1.94.38Z"/>
                </g>
                <g>
                  <path class="cls-33" d="M23.53,122.96s-1.3.85-1.7.83c-.55-.03-.78-.56-.28-.77.5-.21.75-.19,1.98-.06Z"/>
                  <path class="cls-19" d="M21.57,123.34s.65-.22,1.94-.38c0,0-1.73.4-1.94.38Z"/>
                </g>
                <g>
                  <path class="cls-33" d="M20.92,122.46s-.9,1-1.24,1.07c-.47.1-.78-.29-.41-.58.37-.29.58-.32,1.64-.49Z"/>
                  <path class="cls-19" d="M19.37,123.22s.5-.33,1.54-.75c0,0-1.36.72-1.54.75Z"/>
                </g>
                <g>
                  <path class="cls-33" d="M19.15,122.28s-1.2.61-1.54.55c-.47-.08-.62-.55-.17-.69.45-.14.66-.09,1.71.14Z"/>
                  <path class="cls-19" d="M17.43,122.42s.58-.13,1.7-.15c0,0-1.53.18-1.7.15Z"/>
                </g>
                <g>
                  <path class="cls-33" d="M34.62,127.78s.54-1.45.44-1.84c-.15-.53-.72-.64-.81-.11-.1.53-.02.77.38,1.94Z"/>
                  <path class="cls-19" d="M34.56,125.79s-.07.69.05,1.97c0,0,.01-1.77-.05-1.97Z"/>
                </g>
                <g>
                  <path class="cls-33" d="M37.07,129.36s.54-1.45.44-1.84c-.15-.53-.72-.64-.81-.11-.1.53-.02.77.38,1.94Z"/>
                  <path class="cls-19" d="M37.01,127.37s-.07.69.05,1.97c0,0,.01-1.77-.05-1.97Z"/>
                </g>
                <g>
                  <path class="cls-33" d="M26.75,123.97s-.02-1.55-.27-1.87c-.33-.44-.9-.33-.8.2.1.53.26.72,1.06,1.67Z"/>
                  <path class="cls-19" d="M25.97,122.13s.18.67.77,1.82c0,0-.64-1.66-.77-1.82Z"/>
                </g>
                <g>
                  <path class="cls-33" d="M23.87,123.2s-.02-1.55-.27-1.87c-.33-.44-.9-.33-.8.2.1.53.26.72,1.06,1.67Z"/>
                  <path class="cls-19" d="M23.09,121.37s.18.67.77,1.82c0,0-.64-1.66-.77-1.82Z"/>
                </g>
                <g>
                  <path class="cls-33" d="M21.32,122.55s-.02-1.3-.22-1.57c-.28-.37-.75-.28-.67.17.09.45.22.61.89,1.4Z"/>
                  <path class="cls-19" d="M20.67,121.02s.15.56.64,1.53c0,0-.54-1.39-.64-1.53Z"/>
                </g>
                <path class="cls-19" d="M45.09,136.76s-2.69-3.33-7.21-6.74c-4.17-3.15-10.82-7.04-18.81-7.72v-.04c3.54.3,7.11,1.25,10.61,2.82,2.8,1.26,5.57,2.91,8.23,4.91,4.52,3.42,7.19,6.71,7.22,6.75l-.03.03Z"/>
              </g>
            </g>
          </g>
          <g>
            <g>
              <g>
                <path class="cls-33" d="M142.33,127.03s-2.03-1.4-2.24-2c-.29-.83.35-1.48.97-.88.61.6.73.99,1.27,2.88Z"/>
                <path class="cls-19" d="M140.59,124.38s.72.83,1.73,2.62c0,0-1.63-2.31-1.73-2.62Z"/>
              </g>
              <g>
                <g>
                  <path class="cls-33" d="M150.03,108.87s-1.38-2.05-1.35-2.68c.04-.87.87-1.25,1.22-.47.35.79.32,1.19.13,3.15Z"/>
                  <path class="cls-19" d="M149.38,105.76s.37,1.04.65,3.08c0,0-.67-2.75-.65-3.08Z"/>
                </g>
                <g>
                  <path class="cls-33" d="M147.87,112.69s-2.03-1.4-2.24-2c-.29-.83.35-1.48.97-.88.61.6.73.99,1.27,2.88Z"/>
                  <path class="cls-19" d="M146.13,110.04s.72.83,1.73,2.62c0,0-1.63-2.31-1.73-2.62Z"/>
                </g>
                <g>
                  <path class="cls-33" d="M148.14,112.03s2.47-.07,2.97-.46c.69-.54.51-1.44-.33-1.27-.84.17-1.15.43-2.64,1.73Z"/>
                  <path class="cls-19" d="M151.04,110.75s-1.06.31-2.88,1.26c0,0,2.62-1.05,2.88-1.26Z"/>
                </g>
                <g>
                  <path class="cls-33" d="M146.2,115.96s2.47-.07,2.97-.46c.69-.54.51-1.44-.33-1.27-.84.17-1.15.43-2.64,1.73Z"/>
                  <path class="cls-19" d="M149.1,114.68s-1.06.31-2.88,1.26c0,0,2.62-1.05,2.88-1.26Z"/>
                </g>
                <g>
                  <path class="cls-33" d="M144.21,120.81s2.46.2,3-.13c.74-.46.66-1.37-.19-1.29-.86.08-1.19.31-2.81,1.43Z"/>
                  <path class="cls-19" d="M147.24,119.85s-1.08.19-3,.94c0,0,2.72-.76,3-.94Z"/>
                </g>
                <g>
                  <path class="cls-33" d="M142.6,125.74s2.46.2,3-.13c.74-.46.66-1.37-.19-1.29s-1.19.31-2.81,1.43Z"/>
                  <path class="cls-19" d="M145.62,124.79s-1.08.19-3,.94c0,0,2.72-.76,3-.94Z"/>
                </g>
                <g>
                  <path class="cls-33" d="M150.38,108.22s2.47-.07,2.97-.46c.69-.54.51-1.44-.33-1.27-.84.17-1.15.43-2.64,1.73Z"/>
                  <path class="cls-19" d="M153.28,106.94s-1.06.31-2.88,1.26c0,0,2.62-1.05,2.88-1.26Z"/>
                </g>
                <g>
                  <path class="cls-33" d="M152.88,104.67s2.47-.07,2.97-.46c.69-.54.51-1.44-.33-1.27s-1.15.43-2.64,1.73Z"/>
                  <path class="cls-19" d="M155.78,103.39s-1.06.31-2.88,1.26c0,0,2.62-1.05,2.88-1.26Z"/>
                </g>
                <g>
                  <path class="cls-33" d="M155.83,100.84s2.47-.07,2.97-.46c.69-.54.51-1.44-.33-1.27s-1.15.43-2.64,1.73Z"/>
                  <path class="cls-19" d="M158.73,99.56s-1.06.31-2.88,1.26c0,0,2.62-1.05,2.88-1.26Z"/>
                </g>
                <g>
                  <path class="cls-33" d="M158.78,97.82s2.08.49,2.59.28c.7-.3.75-1.09,0-1.13-.75-.04-1.06.11-2.59.86Z"/>
                  <path class="cls-19" d="M161.5,97.39s-.95.02-2.69.41c0,0,2.43-.3,2.69-.41Z"/>
                </g>
                <g>
                  <path class="cls-33" d="M160.92,95.96s2.12-.29,2.52-.68c.54-.53.3-1.29-.41-1.06-.71.23-.95.48-2.11,1.74Z"/>
                  <path class="cls-19" d="M163.3,94.59s-.88.36-2.36,1.36c0,0,2.16-1.15,2.36-1.36Z"/>
                </g>
                <g>
                  <path class="cls-33" d="M145.72,117.22s-2.03-1.4-2.24-2c-.29-.83.35-1.48.97-.88s.73.99,1.27,2.88Z"/>
                  <path class="cls-19" d="M143.98,114.57s.72.83,1.73,2.62c0,0-1.63-2.31-1.73-2.62Z"/>
                </g>
                <g>
                  <path class="cls-33" d="M143.96,121.52s-2.03-1.4-2.24-2c-.29-.83.35-1.48.97-.88.61.6.73.99,1.27,2.88Z"/>
                  <path class="cls-19" d="M142.22,118.87s.72.83,1.73,2.62c0,0-1.63-2.31-1.73-2.62Z"/>
                </g>
                <g>
                  <path class="cls-33" d="M152.53,105.09s-1.38-2.05-1.35-2.68c.04-.88.87-1.25,1.22-.47s.32,1.19.13,3.15Z"/>
                  <path class="cls-19" d="M151.88,101.99s.37,1.04.65,3.08c0,0-.67-2.75-.65-3.08Z"/>
                </g>
                <g>
                  <path class="cls-33" d="M155.61,101.46s-1.38-2.05-1.35-2.68c.04-.88.87-1.25,1.22-.47.35.79.32,1.19.13,3.15Z"/>
                  <path class="cls-19" d="M154.95,98.36s.37,1.04.65,3.08c0,0-.67-2.75-.65-3.08Z"/>
                </g>
                <g>
                  <path class="cls-33" d="M158.34,98.3s-1.16-1.72-1.14-2.25c.03-.73.73-1.05,1.03-.39.29.66.27.99.11,2.64Z"/>
                  <path class="cls-19" d="M157.79,95.69s.31.87.55,2.58c0,0-.56-2.3-.55-2.58Z"/>
                </g>
                <path class="cls-19" d="M140.22,138.5c0-.07.49-6.8,3.29-15.37,2.58-7.91,7.73-19.05,17.55-27.22l-.04-.05c-4.35,3.61-8.15,8.1-11.3,13.34-2.52,4.19-4.63,8.87-6.28,13.91-2.8,8.58-3.28,15.32-3.29,15.38h.07Z"/>
              </g>
            </g>
            <g>
              <g>
                <path class="cls-25" d="M146.47,126.47s-1.93-2.38-1.97-3.17c-.05-1.09.94-1.64,1.46-.71.52.93.52,1.43.51,3.88Z"/>
                <path class="cls-12" d="M145.32,122.71s.57,1.24,1.14,3.73c0,0-1.13-3.32-1.14-3.73Z"/>
              </g>
              <g>
                <g>
                  <path class="cls-25" d="M161.98,107.55s-.93-2.92-.67-3.67c.35-1.03,1.48-1.19,1.62-.13.14,1.06-.04,1.52-.95,3.79Z"/>
                  <path class="cls-12" d="M162.29,103.63s.07,1.36-.3,3.89c0,0,.16-3.5.3-3.89Z"/>
                </g>
                <g>
                  <path class="cls-25" d="M158.07,111.34s-1.93-2.38-1.97-3.17c-.05-1.09.94-1.64,1.46-.71.52.93.52,1.43.51,3.88Z"/>
                  <path class="cls-12" d="M156.93,107.58s.57,1.24,1.14,3.73c0,0-1.13-3.32-1.14-3.73Z"/>
                </g>
                <g>
                  <path class="cls-25" d="M158.62,110.66s2.96.78,3.7.49c1.01-.4,1.11-1.53.05-1.62-1.06-.09-1.52.11-3.74,1.13Z"/>
                  <path class="cls-12" d="M162.52,110.15s-1.36,0-3.87.49c0,0,3.49-.34,3.87-.49Z"/>
                </g>
                <g>
                  <path class="cls-25" d="M154.94,114.65s2.96.78,3.7.49c1.01-.4,1.11-1.53.05-1.62-1.06-.09-1.52.11-3.74,1.13Z"/>
                  <path class="cls-12" d="M158.84,114.14s-1.37,0-3.87.49c0,0,3.49-.34,3.87-.49Z"/>
                </g>
                <g>
                  <path class="cls-25" d="M150.88,119.72s2.86,1.1,3.62.89c1.05-.29,1.27-1.4.22-1.61-1.05-.21-1.52-.05-3.84.72Z"/>
                  <path class="cls-12" d="M154.82,119.64s-1.36-.15-3.9.07c0,0,3.51.05,3.9-.07Z"/>
                </g>
                <g>
                  <path class="cls-25" d="M147.23,125.03s2.86,1.1,3.62.89c1.05-.29,1.27-1.4.22-1.61-1.05-.2-1.52-.05-3.84.72Z"/>
                  <path class="cls-12" d="M151.16,124.95s-1.36-.15-3.9.07c0,0,3.51.05,3.9-.07Z"/>
                </g>
                <g>
                  <path class="cls-25" d="M162.63,106.9s2.96.78,3.7.49c1.01-.4,1.11-1.53.05-1.62-1.06-.09-1.52.11-3.74,1.13Z"/>
                  <path class="cls-12" d="M166.53,106.39s-1.36,0-3.87.49c0,0,3.49-.34,3.87-.49Z"/>
                </g>
                <g>
                  <path class="cls-25" d="M166.85,103.55s2.96.78,3.7.49c1.01-.4,1.11-1.53.05-1.62-1.06-.09-1.52.11-3.74,1.13Z"/>
                  <path class="cls-12" d="M170.75,103.04s-1.36,0-3.87.49c0,0,3.49-.34,3.87-.49Z"/>
                </g>
                <g>
                  <path class="cls-25" d="M171.69,100.02s2.96.78,3.7.49c1.01-.4,1.11-1.53.05-1.62-1.06-.09-1.52.11-3.74,1.13Z"/>
                  <path class="cls-12" d="M175.59,99.51s-1.36,0-3.87.49c0,0,3.49-.34,3.87-.49Z"/>
                </g>
                <g>
                  <path class="cls-25" d="M176.26,97.46s2.31,1.31,2.99,1.23c.93-.11,1.27-1.04.4-1.35-.87-.31-1.3-.24-3.39.11Z"/>
                  <path class="cls-12" d="M179.64,97.91s-1.14-.31-3.35-.45c0,0,3,.5,3.35.45Z"/>
                </g>
                <g>
                  <path class="cls-25" d="M179.46,96.01s2.63.39,3.23.07c.83-.44.81-1.43-.11-1.4-.93.02-1.3.24-3.12,1.33Z"/>
                  <path class="cls-12" d="M182.77,95.21s-1.18.12-3.29.79c0,0,2.97-.62,3.29-.79Z"/>
                </g>
                <g>
                  <path class="cls-25" d="M153.93,115.99s-1.93-2.38-1.97-3.17c-.05-1.09.94-1.64,1.46-.71.52.93.52,1.43.51,3.88Z"/>
                  <path class="cls-12" d="M152.79,112.22s.57,1.24,1.14,3.73c0,0-1.13-3.32-1.14-3.73Z"/>
                </g>
                <g>
                  <path class="cls-25" d="M150.33,120.48s-1.93-2.38-1.97-3.17c-.05-1.09.94-1.64,1.46-.71.52.93.52,1.43.51,3.88Z"/>
                  <path class="cls-12" d="M149.19,116.72s.57,1.24,1.14,3.73c0,0-1.13-3.32-1.14-3.73Z"/>
                </g>
                <g>
                  <path class="cls-25" d="M166.28,103.93s-.93-2.92-.67-3.67c.35-1.03,1.48-1.19,1.62-.13.14,1.06-.04,1.52-.95,3.79Z"/>
                  <path class="cls-12" d="M166.59,100.01s.07,1.36-.3,3.89c0,0,.16-3.5.3-3.89Z"/>
                </g>
                <g>
                  <path class="cls-25" d="M171.21,100.69s-.93-2.92-.67-3.67c.35-1.03,1.48-1.19,1.62-.13.14,1.06-.04,1.52-.95,3.79Z"/>
                  <path class="cls-12" d="M171.52,96.77s.07,1.36-.3,3.89c0,0,.16-3.5.3-3.89Z"/>
                </g>
                <g>
                  <path class="cls-25" d="M175.57,97.88s-.78-2.45-.56-3.08c.29-.86,1.24-.99,1.36-.11.12.89-.03,1.28-.79,3.18Z"/>
                  <path class="cls-12" d="M175.83,94.59s.06,1.14-.25,3.26c0,0,.13-2.94.25-3.26Z"/>
                </g>
                <path class="cls-12" d="M139.93,139.38c.03-.08,2.96-7.92,9.29-17.14,5.84-8.51,15.86-19.97,30.41-26.24l-.03-.08c-6.43,2.77-12.53,6.78-18.11,11.92-4.47,4.11-8.62,8.94-12.34,14.36-6.34,9.23-9.27,17.08-9.3,17.15l.08.03Z"/>
              </g>
            </g>
            <g>
              <g>
                <path class="cls-33" d="M145.59,132.76s-.63-1.58-.53-2c.15-.58.77-.72.89-.14.12.58.04.84-.37,2.14Z"/>
                <path class="cls-19" d="M145.6,130.57s.1.75,0,2.16c0,0-.06-1.95,0-2.16Z"/>
              </g>
              <g>
                <g>
                  <path class="cls-33" d="M156.91,125.26s-.01-1.7.24-2.06c.35-.49.98-.39.88.2-.1.58-.27.8-1.12,1.86Z"/>
                  <path class="cls-19" d="M157.72,123.23s-.18.74-.79,2.01c0,0,.66-1.83.79-2.01Z"/>
                </g>
                <g>
                  <path class="cls-33" d="M154.22,126.63s-.63-1.58-.53-2c.15-.58.77-.72.89-.14.12.58.04.84-.37,2.14Z"/>
                  <path class="cls-19" d="M154.23,124.44s.1.75,0,2.16c0,0-.06-1.95,0-2.16Z"/>
                </g>
                <g>
                  <path class="cls-33" d="M154.62,126.35s1.45.9,1.88.86c.6-.05.84-.63.29-.85-.55-.22-.82-.19-2.17-.01Z"/>
                  <path class="cls-19" d="M156.78,126.72s-.72-.23-2.13-.37c0,0,1.91.39,2.13.37Z"/>
                </g>
                <g>
                  <path class="cls-33" d="M152.02,127.87s1.45.9,1.88.86c.6-.05.84-.63.29-.85-.55-.22-.82-.19-2.17-.01Z"/>
                  <path class="cls-19" d="M154.17,128.24s-.72-.23-2.13-.37c0,0,1.91.39,2.13.37Z"/>
                </g>
                <g>
                  <path class="cls-33" d="M149.04,129.9s1.34,1.05,1.77,1.06c.6.02.9-.54.38-.82-.52-.28-.8-.28-2.16-.25Z"/>
                  <path class="cls-19" d="M151.14,130.5s-.69-.3-2.08-.6c0,0,1.85.6,2.08.6Z"/>
                </g>
                <g>
                  <path class="cls-33" d="M146.23,132.11s1.34,1.05,1.77,1.06c.6.02.9-.54.38-.82-.52-.28-.8-.28-2.16-.25Z"/>
                  <path class="cls-19" d="M148.33,132.72s-.69-.3-2.08-.6c0,0,1.85.6,2.08.6Z"/>
                </g>
                <g>
                  <path class="cls-33" d="M157.36,125.02s1.45.9,1.88.86c.6-.05.84-.63.29-.85-.55-.22-.82-.19-2.17-.01Z"/>
                  <path class="cls-19" d="M159.52,125.38s-.72-.23-2.13-.37c0,0,1.91.39,2.13.37Z"/>
                </g>
                <g>
                  <path class="cls-33" d="M160.15,123.93s1.45.9,1.88.86c.6-.05.84-.63.29-.85-.55-.22-.82-.19-2.17-.01Z"/>
                  <path class="cls-19" d="M162.3,124.3s-.72-.23-2.13-.37c0,0,1.91.39,2.13.37Z"/>
                </g>
                <g>
                  <path class="cls-33" d="M163.3,122.85s1.45.9,1.88.86c.6-.05.84-.63.29-.85-.55-.22-.82-.19-2.17-.01Z"/>
                  <path class="cls-19" d="M165.45,123.22s-.72-.23-2.13-.37c0,0,1.91.39,2.13.37Z"/>
                </g>
                <g>
                  <path class="cls-33" d="M166.14,122.24s1.01,1.07,1.38,1.14c.51.09.84-.34.43-.65-.41-.31-.65-.34-1.82-.49Z"/>
                  <path class="cls-19" d="M167.86,123.03s-.56-.35-1.7-.79c0,0,1.51.75,1.7.79Z"/>
                </g>
                <g>
                  <path class="cls-33" d="M168.07,121.99s1.33.64,1.7.57c.51-.1.66-.62.17-.76-.49-.14-.73-.08-1.87.19Z"/>
                  <path class="cls-19" d="M169.96,122.11s-.64-.13-1.87-.12c0,0,1.68.16,1.87.12Z"/>
                </g>
                <g>
                  <path class="cls-33" d="M151.27,128.41s-.63-1.58-.53-2c.15-.58.77-.72.89-.14.12.58.04.84-.37,2.14Z"/>
                  <path class="cls-19" d="M151.27,126.23s.1.75,0,2.16c0,0-.06-1.95,0-2.16Z"/>
                </g>
                <g>
                  <path class="cls-33" d="M148.62,130.21s-.63-1.58-.53-2c.15-.58.77-.72.89-.14.12.58.04.84-.37,2.14Z"/>
                  <path class="cls-19" d="M148.63,128.03s.1.75,0,2.16c0,0-.06-1.95,0-2.16Z"/>
                </g>
                <g>
                  <path class="cls-33" d="M159.79,124.04s-.01-1.7.24-2.06c.35-.49.98-.39.88.2-.1.58-.27.8-1.12,1.86Z"/>
                  <path class="cls-19" d="M160.59,122.01s-.18.73-.79,2.01c0,0,.66-1.83.79-2.01Z"/>
                </g>
                <g>
                  <path class="cls-33" d="M162.93,123.13s-.01-1.7.24-2.06c.35-.49.98-.39.88.2-.1.58-.27.8-1.12,1.86Z"/>
                  <path class="cls-19" d="M163.74,121.1s-.18.73-.79,2.01c0,0,.66-1.83.79-2.01Z"/>
                </g>
                <g>
                  <path class="cls-33" d="M165.7,122.35s-.01-1.43.2-1.72c.3-.41.82-.33.74.17-.08.49-.23.67-.94,1.56Z"/>
                  <path class="cls-19" d="M166.38,120.65s-.15.62-.67,1.69c0,0,.55-1.54.67-1.69Z"/>
                </g>
                <path class="cls-19" d="M140.01,138.53s2.86-3.72,7.73-7.57c4.49-3.56,11.68-8,20.42-8.95v-.05c-3.87.42-7.76,1.55-11.56,3.36-3.04,1.45-6.03,3.33-8.89,5.6-4.87,3.86-7.71,7.54-7.74,7.58l.04.03Z"/>
              </g>
            </g>
          </g>
          <g>
            <path class="cls-1" d="M31.52,85.56c-.15,0-.29-.02-.44-.05l.1-.43c.11.03.22.04.34.04h.05s.01.44.01.44h-.06ZM32.07,85.48l-.13-.43c.12-.04.24-.09.35-.16l.23.38c-.14.09-.3.15-.46.2ZM30.62,85.34c-.15-.08-.28-.17-.41-.29l.3-.33c.1.09.2.16.32.22l-.21.39ZM32.92,84.97l-.32-.31c.09-.09.17-.2.23-.31l.39.22c-.08.15-.18.28-.3.4ZM29.89,84.67c-.09-.14-.16-.29-.22-.45l.42-.14c.04.12.1.24.17.35l-.37.24ZM33.41,84.1l-.43-.11c.03-.12.05-.25.05-.38,0-.06,0-.12-.01-.18l.44-.05c0,.08.01.15.01.23,0,.17-.02.33-.06.49ZM29.58,83.73s0-.08,0-.12c0-.13.01-.26.04-.38l.44.09c-.02.1-.03.2-.03.3,0,.03,0,.06,0,.09l-.44.03ZM32.92,83.06c-.05-.12-.11-.23-.19-.34l.36-.26c.1.14.18.28.24.44l-.41.16ZM30.17,82.95l-.4-.19c.07-.15.17-.29.27-.42l.34.29c-.08.1-.16.21-.21.32ZM32.47,82.44c-.1-.08-.21-.15-.33-.2l.18-.4c.15.07.29.16.42.26l-.28.34ZM30.67,82.37l-.25-.37c.14-.09.29-.17.44-.23l.15.42c-.12.04-.24.1-.34.18ZM31.77,82.13c-.12-.02-.25-.03-.39-.01l-.04-.44c.17-.01.34,0,.5.02l-.07.44Z"/>
            <path class="cls-1" d="M32.36,83.61c0,.46-.38.84-.84.84s-.84-.38-.84-.84.38-.84.84-.84.84.38.84.84Z"/>
          </g>
          <path class="cls-1" d="M80.43,54.69l-.07-.52c.15-.02.29-.06.43-.12l.21.48c-.18.08-.38.13-.57.16ZM79.83,54.68c-.2-.03-.39-.09-.57-.18l.23-.47c.13.07.28.11.42.14l-.08.52ZM81.51,54.21l-.34-.4c.11-.1.21-.21.3-.33l.44.29c-.11.17-.24.32-.39.45ZM78.77,54.16c-.15-.13-.27-.29-.38-.46l.45-.27c.08.13.17.24.28.35l-.35.38ZM82.15,53.23l-.5-.15c.04-.14.06-.29.06-.44h.52c0,.2-.03.4-.09.59ZM78.16,53.15c-.04-.17-.06-.34-.06-.51v-.08s.52.02.52.02v.06c0,.13.02.26.05.38l-.51.13ZM81.68,52.31c-.03-.15-.08-.29-.16-.42l.46-.25c.1.17.17.36.21.56l-.51.11ZM78.7,52.14l-.49-.17c.06-.19.15-.37.27-.53l.43.3c-.09.12-.16.26-.2.4ZM81.25,51.54c-.11-.11-.23-.19-.36-.26l.25-.46c.18.09.34.21.48.35l-.37.37ZM79.21,51.42l-.32-.41c.16-.12.33-.22.52-.3l.19.49c-.14.06-.27.13-.39.22ZM80.48,51.12c-.14-.03-.3-.04-.44-.02l-.05-.52c.2-.02.4,0,.59.03l-.11.51Z"/>
          <path class="cls-1" d="M132.74,62.43l-.04-.32c.09-.01.18-.04.27-.07l.13.3c-.11.05-.24.08-.36.1ZM132.37,62.42c-.12-.02-.24-.06-.36-.11l.14-.29c.08.04.17.07.27.08l-.05.32ZM133.42,62.13l-.21-.25c.07-.06.13-.13.18-.21l.27.18c-.07.1-.15.2-.25.28ZM131.71,62.1c-.09-.08-.17-.18-.24-.29l.28-.17c.05.08.11.15.18.22l-.22.24ZM133.82,61.51l-.31-.09c.03-.09.04-.18.04-.28h.33c0,.13-.02.25-.05.37ZM131.33,61.47c-.03-.1-.04-.21-.04-.32v-.05s.33.01.33.01v.04c0,.08,0,.16.03.24l-.32.08ZM133.53,60.94c-.02-.09-.05-.18-.1-.26l.29-.16c.06.11.1.23.13.35l-.32.07ZM131.66,60.83l-.31-.11c.04-.12.1-.23.17-.33l.27.19c-.05.08-.1.16-.13.25ZM133.26,60.46c-.07-.07-.14-.12-.22-.17l.15-.29c.11.06.21.13.3.22l-.23.23ZM131.98,60.38l-.2-.26c.1-.08.21-.14.32-.19l.12.3c-.09.03-.17.08-.24.14ZM132.77,60.2c-.09-.02-.19-.02-.28-.02l-.03-.33c.12-.01.25,0,.37.02l-.07.32Z"/>
          <g>
            <path class="cls-1" d="M159.55,81.78c-.13-.01-.27-.04-.4-.08l.11-.35c.1.03.21.05.32.06l-.03.37ZM159.96,81.78l-.04-.36c.11-.01.22-.04.32-.07l.12.35c-.13.04-.26.07-.39.09ZM158.78,81.55c-.12-.06-.23-.14-.33-.23l.24-.28c.08.07.17.13.27.19l-.18.32ZM160.72,81.52l-.19-.32c.09-.06.18-.12.26-.2l.25.27c-.1.09-.21.17-.32.24ZM158.18,81.02c-.08-.11-.15-.22-.21-.34l.33-.16c.05.1.1.19.17.28l-.29.22ZM161.31,80.98l-.3-.21c.06-.09.12-.18.16-.28l.34.15c-.05.12-.12.24-.2.35ZM157.83,80.3c-.03-.13-.05-.27-.05-.4h.37c0,.1.02.21.04.31l-.36.09ZM161.63,80.24l-.36-.07c.02-.11.03-.22.03-.33,0-.03,0-.07,0-.1l.37-.02s0,.08,0,.12c0,.14-.01.27-.04.4ZM158.16,79.56l-.36-.06c.02-.13.06-.26.11-.39l.34.14c-.04.1-.07.21-.09.31ZM161.25,79.42c-.03-.11-.07-.21-.12-.31l.33-.17c.06.12.11.25.15.38l-.35.1ZM158.41,78.96l-.3-.2c.08-.11.16-.22.26-.31l.26.26c-.08.08-.15.16-.21.25ZM160.95,78.84c-.07-.08-.15-.16-.23-.23l.23-.28c.1.08.2.18.29.28l-.28.23ZM158.88,78.5l-.2-.31c.11-.07.24-.13.36-.18l.13.34c-.1.04-.2.09-.29.15ZM160.44,78.43c-.1-.05-.2-.09-.31-.12l.1-.35c.13.04.26.08.38.15l-.17.33ZM159.49,78.27l-.05-.36c.13-.02.27-.03.4-.02l-.02.37c-.11,0-.22,0-.33.02Z"/>
            <path class="cls-1" d="M160.58,79.84c0,.47-.38.86-.86.86s-.86-.38-.86-.86.38-.86.86-.86.86.38.86.86Z"/>
          </g>
          <path class="cls-10" d="M64.2,143.81c-5.82-.01-16.53.28-15.21-1.21,1.32-1.49,8.3-.03,14.03-.53,5.72-.5,10.9-1.07,16.75-.34,5.85.74,4.26,1.58,1.69,1.82-4.72.44-5.56.63-8.29.39-8.01-.71-6.71-.13-8.97-.14Z"/>
          <g>
            <rect class="cls-33" x="41.07" y="71.73" width="103.16" height="68.48" rx="10.15" ry="10.15"/>
            <rect class="cls-28" x="47.82" y="75.1" width="89.5" height="61.71"/>
          </g>
          <g>
            <rect class="cls-24" x="111.85" y="81.4" width="12.71" height="55.41"/>
            <rect class="cls-24" x="124.65" y="81.4" width="12.71" height="55.41"/>
            <g>
              <g>
                <g>
                  <g>
                    <path class="cls-36" d="M59.53,94.1v-.28h-.48v-.09l.46-.65h.15v.64h.14v.11h-.14v.28h-.13ZM59.53,93.72v-.34c0-.05,0-.11,0-.16h0c-.03.06-.06.1-.08.15l-.25.35h0s.34,0,.34,0Z"/>
                    <path class="cls-36" d="M72.49,93.19h-.39l-.04.26s.05,0,.08,0c.08,0,.16.02.22.05.08.05.15.13.15.26,0,.2-.16.35-.38.35-.11,0-.21-.03-.26-.06l.03-.11s.13.06.22.06c.13,0,.24-.09.24-.22,0-.13-.09-.23-.3-.23-.06,0-.1,0-.14.01l.07-.49h.49v.12Z"/>
                    <path class="cls-36" d="M85.27,93.18s-.06,0-.1,0c-.22.04-.33.2-.36.36h0c.05-.06.13-.12.25-.12.18,0,.31.13.31.33,0,.19-.13.36-.34.36s-.36-.17-.36-.44c0-.2.07-.36.17-.46.09-.08.2-.14.33-.15.04,0,.08,0,.1,0v.11ZM85.23,93.77c0-.15-.08-.24-.21-.24-.08,0-.16.05-.2.13,0,.02-.02.04-.02.06,0,.17.08.29.23.29.12,0,.2-.1.2-.25Z"/>
                    <path class="cls-36" d="M98.09,93.08v.09l-.45.93h-.14l.44-.91h0s-.5,0-.5,0v-.12h.65Z"/>
                    <path class="cls-36" d="M110.2,93.84c0-.13.08-.22.2-.27h0c-.11-.06-.16-.15-.16-.24,0-.16.14-.27.32-.27.2,0,.3.12.3.25,0,.09-.04.18-.17.24h0c.13.05.21.14.21.27,0,.18-.15.3-.35.3-.21,0-.34-.13-.34-.28ZM110.76,93.84c0-.12-.09-.18-.23-.22-.12.03-.18.11-.18.21,0,.1.07.2.21.2s.21-.08.21-.18ZM110.37,93.32c0,.1.08.16.2.19.09-.03.16-.09.16-.19,0-.08-.05-.17-.17-.17-.12,0-.18.08-.18.16Z"/>
                    <path class="cls-36" d="M123.12,94.01s.06,0,.11,0c.08-.01.16-.04.21-.1.07-.06.12-.15.14-.27h0c-.06.07-.14.11-.24.11-.18,0-.3-.14-.3-.31,0-.19.14-.36.35-.36s.34.17.34.43c0,.23-.08.38-.18.48-.08.08-.19.12-.3.14-.05,0-.09,0-.13,0v-.11ZM123.17,93.42c0,.13.08.22.2.22.09,0,.17-.05.2-.11,0-.01.01-.03.01-.05,0-.18-.06-.31-.21-.31-.12,0-.2.1-.2.25Z"/>
                    <g>
                      <path class="cls-36" d="M135.81,93.21h0l-.18.1-.03-.11.22-.12h.12v1.03h-.13v-.9Z"/>
                      <path class="cls-36" d="M137,93.58c0,.35-.13.54-.36.54-.2,0-.34-.19-.34-.53,0-.34.15-.53.36-.53s.34.19.34.52ZM136.44,93.6c0,.27.08.42.21.42.14,0,.21-.17.21-.43s-.06-.42-.21-.42c-.12,0-.21.15-.21.43Z"/>
                    </g>
                  </g>
                  <g>
                    <g>
                      <path class="cls-36" d="M59.01,104.19h0l-.18.1-.03-.11.22-.12h.12v1.02h-.13v-.9Z"/>
                      <path class="cls-36" d="M59.82,104.19h0l-.18.1-.03-.11.22-.12h.12v1.02h-.13v-.9Z"/>
                    </g>
                    <g>
                      <path class="cls-36" d="M84.56,104.19h0l-.18.1-.03-.11.22-.12h.12v1.02h-.13v-.9Z"/>
                      <path class="cls-36" d="M85.1,104.93s.13.06.23.06c.18,0,.23-.11.23-.2,0-.14-.13-.21-.27-.21h-.08v-.1h.08c.1,0,.23-.05.23-.17,0-.08-.05-.15-.18-.15-.08,0-.16.04-.21.07l-.04-.1c.05-.04.16-.08.27-.08.2,0,.29.12.29.24,0,.11-.06.2-.19.24h0c.13.03.23.12.23.27,0,.16-.13.31-.37.31-.12,0-.22-.04-.27-.07l.04-.11Z"/>
                    </g>
                    <g>
                      <path class="cls-36" d="M97.34,104.19h0l-.18.1-.03-.11.22-.12h.12v1.02h-.13v-.9Z"/>
                      <path class="cls-36" d="M98.27,105.09v-.28h-.48v-.09l.46-.65h.15v.64h.14v.11h-.14v.28h-.13ZM98.27,104.7v-.34c0-.05,0-.11,0-.16h0c-.03.06-.06.1-.08.15l-.25.35h0s.34,0,.34,0Z"/>
                    </g>
                    <g>
                      <path class="cls-36" d="M110.15,104.19h0l-.18.1-.03-.11.22-.12h.12v1.02h-.13v-.9Z"/>
                      <path class="cls-36" d="M111.27,104.18h-.39l-.04.26s.05,0,.08,0c.08,0,.16.02.22.06.08.05.15.13.15.26,0,.2-.16.35-.38.35-.11,0-.21-.03-.26-.06l.03-.11s.13.06.22.06c.13,0,.24-.09.24-.22,0-.13-.09-.23-.3-.23-.06,0-.1,0-.14.01l.07-.49h.49v.12Z"/>
                    </g>
                    <g>
                      <path class="cls-36" d="M122.94,104.19h0l-.18.1-.03-.11.22-.12h.12v1.02h-.13v-.9Z"/>
                      <path class="cls-36" d="M123.75,104.19h0l-.18.1-.03-.11.22-.12h.12v1.02h-.13v-.9Z"/>
                    </g>
                    <g>
                      <path class="cls-36" d="M135.8,104.19h0l-.18.1-.03-.11.22-.12h.12v1.02h-.13v-.9Z"/>
                      <path class="cls-36" d="M136.9,104.16s-.06,0-.1,0c-.22.04-.33.2-.36.36h0c.05-.06.13-.12.25-.12.18,0,.31.13.31.33,0,.19-.13.36-.34.36s-.36-.17-.36-.44c0-.2.07-.36.17-.46.09-.08.2-.14.33-.15.04,0,.08,0,.1,0v.11ZM136.86,104.75c0-.15-.08-.24-.21-.24-.08,0-.16.05-.2.13,0,.02-.02.04-.02.06,0,.17.08.29.23.29.12,0,.2-.1.2-.25Z"/>
                    </g>
                    <g>
                      <path class="cls-36" d="M71.91,104.19h0l-.18.1-.03-.11.22-.12h.12v1.02h-.13v-.9Z"/>
                      <path class="cls-36" d="M72.41,105.09v-.08l.11-.11c.26-.25.38-.38.38-.54,0-.1-.05-.2-.2-.2-.09,0-.17.05-.22.09l-.04-.1c.07-.06.17-.1.29-.1.22,0,.31.15.31.3,0,.19-.14.34-.35.55l-.08.08h0s.46,0,.46,0v.11h-.65Z"/>
                    </g>
                  </g>
                  <g>
                    <g>
                      <path class="cls-36" d="M59.01,115.33h0l-.18.1-.03-.11.22-.12h.12v1.03h-.13v-.9Z"/>
                      <path class="cls-36" d="M60.19,115.2v.09l-.45.93h-.14l.44-.91h0s-.5,0-.5,0v-.12h.65Z"/>
                    </g>
                    <g>
                      <path class="cls-36" d="M84.56,115.33h0l-.18.1-.03-.11.22-.12h.12v1.03h-.13v-.9Z"/>
                      <path class="cls-36" d="M85.15,116.12s.06,0,.11,0c.08-.01.16-.04.21-.1.07-.06.12-.15.14-.27h0c-.06.07-.14.11-.24.11-.18,0-.3-.14-.3-.31,0-.19.14-.36.35-.36s.34.17.34.43c0,.23-.08.38-.18.48-.08.08-.19.12-.3.14-.05,0-.09,0-.13,0v-.11ZM85.2,115.53c0,.13.08.22.2.22.09,0,.17-.05.2-.11,0-.01.01-.03.01-.05,0-.18-.06-.31-.21-.31-.12,0-.2.1-.2.25Z"/>
                    </g>
                    <g>
                      <path class="cls-36" d="M97.04,116.22v-.09l.11-.11c.26-.25.38-.38.38-.54,0-.1-.05-.2-.2-.2-.09,0-.17.05-.22.09l-.04-.1c.07-.06.17-.1.29-.1.22,0,.31.15.31.3,0,.19-.14.34-.35.55l-.08.08h0s.46,0,.46,0v.12h-.65Z"/>
                      <path class="cls-36" d="M98.53,115.7c0,.35-.13.54-.36.54-.2,0-.34-.19-.34-.53,0-.34.15-.53.36-.53s.34.19.34.52ZM97.97,115.71c0,.27.08.42.21.42.14,0,.21-.17.21-.43s-.06-.42-.21-.42c-.12,0-.21.15-.21.43Z"/>
                    </g>
                    <g>
                      <path class="cls-36" d="M109.85,116.22v-.09l.11-.11c.26-.25.38-.38.38-.54,0-.1-.05-.2-.2-.2-.09,0-.17.05-.22.09l-.04-.1c.07-.06.17-.1.29-.1.22,0,.31.15.31.3,0,.19-.14.34-.35.55l-.08.08h0s.46,0,.46,0v.12h-.65Z"/>
                      <path class="cls-36" d="M110.96,115.33h0l-.18.1-.03-.11.22-.12h.12v1.03h-.13v-.9Z"/>
                    </g>
                    <g>
                      <path class="cls-36" d="M122.64,116.22v-.09l.11-.11c.26-.25.38-.38.38-.54,0-.1-.05-.2-.2-.2-.09,0-.17.05-.22.09l-.04-.1c.07-.06.17-.1.29-.1.22,0,.31.15.31.3,0,.19-.14.34-.35.55l-.08.08h0s.46,0,.46,0v.12h-.65Z"/>
                      <path class="cls-36" d="M123.45,116.22v-.09l.11-.11c.26-.25.38-.38.38-.54,0-.1-.05-.2-.2-.2-.09,0-.17.05-.22.09l-.04-.1c.07-.06.17-.1.29-.1.22,0,.31.15.31.3,0,.19-.14.34-.35.55l-.08.08h0s.46,0,.46,0v.12h-.65Z"/>
                    </g>
                    <g>
                      <path class="cls-36" d="M135.5,116.22v-.09l.11-.11c.26-.25.38-.38.38-.54,0-.1-.05-.2-.2-.2-.09,0-.17.05-.22.09l-.04-.1c.07-.06.17-.1.29-.1.22,0,.31.15.31.3,0,.19-.14.34-.35.55l-.08.08h0s.46,0,.46,0v.12h-.65Z"/>
                      <path class="cls-36" d="M136.34,116.06s.13.06.23.06c.18,0,.23-.11.23-.2,0-.14-.13-.2-.27-.2h-.08v-.1h.08c.1,0,.23-.05.23-.17,0-.08-.05-.15-.18-.15-.08,0-.16.04-.21.07l-.04-.1c.05-.04.16-.08.27-.08.2,0,.29.12.29.24,0,.11-.06.2-.19.24h0c.13.03.23.12.23.27,0,.16-.13.31-.37.31-.12,0-.22-.04-.27-.07l.04-.11Z"/>
                    </g>
                    <g>
                      <path class="cls-36" d="M71.91,115.33h0l-.18.1-.03-.11.22-.12h.12v1.03h-.13v-.9Z"/>
                      <path class="cls-36" d="M72.4,115.96c0-.13.08-.22.2-.27h0c-.11-.06-.16-.15-.16-.24,0-.16.14-.27.32-.27.2,0,.3.12.3.25,0,.09-.04.18-.17.24h0c.13.05.21.15.21.27,0,.18-.15.3-.35.3-.21,0-.34-.13-.34-.28ZM72.95,115.96c0-.12-.09-.18-.23-.22-.12.03-.18.11-.18.21,0,.1.07.2.21.2s.21-.08.21-.18ZM72.57,115.44c0,.1.08.16.2.19.09-.03.16-.09.16-.19,0-.08-.05-.17-.17-.17-.12,0-.18.08-.18.16Z"/>
                    </g>
                  </g>
                  <g>
                    <g>
                      <path class="cls-36" d="M58.71,127.31v-.08l.11-.11c.26-.25.38-.38.38-.54,0-.1-.05-.2-.2-.2-.09,0-.17.05-.22.09l-.04-.1c.07-.06.17-.1.29-.1.22,0,.31.15.31.3,0,.19-.14.34-.35.55l-.08.08h0s.46,0,.46,0v.11h-.65Z"/>
                      <path class="cls-36" d="M59.95,127.31v-.28h-.48v-.09l.46-.65h.15v.64h.14v.11h-.14v.28h-.13ZM59.95,126.92v-.34c0-.05,0-.11,0-.16h0c-.03.06-.06.1-.08.15l-.25.35h0s.34,0,.34,0Z"/>
                    </g>
                    <g>
                      <path class="cls-36" d="M84.26,127.31v-.08l.11-.11c.26-.25.38-.38.38-.54,0-.1-.05-.2-.2-.2-.09,0-.17.05-.22.09l-.04-.1c.07-.06.17-.1.29-.1.22,0,.31.15.31.3,0,.19-.14.34-.35.55l-.08.08h0s.46,0,.46,0v.11h-.65Z"/>
                      <path class="cls-36" d="M85.66,126.38s-.06,0-.1,0c-.22.04-.33.2-.36.36h0c.05-.06.13-.12.25-.12.18,0,.31.13.31.33,0,.19-.13.36-.34.36s-.36-.17-.36-.44c0-.2.07-.36.17-.46.09-.08.2-.14.33-.15.04,0,.08,0,.1,0v.11ZM85.62,126.97c0-.15-.08-.24-.21-.24-.08,0-.16.05-.2.13,0,.02-.02.04-.02.06,0,.17.08.29.23.29.12,0,.2-.1.2-.25Z"/>
                    </g>
                    <g>
                      <path class="cls-36" d="M97.04,127.31v-.08l.11-.11c.26-.25.38-.38.38-.54,0-.1-.05-.2-.2-.2-.09,0-.17.05-.22.09l-.04-.1c.07-.06.17-.1.29-.1.22,0,.31.15.31.3,0,.19-.14.34-.35.55l-.08.08h0s.46,0,.46,0v.11h-.65Z"/>
                      <path class="cls-36" d="M98.51,126.28v.09l-.45.93h-.14l.44-.91h0s-.5,0-.5,0v-.11h.65Z"/>
                    </g>
                    <g>
                      <path class="cls-36" d="M71.61,127.31v-.08l.11-.11c.26-.25.38-.38.38-.54,0-.1-.05-.2-.2-.2-.09,0-.17.05-.22.09l-.04-.1c.07-.06.17-.1.29-.1.22,0,.31.15.31.3,0,.19-.14.34-.35.55l-.08.08h0s.46,0,.46,0v.11h-.65Z"/>
                      <path class="cls-36" d="M73.03,126.4h-.39l-.04.26s.05,0,.08,0c.08,0,.16.02.22.06.08.05.15.13.15.26,0,.2-.16.35-.38.35-.11,0-.21-.03-.26-.06l.03-.11s.13.06.22.06c.13,0,.24-.09.24-.22,0-.13-.09-.23-.3-.23-.06,0-.1,0-.14.01l.07-.49h.49v.12Z"/>
                    </g>
                  </g>
                  <g>
                    <path class="cls-36" d="M110.54,82.07h0l-.18.1-.03-.11.22-.12h.12v1.03h-.13v-.9Z"/>
                    <path class="cls-36" d="M123.04,82.97v-.09l.11-.11c.26-.25.38-.38.38-.54,0-.1-.05-.2-.2-.2-.09,0-.17.05-.22.09l-.04-.1c.07-.06.17-.1.29-.1.22,0,.31.15.31.3,0,.19-.14.34-.35.55l-.08.08h0s.46,0,.46,0v.12h-.65Z"/>
                    <path class="cls-36" d="M135.94,82.81s.13.06.23.06c.18,0,.23-.11.23-.2,0-.14-.13-.2-.27-.2h-.08v-.1h.08c.1,0,.23-.05.23-.17,0-.08-.05-.15-.18-.15-.08,0-.16.04-.21.07l-.04-.1c.05-.04.16-.08.27-.08.2,0,.29.12.29.24,0,.11-.06.2-.19.24h0c.13.03.23.12.23.27,0,.16-.13.31-.37.31-.12,0-.22-.04-.27-.07l.04-.11Z"/>
                  </g>
                </g>
                <g>
                  <path class="cls-36" d="M109.82,127.31v-.08l.11-.11c.26-.25.38-.38.38-.53,0-.1-.05-.2-.2-.2-.09,0-.17.05-.22.09l-.04-.1c.07-.06.17-.1.29-.1.22,0,.31.15.31.3,0,.19-.14.34-.35.55l-.08.08h0s.46,0,.46,0v.11h-.65Z"/>
                  <path class="cls-36" d="M110.62,127.05c0-.13.08-.22.2-.27h0c-.11-.06-.16-.15-.16-.23,0-.16.14-.27.32-.27.2,0,.3.12.3.25,0,.09-.04.18-.17.24h0c.13.06.21.14.21.27,0,.18-.15.3-.35.3-.21,0-.34-.13-.34-.28ZM111.17,127.04c0-.12-.09-.18-.22-.22-.12.03-.18.11-.18.21,0,.1.07.19.2.19s.2-.08.2-.18ZM110.79,126.53c0,.1.08.16.19.19.09-.03.16-.09.16-.19,0-.08-.05-.17-.17-.17-.11,0-.18.08-.18.16Z"/>
                </g>
                <g>
                  <path class="cls-36" d="M122.63,127.31v-.08l.11-.11c.26-.25.38-.38.38-.53,0-.1-.05-.2-.2-.2-.09,0-.17.05-.22.09l-.04-.1c.07-.06.17-.1.29-.1.22,0,.31.15.31.3,0,.19-.14.34-.35.55l-.08.08h0s.46,0,.46,0v.11h-.65Z"/>
                  <path class="cls-36" d="M123.52,127.21s.06,0,.11,0c.08-.01.16-.04.21-.1.07-.06.12-.15.14-.27h0c-.06.07-.14.11-.24.11-.18,0-.3-.14-.3-.31,0-.19.14-.36.35-.36s.34.17.34.43c0,.22-.08.38-.18.48-.08.08-.19.12-.3.14-.05,0-.09,0-.13,0v-.11ZM123.57,126.62c0,.13.08.22.2.22.09,0,.17-.05.2-.11,0-.01.01-.03.01-.05,0-.17-.06-.31-.21-.31-.12,0-.2.1-.2.25Z"/>
                </g>
                <g>
                  <path class="cls-36" d="M135.5,127.15s.13.06.23.06c.18,0,.23-.11.23-.2,0-.14-.13-.2-.26-.2h-.08v-.1h.08c.1,0,.23-.05.23-.17,0-.08-.05-.15-.18-.15-.08,0-.16.04-.2.07l-.04-.1c.05-.04.16-.08.27-.08.2,0,.29.12.29.24,0,.1-.06.19-.19.24h0c.13.03.23.12.23.27,0,.16-.13.31-.37.31-.11,0-.22-.04-.27-.07l.04-.11Z"/>
                  <path class="cls-36" d="M136.95,126.78c0,.35-.13.54-.36.54-.2,0-.33-.19-.34-.52,0-.34.15-.53.36-.53s.34.19.34.52ZM136.4,126.8c0,.27.08.42.21.42.14,0,.21-.16.21-.43s-.06-.42-.21-.42c-.12,0-.21.15-.21.43Z"/>
                </g>
              </g>
              <g>
                <g>
                  <g>
                    <rect class="cls-13" x="47.82" y="103.52" width="89.5" height=".1"/>
                    <rect class="cls-13" x="47.82" y="92.44" width="89.5" height=".1"/>
                    <rect class="cls-13" x="47.82" y="114.6" width="89.5" height=".1"/>
                    <rect class="cls-13" x="47.82" y="125.68" width="89.5" height=".1"/>
                  </g>
                  <rect class="cls-13" x="60.55" y="81.4" width=".1" height="55.41"/>
                  <rect class="cls-13" x="73.34" y="81.4" width=".1" height="55.41"/>
                  <rect class="cls-13" x="86.12" y="81.4" width=".1" height="55.41"/>
                  <rect class="cls-13" x="98.91" y="81.4" width=".1" height="55.41"/>
                  <rect class="cls-13" x="111.69" y="81.4" width=".1" height="55.41"/>
                  <rect class="cls-13" x="124.48" y="81.4" width=".1" height="55.41"/>
                </g>
                <g>
                  <rect class="cls-13" x="47.86" y="75.1" width="89.5" height="6.31"/>
                  <g>
                    <g>
                      <rect class="cls-15" x="53.57" y="77.32" width="19.27" height=".57"/>
                      <rect class="cls-15" x="53.57" y="78.54" width="15.51" height=".57"/>
                    </g>
                    <g>
                      <path class="cls-15" d="M51.56,79.63h-1.98c-.23,0-.42-.19-.42-.42v-1.98c0-.23.19-.42.42-.42h1.98c.23,0,.42.19.42.42v1.98c0,.23-.19.42-.42.42ZM49.58,76.9c-.18,0-.32.14-.32.32v1.98c0,.18.14.32.32.32h1.98c.18,0,.32-.14.32-.32v-1.98c0-.18-.14-.32-.32-.32h-1.98Z"/>
                      <g>
                        <rect class="cls-33" x="49.66" y="77.41" width="1.81" height=".18"/>
                        <rect class="cls-33" x="49.66" y="77.89" width="1.81" height=".18"/>
                        <rect class="cls-33" x="49.66" y="78.36" width="1.81" height=".18"/>
                        <rect class="cls-33" x="49.66" y="78.83" width="1.81" height=".18"/>
                      </g>
                    </g>
                    <g>
                      <rect class="cls-3" x="117.65" y="76.84" width="16.96" height="2.38" rx=".94" ry=".94"/>
                      <g>
                        <path class="cls-1" d="M132.63,78.48c-.14,0-.28-.05-.38-.16-.21-.21-.21-.56,0-.77.21-.21.56-.21.77,0,.21.21.21.56,0,.77-.11.11-.24.16-.38.16ZM132.63,77.53c-.1,0-.21.04-.28.12-.16.16-.16.41,0,.57.15.15.42.15.57,0,.08-.08.12-.18.12-.29s-.04-.21-.12-.29c-.08-.08-.18-.12-.29-.12Z"/>
                        <polygon class="cls-1" points="133.24 78.64 132.92 78.32 133.02 78.22 133.34 78.55 133.24 78.64"/>
                      </g>
                    </g>
                  </g>
                </g>
              </g>
              <path class="cls-20" d="M111.93,97.97c-.23,0-.49-.02-.77-.07-.65-.11-1.28-.3-1.87-.58-.61-.28-1.07-.61-1.39-.99-.41-.48-.61-1.07-.55-1.62.07-.63.52-1.16,1.08-1.3l.05.2c-.47.11-.86.59-.93,1.12-.06.49.12,1.02.5,1.46.31.36.74.66,1.32.94.58.27,1.19.46,1.82.57.6.1,1.06.09,1.46-.03.49-.15.92-.49,1.27-.8.46-.39.81-.74,1.06-1.17.29-.49.37-1.03.22-1.47-.14-.41-.46-.78-1.03-1.14-1.26-.81-2.83-1.18-4.32-1.01l-.02-.2c1.56-.18,3.14.19,4.45,1.04.61.39.96.79,1.12,1.25.16.5.08,1.1-.24,1.64-.26.45-.63.82-1.11,1.22-.37.32-.82.67-1.35.84-.24.07-.49.11-.78.11Z"/>
            </g>
          </g>
          <path class="cls-7" d="M106.83,91.41l.34.02s-.01-.02-.01-.02l-.36-.1v.04s.03.06.03.06Z"/>
          <path class="cls-7" d="M105.63,71.73h-3.85l1.72,1.8c.66-.52,1.42-1.17,2.12-1.8Z"/>
          <path class="cls-32" d="M103.51,73.53l-1.72-1.8h-19.63l-.17.4,8.74.84.11-.03,1.66.14,1,1.44,2.78,4.53c.02.1.04.2.09.3.97,2.2,2.41,6.51,2.41,6.51.06.11.12.2.2.29.07.1.16.2.27.3,1.25,1.16,4.92,4.14,4.92,4.14l.08-.14.67.63.17.22-.72-.05s-.06.03-.07.04c-.05.09-.05.28,0,.37,0,0,.05.04.05.04l1.11.07.41.49.94.18.51-.23s.51-.09.53-.13c.03-.05-.09-.16-.09-.16l-.67-.03v-.02s1.08.07,1.08.07h0s.62-.09.62-.09c0,0,0,0,0-.01.04,0,.17,0,.17-.03,0-.04-.13-.06-.17-.07,0,0,0,0,0,0l-.61-.24-.6-.04c-.09-.19-.26-.41-.26-.41l-.52-.38-.27-.07-.38-.1-.44-.09-.91-.97.11-.19s-2.55-2.92-3.96-4.17c-.02-.09-.05-.19-.08-.3-.52-1.65-.8-3.53-1.43-5.33l2.18-1.38s0-.02,0-.06l1.09.7c-.28.94.33,2.06,1.46,2.57.12.06,1.24.76,1.94,1.1.26.13.49.18.69.2.04.11.09.23.18.36.45.67.99.7,1.29.6.15-.05.51-.31.71-1.26.2-.96.62-.72.7-1.32.12-.96-.54-2.29-1.44-2.79-.68-.38-1.69-.49-2.15-.53l-.86-.2c-.16-.04-.32-.02-.47.04-.22-.01-.43,0-.63.04l-.93-.59c.09.02.16.04.16.04l1.84-1.17s0,0,0,0c.1-.06.2-.13.31-.21,1.63-1.31,2.34-2.56,3.61-3.87h-3.52c-.7.63-1.46,1.28-2.12,1.8ZM107.15,91.41s0,0,.01.02l-.34-.02-.02-.06v-.04s.34.1.34.1Z"/>
          <polygon class="cls-4" points="118.06 71.98 118.99 72.17 118.91 71.9 118.61 71.77 118.56 71.73 117.39 71.73 118.06 71.98"/>
          <g>
            <g>
              <g>
                <rect class="cls-23" x="104.01" y="75.73" width="1.82" height="2.91" transform="translate(-20.33 112.94) rotate(-52.28)"/>
                <path class="cls-23" d="M106.06,81c-1.13-.63-1.61-1.92-1.07-2.89.54-.96,1.89-1.24,3.02-.61.16.09,2.27,1.15,2.4,1.26l.19,1.08-.41,1.65-.97.97s-.66.19-1.36-.24c-.65-.39-1.69-1.17-1.8-1.24Z"/>
              </g>
              <path class="cls-19" d="M108.67,82.86c.38.71.9.77,1.21.68.16-.05.54-.28.83-1.23.29-.96.68-.68.82-1.29.22-.96-.3-2.35-1.13-2.91-.63-.43-1.62-.6-2.06-.67l-.83-.25c-.3-.09-.62.01-.81.26l-.53.69c-.17.22-.33.56-.32.84v.16c.02.34.23.65.54.79l.77.41.45.34-.07.23-.5-.22-.05.26c.16.07.39.37.71.54.05.03.05.2.1.23.27.14.55.27.74.36-.06.21-.05.44.14.79Z"/>
            </g>
            <path class="cls-20" d="M85.68,69.34l1.1-.7c1.6-.88,2.91-1.65,4.48-1.96l2.41-.47c2.17-.43,4.42-.07,6.34,1.01l1.16.65c1.07.6,2.01,1.41,2.77,2.38l3.79,4.84c.11.14.07.35-.09.44l-1.93,1.06s-.31-.1-.42-.09c-.37.05-1.12.38-1.34.69-.06.08-.07.41-.07.41l-3.21,1.77c-.7.38-1.57.1-1.91-.61l-2.51-5.27-.84-1.52-1.62-.24-.11.03-8.52-1.39.53-1.01Z"/>
            <g>
              <polygon class="cls-23" points="117.84 71.54 119.67 71.88 120.03 72.14 120.68 72.45 121.58 72.69 121.53 72.41 121.25 72.27 121.09 72.1 121.13 71.99 121.82 71.76 122.77 71.74 122.99 71.54 121.26 71.15 120.69 71.13 119.59 71.02 118.05 70.66 117.84 71.54"/>
              <g>
                <path class="cls-20" d="M112.65,69.65l.06.09c.32.58.12,1.13-.54,1.7-1.53,1.32-2.34,2.6-4.18,3.88-.96.67-1.53.25-1.99-.18l-.09-.08c-.54-.64-.33-1.53.27-1.93,1.98-1.35,4.85-3.77,4.85-3.77.48-.37,1.32-.28,1.63.3Z"/>
                <path class="cls-20" d="M118.86,70.72l-.7,1.27s-4.47-.26-6.24-.62c-.9-.19-1.39-.43-1.35-1.08h0c.04-.65.47-1.3,1.56-1.12,1.65.27,6.74,1.55,6.74,1.55Z"/>
              </g>
            </g>
            <g>
              <g>
                <path class="cls-23" d="M107.44,90.55l-.36-.12-.43-.12-.95-1.22-.88.73.97,1.1.37.61.45.66.9.24.53-.2s.51-.06.54-.1c.03-.05-.07-.17-.07-.17l-.66-.07-.19-.39-.02-.12v-.07s-.2-.77-.2-.77Z"/>
                <g>
                  <path class="cls-19" d="M108.96,91.56l-3.74-.49s-.06.03-.07.04c-.06.09-.08.28-.03.38,0,0,.05.04.05.04l3.74.49.06-.46Z"/>
                  <g>
                    <path class="cls-20" d="M109.52,91.85s-.02.05-.01.1c0,0,.18.03.19-.02,0-.05-.17-.09-.17-.09Z"/>
                    <g>
                      <path class="cls-1" d="M109.54,91.84l-.57-.28-.06.46.62-.06c0-.06,0-.1.02-.12Z"/>
                      <path class="cls-1" d="M108.9,92.02s-.06-.11-.04-.24c.02-.13.06-.23.1-.22.04,0,.06.11.04.24-.02.13-.06.23-.1.22Z"/>
                    </g>
                  </g>
                </g>
                <path class="cls-23" d="M107.95,91.41s.1.17.15.22c.02.02.08.06.11.08.04.02.17.05.19.01.09-.16-.23-.67-.23-.67l-.47-.42-.26-.08.08.7.44.16Z"/>
              </g>
              <g>
                <path class="cls-20" d="M101.74,86.03l.1-.04c.6-.26.79-.81.62-1.67-.4-1.98-.45-4.26-1.11-6.4-.34-1.11-1.05-1.14-1.68-1.09h-.12c-.82.19-1.2,1.02-.98,1.7.73,2.29,1.7,6.73,1.7,6.73.26.66.87,1.03,1.47.77Z"/>
                <path class="cls-20" d="M105.09,90.38l.88-1.3s-2.29-3.23-3.54-4.53c-.64-.66-1.1-.95-1.64-.57h0c-.53.38-.85,1.09-.12,1.91,1.11,1.25,4.42,4.49,4.42,4.49Z"/>
              </g>
            </g>
          </g>
          <g>
            <path class="cls-34" d="M84.83,97.6c0-1.18,0-5.11,0-5.11h-10.55s-.22,4.28-.22,5.57-.36,5.28-.36,5.28c0,0,4.94.18,6.57,0,2.3-.25,3.68-.28,4.33-.41,0,0,.24-3.91.24-5.33Z"/>
            <g>
              <path class="cls-30" d="M84.91,102.13c-.65.13-2.02.16-4.33.41-1.63.18-6.57,0-6.57,0,0,0-.29-3.84-.29-5.12s.29-5.12.29-5.12h10.84s-.34,3.5-.34,4.67c0,1.4.4,5.17.4,5.17Z"/>
              <g>
                <g>
                  <g>
                    <path class="cls-6" d="M75.71,94.39l-.02-.2c.33-.04.66-.05.98-.06l2.88-.11v.2s-2.86.11-2.86.11c-.33.01-.66.02-.98.06Z"/>
                    <path class="cls-6" d="M75.74,94.81l-.04-.2c.26-.05.52-.08.77-.1.4-.03.8-.03,1.19-.03h.03s0,.21,0,.21h-.03c-.39,0-.79,0-1.18.03-.25.02-.5.05-.75.1Z"/>
                  </g>
                  <path class="cls-6" d="M74.96,94.81h0s-.06-.02-.08-.03l-.1-.06c-.06-.04-.18-.11-.18-.23,0-.07.04-.13.08-.19.06-.08.13-.16.23-.15.05,0,.09.03.13.06.13.09.2.19.2.29,0,.08-.03.15-.09.19-.03.02-.06.04-.1.04,0,.04-.05.08-.09.08ZM74.95,94.72s0,0,0,0h.01s0,0-.01,0ZM74.89,94.25c-.05,0-.1.05-.14.11-.03.04-.06.08-.06.12,0,.06.07.11.13.15l.1.06s0,0,.01,0l.04-.08s.07.01.1-.01c.03-.02.05-.07.05-.11,0-.07-.06-.14-.16-.21-.02-.02-.05-.04-.08-.04h0Z"/>
                </g>
                <g>
                  <g>
                    <path class="cls-6" d="M75.39,96.36l-.03-.2c.33-.05.66-.07.98-.09l2.88-.17v.2s-2.85.17-2.85.17c-.33.02-.66.04-.97.08Z"/>
                    <path class="cls-6" d="M75.43,96.78l-.04-.2c.25-.05.51-.09.77-.12.4-.04.81-.05,1.21-.05l.02.2c-.41,0-.81.01-1.2.05-.25.02-.5.06-.75.11Z"/>
                  </g>
                  <path class="cls-6" d="M74.77,96.89h0s-.06-.02-.08-.03l-.1-.06c-.09-.05-.18-.12-.18-.23,0-.08.05-.14.08-.19.04-.05.11-.15.22-.15,0,0,0,0,.01,0,.05,0,.09.03.13.06.13.09.2.19.2.29,0,.08-.03.15-.09.19-.03.02-.06.04-.1.04,0,.04-.05.08-.09.08ZM74.76,96.8s0,0,0,0h.01s0,0-.01,0ZM74.7,96.33c-.05,0-.1.05-.14.11-.03.04-.06.08-.06.12,0,.06.07.11.13.15l.1.06s0,0,.01,0l.04-.08s.07.01.1-.01c.03-.02.05-.07.05-.11,0-.07-.06-.14-.16-.21-.03-.02-.05-.04-.08-.04h0Z"/>
                </g>
                <g>
                  <g>
                    <path class="cls-6" d="M75.37,98.36l-.03-.2c.33-.05.67-.07.99-.09l2.86-.18v.2s-2.85.18-2.85.18c-.32.02-.65.04-.97.09Z"/>
                    <path class="cls-6" d="M75.41,98.78l-.04-.2c.25-.05.51-.09.77-.12.41-.04.82-.05,1.22-.06v.2c-.39,0-.8.02-1.2.06-.25.03-.5.07-.75.12Z"/>
                  </g>
                  <path class="cls-6" d="M74.82,98.87h0s-.06-.02-.08-.03l-.1-.06c-.09-.05-.18-.12-.18-.23,0-.08.05-.14.08-.19.04-.05.11-.15.22-.15,0,0,0,0,.01,0,.05,0,.1.03.13.06.13.09.2.19.2.29,0,.08-.03.15-.09.19-.03.02-.06.04-.1.04,0,.04-.05.08-.09.08ZM74.81,98.78s0,0,0,0h0s0,0,0,0ZM74.75,98.31c-.05,0-.1.05-.14.11-.03.04-.06.08-.06.12,0,.06.07.11.13.15l.1.06s0,0,.01,0l.04-.08s.07.01.1-.01c.03-.02.05-.07.05-.11,0-.07-.06-.14-.16-.21-.03-.02-.05-.04-.08-.04h0Z"/>
                </g>
                <g>
                  <g>
                    <path class="cls-6" d="M76.12,100.61c-.17,0-.33-.01-.5-.05l.04-.2c.31.07.67.04,1.01.01.17-.01.34-.03.5-.03.35,0,.7-.04,1.04-.07.37-.04.75-.07,1.13-.07v.2s0,0,0,0h0c-.37,0-.75.04-1.12.07-.34.03-.7.07-1.06.07-.15,0-.32.02-.48.03-.19.02-.39.03-.58.03Z"/>
                    <path class="cls-6" d="M75.65,101.04v-.2c.31-.01.61-.02.89-.02.53,0,1.02-.02,1.55-.09l.03.2c-.54.07-1.04.08-1.58.09-.28,0-.57.01-.89.02Z"/>
                  </g>
                  <path class="cls-6" d="M75.04,101.16h0s-.06-.02-.08-.03l-.1-.06c-.06-.04-.18-.11-.18-.23,0-.08.05-.14.08-.19.04-.05.11-.16.23-.15.05,0,.1.03.13.06.13.09.2.19.2.29,0,.08-.03.15-.09.19-.03.02-.06.04-.1.04,0,.04-.05.08-.09.08ZM75.03,101.07s0,0,0,0h0s0,0,0,0ZM74.97,100.6c-.05,0-.1.05-.14.11-.03.04-.06.08-.06.12,0,.06.06.11.13.15l.1.06s0,0,.01,0l.04-.08s.07.01.1-.01c.03-.02.05-.07.05-.11,0-.07-.06-.14-.16-.21-.03-.02-.05-.04-.08-.04h0Z"/>
                </g>
              </g>
            </g>
          </g>
          <g>
            <polygon class="cls-34" points="86.72 104.01 86.57 114.51 97.55 114.86 97.45 104.01 86.72 104.01"/>
            <g>
              <path class="cls-1" d="M97.85,113.89c-.65.13-2.25.11-4.55.36-1.63.18-5.95-.26-5.95-.26,0,0-.63-3.62-.63-4.9s0-5.08,0-5.08h10.84s-.34,3.5-.34,4.67c0,1.4.63,5.21.63,5.21Z"/>
              <g>
                <g>
                  <path class="cls-6" d="M88.42,106.83c-.18,0-.35-.01-.51-.03h-.04s0-.04,0-.04c-.03-.18-.09-.98-.09-1.02v-.05s.05,0,.05,0c.04,0,.35-.04.47-.02.15.02.24.03.4,0,.02,0,.04,0,.06-.02.11-.03.26-.07.36-.02h.03s0,.04,0,.04c.02.1.02.16.02.22,0,.03,0,.07,0,.11,0,.05,0,.11-.01.16v.03c-.03.16-.02.33,0,.49v.04s-.03.01-.03.01c-.22.08-.46.1-.69.1ZM87.96,106.71c.35.03.74.05,1.09-.06-.01-.16-.02-.32,0-.48v-.04s.02-.09.02-.13c0-.04,0-.08,0-.11,0-.05,0-.1-.01-.18-.07-.02-.18.01-.27.04-.02,0-.04.01-.06.02-.18.04-.29.04-.44,0-.07-.01-.28,0-.39.02.01.17.05.72.08.92Z"/>
                  <g>
                    <path class="cls-6" d="M90.36,106.01c-.18,0-.36-.01-.54-.05l.02-.1c.32.08.68.05,1.03.03.17-.01.33-.02.49-.02.35,0,.71-.03,1.05-.06.37-.03.75-.06,1.13-.06v.1s-.05,0-.05,0c-.36,0-.72.03-1.08.06-.34.03-.7.06-1.06.06-.16,0-.32.01-.48.02-.17.01-.35.02-.52.02Z"/>
                    <path class="cls-6" d="M89.83,106.43v-.1c.32-.01.61-.01.89-.01.53,0,1.03,0,1.56-.07v.1c-.53.06-1.03.07-1.56.07-.28,0-.58,0-.89.01Z"/>
                  </g>
                </g>
                <g>
                  <path class="cls-6" d="M88.28,108.84c-.1,0-.21,0-.31-.01h-.04s0-.04,0-.04c-.04-.17-.06-.36-.07-.59,0-.13,0-.35,0-.36v-.05s.05,0,.05,0c0,0,.47.01.63,0,.02,0,.11-.02.2-.03.19-.03.34-.05.39-.05h.04v.04s.01.07.02.11c0,.04,0,.09.02.13.02.06.02.13.02.19v.04c0,.17.03.33.06.5v.07s-.06-.01-.06-.01c-.1-.02-.2-.03-.3-.02-.04,0-.09.02-.13.03-.02,0-.04.01-.06.02-.15.04-.3.05-.44.05ZM88.01,108.73c.23.01.46.02.68-.04.02,0,.04-.01.06-.02.05-.01.1-.03.15-.03.09-.01.18,0,.26,0-.03-.14-.05-.29-.05-.44v-.04c0-.06,0-.11-.01-.17-.01-.05-.02-.1-.02-.14,0-.02,0-.03,0-.05-.08,0-.22.03-.33.05-.11.02-.18.03-.21.03-.14,0-.47,0-.59,0,0,.08,0,.22,0,.3,0,.21.03.38.06.54Z"/>
                  <g>
                    <path class="cls-6" d="M90.43,108.05c-.18,0-.36-.01-.54-.05l.02-.1c.32.08.68.05,1.03.03.17-.01.33-.02.49-.02.35,0,.71-.03,1.05-.06.37-.03.75-.06,1.13-.06v.1s-.05,0-.05,0c-.36,0-.72.03-1.08.06-.34.03-.7.06-1.06.06-.16,0-.32.01-.48.02-.17.01-.35.02-.52.02Z"/>
                    <path class="cls-6" d="M89.9,108.48v-.1c.32-.01.61-.01.89-.01.53,0,1.03,0,1.56-.07v.1c-.53.06-1.03.07-1.56.07-.28,0-.58,0-.89.01Z"/>
                  </g>
                </g>
                <g>
                  <path class="cls-6" d="M88.56,111.24s-.07-.01-.09-.02h-.02s0-.03,0-.03c0-.01-.03-.06-.03-.1h0c0-.14,0-.85,0-.88v-.05s.05,0,.05,0c0,0,.36,0,.44,0,.13,0,.26-.03.38-.04l.38-.05v.07c.02.08.03.19.02.27-.02.16-.01.3,0,.44,0,.09,0,.19,0,.3v.05s-.05,0-.05,0c-.17.01-.36.02-.54.03-.18,0-.35.02-.52.03h0ZM88.52,111.13s.03,0,.03,0c.17-.01.35-.02.52-.03.17,0,.33-.01.49-.02,0-.09,0-.16,0-.24,0-.14-.01-.28,0-.45,0-.06,0-.14,0-.21l-.28.04c-.13.02-.26.03-.39.04-.06,0-.29,0-.39,0,0,.17,0,.71,0,.83h0s0,.02.01.04Z"/>
                  <g>
                    <path class="cls-6" d="M90.89,110.46c-.18,0-.36-.01-.54-.05l.02-.1c.32.08.68.05,1.03.03.17-.01.33-.02.49-.02.35,0,.71-.03,1.05-.06.37-.03.75-.06,1.13-.06v.1s-.05,0-.05,0c-.36,0-.72.03-1.08.06-.34.03-.7.06-1.06.06-.16,0-.32.01-.48.02-.17.01-.35.02-.52.02Z"/>
                    <path class="cls-6" d="M90.36,110.89v-.1c.32-.01.61-.01.9-.01.53,0,1.03,0,1.56-.07v.1c-.53.06-1.03.06-1.56.07-.28,0-.58,0-.9.01Z"/>
                  </g>
                </g>
              </g>
            </g>
          </g>
          <g>
            <polygon class="cls-34" points="100.02 103.96 100.02 114.05 106.89 114.25 110.67 114.25 110.43 107.67 110.43 104.14 100.02 103.96"/>
            <g>
              <path class="cls-20" d="M111.14,113.84c-.65.13-2.25.11-4.55.36-1.63.18-5.95-.26-5.95-.26,0,0-.63-3.62-.63-4.9s0-5.08,0-5.08h10.84s-.34,3.5-.34,4.67c0,1.4.63,5.21.63,5.21Z"/>
              <g>
                <g>
                  <path class="cls-6" d="M102.08,112.25c-.11,0-.21,0-.31-.01h-.04s0-.04,0-.04c-.03-.17-.06-.36-.06-.59,0-.13,0-.35,0-.36v-.05s.05,0,.05,0c0,0,.46.01.63,0,.02,0,.11-.02.2-.03.19-.03.33-.05.38-.05h.04v.04s.01.07.02.11c0,.04,0,.09.02.13.02.06.01.13.01.19v.04c0,.16.03.33.06.49v.07s-.06,0-.06,0c-.1-.02-.21-.03-.3-.02-.04,0-.09.02-.14.03-.02,0-.04.01-.06.02-.15.04-.3.05-.45.05ZM101.82,112.14c.23.01.46.02.68-.04.02,0,.04-.01.06-.02.05-.01.1-.03.15-.03.09-.01.18,0,.26,0-.03-.15-.05-.29-.05-.44v-.04c0-.06,0-.11-.01-.17-.01-.05-.01-.1-.02-.15,0-.02,0-.03,0-.05-.07,0-.21.03-.32.05-.12.02-.19.03-.21.03-.14.01-.47,0-.59,0,0,.08,0,.22,0,.3,0,.21.03.38.06.54Z"/>
                  <g>
                    <path class="cls-6" d="M104.3,111.41c-.18,0-.36-.01-.54-.05l.02-.1c.32.08.68.05,1.03.03.17-.01.33-.02.49-.02.35,0,.71-.03,1.05-.06.37-.03.74-.06,1.13-.06v.1s-.05,0-.05,0c-.36,0-.72.03-1.08.06-.34.03-.7.06-1.06.06-.16,0-.32.01-.49.02-.17.01-.35.02-.52.02Z"/>
                    <path class="cls-6" d="M103.77,111.84v-.1c.32-.01.61-.01.9-.01.53,0,1.03,0,1.56-.07v.1c-.53.06-1.03.06-1.56.07-.28,0-.58,0-.9.01Z"/>
                  </g>
                </g>
                <g>
                  <path class="cls-6" d="M102.03,110.21c-.18,0-.35-.01-.51-.03h-.04s0-.04,0-.04c-.03-.18-.09-.98-.09-1.02v-.05s.04,0,.04,0c.04,0,.35-.04.47-.02.15.02.24.03.4,0,.02,0,.04,0,.06-.02.11-.03.26-.07.36-.02h.03s0,.04,0,.04c.02.1.02.16.02.22,0,.03,0,.07,0,.11,0,.05,0,.11-.01.16v.04c-.03.16-.02.33,0,.49v.04s-.03.01-.03.01c-.22.08-.46.1-.69.1ZM101.57,110.09c.35.03.74.05,1.09-.06-.01-.16-.02-.32,0-.48v-.04s.02-.09.02-.13c0-.04,0-.08,0-.11,0-.05,0-.1-.01-.18-.07-.02-.18.01-.27.04-.02,0-.04.01-.06.02-.18.04-.29.04-.44,0-.07-.01-.28,0-.39.02.01.17.05.72.08.92Z"/>
                  <g>
                    <path class="cls-6" d="M103.43,109.28v-.1c.31-.05.65-.07.97-.09l2.87-.18v.1s-2.86.18-2.86.18c-.32.02-.66.04-.98.09Z"/>
                    <path class="cls-6" d="M103.47,109.71l-.02-.1c.25-.05.51-.09.77-.12.41-.04.82-.05,1.22-.06v.1c-.39,0-.8.02-1.21.06-.25.03-.51.07-.75.12Z"/>
                  </g>
                </g>
                <g>
                  <path class="cls-6" d="M101.46,106.36s-.07-.01-.09-.02h-.02s0-.03,0-.03c0-.01-.03-.06-.03-.1,0-.14,0-.85,0-.88v-.05h.05s.36,0,.44,0c.13,0,.26-.03.38-.04l.38-.05v.07c.02.08.03.19.02.27-.02.16-.01.3,0,.44,0,.09,0,.19,0,.3v.05s-.05,0-.05,0c-.17.01-.35.02-.53.03-.18,0-.36.02-.53.03h0ZM101.42,106.26s.03,0,.03,0c.17-.01.35-.02.53-.03.16,0,.33-.01.48-.02,0-.08,0-.16,0-.24,0-.14-.01-.28,0-.45,0-.06,0-.14,0-.21l-.28.04c-.13.02-.26.03-.39.04-.06,0-.29,0-.39,0,0,.17,0,.71,0,.83h0s0,.02.01.04Z"/>
                  <g>
                    <path class="cls-6" d="M103.29,105.59v-.1c.32-.05.65-.07.97-.09l2.86-.18v.1s-2.86.18-2.86.18c-.32.02-.65.04-.98.09Z"/>
                    <path class="cls-6" d="M103.33,106.02l-.02-.1c.25-.05.51-.09.76-.12.41-.04.82-.05,1.22-.06v.1c-.39,0-.8.02-1.21.06-.25.03-.51.07-.75.12Z"/>
                  </g>
                </g>
                <g>
                  <g>
                    <path class="cls-6" d="M103.34,107.44v-.1c.32-.05.65-.07.97-.09l2.86-.18v.1s-2.86.18-2.86.18c-.32.02-.65.04-.98.09Z"/>
                    <path class="cls-6" d="M103.38,107.86l-.02-.1c.25-.05.51-.09.77-.12.41-.04.82-.05,1.22-.06v.1c-.39,0-.8.02-1.21.06-.25.03-.51.07-.75.12Z"/>
                  </g>
                  <g>
                    <path class="cls-6" d="M101.31,108.28v-.05c-.01-.06-.01-.38,0-.64v-.06c0-.14.02-.31.02-.32v-.04s.05,0,.05,0c0,0,.78-.06,1.12-.11h.05s0,.05,0,.05c.03.27.04.75.03,1.03v.05s-.05,0-.05,0c-.39.03-.78.05-1.17.08h-.05ZM101.42,107.27c0,.06-.01.17-.01.26v.06c0,.12,0,.45,0,.58.36-.02.71-.05,1.07-.07,0-.26,0-.66-.03-.92-.31.04-.87.08-1.03.1Z"/>
                    <path class="cls-6" d="M101.9,107.98l-.05-.06c-.11-.14-.23-.26-.36-.38-.02-.02-.02-.05,0-.07.02-.02.05-.02.07,0,.12.1.23.21.33.33.06-.1.13-.19.19-.28.07-.09.13-.18.19-.27.03-.06.06-.11.09-.17.03-.06.06-.13.1-.19.02-.02.05-.03.07-.02.02.01.03.05.02.07-.04.06-.07.12-.1.18-.03.06-.06.12-.09.18-.06.1-.13.19-.2.28-.08.11-.16.22-.22.33l-.04.07Z"/>
                  </g>
                </g>
              </g>
            </g>
          </g>
          <g>
            <g>
              <g>
                <path class="cls-19" d="M72.75,142.45h-.05v.27h-1.28l.03-.35h.04s0,0,0,0v-1.29h1.32l.03.17.61.45,1.93.55s.15.07.15.15v.15s0,.09,0,.09c0,0-.02.04-.18.09h-2.21l-.13-.18-.13-.08h-.11Z"/>
                <path class="cls-19" d="M60.45,142.45h-.05v.27h-1.28l.03-.35h.04s0,0,0,0l.29-1.29h1.32l.03.17.32.45,1.93.55s.15.07.15.15v.15s0,.09,0,.09c0,0-.02.04-.18.09h-2.21l-.13-.18-.13-.08h-.11Z"/>
              </g>
              <polygon class="cls-13" points="58.74 109.09 67.75 109.64 67.73 111.03 67.78 113.26 70.72 127.77 73.17 141.07 71.05 141.42 67.55 128.47 63.61 115.84 63.44 115.56 62.26 128.28 61.17 141.11 59.12 141.22 59.01 128 58.57 114.23 58.02 112.37 58.74 109.09"/>
            </g>
            <g>
              <polygon class="cls-23" points="56.22 105.67 55.76 106.65 55.84 107.09 55.87 107.7 55.35 108.88 55.05 108.84 55.24 108.1 55.12 108.09 54.72 109.47 53.99 108.75 54.05 107.45 54.27 106.93 54.83 106.15 55.18 105.21 56.22 105.67"/>
              <g>
                <path class="cls-1" d="M57.56,100.68l.09.05c.6.27,1.13.03,1.65-.68,1.19-1.63,2.84-3.21,3.97-5.14.59-1.01.13-1.54-.33-1.97l-.09-.08c-.68-.48-1.55-.2-1.91.42-1.19,2.08-3.81,5.8-3.81,5.8-.31.64-.17,1.33.43,1.6Z"/>
                <path class="cls-1" d="M54.81,105.9l1.49.15s2.02-3.88,2.62-5.58c.31-.87.35-1.41-.23-1.72h0c-.58-.31-1.36-.27-1.76.75-.62,1.55-2.12,6.39-2.12,6.39Z"/>
              </g>
            </g>
            <g>
              <polygon class="cls-23" points="81.98 94.49 83.02 94.17 83.29 93.82 83.72 93.38 84.52 92.61 84.6 92.96 84.37 93.36 84.32 93.66 84.39 93.75 84.72 93.46 84.81 92.95 84.96 93.07 84.94 94.68 84.68 94.93 84.23 95.08 83.28 95.19 82.35 95.57 81.98 94.49"/>
              <g>
                <path class="cls-1" d="M77.09,96.89v-.11c.05-.65-.36-1.07-1.2-1.3-1.95-.54-3.63-1.34-5.84-1.72-1.15-.2-1.49.43-1.73,1.01l-.04.11c-.21.81.14,1.64.84,1.75,2.37.38,6.62,1.21,6.62,1.21.71.06,1.31-.31,1.35-.97Z"/>
                <path class="cls-1" d="M82.63,95.61l-.03-1.41s-4.92.8-6.62,1.42c-.86.32-1.31.63-1.18,1.27h0c.13.64.66,1.22,1.7.88,1.59-.51,6.12-2.15,6.12-2.15Z"/>
              </g>
            </g>
            <g>
              <g>
                <g>
                  <rect class="cls-23" x="64.87" y="91.62" width="2.91" height="1.82" transform="translate(-41.14 130.12) rotate(-73.64)"/>
                  <path class="cls-23" d="M69.46,90.07c-.17,1.28-1.2,2.2-2.3,2.05-1.09-.15-1.84-1.31-1.66-2.59.02-.18.24-2.53.3-2.69l.94-.57,1.69-.22,1.25.55s.41.55.27,1.35c-.13.75-.48,2-.49,2.13Z"/>
                </g>
                <path class="cls-19" d="M70.25,86.97c.52-.61.39-1.12.19-1.38-.1-.13-.45-.4-1.45-.32-1,.07-.89-.39-1.5-.29-.98.15-2.08,1.13-2.3,2.12-.17.74.03,1.73.13,2.16l.06.86c.02.31.24.58.54.66l.83.24c.27.08.65.11.9,0l.15-.07c.31-.14.52-.44.54-.78l.1-.86.16-.54.24-.02-.02.55.26-.05c0-.17.2-.5.24-.86,0-.06.17-.12.18-.18.03-.31.05-.62.07-.82.22-.03.43-.12.69-.42Z"/>
              </g>
              <path class="cls-1" d="M67.47,93.09l.22.04,2.48.68c1.51.32,1.2,1.58.99,2.65l-2.15,6.34-.36,1.83-.37,4.69-.55.76-9.16-.67-.02-1.03,1.25-5.82.74-4.31.21-3.67c.15-.77.58-2.03,1.74-2.15.62-.07,2.48.18,2.48.18,0,0,.84.33,1.13.39.33.06,1.36.1,1.36.1Z"/>
            </g>
          </g>
          <path class="cls-10" d="M137.95,144.19c-5.82-.01-16.53.28-15.21-1.21,1.32-1.49,8.3-.03,14.03-.53,5.72-.5,10.9-1.07,16.75-.34s4.26,1.58,1.69,1.82c-4.72.44-5.56.63-8.29.39-8.01-.71-6.71-.13-8.97-.14Z"/>
          <g>
            <path class="cls-32" d="M144.18,136.13v-30.93c-2.22-.74-4.61-1.15-7.11-1.15-11.65,0-21.1,8.84-21.1,19.74,0,6.84,3.72,12.86,9.36,16.41h14.78c2.24,0,4.06-1.82,4.06-4.06Z"/>
            <g>
              <circle class="cls-1" cx="139.01" cy="122.81" r="20.71"/>
              <path class="cls-26" d="M139.01,102.1c-11.44,0-20.71,9.27-20.71,20.71s9.27,20.71,20.71,20.71,20.71-9.27,20.71-20.71-9.27-20.71-20.71-20.71ZM139.01,142.85c-11.07,0-20.04-8.97-20.04-20.04s8.97-20.04,20.04-20.04,20.04,8.97,20.04,20.04-8.97,20.04-20.04,20.04Z"/>
            </g>
            <g>
              <circle class="cls-28" cx="139.01" cy="122.81" r="17.46" transform="translate(-4.75 240.04) rotate(-80.65)"/>
              <path class="cls-11" d="M156.47,122.81c0-9.64-7.82-17.46-17.46-17.46-4.94,0-9.39,2.05-12.57,5.35,3.14-3.03,7.41-4.89,12.11-4.89,9.64,0,17.46,7.82,17.46,17.46,0,4.7-1.86,8.97-4.89,12.11,3.3-3.18,5.35-7.63,5.35-12.57Z"/>
            </g>
            <g>
              <path class="cls-21" d="M140.14,123.02h-2.26v-11.33c0-.62.51-1.13,1.13-1.13h0c.62,0,1.13.51,1.13,1.13v11.33Z"/>
              <g>
                <path class="cls-33" d="M140.33,122.61h-2.26v-11.33c0-.62.51-1.13,1.13-1.13h0c.62,0,1.13.51,1.13,1.13v11.33Z"/>
                <path class="cls-8" d="M140.33,111.28c0-.62-.51-1.13-1.13-1.13-.36,0-.68.17-.89.44.2-.17.46-.28.74-.28h0c.62,0,1.13.51,1.13,1.13v11.18h.14v-11.33Z"/>
              </g>
            </g>
            <g>
              <path class="cls-21" d="M147.82,129.59l-8.05-8.05-.23.23-2.08,2.08,8.05,8.05c.39.39.94.54,1.45.45h0,0s.06-.02.09-.02c.06-.02.12-.03.18-.05.03-.01.07-.03.1-.04.06-.03.11-.06.17-.09.03-.02.06-.03.08-.05.08-.06.16-.12.23-.19h0c.64-.64.64-1.67,0-2.31Z"/>
              <g>
                <path class="cls-33" d="M137.61,123.68l2.31-2.31,8.05,8.05c.64.64.64,1.67,0,2.31h0c-.64.64-1.67.64-2.31,0l-8.05-8.05Z"/>
                <path class="cls-8" d="M147.97,129.42l-8.05-8.05-.23.23,7.93,7.93c.64.64.64,1.67,0,2.31-.15.15-.32.26-.51.34.32-.06.62-.21.86-.45h0c.64-.64.64-1.67,0-2.31Z"/>
              </g>
            </g>
            <g>
              <path class="cls-21" d="M126.21,130.35c-.07,0-.14-.04-.18-.1-.06-.1-.02-.22.08-.28l12.75-7.25c.1-.06.22-.02.28.08.06.1.02.22-.08.28l-12.75,7.25s-.07.03-.1.03Z"/>
              <path class="cls-9" d="M126.15,130.29c-.07,0-.14-.04-.18-.1-.06-.1-.02-.22.08-.28l12.8-7.27c.1-.06.22-.02.28.08.06.1.02.22-.08.28l-12.8,7.27s-.07.03-.1.03Z"/>
            </g>
            <g>
              <g>
                <path class="cls-21" d="M138.95,119.57c-1.85,0-3.35,1.5-3.35,3.35s1.5,3.35,3.35,3.35,3.35-1.5,3.35-3.35-1.5-3.35-3.35-3.35ZM141.37,120.92c.13.16.24.32.34.5-.1-.18-.21-.35-.34-.5-.45-.54-1.08-.93-1.79-1.08.72.15,1.34.54,1.79,1.08ZM141.37,124.92c-.45.54-1.08.93-1.79,1.08.72-.15,1.34-.54,1.79-1.08.13-.16.24-.32.34-.5-.1.18-.21.35-.34.5Z"/>
                <g>
                  <circle class="cls-20" cx="138.95" cy="122.71" r="3.14"/>
                  <path class="cls-17" d="M138.95,119.57c1.74,0,3.14,1.41,3.14,3.14s-1.41,3.14-3.14,3.14-3.14-1.41-3.14-3.14,1.41-3.14,3.14-3.14M138.95,119.36c-1.85,0-3.35,1.5-3.35,3.35s1.5,3.35,3.35,3.35,3.35-1.5,3.35-3.35-1.5-3.35-3.35-3.35h0Z"/>
                  <path class="cls-31" d="M138.95,119.57c-1.68,0-3.05,1.32-3.14,2.98,1.18-.71,3.68-1.69,6.26.49.01-.11.02-.22.02-.33,0-1.74-1.41-3.14-3.14-3.14Z"/>
                </g>
              </g>
              <path class="cls-14" d="M140.77,122.81c0,1-.81,1.82-1.82,1.82s-1.82-.81-1.82-1.82.81-1.82,1.82-1.82,1.82.81,1.82,1.82Z"/>
            </g>
            <g>
              <g>
                <polygon class="cls-33" points="138.6 108.95 138.6 106.74 137.82 106.74 137.82 107.06 138.28 107.06 138.28 108.95 137.82 108.95 137.82 109.27 139.06 109.27 139.06 108.95 138.6 108.95"/>
                <path class="cls-33" d="M139.53,108.95v-.78h.97c.09,0,.17-.03.23-.09s.1-.14.1-.23v-.78c0-.09-.03-.16-.1-.23-.06-.06-.14-.09-.23-.09h-1.04v.32h1.04v.78h-.97c-.09,0-.16.03-.23.1-.06.06-.09.14-.09.23v1.1h1.61v-.32h-1.29Z"/>
              </g>
              <path class="cls-33" d="M154.96,122.81c.09-.09.13-.2.13-.34v-.6c0-.09-.03-.16-.09-.23-.06-.06-.14-.09-.23-.09h-1.06v.32h1.06v.62s-.02.08-.05.11c-.03.03-.07.05-.11.05h-.62v.32h.62s.08.02.11.05c.03.03.05.07.05.12v.62h-1.05v.32h1.06c.09,0,.17-.03.23-.09.06-.06.1-.14.1-.23v-.62c0-.12-.04-.22-.13-.32Z"/>
              <g>
                <path class="cls-33" d="M139.36,137.79s-.07-.05-.11-.05h-1.13v-.89h0v.07h-.32v1.81s.02.08.05.11c.03.03.07.05.12.05h1.28s.08-.02.12-.05c.03-.03.05-.07.05-.11v-.83s-.02-.08-.05-.12ZM139.08,138.57h-.97v-.51h.97v.51Z"/>
                <path class="cls-33" d="M138.12,136.68h1.06v-.32h-1.06c-.09,0-.16.03-.23.09-.06.06-.09.14-.09.23v.17h.32v-.17Z"/>
                <rect class="cls-33" x="137.8" y="136.85" width=".32" height=".07"/>
              </g>
              <path class="cls-33" d="M124.5,121.6s-.07-.05-.12-.05h-1.28s-.08.02-.12.05-.05.07-.05.11v.83s.02.08.05.12c.03.03.07.05.11.05h1.13v.89h0v.17h-1.06v.32h1.06c.09,0,.16-.03.23-.09.06-.06.09-.14.09-.23v-2.05s-.02-.08-.05-.11ZM123.26,122.38v-.51h.97v.51h-.97Z"/>
            </g>
            <path class="cls-16" d="M139.01,105.35c-7.99,0-14.72,5.37-16.8,12.69,2.98,2.81,8.37-.01,15.67-2.76,8.71-3.28,15.55,4.04,18.48,9.47.07-.64.11-1.28.11-1.94,0-9.64-7.82-17.46-17.46-17.46Z"/>
          </g>
          <g>
            <g>
              <g>
                <path class="cls-2" d="M163.14,106.82s-.68-.12-1.48.12c-1,.3-1.77.89-2.03,1.84-.43,1.55.38,1.64.93,1.97.55.33-.98,2.2.36,2.74,1.34.55-.39.65.17,1.59.56.94,1.38,1.26,2.77.89,1.39-.37,2.16-1.08,3.08-1.11s2.33.67,3.12-.49c.4-.59.44-1.9-.26-2.51-1.29-1.13-2.4.3-3.14-2.55-.38-1.48-1.7-1.5-2.07-1.76-.37-.27.07-.54-1.45-.75Z"/>
                <g>
                  <g>
                    <path class="cls-23" d="M154.96,123.1l.41-.03.43.09,2.1,1.26.82-1.03-2.1-1.29-.8-.49-.71-.47-.99.13-.44.41s-.48.26-.49.32c-.01.06.14.14.14.14l.67-.2.35.3.07.11.04.06.5.69Z"/>
                    <g>
                      <path class="cls-19" d="M153.04,122.72l3.89-1.04s.05-.06.05-.07c.03-.11-.04-.31-.12-.39,0,0-.06-.02-.06-.02l-3.88,1.04.13.48Z"/>
                      <g>
                        <path class="cls-19" d="M152.38,122.66s0-.06-.03-.11c0,0-.19.04-.18.09.01.05.2.01.2.01Z"/>
                        <g>
                          <path class="cls-23" d="M152.36,122.68l.68.05-.13-.48-.59.31c.03.05.04.1.03.13Z"/>
                          <path class="cls-23" d="M152.91,122.24s.1.09.14.22c.04.13.03.25-.01.26-.04.01-.1-.09-.14-.22-.04-.13-.03-.25.01-.26Z"/>
                        </g>
                      </g>
                    </g>
                    <path class="cls-23" d="M154.1,122.46s-.17-.13-.24-.16c-.03-.02-.1-.03-.14-.03-.05,0-.19.02-.19.07-.02.19.5.57.5.57l.64.22.29-.02-.36-.65-.5.02Z"/>
                  </g>
                  <path class="cls-10" d="M162.26,144.29c-5.82-.01-16.53.28-15.21-1.21,1.32-1.49,8.3-.03,14.03-.53,5.72-.5,10.9-1.07,16.75-.34,5.85.74,4.26,1.58,1.69,1.82-4.72.44-5.56.63-8.29.39-8.01-.71-6.71-.13-8.97-.14Z"/>
                  <g>
                    <path class="cls-20" d="M160.93,126.87l-.1-.03c-.63-.2-.88-.75-.78-1.63.21-2.04.6-5.93,1.06-8.16.24-1.16.9-1.27,1.54-1.28h.12c.84.1,1.3,1.25,1.02,2.65-.47,2.39-1.44,7.54-1.44,7.54-.2.7-.78,1.12-1.41.92Z"/>
                    <path class="cls-20" d="M156.44,123.67l.73-1.48s2.5,1.6,4.17,2.55c.81.46,1.08,1.01.75,1.59h0c-.33.58-.91.88-1.84.18-1.49-1.12-3.81-2.84-3.81-2.84Z"/>
                  </g>
                  <g>
                    <polygon class="cls-23" points="154.25 138.92 155.58 142.48 155.09 142.68 153.56 143.37 153.56 143.73 156.83 143.74 157.08 143.41 157.12 142.87 155.98 138.7 154.25 138.92"/>
                    <polygon class="cls-18" points="154.78 142.68 155.08 142.54 155.05 143.18 156.7 142.82 157.25 142.57 157.21 142.91 157.34 143.55 157.16 143.85 156.23 143.82 154.89 143.82 152.63 143.82 152.53 143.57 154.78 142.68"/>
                  </g>
                  <polygon class="cls-23" points="170.16 143.67 174.24 143.45 175.75 143.39 177.36 143.36 178.75 143.51 178.79 143.29 175.64 141.73 174.52 141.06 174.18 141.22 174.01 142.13 170.46 141.89 170.16 143.67"/>
                  <polygon class="cls-18" points="176.14 143.45 175.8 143.46 176.08 142.88 174.42 142.08 173.95 142.09 174.04 141.77 174.12 141.16 174.43 140.93 175.24 141.38 176.58 142.13 178.9 143.28 178.9 143.56 177.35 143.41 176.14 143.45"/>
                  <g>
                    <polygon class="cls-23" points="163.76 112.18 162.06 112.89 164.07 117.66 165.77 116.94 163.76 112.18"/>
                    <path class="cls-23" d="M160.34,111.86c.22,1.3,1.3,2.19,2.41,2,1.11-.19,1.82-1.4,1.6-2.69-.02-.11-.26-2.16-.36-2.9-.07-.52-.55-.88-1.07-.83l-1.86.2c-.61.37-1.07.93-1.02,1.59.06.85.28,2.5.3,2.63Z"/>
                  </g>
                  <path class="cls-33" d="M174.38,135.25h0c.15-.25.27-.53.33-.82l.03-.15c.06-.27.07-.54.05-.81l-.02-.15c-.02-.17-.05-.34-.1-.51l-.46-1.49-.32-1.24-4.5.65-3.47.39.06,2.97-8.67,6.34c-.81.47-1.4,1.45-.99,2.3l.06.11c.43.88,1.3.99,2.19.57l13.72-6.49c.18-.08.34-.18.5-.29l.87-.61c.29-.2.53-.46.72-.76Z"/>
                  <path class="cls-33" d="M171.21,141.71l-13.26-1.08c-.87-.07-1.64.56-1.74,1.42h0c-.11.96.64,1.8,1.61,1.8l13.31-.03.08-2.11Z"/>
                  <path class="cls-33" d="M173.54,136l.29-.25c.15-.13.29-.28.41-.44h0c.27-.38.43-.82.47-1.28h0c.02-.24,0-.48-.05-.71l-.35-1.64-.46-1.51-1.44.07-6.88.26v.71l-12.24-2.55c-.92-.17-2.01.19-2.25,1.09l-.03.12c-.25.95.34,1.6,1.29,1.86l15.54,4.66,3.98.19c.63.03,1.24-.18,1.72-.58Z"/>
                  <path class="cls-33" d="M156.7,141.02l-2.55-11.12c-.19-.85-1.02-1.4-1.87-1.24h0c-.95.18-1.53,1.15-1.24,2.07l3.68,10.28h1.99Z"/>
                  <path class="cls-20" d="M163.41,125.12s-1.68-2.58-1.92-3.85c-.24-1.3-.76-4.38,0-5.11.38-.37.86-.48.86-.48l.7-.21.27.34c.23.28.51.43.86.32l.09-.03c.37-.12.63-.46.62-.85v-.4s1.53-.25,2.16-.25c1.41,0,1.97,1.07,2.17,2.01l.88,3.21s.85,3.24,1.22,4.32c.36,1.05.97,2.45.97,2.45l2.14,3.29-.21,1.34h-8.69s-.3-.26-.36-.96c-.08-.96-.12-1.76-.29-2.32-.23-.76-1.47-2.81-1.47-2.81Z"/>
                  <polygon class="cls-30" points="159.5 129.67 152.83 129.67 148.37 122.95 155.04 122.95 159.5 129.67"/>
                  <g>
                    <polygon class="cls-23" points="156.95 125.83 157.17 125.81 157.08 125.91 156.48 126.08 155.44 126.25 155.61 126.45 155.77 126.48 156.44 127.32 157.45 127.29 158.51 127 163.02 126.37 163.3 124.82 158.69 125.73 158.11 125.61 157.45 125.39 156.73 125.5 156.95 125.83"/>
                    <g>
                      <path class="cls-20" d="M165.8,125.94l-.1-.03c-.63-.21-.87-.75-.77-1.64.23-2.04.65-5.93,1.12-8.16.25-1.16.91-1.27,1.55-1.27h.12c.84.11,1.29,1.26,1,2.66-.49,2.39-1.5,7.53-1.5,7.53-.21.7-.78,1.12-1.42.91Z"/>
                      <path class="cls-20" d="M161.18,126.77l-.53-1.56s2.9-.64,4.75-1.15c.9-.25,1.48-.05,1.66.59h0c.18.64-.02,1.27-1.17,1.43-1.84.27-4.7.69-4.7.69Z"/>
                    </g>
                  </g>
                </g>
                <path class="cls-19" d="M162.38,109.53s-2.02-.53-1.69-1.69c.37-1.35,3.46-1.82,4.25-.52.53.86,1.92-.13,2.49,2.57.41,1.97,1.2.56,2.7,1.81,1.5,1.25,1.09,4.8-.72,4.77-1.18-.02-1.06-.82-2.31-1.62-1.25-.8-3.03.83-3.01-1.9.01-1.37-.57-1.4-.47-1.89.34-1.65-.29-1.68-.49-1.01-.17.56-.75-.51-.75-.51Z"/>
              </g>
              <path class="cls-29" d="M161.78,122.15s.27.61.49,1.03c.23.41.44.8.44.8l-.05.28s-.85-1.65-.88-2.11Z"/>
            </g>
            <path class="cls-29" d="M166.98,125.52c-.06.1-.15.19-.26.27-.03.02-.07.05-.1.07-.03.02-.06.03-.09.05-.04.02-.07.03-.11.04-.15.06-.32.11-.54.14-.53.08-1.15.17-1.76.26l.32.62s1.1-.19,1.94-.43,1.4-1.05,1.47-1.5c.06-.45.87-7.52.87-7.52-.49,2.39-1.5,7.53-1.5,7.53-.05.18-.14.35-.24.49Z"/>
          </g>
        </g>
      </g>
    </g>
  </g>
</svg>