<?xml version="1.0" encoding="UTF-8"?>
<svg xmlns="http://www.w3.org/2000/svg" viewBox="0 0 188 188">
  <defs>
    <style>
      .cls-1 {
        fill: #6ecce0;
      }

      .cls-1, .cls-2, .cls-3, .cls-4, .cls-5, .cls-6, .cls-7, .cls-8, .cls-9, .cls-10, .cls-11, .cls-12, .cls-13, .cls-14, .cls-15, .cls-16 {
        stroke-width: 0px;
      }

      .cls-2 {
        fill: #006938;
      }

      .cls-3 {
        fill: #3d469d;
      }

      .cls-17 {
        isolation: isolate;
      }

      .cls-4 {
        fill: #f3c795;
      }

      .cls-5 {
        fill: #c89368;
      }

      .cls-6 {
        fill: #39c1f1;
      }

      .cls-6, .cls-12 {
        mix-blend-mode: multiply;
      }

      .cls-7 {
        fill: none;
      }

      .cls-8 {
        fill: #dcf2fd;
        mix-blend-mode: screen;
        opacity: .21;
      }

      .cls-9 {
        fill: #b9dff6;
      }

      .cls-10 {
        fill: #de9d64;
      }

      .cls-11 {
        fill: #a87254;
      }

      .cls-12 {
        fill: #656668;
      }

      .cls-13 {
        fill: #a5cf4f;
      }

      .cls-14 {
        fill: #9b7351;
      }

      .cls-15 {
        fill: #d19a65;
      }

      .cls-16 {
        fill: #f2c8aa;
      }
    </style>
  </defs>
  <g class="cls-17">
    <g id="Layer_2" data-name="Layer 2">
      <g id="Layer_1-2" data-name="Layer 1">
        <rect class="cls-2" width="188" height="188"/>
        <g>
          <g>
            <circle class="cls-1" cx="93.28" cy="93.04" r="70.55" transform="translate(-38.47 93.21) rotate(-45)"/>
            <circle class="cls-9" cx="93.01" cy="84.1" r="59.47" transform="translate(-13.31 17.62) rotate(-10.1)"/>
            <path class="cls-6" d="M163.03,98.87c-.37-.68-.86-1.19-1.56-1.52-.84-.4-1.76-.63-2.67-.85-.91-.22-1.82-.4-2.73-.59-.89-.19-1.72-.43-2.65-.44-.86-.01-1.82.11-2.64-.21-.67-.26-1.12-.93-1.37-1.58-.26-.69-.38-1.31-.99-1.81-.66-.54-1.53-.82-2.32-1.08-.78-.26-1.62-.54-2.45-.58-.46-.02-.91,0-1.34.17-.34.14-.65.35-.99.52-.72.35-1.5.42-2.25.13-.88-.34-1.67-.99-2.4-1.57-.59-.47-1.02-1.16-1.45-1.77-.22-.31-.43-.64-.67-.93-.28-.34-.61-.48-1.06-.45-.97.06-1.78.79-2.66,1.15-.99.4-2.17.39-3.23.35-.58-.02-1.17-.1-1.75-.1-.51,0-1.04.09-1.54.16-1.19.18-2.36.45-3.53.7-1.08.23-2.17.45-3.27.57-.89.09-1.75.13-2.61-.19-.54-.2-.93-.45-1.52-.26-.85.27-1.59.81-2.26,1.38-.71.6-1.39,1.26-2.07,1.9-.6.57-1.12,1.19-1.68,1.79-.21.23-.41.43-.71.52-.47.13-.96.18-1.42.31-.4.11-.72.19-1.13.11-.53-.09-1.06-.11-1.33.43-.28.56-.18,1.72-.8,2.07-.29.16-.82.1-1.14.11-.71.02-1.41,0-2.12-.02-.55-.02-1.11-.03-1.65-.11-.33-.05-.41-.22-.58-.51-.63-1.12-1.13-2.31-1.64-3.49-.2-.48-.38-.94-.35-1.47.01-.26.07-.52.05-.79-.03-.39-.23-.72-.47-1.02-.7-.87-1.73-1.63-2.89-1.23-.91.31-1.67,1.02-2.44,1.58-.04.03-.11,0-.13-.04-.12-.38-.07-.78.05-1.15.34-1.07,1.1-2.03,1.86-2.84.68-.73,1.49-1.53,2.43-1.92,1.3-.53,2.63-.05,3.92.26,1.51.37,3,.26,4.15-.87.72-.72,1.85-.46,2.57.14.45.37.81.83,1.27,1.18.52.4,1.37.72,1.98.34.55-.34.87-1.09,1.5-1.31.39-.13.88-.07,1.28-.04.47.04.94.11,1.41.13.99.05,1.81-.21,2.58-.81.55-.43,1.11-.93,1.8-1.13.64-.18,1.47-.08,2.04-.43.32-.2.58-.56.83-.83.79-.87,1.56-1.77,2.28-2.7.5-.65,1.39-1.53,1.16-2.42-.34-1.32-1.84-2.52-3.15-2.74-1.42-.24-2.05,1.4-3.37,1.49-.54.04-.94-.16-1.33-.53-.52-.5-.87-.93-1.64-.94-1.53-.01-2.85,1.08-4.33,1.36-1.22.23-2.24-.21-2.98-1.18-.39-.5-.69-1.06-1.08-1.56-.22-.29-.46-.55-.75-.77-.08-.06-.34-.31-.44-.28-.1.02-.21.31-.25.4-.25.48-.43.98-.65,1.47-.13.3-.28.59-.53.81-.3.26-.7.38-1.09.48-.72.18-1.46.28-2.2.33-1.26.09-2.74,0-3.57-1.09-.02-.01-.04-.04-.04-.07,0,0,0,0,0-.01,0-.04.01-.06.04-.07-.04-.02.01-.16.03-.24.02-.16.04-.31.06-.47.03-.3.06-.6-.03-.88-.3-.93-1.42-1.32-1.66-2.27-.27-1.07-.27-2.18-.57-3.25-.13-.43-.26-.87-.46-1.27-.09-.17-.2-.33-.28-.5-.14-.33,0-.63.13-.93.41-.91.9-1.77,1.51-2.56.34-.44.7-.87.98-1.34.26-.45.42-.96.6-1.45.39-1.04.76-2.07,1.24-3.07.37-.77.91-1.52.91-2.41,0-.21,0-.73-.15-.9-.09-.09-.25-.03-.4-.02-.53.02-1.05-.11-1.57.03-.04,0-.08,0-.1-.03-.29-.5-.63-.98-.92-1.48-.02-.03-.02-.07,0-.1.63-.77,1.56-1.26,2.35-1.85.86-.64,1.77-1.49,1.47-2.66-.01-.04,0-.09.05-.11.93-.25,1.92-.4,2.74-.93.44-.29.88-.69,1.2-1.11.33-.43.53-.94.78-1.41.25-.48.54-.76,1.01-1.04.46-.28.97-.47,1.42-.76.15-.09.31-.2.44-.33.16-.16.14-.11,0-.25-.18-.2-.41-.37-.59-.58-.32-.38-.59-.79-.83-1.22-.03-.05,0-.13.07-.13,1.2-.06,2.41-.07,3.61-.19.64-.06,1.28-.16,1.91-.31.28-.07.6-.12.87-.24.28-.12.25-.2.14-.46-.56-1.34-2.17-2.2-3.38-2.85-1.32-.71-2.71-1.37-4.12-1.87-.88-.31-1.77-.58-2.66-.85-.62-.19-1.11-.19-1.75-.09-.3.05-.77.16-1.01-.09-.28-.3-.06-.85.08-1.21-.9-.03-1.69-.5-2.36-1.08-.05-.04-.03-.13.03-.14,2.29-.67,4.61-1.3,6.81-2.25,1.29-.56,2.58-1.24,3.69-2.11-5.17-.92-10.52-1.27-15.98-1-24.17,1.22-44.88,14.46-56.64,33.65.38.32.95.82.81,1.36-.11.43-.61.68-.9.97-.63.6-.64,1.54-.64,2.36,0,.95.08,1.89-.09,2.83-.1.55-.26,1.08-.33,1.65-.05.43-.08.87-.11,1.3-.06.75-.15,1.48-.3,2.21-.17.87-.37,1.69-.23,2.58.16,1,.54,1.96.96,2.87.41.89.87,1.75,1.3,2.62.1.2.19.4.29.6.1.2.02.16.2.14.44-.05.85-.48,1.09-.81.03-.03.09-.04.12,0,.79.82,1.25,1.81,1.58,2.89.14.45.26.92.43,1.36.09.23.17.49.39.59.15.07.35.06.51.09.69.12,1.17.29,1.23,1.04.03.38.03.65.26.97.13.18.26.35.39.52.28.36.57.72.87,1.06.64.72,1.33,1.36,1.85,2.18.47.75.84,1.56,1.33,2.3.52.79,1.3,1.69,2.31,1.76.87.06,1.79-.41,2.57.13.7.48.97,1.42,1.77,1.78.41.19.3-.12.3-.43,0-.27.02-.53.04-.8.04-.49.09-.98.16-1.47,0-.06.08-.08.12-.06.69.34,1.38.76,1.67,1.51.27.71.16,1.72.72,2.29.3.3.75.43,1.08.7.37.31.44.61.46,1.08.04.69-.1,1.43.32,2.04.35.51.87.93,1.51.95.41.02.81-.12,1.19-.25.33-.11.71-.18,1.02-.36.39-.23.73-.57,1.16-.75.23-.09.45-.08.7-.07.69.01,1.43,0,2.1.17.68.17,1.32.54,1.94.83.7.33,1.46.77,2.22.38.56-.29.84-.86,1.09-1.41.19-.41.38-.87.75-1.16.44-.34.99-.32,1.5-.22.54.11,1.21.25,1.43.82.09.24.1.51.16.75.11.44.39.75.71,1.07.36.35.79.72,1.32.61.32-.07.59-.28.86-.44.56-.32,1.07-.38,1.7-.29,1.67.24,3.22,1.01,4.83,1.49,1.61.48,3.49.79,4.8-.52.03-.03.09-.04.12,0,.44.5.84,1.02,1.25,1.54.27.35.8.72.81,1.19.01.43-.22.73.23,1.12.19.17.45.21.69.26.42.09.86.15,1.24.38,1.33.81,1.7,3.88,3.8,2.79.7-.36,1.25-.78,2.08-.66,1,.14,1.77.82,2.8.86.34.01.7.04,1.03-.08.23-.08.44-.21.66-.3.39-.15.8-.22,1.11-.53.1-.1.17-.25.29-.34.38-.26,1.11.14,1.45.31.88.44,1.58,1.26,2,2.13.02.04.02.09-.02.12-.4.21-.83.5-.84,1-.01.43.34.81.63,1.08.04.04.04.11-.01.13-.26.15-.51.33-.79.46-.35.16-.29.1-.19.5.16.63.18,1.26.13,1.91-.1,1.32-.35,2.6-.21,3.93.12,1.14.43,2.32.3,3.47-.12,1.05-.91,1.59-1.57,2.31-.29.32-.55.7-.52,1.14.02.33.13.66.21.97.21.78.47,1.56.77,2.32.06.15.22.78.38.84,0,0,.08-.1.19-.18.13-.1.27-.18.41-.25.57-.26,1.19-.21,1.76.02,1.52.61,2.66,2.08,3.69,3.29.5.59.99,1.21,1.55,1.75.76.73,1.54,1.44,2.19,2.27.67.85,1.25,1.82,1.46,2.9.11.57,0,1.07-.02,1.64,0,.28-.05.22.23.34.11.04.27.06.38.08.37.07.74.09,1.11.1,1.37.02,2.71-.28,4.08-.24,1.07.03,2.02.37,3,.79.44.19.89.41,1.11.87.3.63.26,1.42.35,2.09.1.74.48,1.51.42,2.26-.05.67-.6,1.05-1.15,1.34.72.37,1.26.92.97,1.79-.32.96-1.12,1.7-1.58,2.58-.57,1.07-.59,2.49-.65,3.67,0,.2-.02.4-.02.6,21.79-10.51,37.19-31.84,39.59-56.69-.14-.36-.29-.72-.48-1.06ZM85.85,77.57c-.23.11-.47.23-.69.36-.15.09-.28.17-.37.33-.15.28-.17.59-.1.89.06.28.18.54.26.81.07.25.09.52-.03.76-.17.34-.53.53-.86.68-.05.02-.11-.03-.11-.08-.01-.23-.08-.46-.25-.63-.14-.15-.33-.25-.52-.34-.41-.18-.84-.28-1.23-.51-.45.8-.86,1.64-1.45,2.35-.54.65-1.25,1.11-2,1.48-.4.19-.79.39-1.17.62-.25.15-.48.32-.68.54-.32.34-.45.78-.55,1.23-.16.72-.32,1.44-.56,2.14-.01.03-.04.07-.08.07-.86-.02-1.72.1-2.58.13-.77.03-1.6.03-2.34-.24-.28-.1-.57-.25-.76-.49-.15-.18-.22-.42-.27-.65-.12-.5-.13-1.05-.35-1.52-.08-.18-.21-.33-.41-.37-.29-.06-.61.1-.85.24-.04.02-.09.02-.12-.02-.39-.59-.38-1.35-.33-2.03.05-.66.19-1.31.21-1.97,0-.26.01-.54-.13-.77-.1-.16-.24-.28-.31-.45-.1-.23-.05-.52.04-.74.09-.22.29-.4.47-.54.45-.36.99-.6,1.43-.97-.16-.19-.31-.37-.46-.56-.17-.22-.34-.48-.26-.77.04-.14.12-.27.2-.39.13-.2.27-.39.4-.59.3-.45.58-.9.94-1.31.34-.38.75-.74,1.22-.95.41-.18.85-.21,1.26-.04.35.15.64.41.98.57.18.09.37.14.57.14.13,0,.24-.02.37-.05.09-.01.17-.02.25-.04.46-.12.87-.39,1.28-.62.21-.12.41-.24.63-.35.22-.11.45-.2.67-.3.54-.25,1.05-.56,1.55-.89.47-.31.94-.63,1.42-.93.12-.08.25-.15.37-.23.09-.05.19-.13.29-.14.19-.02.37.07.53.15.15.08.37.22.55.14.17-.08.27-.29.36-.45.09-.15.16-.33.3-.44.07-.06.15-.05.24-.05.09,0,.19,0,.28,0,.48,0,.96.12,1.35.41.26.2.45.44.57.74.24.57.25,1.2.46,1.77.08.23.21.46.43.57.3.16.66.1.97.03.05-.01.11.02.11.08l.07,1.46c.44.11.9,0,1.34.08.23.04.46.13.62.3.22.24.31.55.36.87,0,.04-.03.07-.06.08-.54.19-1.08.4-1.61.61-.63.25-1.25.51-1.86.79Z"/>
            <g>
              <path class="cls-13" d="M102.29,79.65l.09-.04c.59-.29,1.2-.58,1.67-1.09.04-.04.06-.11.04-.17-.02-.07-.06-.12-.12-.15h0c-1.32-.48-2.73-.73-3.94-.9-1.82-.27-3.57-.38-5.21-.33-1.17.03-2.92.14-4.55.68-.02,0-.04.01-.07.02l-.06.02c-.05.02-.1.03-.15.05-1.11.41-1.93.98-2.43,1.72-.42.36-.77.71-1.08,1.06-.06.07-.06.16-.02.24.05.09.15.13.24.11.55-.13,1.13-.16,1.68-.18.2,0,.39-.02.59-.03v.02c.04.24.07.47.22.69.04.06.1.1.16.11.06,0,.12,0,.17-.05.97-.82,2.06-.56,3.39-.14.39.12.73.23,1.19.14.57-.1,1.12.12,1.49.29.17.08.33.17.5.26.56.3,1.14.61,1.82.58.03,0,.06,0,.1,0,.6-.06,1.13-.35,1.63-.63.43-.24.88-.49,1.38-.58.06-.01.11-.05.14-.1.03-.05.04-.12.02-.18-.25-.76.46-1.11,1.08-1.41Z"/>
              <path class="cls-13" d="M109.03,77.99c-.33,0-.65.03-.99.12-.19.05-.38.1-.56.16-.55.16-1.08.32-1.64.3-.08,0-.16.04-.21.12-.04.06-.04.13,0,.19.42.71.83,1.34,1.52,1.72-1.26.3-2.55.61-3.21,1.86-.04.08-.04.18.01.25.04.06.11.09.18.09,0,0,.02,0,.03,0,.82-.14,1.64-.32,2.43-.5,1.54-.35,3.13-.7,4.76-.71.1,0,.19-.07.22-.17.03-.09,0-.19-.09-.24-.15-.09-.29-.2-.43-.3-.06-.04-.12-.09-.18-.13,1.09-.51,2.23-.94,3.34-1.35.27-.1.53-.2.8-.3.08-.03.13-.1.13-.18,0-.1-.06-.19-.15-.23-.76-.33-1.53-.32-2.11-.28l-.23.02c-.35.03-.72.06-1.08.06-.22,0-.28-.25-.35-.59-.02-.09-.03-.17-.05-.23-.01-.06-.05-.12-.11-.15-.05-.03-.11-.04-.16-.02-.51.14-1.01.28-1.52.42l-.37.1Z"/>
              <path class="cls-13" d="M114.92,80.24c.03.1.12.16.21.16,0,0,.02,0,.03,0h0c.86-.16,1.79-.51,2.83-1.09.72-.4,1.5-.89,1.78-1.61.02-.06.02-.12-.01-.18-.03-.06-.1-.1-.17-.11-.78-.12-1.53.1-2.01.58-.02.02-.04.05-.04.07-.17.1-.35.23-.55.4-.18.15-.36.32-.53.48-.45.42-.87.82-1.43,1.05-.1.04-.15.15-.12.25Z"/>
              <path class="cls-13" d="M161.43,106.05c-.22-1.24-.42-2.4-.26-3.66.01-.09.02-.18.04-.27.06-.38.11-.77.04-1.16-.05-.28-.13-.56-.26-.85-.02-.05-.04-.09-.05-.14-.11-.28-.21-.54-.59-.59-.27-.03-.55-.05-.82-.07-.78-.06-1.59-.11-2.3-.47-.2-.1-.37-.23-.5-.37-.21-.25-.61-.05-.87.08-.05.03-.1.05-.15.07-.12.05-.24.11-.37.16-.51.23-1.03.46-1.57.52-.44.04-.62-.03-.89-.36-.05-.06-.1-.13-.15-.2-.27-.37-.65-.89-1.09-.77-.25.07-.5.2-.78.35-.55.29-1.13.59-1.62.32-.61-.34-.84-.94-1.09-1.57l-.05-.14c-.14-.36-.31-.8-.68-1.05-.26-.18-.58-.27-.97-.27h-.05s-.03.04-.03.04c0,0,0,.01-.02,0l-.07-.04h-.02c-.16.01-.32.03-.49.06-.02,0-.04,0-.05-.02-.11-.31-.31-.5-.53-.71-.05-.05-.11-.11-.16-.16,0,0,0-.01-.01-.02v-.02s-.03-.02-.03-.02c-.16-.13-.33-.26-.49-.4-.25-.21-.51-.42-.78-.62l-.09-.07c-.91-.7-1.94-1.49-3.1-1.7-.83-.15-1.46.13-2.03.47-.37.22-.77.43-1.24.43-.61,0-1.2-.17-1.71-.48-.32-.19-.56-.37-.76-.56-.03-.03-.08-.08-.12-.14-.17-.2-.35-.42-.54-.39-.95.14-1.79-.34-2.6-.8-.21-.12-.43-.25-.65-.36-.07-.03-.13-.07-.2-.11-.44-.23-.95-.5-1.44-.58-.21-.04-.4,0-.59.05-.06.01-.11.03-.17.04-.36.07-.73.09-1.08.12-.25.02-.51.04-.76.07-.78.1-1.49.21-2.18.36-1.76.37-3.27.86-4.61,1.48,0,0-.02,0-.03,0,0,0-.02-.01-.02-.02,0-.02,0-.05,0-.08-.02-.19-.04-.44-.3-.48-.15-.03-.3-.05-.45-.08-.32-.06-.63-.13-.94-.2-.13-.03-.26-.06-.39-.09-.36-.09-.74-.18-1.12-.22h-.08s-.01.07-.01.07c-.03.23-.13.44-.24.66-.11.22-.22.46-.25.72,0,0,0,.03-.05.03-.33-.01-.66.01-.98.04-.32.02-.65.05-.97.04,0,0,0,0-.01-.01,0-.01,0-.03,0-.04l.07-.1c.15-.21.3-.42.42-.65,0-.01.04-.09.07-.16.03-.08.07-.16.08-.18l-.07-.04-.02-.09c-.25.04-.47.2-.67.35l-.07.05c-.56.4-1.14.89-1.73,1.45-.18.17-.35.35-.52.52-.55.57-1.13,1.15-1.84,1.5-.25.12-.5.21-.77.28-.22.06-.32.32-.41.52-.02.05-.04.1-.06.13-.05.1-.1.2-.16.31-.11.21-.24.45-.33.69l-.1.27.23-.17c.09-.06.16-.11.24-.15,0,0,.02,0,.03,0,.01,0,.02.02,0,.03l.04.04h0s-.06-.03-.06-.03l-.14.12.19.02s.04.01.04.03c0,0,0,.01,0,.02v.02s0,.03,0,.03l-.04.04.02.07s0,.03.02.04l.04.11.09-.07s.03-.03.05-.03h.02s0,0,0,0c-.02.07-.05.13-.09.16l-.04.04v.05c.12.38.11.66-.01.86-.17.27-.47.36-.98.29h-.1s0,.09,0,.09c0,.72-.27,1.36-.75,1.72-.41.31-.92.39-1.49.22-.38-.11-.71-.29-.96-.53-.12-.11-.24-.23-.34-.37-.25-.34-.39-.31-.78-.18-.78.26-1.84.75-2.39,1.62v.02s-.01.03-.01.03c.02.73-.65,1.09-1.28,1.18-.99.15-2.17-.24-2.43-1.15v-.05s-.06-.01-.06-.01c-.04,0-.07-.02-.11-.03l-.05-.02-.04.03c-.22.19-.71.12-1.07.08-.1-.01-.2-.02-.28-.03-.01,0-.02-.02-.03-.03-.13-.69-.55-1.12-.95-1.55-.22-.23-.45-.48-.64-.76-.34-.53-.52-1.22-.5-1.94.02-.79-.04-1.6-.19-2.49-.1-.61-.23-1.24-.61-1.71-.71-.87-1.96-.79-2.84-.65-.83.13-1.48.58-2.11,1.01-.35.24-.71.49-1.11.69-.96.47-2.01.35-2.75-.34-.54-.5-.62-1.14-.26-2.04.07-.17.14-.33.21-.49.36-.84.7-1.62.51-2.64-.06-.32-.16-.63-.26-.94-.15-.47-.3-.95-.31-1.44,0-.46.16-.88.3-1.15.13-.26.26-.47.38-.65.03-.04.06-.09.09-.13.12-.16.23-.31.2-.47-.02-.1-.1-.19-.24-.27-1.02-.58-2.22.09-3.26.81-.29.2-.58.41-.85.62-.17.13-.35.26-.52.38-.06.04-.12.09-.19.13-.28.2-.61.42-.81.71-.18.25-.04.56.08.83.06.13.12.26.14.37.13.89-.16,2-.71,2.65-.56.66-1.4,1-2.57,1.04-.47.02-.95.01-1.41,0-.62,0-1.25,0-1.89.03-.41.03-.81.1-1.2.17-.37.06-.76.13-1.14.16-.41.03-1.19.1-1.53-.35-.4-.51-.21-1.25.05-1.98l.04-.12h-.13s0,0,0,0c-.92.05-1.66-.76-2.12-1.44-.7-1.03-1.19-2.2-1.43-3.37-.23-1.13.09-2.02.64-3.02l.09-.16c.26-.46.56-.99.53-1.53-.05-.79-.69-1.29-1.36-1.72,0,0,0-.02,0-.02.36-.7.97-1.23,1.51-1.7.1-.09.2-.18.31-.26.14-.12.28-.24.42-.36l.05-.05-.02-.04c.12-.09.24-.2.38-.33l-.06.11.5-.57c.24-.27.47-.56.69-.85.25-.32.51-.65.79-.96.61-.67,1.45-1.59,2.4-1.56.44.01.86.21,1.19.55.03.03.09.12.16.21.24.35.4.56.54.54.16-.02.31-.03.47-.05.21-.02.42-.04.64-.06,1.38-.15,3.46-.37,4.27-2.01l.05-.11-.12-.02c-.08-.01-.17-.02-.25-.04-.33-.05-.64-.1-.99-.02,0,0-.02-.02-.02-.02.64-1.03,1.88-1.21,3.07-1.4.58-.09,1.12-.17,1.61-.34,0,0,.02,0,.03,0,.01.02.08.13.13.22.23.39.25.43.32.4.06-.02.13-.03.19-.05.15-.04.31-.07.46-.12.51-.17.84-.48,1.12-1.06,0,0,.01-.01.02-.01.78.47,1.46,1.09,2.12,1.69.39.35.79.72,1.2,1.05l.05-.07-.06.09c-.27.09-.53.24-.82.47l-.08.06.07.07c.96.86,2.44,1.96,4.02,2.28-.15.41-.28.83-.41,1.24-.07.23-.14.45-.21.68l-.05.16.16-.05c.31-.1.59-.19.82-.39.28-.24.46-.54.62-.82l.04-.07c.15-.27.3-.56.49-.8.09-.11.14-.2.16-.29v-.02s0-.02,0-.02c-.03-.12-.07-.23-.11-.34l-.02-.03s-.08-.07-.13-.11c-.15-.1-.31-.18-.46-.25l-.09-.04s-.03-.04-.02-.06c0-.01.01-.02.02-.01.08.02.17.04.27.09l.3.13-.2-.26c-.17-.22-.37-.42-.56-.61-.27-.27-.55-.55-.75-.89v-.02s-.03-.01-.03-.01c-.75-.43-.94-1.11-.52-1.86.02-.03.03-.05.04-.07.05-.08.08-.14.06-.21-.02-.07-.09-.11-.19-.16-.14-.07-.27-.14-.41-.22-.19-.12-.37-.26-.59-.49-.27-.28-.51-.63-.67-1l-.04-.09-.08.03s.01-.03.02-.04l.03-.03v-.04s-.02-.02-.02-.04l.11-.08-.12-.07s-.06-.03-.1-.04c-.14-.04-.27-.08-.37-.18-.21-.19-.35-.45-.41-.73-.13-.65-.06-1.41.2-2.07.26-.68.85-1.04,1.39-1.3.81-.4,1.36-.89,1.41-1.97v-.08s-.07-.01-.07-.01c-.24-.03-.38-.12-.42-.25-.11-.34.31-1.03,1.17-1.89.55-.55,1.03-.98,1.52-1.36.73-.57,1.73-1.35,1.6-2.52v-.11s-.12.05-.12.05c-.09.04-.18.08-.27.12-.55.25-1.06.49-1.56.09-.34-.28-.55-.59-.66-.97-.17-.65-.3-1.11-1-1.42-.01,0-.02-.02-.03-.03,0-.02,0-.03,0-.03.73-1,1.6-2.15,2.62-3.15.2-.2.43-.37.65-.55.25-.2.51-.4.74-.64.38-.39.14-.77-.12-1.06-.37-.42-.86-.54-1.4-.35-.03.01-.05,0-.06-.01-.01-.01-.01-.03,0-.05.02-.04.05-.08.08-.12l.28-.41-.39.27c-.69.48-1.51.98-2.36,1.02-.45.03-.9,0-1.34-.04-.91-.07-1.85-.14-2.76.33-.29.15-.57.31-.84.48-.75.45-1.46.88-2.36.91-.97.03-2.02-.55-2.67-1.49l-.04-.06-.07.04c-.53.29-.53.68-.53,1.13,0,.1,0,.21,0,.32-.02.3-.18.46-.52.5-1.03.1-1.58-.6-2.16-1.35-.24-.31-.5-.64-.79-.89-.02-.02-.03-.04-.03-.05,0,0,0-.02.02-.03.44-.39,1.05-.26,1.65-.14.77.16,1.56.32,1.91-.66,0,0,0-.01.01-.01,0,0,.02,0,.03,0,.44.17.86.41,1.26.64.51.29,1.04.6,1.63.76.54.15,1.12.16,1.74.02.18-.04.35-.08.53-.13.09-.02.17-.04.26-.07h.06c.16-.05.3-.08.37-.2.05-.08.06-.19.02-.34,0,0,.02-.02.03-.03.53-.08,1.07-.08,1.59-.08.28,0,.56,0,.85-.01.99-.04,1.8-.28,2.54-.75.16-.1.32-.22.49-.34.4-.29.82-.58,1.26-.72.61-.2,1.26-.24,1.88-.27h.23c.66-.04,1.35-.07,2-.24.62-.17,1.12-.48,1.65-.81.12-.08.25-.15.37-.23l.14-.08c.87-.51,2.17-1.29,1.83-2.49,0-.01,0-.03,0-.03.5-.15.94-.33,1.32-.56l.03-.02v-.03c.07-.25.04-.46-.07-.63-.28-.42-1.02-.53-1.81-.66-.86-.14-1.76-.28-2.11-.8-.16-.24-.2-.54-.11-.93,0-.01.01-.04.04-.04.35.04.71.13,1.05.21.4.1.82.2,1.25.23.55.03,1.07-.08,1.58-.19.36-.08.72-.16,1.09-.18.52-.04,1.05,0,1.56.05.43.04.88.08,1.33.07.45-.01.94-.04,1.49-.07.01,0,.04,0,.07,0,.34,0,.57-.03.65-.15.03-.05.03-.11,0-.16-.07-.16-.16-.29-.26-.41-.62-.69-1.33-.98-2.37-.94-.58.02-1.01,0-1.28-.47-.17-.3-.61-.45-.97-.57-.07-.03-.14-.05-.2-.07-.34-.13-.7-.26-1.07-.35-.49-.12-1.01-.21-1.49-.12-.44.08-.46.22-.48.54,0,.05,0,.11,0,.17,0,.02-.02.04-.03.05-.01,0-.03,0-.04,0-.06-.05-.13-.09-.19-.14-.42-.31-.85-.63-1.35-.79-.58-.18-1.03-.12-1.52-.03-.67.12-1.33.13-1.71-.56-.12-.23-.19-.48-.19-.77,0-.04,0-.09,0-.15,0-.22.01-.5-.15-.66-.36-.35-1.07-.31-1.54-.28h-.12c-.21.02-.43.04-.64.06-.31.03-.63.06-.94.06-.37,0-1.64-.06-2.16-.79-.24-.33-.44-.32-.84-.28-.48.05-1.05.1-1.62.06-.29-.02-.59-.06-.88-.09-.29-.03-.59-.07-.88-.09-.67-.05-1.3,0-1.95.08-1.22.13-2.53.13-3.91,0,0,0-.04,0-.04-.04v-.07s-.07-.01-.07-.01c-.51-.08-1.12.08-1.66.23-.15.04-.29.08-.41.11-.81.19-1.64.27-2.45.36h-.04c-.78.08-1.5-.01-2.26-.11-.15-.02-.3-.04-.46-.06-.11-.01-.21-.03-.32-.04-.75-.09-1.53-.18-2.23-.47-.01,0-.02-.01-.03-.03,0-.01,0-.03,0-.04,1.08-1.78,3.23-1.32,5.13-.93.35.07.68.14.99.19,1.39.23,2.83.1,4.23-.03l.31-.03c1.4-.13,2.8-.34,4.17-.63l.38-.08-.38-.08c-.45-.1-.86-.3-1.2-.6-.02-.01-.02-.03-.02-.04,0-.01.01-.03.03-.04,1.62-.91,3.44-.81,5.2-.72,1.78.09,3.61.19,5.26-.74l.17-.1-.24-.08c-.17-.05-.34-.11-.52-.13-.01,0-.02-.01-.03-.03v-.02c.96-1.04,1.98-.79,3.27-.48h.04c1.48.37,2.79.04,4.17-.32.36-.09.74-.19,1.11-.27.46-.1.95-.18,1.54-.26l.49-.06-.48-.1c-.33-.07-.67-.14-1.01-.21-4.19-.54-8.46-.71-12.71-.49-21.46,1.08-41.02,11.69-53.65,29.11l-.03.05.03.05c.39.62.57,1.4.68,2.01l.02.09.09-.02c.83-.22,1.13-.7.94-1.52-.02-.07-.04-.15-.05-.22-.09-.36-.19-.77-.07-1.11.17-.47.74-.85,1.29-.86.19,0,.37,0,.55.01.53.03,1.02.05,1.56-.32.01,0,.03,0,.04,0,.47.78.52,1.45.18,2.06-.29.52-.85.93-1.72,1.27h-.03s-.01.04-.01.04c-.22.43-.15.87-.09,1.29.04.23.08.47.06.7-.02.48-.22.9-.58,1.2-.29.25-.6.33-.98.36-.43.04-1.46.21-1.69.93-.06.21-.07.44-.07.66,0,.31,0,.6-.16.83-.2.31-.59.47-.92.61l-.05.02c-.06.02-.12.05-.18.07-.15.06-.31.12-.45.2-.27.14-.32.45-.34.73-.02.23-.01.47,0,.69,0,.18.01.37,0,.56-.02.47-.14.82-.35,1.07-.17.2-.33.34-.5.44-.34.21-.24.49-.14.77.01.04.03.08.04.13.07.2.15.42.24.64.35.88.74,1.87.33,2.69-.1.2-.24.4-.37.59-.24.34-.48.7-.56,1.12-.1.56.02,1.22.36,2.01.05.12.1.24.15.35.37.84.71,1.64.85,2.53l.06.37.11-.36c.04-.13.08-.26.12-.39.16-.52.33-1.06.38-1.62,0,0,.02-.02.03-.02.67.38,1.29.59,2,.67,0,0,.01,0,.01,0,.11.36.31.67.49.98.17.28.35.58.46.9l.04.11.09-.07c.06-.04.12-.08.18-.12.11-.08.23-.16.34-.25-.14,1-.11,2.04.09,3.01.1.47.18.51.52.61l.11.03c.14.04.3.13.42.23.81.68,1,1.84,1.16,2.87v.02s-.08,0-.12,0c-.18,0-.36.02-.41.14-.04.11.05.21.12.28.14.13.3.29.49.43.22.16.45.31.67.46.15.1.31.2.46.31.39.27.69.52.93.8.02.02.03.05.05.08.06.1.14.22.26.22.07,0,.13-.04.18-.13.08-.14.15-.23.25-.34,1.01.98,1.41,1.87,1.29,2.88-.04.37.02.43.31.52.03,0,.07.02.1.03.27.09.48.17.66.26.41.2.82.43,1.3.75l.39.26-.28-.38c-.84-1.16-1.61-2.37-2.31-3.49-.78-1.25-1.66-2.4-2.42-3.38-.35-.44-.74-.95-1-1.49-.06-.13-.14-.26-.21-.39-.16-.29-.32-.59-.4-.9-.13-.52-.04-1.11.04-1.68.04-.28.08-.54.1-.8,0-.01,0-.02,0-.02.25-.06.52-.08.84-.08h.1s-.01-.1-.01-.1c-.01-.07-.03-.14-.04-.21-.03-.14-.06-.28-.05-.42,0,0,0-.01.02-.02,1.02.49,1.28,1.44,1.56,2.45.15.56.31,1.14.61,1.63.28.46.65.7,1.09.69.05,0,.12-.01.18-.03.09-.02.22-.04.27-.02.21.09.44.32.6.49.27.28.57.66.51,1.09-.01.08-.04.16-.06.23-.04.13-.09.26-.02.37.05.08.14.13.3.16.27.05.53.08.85.09,0,0,.01.01.01.02,0,.05-.01.14-.03.23-.04.21-.08.39.03.46.06.04.13.04.22-.01h.02c.13-.08.23-.13.35-.1,0,0,.02,0,.02.02.06.79,1.02,1.42,1.72,1.88.12.08.24.16.34.23.14.1.28.2.43.3.45.3.91.62,1.29.99l.03.02c.2.07.42.16.58.31.06.05.11.13.16.19.14.18.3.41.65.23.01,0,.02.02.02.03.14.87.44,1.68.95,2.54l.1.17c.35.6.72,1.22.94,1.88.34,1,.23,1.79-.07,2.82-.01.05-.03.1-.04.15-.12.42-.28.93-.07,1.34.31.61,1.18.77,1.67.81.89.07,1.73-.23,2.55-.53.42-.15.86-.31,1.29-.41,1.19-.27,2.25-.13,3.31.44.12.06.24.14.38.22.44.27.95.58,1.43.57.68,0,1.2-.53,1.67-1.1l.06-.07c.28-.34.57-.7.96-.88.32-.14.7-.25,1.2-.32,1.21-.19,4.14-.45,5.17,1.34,0,0,0,.03,0,.04-.16.2-.24.43-.31.64-.02.07-.05.14-.08.21l-.05.12h.13c.87-.03,1.72.11,2.62.44.22.08.44.17.67.25.69.27,1.41.55,2.17.65,1.48.2,3.04.23,4.52.1.32-.03.69-.06,1.04-.16.07-.02.16-.07.25-.11.11-.06.25-.13.31-.13.27.03.59.22.86.37.06.03.11.06.16.09.41.22.81.46,1.17.72,1.72,1.19,3.11,2.48,4.13,3.82l.05.07.07-.05c.8-.58,1.62-.54,2.55.14.1.07.2.15.3.22.33.26.68.52,1.08.65.6.19,1.18-.04,1.78-.69.01-.01.02-.02.04-.02.01,0,.02,0,.03.01.04.05.09.1.14.16.46.54,1.23,1.45,1.94,1.25.47-.13.69-.69.85-1.11l.05-.12c.04-.1.08-.2.12-.31.25-.66.54-1.42,1.07-1.89l.21-.19s.01,0,.02,0h.02s.02-.01.02-.01c.1-.06.21-.12.33-.16.01,0,.03,0,.04.01.01.01.01.03,0,.04l-.08.12.14.02c1.31.15,2.61,1.21,3.11,1.66.79.71,2,2.08,1.32,3.24l-.05.08.08.04c.68.32,1.34.99,1.81,1.84.21.38.86,1.65.38,2.24-.11.13-.32.23-.51.31-.06.03-.12.05-.17.08-.1.05-.2.1-.29.15-.32.16-.66.33-.97.51-.91.53-1.16,1.5-1.39,2.44-.04.17-.09.35-.14.51-.11.39-.25.78-.38,1.15-.26.74-.53,1.5-.6,2.3-.08.88-.06,1.88.08,3.14.03.27.07.53.1.8.09.7.19,1.42.17,2.13-.02.53-.1,1.28-.62,1.72l-.11.09.13.05c1.71.66,2.97,1.39,3.98,2.3.52.47,1.01.98,1.48,1.47.51.53,1.03,1.08,1.59,1.58,1.01.89,2.15,1.91,3.03,3.09.61.82,1.26,1.89.93,2.89l-.03.09.1.02c.88.15,1.73.45,2.55.75.28.1.57.21.85.3l.11.04c.59.2,1.27.44,1.92.44.49,0,.98-.06,1.45-.12l.22-.03c.84-.1,1.71-.13,2.41.4.52.39.82.84,1.06,1.57.47,1.47.75,3.12.89,5.35.05.77.09,1.52.03,2.26-.07.93-.43,1.76-.81,2.53-.68,1.38-1.33,2.68-1.41,4.28-.01.25-.02.51-.03.85v.14s.12-.07.12-.07c14.25-7.46,25.64-19.69,32.07-34.43v-.03s0-.03,0-.03c-.12-.28-.27-.55-.45-.8,0,0,0-.01,0-.01.64-1.05,1.28-2.17,1.44-3.42.1-.78.09-1.57.09-2.34,0-.45,0-.92.01-1.38.04-1.12.58-1.96,1.23-2.86.42-.59.88-1.28,1.06-2.04.15-.64.16-1.35,0-2.23v-.02Z"/>
            </g>
            <path class="cls-8" d="M33.71,98.45c-1.87-37.09,26.68-68.68,63.78-70.55,6.87-.35,13.55.35,19.89,1.95-8.18-2.97-17.08-4.39-26.31-3.92-37.1,1.87-65.65,33.46-63.78,70.55,1.52,30.23,22.78,54.78,50.67,61.83-24.67-8.95-42.84-32-44.24-59.85Z"/>
          </g>
          <path class="cls-12" d="M150.64,102.01c.08-.38.15-.76.23-1.13-.07-.36-.15-.72-.25-1.08h0c-.25-.92-.6-1.81-1.07-2.65-1.04-2.27-2.38-4.81-2.82-6.9-.7-3.28-3.82-8.44-4.03-11.83-.11-.27-.23-.53-.37-.78-.8-1.46-2.5-2.74-4.24-2.08-.96.36-1.62,1.27-1.94,2.25-.63,1.96-.57,4.48-.57,6.52,0,.79.11,1.59.19,2.39-.34-.3-.67-.6-.99-.92-1.84-1.02-3.43-2.64-4.96-4.04-.7-.64-1.42-1.27-2.14-1.9,2.12-1.34,4.27-2.67,6.61-3.48.04-.01.08-.03.11-.04,2.55-.87,4.81-1.45,6.94-3.23,1.34-1.12,2.44-2.42,3.28-3.83l23.85-3.86c-.03-.11-.05-.23-.08-.34-1.02-4.19-2.08-8.24-4.45-11.89-2.12-3.27-4.94-6.02-7.99-8.43l-13.1,5.5c-.13-.21-.26-.43-.39-.64-.3-.22-.6-.43-.91-.62h0s0,0,0,0c-.81-.51-1.67-.93-2.58-1.22-2.31-.96-5.01-1.93-6.75-3.16-2.74-1.94-8.53-3.62-10.98-5.96-.26-.12-.53-.23-.8-.32-1.58-.54-3.69-.31-4.53,1.34-.46.91-.33,2.04.1,2.97.87,1.87,2.62,3.68,4,5.18.54.58,1.16,1.1,1.76,1.62-.45.01-.9.02-1.35,0-2.04.5-4.31.38-6.39.39-.7,0-1.39.02-2.09.04-.38-1.43-1-2.8-1.95-4.06l4.2-23.66c-2.04-.52-4.1-.96-6.18-1.31-4.78-.81-9.61-1.16-14.44-1.15l-2.12,21.87c-1.95.7-3.71,1.74-5.05,3.13-1.56,1.62-2.76,3.92-4.63,5.2-1.51,1.03-3.05,2.11-4.64,3.09-.07-.05-.14-.1-.21-.15-.04-.03-.08-.06-.11-.08-4.11-3.04-8.38-5.42-13.51-5.21l-15.17-17.34c-6,3.53-11.23,8.19-15.83,13.43-2.45,2.79-4.72,5.78-6.55,9.01l18.62,11.96c-.82,2.9-1.07,5.87-.49,8.62.19.89.47,1.8.77,2.71-4.72,2.22-8.83,5.05-10.84,10.18-.21.53-.39,1.07-.54,1.62l-13.96,5.72c.07,1.59.16,3.17.3,4.76.32,3.73.83,7.45,1.57,11.12.61,3,1.38,5.96,2.33,8.86l16.47-8.65c2.12,2.15,4.6,3.84,7.29,4.69,2.92.93,6.44,1,9.14,2.52,3.46,1.94,7.12,3.93,10.3,6.37-.92,2.91-2.63,7.03-5.18,6.78-1.72-.17-3.28-1.11-4.92-1.57-1.97-.54-4.38-1.26-6.44-1.17-1.02.05-2.08.44-2.68,1.27-1.09,1.5-.31,3.48.89,4.64.21.2.43.39.66.57,3.21,1.1,6.31,2.76,9.3,4.3,3.48,1.8,6.45,3.78,9.63,5.79-2.15,5.76-5.69,15.43-7,19.99,1.47.79,2.98,1.5,4.51,2.13,5.55,2.28,11.44,3.64,17.36,4.53.5-1.06.78-2.42.79-4.15l3.24-20.64c1.37-.81,2.63-1.86,3.74-3.14,1.82-2.1,2.43-4.34,3.34-6.88.01-.04.03-.07.04-.11,0-.02.01-.03.02-.05,1.58,1.31,3.12,2.6,4.44,3.32,1.88,1.02,3.93,3.03,5.81,4.68.67.69,1.42,1.28,2.23,1.78,0,0,0,0,0,0,.31.19.63.38.96.55.42.04.85.08,1.28.12l4.04,24.46c3.93-.83,7.8-2.01,11.54-3.49,3.86-1.53,7.59-3.36,11.19-5.41l-9.12-22.9c.73-1.24,1.3-2.61,1.67-4.1.66-2.69.19-4.97-.15-7.65,0-.04,0-.08-.01-.12-.41-3.38.2-6.86.52-10.23.02-.22.04-.44.06-.66,1.82.82,3.53,1.51,5.69,1.61,1.25.06,2.47-.03,3.65-.26l19.2,19.29c1.91-2.17,3.85-4.31,5.79-6.46.86-.95,1.72-1.91,2.58-2.86,1.1-2.14,2.11-4.32,3.02-6.51,1.23-2.98,2.22-6.02,2.9-9.16l-20.61-9.42ZM102.46,113.28c-.68.41-1.29.93-1.88,1.46-.08.07-.19.18-.33.32-1.31-2.53-2.43-5.17-4.05-7.54.44-1.38.97-2.96.27-4.31-.29-.55-.71-1.05-1.35-1.17-.54-.1-1.08.11-1.52.42-.59.41-1.07.97-1.49,1.57-.32,0-.65.08-.97.27-.95.59-1.2,1.7-1.1,2.75.03.28.07.57.13.85-1.24,3.08-2.77,7.41-3.36,8.69-.62,1.35-2.76,4.32-2.57.99.26-4.75,1.67-9.21,2.33-13.89.05-.37.1-.75.14-1.14.77-.2,1.53-.43,2.24-.77,1.03-.5,1.93-1.32,2.09-2.47.38.11.77.17,1.16.14,2.07-.16,2.35-2.72,1.98-4.31-.53-2.3-2.1-4.28-3.64-6.01-.32-.36-.64-.71-.97-1.05.89-.36,1.76-.77,2.57-1.29.68-.44,1.37-.99,1.72-1.73.11-.24.18-.48.2-.71.17.09.32.17.46.24,1.17.55,2.47,1.11,3.78,1.14.64.01,1.31-.12,1.78-.58.55-.54.65-1.31.57-2.05-.21-1.94-2-3.19-3.4-4.33-.21-.17-.5-.4-.84-.66.64-3,1.02-6.02,1.86-8.98.56.06,1.12.09,1.68.07.18,0,.36-.02.53-.05,0,.05,0,.09,0,.13.08,1.74-.32,9.02-.03,10.9.15.94.35,1.96.87,2.77.26.39.61.74,1.09.84.56.11,1.07-.15,1.48-.5.22-.18.39-.4.53-.63.08.29.18.57.3.81.86,1.79,2.52,3.13,4.1,4.26,3.84,2.75,8.05,4.81,11.66,7.9,2.54,2.17-1.08,1.66-2.49,1.18-1.89-.65-9.47-4.14-11.59-4.62-1.06-.24-2.23-.46-3.31-.24-.53.11-1.05.34-1.35.81-.35.54-.29,1.2-.09,1.79.14.4.36.75.63,1.05-.86-.27-1.77-.21-2.34.64-.38.58-.48,1.31-.5,1.99-.02.81.06,1.63.19,2.43.66,4.2,1.95,8.32,3.25,12.41-.14.07-.29.14-.42.23ZM108.36,68.06c.18.67.59,1.86,1.04,3.09-1.42.51-2.83,1.03-3.91,1.48.1-1.72.21-3.42.34-4.68.79-.14,1.58-.29,2.36-.44.06.2.12.39.16.55ZM126.44,88.42c1.37,1.78.07,2.55-1.66,1.42-2.16-1.42-4.3-2.92-6.48-4.37,1.13-.65,2.25-1.3,3.37-1.96,1.68,1.55,3.36,3.1,4.76,4.91ZM112.05,77.08c.36.48.8.87,1.39,1.02.38.09.79.09,1.12-.13.64-.42.77-1.36.82-2.07.17.51.44,1,.69,1.41.39.62.82,1.21,1.27,1.77-1.55,1.35-3.18,2.84-3.76,3.42-1.22-.71-2.46-1.38-3.72-1.99-.73-.35-1.49-.67-2.27-.88-.66-.18-1.39-.3-2.05-.09-.18.05-.33.13-.46.22,0-.12.02-.24.03-.36.02-.23.04-.56.06-.94.49-.13.98-.28,1.43-.41.87-.25,2.81-.9,5.01-1.62.13.22.27.45.43.66ZM92.24,67.88c-.44,2-.92,4.02-1.33,6.04-.97-.74-1.94-1.49-2.87-2.21.59-1.48,1.14-2.99,1.8-4.44.77.2,1.59.41,2.4.61ZM74.5,104.46c.84-.09,1.68-.19,2.52-.3.48.07.96.02,1.43-.17.32-.04.64-.08.97-.12-.98,4.23-1.56,8.59-2.33,12.83-.37,2.03-1.83,2.44-2.17.22-.63-4.14.03-8.31-.42-12.46ZM70.3,83.7c-1.13-2.42.59-2.98,2.29-1.21.51.53,1.01,1.06,1.52,1.59-1.07.28-2.15.55-3.23.77-.2-.38-.39-.76-.58-1.15ZM84.85,95.81c-.57-.39-1.24-.53-1.94-.14-.05.03-.09.06-.14.09-1.61.02-3.21.15-4.81.29-.7-1.31-1.5-2.57-2.33-3.8,1.67-.41,3.35-.82,5.01-1.26,1.68,1.71,3.4,3.36,5.22,4.91-.34-.03-.67-.06-1.01-.08ZM84.06,81.41c-.3.06-.6.13-.89.2-1.35-1.39-2.65-2.83-3.84-4.39.64-.32,1.22-.62,1.7-.89.02.88.32,1.77,1.16,2.19.9.46,1.77-.05,2.44-.72,1.24.88,2.74,1.98,4.23,3.04-1.61-.06-3.26.23-4.8.56ZM83.29,67.72c-1.93-1.99-.86-2.29.73-2.05-.25.68-.49,1.37-.73,2.05ZM67.71,94.78c.37.5.74,1.01,1.11,1.51-1.23-.24-1.54-.9-1.11-1.51ZM94.65,121.25c-1.13,1.48-3.92,4.58-3.16.71.22-1.11.95-3.41,1.77-5.86.6,1.34,1.21,2.68,1.85,4.01.06.12.12.24.18.36-.25.3-.47.56-.63.78ZM107.98,105.45c-.35-1.26-.72-2.51-1.15-3.76-.56-1.61-1.24-3.33-2.4-4.63.27.14.54.27.8.39,1.04.52,3.79,1.75,6.58,3.03,0,.05,0,.11-.01.16-.06.88.1,2.77.31,4.84-1.56-.04-3.16-.05-4.14-.04ZM117.53,103.25c.46.24.84.46,1.12.64,2.37,1.52.93,1.89-.77,1.9-.13-.92-.25-1.79-.35-2.54ZM112.8,111.74c.06.57.1,1.03.11,1.35.06,1.49-.49,5.1-1.85,2.05-.6-1.35-1.08-2.72-1.52-4.11,1.08.24,2.17.48,3.25.72ZM119.52,115.75c-.17-.6-.37-1.58-.57-2.77,1.03.19,2.06.37,3.08.6,0,.03-.01.07-.02.1-.33,1.83-1.41,5.86-2.49,2.07ZM120.83,73.67c2.41-.43,2.11.47,1.17,1.47-.11-.08-.22-.16-.33-.24-.52-.36-1.05-.73-1.6-1.07.29-.07.54-.13.75-.16ZM115.53,68.91c-.26.12-.66.27-1.14.45-.15-.93-.31-1.87-.47-2.8.87-.1,1.75-.18,2.64-.21,3.34-.12.33,1.96-1.03,2.56ZM116.07,57.02c2.21.38,1.78,1.83-.26,2.17-1.04.17-2.09.33-3.14.49-.14-1-.22-2-.21-3,1.21.04,2.41.14,3.61.34ZM85.41,56.51c.34-.08.67-.06.99.03-.02.37-.05.72-.07,1.05-.61-.26-1.23-.52-1.84-.78.3-.12.61-.23.93-.3ZM62.27,108.31c-.29-.36-.47-.78-.56-1.22,1.28-.55,2.46-.98,3.26-1.25,1.06-.37,2.18-.59,3.32-.75-.16,1.21-.24,2.42-.29,3.64-.06,1.37-.13,2.74-.19,4.12-.26-.23-.52-.46-.77-.68-1.53-1.34-3.48-2.27-4.77-3.86ZM103.34,119.62c.35-.58.69-1.16,1.03-1.74.31,1.35-.22,2.16-1.03,1.74Z"/>
          <g>
            <g>
              <g>
                <path class="cls-10" d="M165.86,63c-1.02-4.19-2.08-8.24-4.45-11.89-2.12-3.27-4.94-6.02-7.99-8.43l-17.59,7.39.4,18.09,29.71-4.81c-.03-.11-.05-.23-.08-.34Z"/>
                <path class="cls-10" d="M113.36,37.59c-.46.91-.33,2.04.1,2.97.87,1.87,2.62,3.68,4,5.18.54.58,1.16,1.1,1.76,1.62-.45.01-.9.02-1.35,0-2.04.5-4.31.38-6.39.39-2.01.01-4.02.09-6.04.15-1.54.04-3.07.12-4.59.35-1.11.17-2.27.28-3.33.68-.99.37-1.87,1.08-1.99,2.2-.16,1.57,1.58,2.34,2.83,2.68,5.03,1.35,10.14.29,15.16,1.15,2.21.38,1.78,1.83-.26,2.17-5.74.95-11.71,1.53-17.29,3.25-.78.24-1.54.52-2.26.89-.6.31-1.22.72-1.57,1.32-.88,1.51.76,2.93,2.04,3.44,1.85.74,3.97.59,5.91.35,4.69-.58,9.18-1.92,13.93-2.1,3.34-.12.33,1.96-1.03,2.56-1.83.81-9.77,3.38-11.65,4.47-.94.54-1.95,1.18-2.6,2.07-.31.43-.54.96-.45,1.51.11.64.6,1.08,1.15,1.37,1.44.78,3.17.14,4.63-.28,2.24-.66,11.57-3.9,14.21-4.37,3.88-.69.74,2.05-.77,3.15-1.58,1.16-5.94,5.1-6.61,5.81-.54.58-1.07,1.18-1.5,1.86-.37.58-.6,1.21-.52,1.91.06.44.23.87.6,1.14.73.52,1.81.25,2.59.01,3.57-2,7.16-4.08,10.69-6.23,2.9-1.77,5.76-3.84,8.97-4.96.04-.01.08-.03.11-.04,2.55-.87,4.81-1.45,6.94-3.23,5.99-5.02,7.04-13.42,3.21-20.02-.7-1.2-1.39-2.34-2.09-3.47-.3-.22-.6-.43-.91-.62h0s0,0,0,0c-.81-.51-1.67-.93-2.58-1.22-2.31-.96-5.01-1.93-6.75-3.16-2.74-1.94-8.53-3.62-10.98-5.96-.26-.12-.53-.23-.81-.32-1.58-.54-3.69-.31-4.53,1.34Z"/>
              </g>
              <path class="cls-15" d="M121.15,71.62s.01-.05.03-.03c.01.02-.01.05-.03.03Z"/>
            </g>
            <g>
              <path class="cls-14" d="M74.25,50.67s.08.06.11.08c3.26,2.38,7.22,3.78,10.9,5.42,4.49,2,8.94,4.11,13.31,6.24.77.6,1.76,1.48,1.74,2.54,0,.54-.31,1.01-.71,1.36-.62.56-1.4.75-2.21.78-.95.04-1.89-.07-2.83-.21-1.15-.17-7.94-1.77-10.14-2.54-2.09-.72-6.89-1.95-3.6,1.38,2.24,2.27,11.71,9.19,13.87,10.94,1.4,1.14,3.19,2.39,3.4,4.33.08.74-.01,1.51-.57,2.05-.47.46-1.14.6-1.78.58-1.31-.03-2.61-.59-3.78-1.14-2.34-1.11-10.21-7.13-12.23-8.38-1.5-.93-5.57-2.46-3.19.72,3.38,4.53,7.72,8.01,11.45,12.2,1.54,1.73,3.11,3.71,3.64,6.01.37,1.59.09,4.15-1.98,4.31-.82.06-1.64-.26-2.35-.64-.85-.45-1.65-1.01-2.4-1.61-5.44-4.29-10.04-9.73-14.85-14.71-1.71-1.77-3.42-1.21-2.29,1.21,2.55,5.49,7.04,9.76,9.11,15.59.52,1.46.94,3.67-.7,4.57-1.17.64-2.46.26-3.49-.46-1.1-.77-2-1.83-2.91-2.8-1.25-1.33-2.37-2.78-3.44-4.26-1.41-1.93-2.85-3.84-4.22-5.8-1.43-2.05-2.86-4.37-4.75-6.03-.63-.56-1.59-1.38-2.69-2.22-.35.29-.62.65-.79,1.08-.75,1.91-.6,4.07-1.01,6.05-.49,2.37-1.04,5.32-2.25,7.44-.6,1.06-1.6,1.96-2.8,2.14-2.18.34-3.85-1.56-4.42-3.45-.1-.33-.18-.66-.24-1,.57-3.99.5-8.17.49-12.16,0-3.09-1.68-6.2-2.3-9.19-1.57-7.5,2.96-16.65,8.65-21.43,2.61-2.2,5.83-3.64,9.21-4.12,5.84-.83,10.56,1.72,15.08,5.06Z"/>
              <path class="cls-14" d="M29.75,41.56c-2.45,2.79-4.72,5.78-6.55,9.01l30.87,19.83,15.18-15.22-23.66-27.06c-6,3.53-11.23,8.19-15.83,13.43Z"/>
            </g>
            <g>
              <path class="cls-16" d="M109.92,54.15s0,.07,0,.1c-.1,2.97.69,5.95,1.22,8.87.64,3.56,1.2,7.13,1.71,10.67-.05.71-.17,1.68-.83,2.11-.33.22-.74.23-1.12.13-.59-.15-1.03-.54-1.39-1.02-.41-.56-.74-1.18-1.04-1.8-.37-.77-2.21-5.56-2.66-7.21-.43-1.57-1.66-4.99-2.33-1.62-.45,2.3-.74,10.92-.91,12.95-.11,1.32-.13,2.93-1.22,3.86-.41.35-.92.62-1.48.5-.47-.1-.83-.45-1.09-.84-.52-.81-.73-1.83-.87-2.77-.29-1.88.11-9.15.03-10.9-.06-1.3-.81-4.4-1.76-1.64-1.35,3.93-1.67,8-2.68,12.01-.41,1.65-.97,3.43-2.15,4.7-.82.88-2.49,1.77-3.44.58-.38-.47-.52-1.11-.58-1.7-.08-.71-.07-1.42-.02-2.13.36-5.08,1.76-10.13,2.79-15.11.37-1.77-.68-2.58-1.68-.89-2.28,3.82-3.02,8.32-5.7,11.99-.67.92-1.84,2.09-3.07,1.46-.87-.45-1.17-1.39-1.16-2.31.01-.98.28-1.97.5-2.93.29-1.31.71-2.59,1.16-3.85.59-1.66,1.15-3.32,1.78-4.96.65-1.72,1.47-3.55,1.7-5.38.08-.61.18-1.54.24-2.56-.32-.09-.65-.11-.99-.03-1.47.33-2.72,1.32-4.1,1.89-1.65.68-3.66,1.57-5.46,1.71-.89.07-1.85-.16-2.46-.81-1.11-1.19-.65-2.98.27-4.12.16-.2.33-.38.51-.56,2.66-1.3,5.17-3.08,7.59-4.73,1.87-1.28,3.07-3.58,4.63-5.2,3.91-4.06,11.34-5.09,16.6-3.61,2.41.68,4.62,2.04,6.31,3.89,2.92,3.21,3.32,7.13,3.16,11.26Z"/>
              <path class="cls-16" d="M105.46,18.76c-4.78-.81-9.61-1.16-14.44-1.15l-2.67,27.56,18.42,2.35,4.87-27.44c-2.04-.52-4.1-.96-6.18-1.31Z"/>
            </g>
            <g>
              <path class="cls-4" d="M43.07,73.41s.09-.04.13-.06c3.68-1.67,6.84-4.43,10.08-6.83,3.95-2.92,7.98-5.76,11.98-8.51.9-.37,2.15-.8,3.07-.26.47.28.72.77.84,1.28.18.81-.03,1.59-.41,2.31-.43.84-.99,1.61-1.57,2.36-.71.92-5.45,6.04-7.2,7.58-1.66,1.47-5.09,5.04-.57,3.81,3.08-.84,13.77-5.67,16.35-6.69,1.68-.66,3.65-1.6,5.44-.83.68.29,1.31.76,1.51,1.5.17.64-.04,1.29-.37,1.83-.67,1.13-1.8,1.99-2.85,2.73-2.11,1.49-11.23,5.38-13.31,6.53-1.55.85-4.88,3.64-.94,3.14,5.61-.72,10.77-2.78,16.26-3.97,2.26-.49,4.76-.89,7.03-.21,1.57.46,3.66,1.97,2.78,3.85-.35.75-1.04,1.3-1.72,1.73-.81.52-1.69.94-2.58,1.3-6.41,2.63-13.42,3.96-20.11,5.69-2.38.62-2.73,2.38-.07,2.59,6.03.48,11.96-1.33,18.06-.26,1.52.27,3.66.98,3.64,2.86-.02,1.34-.99,2.27-2.12,2.81-1.21.58-2.57.84-3.87,1.16-1.77.43-3.59.69-5.4.9-2.37.28-4.75.59-7.12.82-2.48.24-5.21.34-7.59,1.17-.8.28-1.98.7-3.26,1.25.08.45.26.86.56,1.22,1.29,1.59,3.25,2.52,4.77,3.86,1.82,1.6,4.12,3.52,5.37,5.62.62,1.04.92,2.35.49,3.49-.78,2.06-3.25,2.59-5.18,2.15-.34-.08-.67-.17-.99-.28-3.19-2.46-6.87-4.45-10.35-6.41-2.69-1.51-6.22-1.59-9.14-2.52-7.3-2.32-13.04-10.77-14.4-18.07-.63-3.35-.3-6.87.95-10.05,2.15-5.49,6.69-8.34,11.82-10.64Z"/>
              <path class="cls-4" d="M17.04,96.15c.32,3.73.83,7.45,1.57,11.12.61,3,1.38,5.96,2.33,8.86l29.37-15.43-5.78-20.7-27.79,11.4c.07,1.59.16,3.17.3,4.76Z"/>
            </g>
            <g>
              <g>
                <path class="cls-16" d="M121.73,164.78c3.86-1.53,7.59-3.36,11.19-5.41l-11.17-28.05-16.43,7.58,4.86,29.37c3.93-.83,7.8-2.01,11.54-3.49Z"/>
                <path class="cls-16" d="M84.26,124.19c.62-.82,1.69-1.19,2.71-1.21,2.06-.04,4.46.73,6.41,1.32.76.23,1.49.56,2.23.87-.19-.41-.38-.82-.6-1.21-.45-2.05-1.55-4.04-2.45-5.91-.87-1.81-1.68-3.66-2.52-5.49-.64-1.4-1.24-2.82-1.7-4.28-.34-1.07-.75-2.17-.85-3.29-.1-1.05.15-2.16,1.1-2.75,1.34-.84,2.79.39,3.65,1.37,3.43,3.92,4.71,8.98,7.69,13.11,1.31,1.82,2.43.8,1.83-1.18-1.67-5.57-3.77-11.2-4.67-16.96-.13-.8-.21-1.62-.19-2.43.02-.68.11-1.41.5-1.99.97-1.46,2.96-.6,3.98.32,1.47,1.34,2.28,3.31,2.91,5.15,1.54,4.47,2.31,9.09,4.24,13.44,1.36,3.06,1.9-.56,1.85-2.05-.08-2-1.26-10.26-1.11-12.43.08-1.08.2-2.27.72-3.24.25-.47.63-.91,1.16-1.06.62-.18,1.23.07,1.74.43,1.34.95,1.52,2.79,1.78,4.28.4,2.3,1.58,12.11,2.32,14.69,1.09,3.79,2.16-.24,2.49-2.07.35-1.93,1.97-7.58,2.32-8.49.29-.74.59-1.48,1.01-2.16.36-.59.82-1.08,1.49-1.3.42-.14.89-.17,1.29.04.79.43,1.02,1.51,1.15,2.32-.23,4.08-.52,8.22-.9,12.34-.31,3.38-.92,6.86-.52,10.23,0,.04,0,.08.01.12.34,2.68.81,4.96.15,7.65-1.87,7.59-8.96,12.22-16.57,11.67-1.38-.1-2.72-.22-4.04-.35-.33-.17-.65-.35-.96-.55h0c-.81-.5-1.57-1.09-2.23-1.78-1.88-1.65-3.93-3.65-5.81-4.68-2.95-1.61-7-6.07-10.18-7.25-.22-.18-.44-.38-.64-.58-1.17-1.18-1.9-3.18-.78-4.66Z"/>
              </g>
              <path class="cls-3" d="M118.25,116.25s-.04.04-.02.04c.02,0,.04-.04.02-.04Z"/>
            </g>
            <g>
              <g>
                <path class="cls-15" d="M62.89,163.8c5.55,2.28,11.44,3.64,17.36,4.53.5-1.06.78-2.42.79-4.15l4.15-26.4-18.08-.71s-6.79,17.87-8.73,24.6c1.47.79,2.98,1.5,4.51,2.13Z"/>
                <path class="cls-15" d="M91.37,133.52s.03-.07.04-.11c1.17-3.19,3.3-6.02,5.11-8.88,2.21-3.5,4.35-7.05,6.41-10.58.26-.78.54-1.85.03-2.59-.26-.38-.69-.56-1.13-.62-.69-.1-1.33.13-1.92.48-.68.41-1.29.93-1.88,1.46-.73.65-4.73,4.95-5.92,6.51-1.13,1.48-3.92,4.58-3.16.71.51-2.64,3.92-11.9,4.61-14.14.45-1.45,1.12-3.16.36-4.62-.29-.55-.71-1.05-1.35-1.17-.54-.1-1.08.11-1.52.42-.9.63-1.56,1.63-2.12,2.56-1.12,1.86-3.83,9.76-4.66,11.57-.62,1.35-2.76,4.32-2.57.99.26-4.75,1.67-9.21,2.33-13.89.27-1.93.45-4.05-.25-5.91-.49-1.29-1.88-2.95-3.4-2.09-.61.34-1.02.95-1.35,1.55-.39.71-.68,1.48-.93,2.25-1.81,5.54-2.5,11.51-3.54,17.23-.37,2.03-1.83,2.44-2.17.22-.77-5.04.38-10.12-.89-15.17-.32-1.26-1.05-3.01-2.63-2.88-1.12.1-1.84.97-2.23,1.95-.41,1.05-.55,2.21-.73,3.32-.25,1.52-.36,3.05-.43,4.59-.09,2.01-.21,4.02-.25,6.03-.05,2.1.03,4.39-.52,6.44-.65,2.42-2.52,9.02-5.74,8.7-1.72-.17-3.28-1.11-4.92-1.57-1.97-.54-4.38-1.26-6.44-1.17-1.02.05-2.08.44-2.68,1.27-1.09,1.5-.31,3.48.89,4.64.21.2.43.39.66.57,3.21,1.1,6.31,2.76,9.3,4.3,4.39,2.27,7.98,4.84,12.2,7.39,6.53,3.94,14.95,3.04,20.07-2.87,1.82-2.1,2.43-4.34,3.34-6.88Z"/>
              </g>
              <path class="cls-15" d="M88.91,122.77s-.05.01-.03.03c.02.01.05-.01.03-.03Z"/>
            </g>
            <g>
              <g>
                <path class="cls-11" d="M160.21,127.89c.86-.95,1.72-1.91,2.58-2.86,1.1-2.14,2.11-4.32,3.02-6.51,1.23-2.98,2.22-6.02,2.9-9.16l-25.11-11.48-11.97,13.57,22.78,22.9c1.91-2.17,3.85-4.31,5.79-6.46Z"/>
                <path class="cls-11" d="M135.54,73.48c-.96.36-1.62,1.27-1.94,2.25-.63,1.96-.57,4.48-.57,6.52,0,.79.11,1.59.19,2.39-.34-.3-.67-.6-.99-.92-1.84-1.02-3.43-2.64-4.96-4.04-1.49-1.36-3.02-2.66-4.54-3.98-1.16-1.01-2.34-2-3.61-2.86-.93-.63-1.86-1.33-2.91-1.76-.98-.4-2.11-.48-2.95.27-1.19,1.05-.43,2.79.27,3.89,2.78,4.41,7.25,7.08,10.36,11.12,1.37,1.78.07,2.55-1.66,1.42-4.86-3.19-9.65-6.82-14.91-9.33-.73-.35-1.49-.67-2.27-.88-.66-.18-1.39-.3-2.05-.09-1.67.51-1.43,2.67-.83,3.91.86,1.79,2.52,3.13,4.1,4.26,3.84,2.75,8.05,4.81,11.66,7.9,2.54,2.17-1.08,1.66-2.49,1.18-1.89-.65-9.47-4.14-11.59-4.62-1.06-.24-2.23-.46-3.31-.24-.53.11-1.05.34-1.35.81-.35.55-.29,1.2-.09,1.79.53,1.55,2.23,2.25,3.59,2.93,2.09,1.04,11.15,4.98,13.41,6.43,3.32,2.13-.85,2-2.7,1.8-1.95-.22-7.82-.28-8.8-.21-.79.06-1.59.14-2.36.35-.66.18-1.27.48-1.67,1.05-.26.36-.42.8-.33,1.25.18.88,1.16,1.41,1.9,1.77,3.98.94,8.02,1.86,12.08,2.67,3.33.67,6.84,1.08,9.95,2.44.04.02.07.03.11.05,2.47,1.09,4.52,2.2,7.29,2.33,7.81.38,14.27-5.09,15.93-12.54.3-1.35.57-2.67.82-3.97-.07-.36-.15-.72-.25-1.08h0s0,0,0,0c-.25-.92-.6-1.81-1.07-2.65-1.04-2.27-2.38-4.81-2.82-6.9-.7-3.28-3.82-8.44-4.03-11.83-.11-.27-.23-.53-.37-.78-.8-1.46-2.5-2.74-4.24-2.08Z"/>
              </g>
              <path class="cls-5" d="M118.2,103.78s.05-.03.04,0c0,.02-.05.03-.04,0Z"/>
            </g>
          </g>
          <circle class="cls-7" cx="93.28" cy="93.04" r="70.55" transform="translate(-38.47 93.21) rotate(-45)"/>
        </g>
      </g>
    </g>
  </g>
</svg>