<?xml version="1.0" encoding="UTF-8"?>
<svg id="Layer_2" data-name="Layer 2" xmlns="http://www.w3.org/2000/svg" xmlns:xlink="http://www.w3.org/1999/xlink" viewBox="0 0 188 188">
  <defs>
    <style>
      .cls-1 {
        stroke: url(#linear-gradient-18);
        stroke-width: .13px;
      }

      .cls-1, .cls-2, .cls-3, .cls-4, .cls-5, .cls-6, .cls-7, .cls-8, .cls-9, .cls-10, .cls-11, .cls-12, .cls-13, .cls-14, .cls-15, .cls-16, .cls-17, .cls-18, .cls-19 {
        stroke-miterlimit: 10;
      }

      .cls-1, .cls-5, .cls-8, .cls-9, .cls-14 {
        fill: #a7a9ac;
      }

      .cls-2 {
        stroke: url(#linear-gradient-12);
        stroke-width: .3px;
      }

      .cls-2, .cls-18 {
        fill: #e6e7e8;
      }

      .cls-3 {
        fill: url(#linear-gradient-4);
        stroke: url(#linear-gradient-5);
      }

      .cls-3, .cls-13, .cls-19 {
        stroke-width: .13px;
      }

      .cls-4 {
        stroke: url(#linear-gradient-26);
        stroke-width: .23px;
      }

      .cls-4, .cls-15, .cls-20 {
        fill: #231f20;
      }

      .cls-5 {
        stroke: url(#linear-gradient-20);
      }

      .cls-5, .cls-14 {
        stroke-width: .12px;
      }

      .cls-6 {
        stroke: url(#linear-gradient-3);
        stroke-width: .87px;
      }

      .cls-6, .cls-10, .cls-12, .cls-16, .cls-17 {
        fill: #f1f2f2;
      }

      .cls-21 {
        fill: url(#linear-gradient);
      }

      .cls-21, .cls-22, .cls-23, .cls-24, .cls-25, .cls-26, .cls-27, .cls-28, .cls-29, .cls-30, .cls-20, .cls-31, .cls-32, .cls-33, .cls-34 {
        stroke-width: 0px;
      }

      .cls-7 {
        fill: url(#linear-gradient-15);
        stroke: url(#linear-gradient-16);
        stroke-width: .16px;
      }

      .cls-22 {
        fill: #a3d2b0;
      }

      .cls-8 {
        stroke: url(#linear-gradient-11);
        stroke-width: .16px;
      }

      .cls-23 {
        fill: #ff9e00;
      }

      .cls-24 {
        fill: #0c486c;
      }

      .cls-9 {
        stroke: url(#linear-gradient-10);
        stroke-width: .17px;
      }

      .cls-25 {
        fill: #f4511e;
      }

      .cls-26 {
        fill: #005baa;
      }

      .cls-27 {
        fill: #ffc107;
      }

      .cls-35 {
        fill: none;
        stroke: #fff;
        stroke-dasharray: 0 0 0 10.19;
        stroke-linecap: round;
        stroke-linejoin: round;
        stroke-width: 3.06px;
      }

      .cls-10 {
        stroke: url(#linear-gradient-13);
        stroke-width: .35px;
      }

      .cls-28 {
        fill: #fff;
      }

      .cls-11 {
        fill: url(#linear-gradient-23);
        stroke: url(#linear-gradient-24);
        stroke-width: .15px;
      }

      .cls-29 {
        fill: url(#linear-gradient-2);
      }

      .cls-12 {
        stroke: url(#linear-gradient-25);
      }

      .cls-12, .cls-18 {
        stroke-width: .14px;
      }

      .cls-13 {
        fill: url(#linear-gradient-6);
        stroke: url(#linear-gradient-7);
      }

      .cls-14 {
        stroke: url(#linear-gradient-19);
      }

      .cls-15 {
        stroke: url(#linear-gradient-14);
        stroke-width: .21px;
      }

      .cls-30 {
        fill: #4dd0e1;
      }

      .cls-16 {
        stroke: url(#linear-gradient-17);
        stroke-width: .15px;
      }

      .cls-31 {
        fill: #b2ebf2;
      }

      .cls-32 {
        fill: #00546f;
      }

      .cls-17 {
        stroke: url(#linear-gradient-22);
        stroke-width: .17px;
      }

      .cls-33 {
        fill: #f57c00;
      }

      .cls-18 {
        stroke: url(#linear-gradient-21);
      }

      .cls-34 {
        fill: #ff5722;
      }

      .cls-19 {
        fill: url(#linear-gradient-8);
        stroke: url(#linear-gradient-9);
      }
    </style>
    <linearGradient id="linear-gradient" x1="94.92" y1="119" x2="94.92" y2="108.59" gradientUnits="userSpaceOnUse">
      <stop offset="0" stop-color="#eeefef"/>
      <stop offset=".25" stop-color="#f9f9f9"/>
      <stop offset=".34" stop-color="#fff"/>
      <stop offset=".49" stop-color="#fbfbfb"/>
      <stop offset=".63" stop-color="#eff0f0"/>
      <stop offset=".73" stop-color="#e3e4e5"/>
      <stop offset=".77" stop-color="#dedfe0"/>
      <stop offset=".82" stop-color="#d0d1d2"/>
      <stop offset=".88" stop-color="#b9babc"/>
      <stop offset=".94" stop-color="#999a9d"/>
      <stop offset=".99" stop-color="#717275"/>
      <stop offset="1" stop-color="#6d6e71"/>
    </linearGradient>
    <linearGradient id="linear-gradient-2" x1="94.92" y1="119" x2="94.92" y2="117.91" gradientUnits="userSpaceOnUse">
      <stop offset=".02" stop-color="#808082"/>
      <stop offset=".47" stop-color="#e3e4e5"/>
      <stop offset="1" stop-color="#b9bbbd"/>
    </linearGradient>
    <linearGradient id="linear-gradient-3" x1="1280.47" y1="-4467.8" x2="1280.47" y2="-4393.92" gradientTransform="translate(-1185.55 4516.38)" gradientUnits="userSpaceOnUse">
      <stop offset="0" stop-color="#c8c8c8"/>
      <stop offset="1" stop-color="#777"/>
    </linearGradient>
    <linearGradient id="linear-gradient-4" x1="119.55" y1="107.16" x2="123" y2="107.16" gradientUnits="userSpaceOnUse">
      <stop offset="0" stop-color="#eeefef"/>
      <stop offset="1" stop-color="#a4a6a9"/>
    </linearGradient>
    <linearGradient id="linear-gradient-5" x1="119.49" y1="107.16" x2="123.06" y2="107.16" gradientUnits="userSpaceOnUse">
      <stop offset="0" stop-color="#b9bbbd"/>
      <stop offset="1" stop-color="#6d6e71"/>
    </linearGradient>
    <linearGradient id="linear-gradient-6" x1="118.48" y1="107.16" x2="119.08" y2="107.16" xlink:href="#linear-gradient-4"/>
    <linearGradient id="linear-gradient-7" x1="118.48" y1="107.39" x2="119.08" y2="106.94" xlink:href="#linear-gradient-5"/>
    <linearGradient id="linear-gradient-8" x1="117.45" y1="107.16" x2="118.06" y2="107.16" xlink:href="#linear-gradient-4"/>
    <linearGradient id="linear-gradient-9" x1="117.46" y1="107.39" x2="118.05" y2="106.94" xlink:href="#linear-gradient-5"/>
    <linearGradient id="linear-gradient-10" x1="2422.68" y1="-1912.2" x2="2424.02" y2="-1913.21" gradientTransform="translate(-1864.74 2535.47) rotate(-90) scale(1 -1)" xlink:href="#linear-gradient-3"/>
    <linearGradient id="linear-gradient-11" x1="2417.87" y1="-1912.26" x2="2419.04" y2="-1913.14" gradientTransform="translate(-1864.74 2535.47) rotate(-90) scale(1 -1)" xlink:href="#linear-gradient-3"/>
    <linearGradient id="linear-gradient-12" x1="-1986.79" y1="-2787.72" x2="-1984.42" y2="-2789.51" gradientTransform="translate(2017.93 -2681.63) scale(1 -1)" xlink:href="#linear-gradient-3"/>
    <linearGradient id="linear-gradient-13" x1="-2001.42" y1="-2775.16" x2="-1980.57" y2="-2775.16" gradientTransform="translate(2028.71 -2654.73) scale(1 -1)" xlink:href="#linear-gradient-3"/>
    <linearGradient id="linear-gradient-14" x1="-1991.3" y1="-2787.33" x2="-1990.68" y2="-2787.33" gradientTransform="translate(-1953.27 2895.6) rotate(-180) scale(1 -1)" xlink:href="#linear-gradient-3"/>
    <linearGradient id="linear-gradient-15" x1="-1991.5" y1="-2763.57" x2="-1990.48" y2="-2762.55" gradientTransform="translate(-1953.27 2895.6) rotate(-180) scale(1 -1)" gradientUnits="userSpaceOnUse">
      <stop offset="0" stop-color="#fff"/>
      <stop offset="1" stop-color="#d1d3d4"/>
    </linearGradient>
    <linearGradient id="linear-gradient-16" x1="-1991.7" y1="-2762.69" x2="-1990.28" y2="-2763.44" gradientTransform="translate(-1953.27 2895.6) rotate(-180) scale(1 -1)" gradientUnits="userSpaceOnUse">
      <stop offset="0" stop-color="#c8c8c8"/>
      <stop offset="1" stop-color="#a7a9ac"/>
    </linearGradient>
    <linearGradient id="linear-gradient-17" x1="-1991.27" y1="-2762.86" x2="-1990.71" y2="-2763.27" gradientTransform="translate(2028.71 -2630.53) scale(1 -1)" xlink:href="#linear-gradient-3"/>
    <linearGradient id="linear-gradient-18" x1="-474.02" y1="-1063.21" x2="-472.88" y2="-1064.07" gradientTransform="translate(-902.12 -360.13) rotate(-90) scale(1 -1)" xlink:href="#linear-gradient-3"/>
    <linearGradient id="linear-gradient-19" x1="-476.68" y1="-1063.26" x2="-475.68" y2="-1064.02" gradientTransform="translate(-902.12 -360.13) rotate(-90) scale(1 -1)" xlink:href="#linear-gradient-3"/>
    <linearGradient id="linear-gradient-20" x1="-478.7" y1="-1063.26" x2="-477.69" y2="-1064.02" gradientTransform="translate(-902.12 -360.13) rotate(-90) scale(1 -1)" xlink:href="#linear-gradient-3"/>
    <linearGradient id="linear-gradient-21" x1="-1142.99" y1="109.38" x2="-1141.43" y2="108.2" gradientTransform="translate(-990.66) rotate(-180) scale(1 -1)" xlink:href="#linear-gradient-3"/>
    <linearGradient id="linear-gradient-22" x1="-1152.26" y1="120.38" x2="-1139.93" y2="120.38" gradientTransform="translate(1301.54 240.75) scale(1 -1)" xlink:href="#linear-gradient-3"/>
    <linearGradient id="linear-gradient-23" x1="-1146.63" y1="130.07" x2="-1145.57" y2="131.14" gradientTransform="translate(-990.66) rotate(-180) scale(1 -1)" xlink:href="#linear-gradient-15"/>
    <linearGradient id="linear-gradient-24" x1="-1146.83" y1="130.99" x2="-1145.36" y2="130.21" gradientTransform="translate(-990.66) rotate(-180) scale(1 -1)" xlink:href="#linear-gradient-16"/>
    <linearGradient id="linear-gradient-25" x1="-1146.38" y1="130.82" x2="-1145.81" y2="130.39" gradientTransform="translate(1301.54 261.2) scale(1 -1)" xlink:href="#linear-gradient-3"/>
    <linearGradient id="linear-gradient-26" x1="-1148.61" y1="110.24" x2="-1147.89" y2="110.24" gradientTransform="translate(-990.66) rotate(-180) scale(1 -1)" xlink:href="#linear-gradient-3"/>
  </defs>
  <g id="Layer_1-2" data-name="Layer 1">
    <rect class="cls-22" width="188" height="188"/>
    <g>
      <g>
        <g>
          <path class="cls-28" d="M141.66,101.6c.58,0,1.06.47,1.06,1.06s-.47,1.06-1.06,1.06-1.06-.47-1.06-1.06.47-1.06,1.06-1.06Z"/>
          <path class="cls-28" d="M140.61,99.99c.99,0,1.92.39,2.62,1.09.7.7,1.08,1.64,1.08,2.64h1.52c0-2.89-2.34-5.25-5.23-5.25v1.52Z"/>
          <path class="cls-28" d="M140.61,97.29c3.52,0,6.39,2.88,6.39,6.43h1.52c0-4.38-3.55-7.95-7.91-7.95v1.52Z"/>
        </g>
        <g>
          <path class="cls-28" d="M25.73,82.43h1.59v5.09h-1.59v-5.09ZM26.52,79.9c.51,0,.92.41.92.92s-.41.92-.92.92-.92-.41-.92-.92.41-.92.92-.92"/>
          <path class="cls-28" d="M28.31,82.43h1.52v.7h.02c.21-.4.73-.82,1.5-.82,1.6,0,1.9,1.05,1.9,2.43v2.79h-1.58v-2.48c0-.59-.01-1.35-.82-1.35s-.95.64-.95,1.31v2.52h-1.58v-5.09Z"/>
        </g>
        <g>
          <path class="cls-28" d="M64.19,54.33s.87-.06.87-1.08-.71-1.51-1.61-1.51h-2.95v5.68h2.96s1.8.06,1.8-1.68c0,0,.08-1.41-1.06-1.41ZM63.24,52.75h.21s.4,0,.4.59-.24.68-.5.68h-1.55v-1.27h1.44ZM63.37,56.41h-1.57v-1.52h1.65s.6,0,.6.78c0,.66-.45.73-.68.74Z"/>
          <path class="cls-28" d="M67.66,53.18c-2.18,0-2.18,2.18-2.18,2.18,0,0-.15,2.17,2.18,2.17,0,0,1.94.11,1.94-1.51h-1s.03.61-.91.61c0,0-1,.07-1-.99h2.94s.32-2.46-1.98-2.46ZM66.69,54.89s.12-.88,1-.88.87.88.87.88h-1.87Z"/>
          <rect class="cls-28" x="66.44" y="52.07" width="2.34" height=".7"/>
        </g>
        <path class="cls-28" d="M114.3,128.61l-.06-.13-.11-.08c-.14-.11-.86,0-1.05-.17-.14-.13-.16-.35-.2-.66-.08-.59-.13-.63-.22-.83-.34-.72-1.25-1.25-1.88-1.33h-1.7c-1.34,0-2.43,1.1-2.43,2.43v2.84c0,1.34,1.09,2.43,2.43,2.43h2.79c1.34,0,2.42-1.09,2.43-2.43l.02-1.97-.02-.11ZM109.11,127.4h1.35c.26,0,.47.21.47.46s-.21.47-.47.47h-1.35c-.26,0-.47-.21-.47-.47s.21-.46.47-.46ZM111.85,131.11h-2.74c-.26,0-.47-.21-.47-.46s.21-.46.47-.46h2.74c.26,0,.46.21.46.46s-.21.46-.46.46Z"/>
        <path class="cls-28" d="M60.46,128.45s.15.05.08.32l-.17.56s-.11.1-.28.02c0,0-1.35-.48-1.07-2.73,0,0,.26-1.91,2.16-2.63,1.9-.72,3.51-.01,3.71.09.2.1,1.91,1.15,1.76,3.19-.16,2.04-1.17,2.78-1.38,2.97-.21.18-2.06,1.24-3.08-.12l-.52,1.89s-.26.65-.48.85c0,0-.64-.18-.66-.26,0,0-.04-.88.06-1.18l.77-3.18s-.34-.9-.09-1.5c0,0,.39-1.05,1.2-.87,0,0,.73.17.57,1.12l-.43,1.5s-.2.7.13.99c0,0,.55.7,1.51.05,0,0,.69-.27.96-2.07,0,0,.22-1.6-.65-2.26,0,0-.99-.95-2.78-.36,0,0-1.35.47-1.63,1.91,0,0-.25.84.32,1.72Z"/>
        <path class="cls-28" d="M98.98,35.9l.41.52s.51-.4.69-.4c.11,0,.36.13.51.59.15.46.8,2.84.84,2.95.18.49.41,1.41,1.12,1.54.71.13,1.62-.59,2.12-1.12.5-.53,2.47-2.8,2.55-4.15.08-1.25-.34-1.55-.52-1.66-.34-.21-.9-.29-1.43-.1-.53.18-1.34.79-1.55,1.86,0,0,.72-.27.99-.01.27.26.19.82-.03,1.23-.22.42-.86,1.39-1.09,1.42-.23.03-.42-.43-.45-.55-.03-.12-.42-1.81-.56-2.79-.14-.98-.77-1.14-1.06-1.14-.3,0-.81.22-2.54,1.82h0Z"/>
      </g>
      <g>
        <g>
          <g>
            <path class="cls-21" d="M102.45,110.65v-2.06h-15.06v2.06c0,3.1-1.72,5.82-4.26,7.25v1.1h23.58v-1.1c-2.53-1.43-4.26-4.15-4.26-7.25Z"/>
            <rect class="cls-29" x="83.02" y="117.91" width="23.79" height="1.1" rx=".55" ry=".55"/>
          </g>
          <rect class="cls-6" x="71.7" y="49.02" width="46.44" height="73" rx="5.84" ry="5.84" transform="translate(9.4 180.44) rotate(-90)"/>
          <rect class="cls-24" x="74.37" y="50.28" width="41.1" height="69.21" transform="translate(10.03 179.81) rotate(-90)"/>
          <rect class="cls-3" x="119.55" y="106.86" width="3.44" height=".61" rx=".3" ry=".3"/>
          <rect class="cls-13" x="118.48" y="106.86" width=".61" height=".61" rx=".3" ry=".3"/>
          <rect class="cls-19" x="117.45" y="106.86" width=".61" height=".61" rx=".3" ry=".3"/>
        </g>
        <g>
          <path class="cls-9" d="M47.8,111.34v1.56s0,.03.01.04.02.02.03.02h.24s.02,0,.03-.02c0-.01.01-.03.01-.04,0,0-.05-.59-.05-.78s.05-.78.05-.78c0-.02,0-.03-.01-.04,0-.01-.02-.02-.03-.02h-.24s-.02,0-.03.02-.01.03-.01.04Z"/>
          <path class="cls-8" d="M47.8,116.35v1.33s0,.03.01.04c0,0,.02.02.03.02h.24s.02,0,.03-.02c0,0,.01-.02.01-.04,0,0-.05-.5-.05-.67s.05-.67.05-.67c0-.01,0-.03-.01-.04,0,0-.02-.02-.03-.02h-.24s-.02,0-.03.02c0,0-.01.02-.01.04Z"/>
          <rect class="cls-2" x="30.72" y="106.72" width="3.22" height=".53" rx=".27" ry=".27" transform="translate(64.66 213.97) rotate(-180)"/>
          <rect class="cls-10" x="27.47" y="107.03" width="20.5" height="26.82" rx="4.42" ry="4.42" transform="translate(75.44 240.88) rotate(180)"/>
          <rect class="cls-24" x="29.61" y="109.46" width="16.21" height="21.66" transform="translate(75.44 240.58) rotate(180)"/>
          <path class="cls-15" d="M37.51,108.27c0,.11.09.21.21.21s.21-.09.21-.21-.09-.21-.21-.21-.21.09-.21.21Z"/>
          <circle class="cls-7" cx="37.72" cy="132.54" r=".72"/>
          <rect class="cls-16" x="37.45" y="132.26" width=".54" height=".54" rx=".27" ry=".27" transform="translate(75.44 265.07) rotate(-180)"/>
        </g>
        <g>
          <path class="cls-1" d="M161.37,112.64v1.35s0,.03.01.04c0,0,.02.02.03.02h.21s.02,0,.03-.02c0,0,.01-.02.01-.04,0,0-.04-.51-.04-.68s.04-.68.04-.68c0-.01,0-.03-.01-.04,0,0-.02-.02-.03-.02h-.21s-.02,0-.03.02c0,0-.01.02-.01.04Z"/>
          <path class="cls-14" d="M161.38,115.47v1.15s0,.02.01.03.02.01.03.01h.21s.02,0,.03-.01c0,0,.01-.02.01-.03,0,0-.04-.43-.04-.58s.04-.58.04-.58c0-.01,0-.02-.01-.03,0,0-.02-.01-.03-.01h-.21s-.02,0-.03.01c0,0-.01.02-.01.03Z"/>
          <path class="cls-5" d="M161.37,117.49v1.15s0,.02.01.03c0,0,.02.01.03.01h.21s.02,0,.03-.01c0,0,.01-.02.01-.03,0,0-.04-.43-.04-.58s.04-.58.04-.58c0-.01,0-.02-.01-.03,0,0-.02-.01-.03-.01h-.21s-.02,0-.03.01c0,0-.01.02-.01.03Z"/>
          <path class="cls-18" d="M150.56,108.9h1.99c.06,0,.11-.05.11-.11h0c0-.06-.05-.11-.11-.11h-1.99c-.06,0-.11.05-.11.11h0c0,.06.05.11.11.11Z"/>
          <rect class="cls-17" x="149.36" y="108.86" width="12.16" height="23.02" rx="3.15" ry="3.15" transform="translate(310.88 240.75) rotate(180)"/>
          <rect class="cls-24" x="149.66" y="111.51" width="11.56" height="17.75" transform="translate(310.88 240.78) rotate(180)"/>
          <path class="cls-11" d="M154.69,130.6c0,.42.34.75.75.75s.75-.34.75-.75-.34-.75-.75-.75-.75.34-.75.75Z"/>
          <rect class="cls-20" x="154.31" y="110.12" width="2.27" height=".25" rx=".13" ry=".13" transform="translate(310.88 220.49) rotate(-180)"/>
          <rect class="cls-12" x="155.16" y="130.32" width=".57" height=".57" rx=".28" ry=".28" transform="translate(310.88 261.2) rotate(180)"/>
          <path class="cls-4" d="M157.35,110.24c0,.14.11.25.25.25s.25-.11.25-.25-.11-.25-.25-.25-.25.11-.25.25Z"/>
        </g>
      </g>
      <g>
        <path class="cls-28" d="M114.04,80.53h18.35c1.7,0,3.08,1.38,3.08,3.08v8.41c0,1.7-1.38,3.08-3.08,3.08h-13.7l-2.32,4.65-2.32-4.65h0c-1.96,0-3.55-1.59-3.55-3.55v-7.47c0-1.96,1.59-3.55,3.55-3.55Z"/>
        <g>
          <path class="cls-32" d="M130.14,90.25c-.39,0-.63-.28-.63-.66s.25-.66.62-.66.63.27.63.66-.25.66-.62.66Z"/>
          <path class="cls-32" d="M127.97,90.25c-.39,0-.63-.28-.63-.66s.25-.66.62-.66.63.27.63.66-.25.66-.62.66Z"/>
          <path class="cls-32" d="M125.8,90.25c-.39,0-.63-.28-.63-.66s.25-.66.62-.66.63.27.63.66-.25.66-.62.66Z"/>
          <path class="cls-32" d="M123.63,90.25c-.39,0-.63-.28-.63-.66s.25-.66.62-.66.63.27.63.66-.25.66-.62.66Z"/>
          <path class="cls-32" d="M121.47,90.25c-.39,0-.63-.28-.63-.66s.25-.66.62-.66.63.27.63.66-.25.66-.62.66Z"/>
        </g>
      </g>
      <g>
        <path class="cls-23" d="M162.77,60.75c0,3.45-5.11,10.41-6.96,12.81-.33.43-.98.43-1.31,0-1.85-2.4-6.96-9.36-6.96-12.81,0-4.2,3.41-7.61,7.61-7.61s7.61,3.41,7.61,7.61Z"/>
        <circle class="cls-28" cx="155.16" cy="60.75" r="5.4"/>
      </g>
      <g>
        <path class="cls-27" d="M69.85,61.02c6.63,0,12.01,3.51,12.01,7.85,0,2.65-2.01,4.98-5.08,6.41l.84,4.55-3.43-3.64c-1.35.34-2.81.53-4.35.53-6.63,0-12.01-3.51-12.01-7.85s5.38-7.85,12.01-7.85Z"/>
        <g>
          <path class="cls-31" d="M68.7,72.65h-14.68c-1.36,0-2.46,1.1-2.46,2.46v6.73c0,1.36,1.1,2.46,2.46,2.46h10.96l1.86,3.72,1.86-3.72h0c1.57,0,2.84-1.27,2.84-2.84v-5.97c0-1.57-1.27-2.84-2.84-2.84Z"/>
          <g>
            <path class="cls-32" d="M55.68,80.04c0-.39.26-.66.63-.66s.62.27.62.66-.24.66-.63.66c-.37,0-.62-.28-.62-.66Z"/>
            <path class="cls-32" d="M57.84,80.04c0-.39.26-.66.63-.66s.62.27.62.66-.24.66-.63.66c-.37,0-.62-.28-.62-.66Z"/>
            <path class="cls-32" d="M60.01,80.04c0-.39.26-.66.63-.66s.62.27.62.66-.24.66-.63.66c-.37,0-.62-.28-.62-.66Z"/>
            <path class="cls-32" d="M62.18,80.04c0-.39.26-.66.63-.66s.62.27.62.66-.24.66-.63.66c-.37,0-.62-.28-.62-.66Z"/>
          </g>
        </g>
      </g>
      <g>
        <polygon class="cls-34" points="13.32 115.44 34.53 115.41 23.91 108.86 13.32 115.44"/>
        <polygon class="cls-34" points="13.3 102.31 13.32 115.44 23.91 108.86 13.3 102.31"/>
        <polygon class="cls-34" points="23.91 108.86 34.53 115.41 34.51 102.29 23.91 108.86"/>
        <polygon class="cls-27" points="34.51 102.29 13.3 102.31 23.91 110.03 34.51 102.29"/>
      </g>
      <polyline class="cls-35" points="37.45 137.77 37.45 146.7 93.32 146.7 93.32 120.44"/>
      <polyline class="cls-35" points="97.4 120.86 97.4 146.7 155.44 146.7 155.44 133.26"/>
      <rect class="cls-33" x="57.69" y="139.37" width="14.68" height="14.68" rx="7.3" ry="7.3"/>
      <path class="cls-28" d="M70.58,146.06h-1v-1h-1v1h-1v1h1v1h1v-1h1v-1ZM63.08,146.06v1.2h2c-.1.5-.6,1.5-2,1.5-1.2,0-2.15-1-2.15-2.2s.95-2.2,2.15-2.2c.7,0,1.15.3,1.4.55l.95-.9c-.6-.6-1.4-.95-2.35-.95-1.95,0-3.5,1.55-3.5,3.5s1.55,3.5,3.5,3.5,3.35-1.4,3.35-3.4c0-.25,0-.4-.05-.6h-3.3Z"/>
      <g>
        <rect class="cls-30" x="120.77" y="139.23" width="14.68" height="14.68" rx="7.3" ry="7.3"/>
        <path class="cls-28" d="M131.55,147.35c.05-.24.08-.49.08-.75,0-1.93-1.56-3.49-3.49-3.49-.2,0-.4.02-.6.05-.31-.2-.68-.31-1.08-.31-1.12,0-2.02.91-2.02,2.02,0,.37.1.72.28,1.02-.05.23-.07.46-.07.7,0,1.93,1.56,3.49,3.49,3.49.22,0,.43-.02.64-.06.28.15.61.24.96.24,1.12,0,2.02-.91,2.02-2.02,0-.32-.08-.63-.21-.9ZM129.94,148.27c-.16.23-.4.41-.71.54-.31.13-.67.19-1.09.19-.5,0-.92-.09-1.25-.26-.23-.13-.43-.3-.57-.51-.15-.21-.22-.43-.22-.63,0-.13.05-.24.15-.33.1-.09.22-.14.36-.14.12,0,.22.04.31.11.08.07.15.17.2.3.06.14.13.26.2.35.07.09.17.17.29.23.13.06.3.09.51.09.29,0,.52-.06.7-.18.17-.12.26-.26.26-.44,0-.14-.04-.25-.13-.33-.1-.09-.22-.16-.37-.21-.16-.05-.37-.1-.64-.16-.36-.08-.67-.17-.91-.27-.25-.11-.45-.25-.6-.44-.15-.19-.23-.42-.23-.7s.08-.5.24-.71c.16-.2.38-.36.68-.47.29-.11.63-.16,1.02-.16.31,0,.58.04.81.11.23.07.42.17.58.29.15.12.27.25.34.38.07.13.11.27.11.4s-.05.24-.14.34c-.1.1-.22.15-.36.15-.13,0-.23-.03-.3-.09-.07-.06-.13-.15-.21-.28-.09-.16-.19-.3-.31-.39-.12-.09-.31-.13-.58-.13-.25,0-.45.05-.6.15-.15.09-.22.2-.22.33,0,.08.02.15.07.2.05.06.12.11.21.16.09.05.19.08.28.11.1.03.26.07.48.12.28.06.54.13.77.2.23.07.43.17.6.27.17.11.3.25.39.41.09.17.14.37.14.61,0,.29-.08.55-.24.78Z"/>
      </g>
      <polyline class="cls-35" points="36.32 104.54 36.32 92.28 21.17 92.28 21.17 68.47"/>
      <line class="cls-35" x1="155.16" y1="107.86" x2="155.16" y2="74.52"/>
      <g>
        <path class="cls-28" d="M161.21,93.6l.95-3.36c-.61-1.03-.93-2.21-.93-3.41,0-3.72,3.02-6.74,6.74-6.74s6.74,3.02,6.74,6.74-3.02,6.74-6.74,6.74c-1.16,0-2.29-.3-3.3-.86l-3.46.89ZM164.84,91.48l.21.13c.87.53,1.88.82,2.91.82,3.09,0,5.6-2.51,5.6-5.6s-2.51-5.6-5.6-5.6-5.6,2.51-5.6,5.6c0,1.08.31,2.12.88,3.02l.14.22-.54,1.93,2-.51Z"/>
        <path class="cls-28" d="M166.07,83.69l-.44-.02c-.14,0-.27.04-.38.13-.21.18-.55.54-.66,1-.16.69.08,1.54.71,2.39.62.85,1.78,2.2,3.83,2.78.66.19,1.18.06,1.58-.2.32-.2.54-.53.61-.9l.07-.33c.02-.1-.03-.21-.13-.25l-1.48-.68c-.1-.04-.21-.02-.27.07l-.58.75c-.04.06-.12.08-.19.06-.4-.14-1.73-.7-2.46-2.1-.03-.06-.02-.14.02-.19l.55-.64c.06-.07.07-.16.04-.24l-.64-1.49c-.03-.08-.11-.13-.2-.14h0Z"/>
      </g>
      <g>
        <rect class="cls-30" x="13.83" y="54.17" width="14.68" height="14.68" rx="7.3" ry="7.3"/>
        <path class="cls-28" d="M25.16,59.69c-.28.12-.57.2-.88.24.32-.19.56-.49.68-.85-.3.18-.63.3-.98.37-.28-.3-.68-.49-1.12-.49-.85,0-1.54.69-1.54,1.54,0,.12.01.24.04.35-1.28-.06-2.41-.68-3.17-1.61-.13.23-.21.49-.21.77,0,.53.27,1,.68,1.28-.25,0-.49-.08-.7-.19v.02c0,.74.53,1.37,1.23,1.51-.13.03-.26.05-.4.05-.1,0-.2,0-.29-.03.2.61.76,1.05,1.44,1.07-.53.41-1.19.66-1.91.66-.12,0-.25,0-.37-.02.68.44,1.49.69,2.36.69,2.83,0,4.37-2.34,4.37-4.37,0-.07,0-.13,0-.2.3-.22.56-.49.77-.8Z"/>
      </g>
      <g>
        <path class="cls-26" d="M44.3,52.32h0c-4.03,0-7.3-3.27-7.3-7.3h0c0-4.03,3.27-7.3,7.3-7.3h0c4.03,0,7.3,3.27,7.3,7.3h0c0,4.03-3.27,7.3-7.3,7.3Z"/>
        <path class="cls-28" d="M42.31,43.8h.96v-.87c0-.38.01-.97.31-1.34.31-.39.75-.65,1.49-.65,1.21,0,1.72.16,1.72.16l-.24,1.32s-.4-.11-.77-.11-.71.12-.71.47v1.01h1.53l-.11,1.29h-1.42v4.5h-1.8v-4.5h-.96v-1.29Z"/>
      </g>
      <g>
        <path class="cls-28" d="M133.93,126.52c1.76,0,3.19-1.43,3.19-3.19s-1.43-3.19-3.19-3.19-3.19,1.43-3.19,3.19,1.43,3.19,3.19,3.19ZM133.93,121.38c1.08,0,1.95.87,1.95,1.95s-.87,1.95-1.95,1.95-1.95-.87-1.95-1.95.87-1.95,1.95-1.95Z"/>
        <path class="cls-28" d="M131.43,129.5h4.99c2.03,0,3.68-1.65,3.68-3.68v-4.99c0-2.03-1.65-3.68-3.68-3.68h-4.99c-2.03,0-3.68,1.65-3.68,3.68v4.99c0,2.03,1.65,3.68,3.68,3.68ZM129,120.83c0-1.35,1.09-2.44,2.44-2.44h4.99c1.35,0,2.44,1.09,2.44,2.44v4.99c0,1.35-1.09,2.44-2.44,2.44h-4.99c-1.35,0-2.44-1.09-2.44-2.44v-4.99Z"/>
        <path class="cls-28" d="M137.13,119.39c.42,0,.77.34.77.77s-.34.77-.77.77-.77-.34-.77-.77.34-.77.77-.77Z"/>
      </g>
      <line class="cls-35" x1="44.3" y1="53.53" x2="44.3" y2="104.54"/>
      <polyline class="cls-35" points="97.4 62.3 97.4 50.12 117.07 50.12"/>
      <polyline class="cls-35" points="64.05 49.01 64.05 42.78 88.91 42.78 88.91 60.75"/>
      <polyline class="cls-35" points="167.95 95.31 167.95 123.33 162.77 123.33"/>
      <line class="cls-35" x1="147.54" y1="123.33" x2="141.58" y2="123.33"/>
      <g>
        <rect class="cls-25" x="117.82" y="42.78" width="14.68" height="14.68" rx="7.3" ry="7.3"/>
        <g>
          <path class="cls-28" d="M124.38,45.6h-.51l-.35,1.33-.36-1.33h-.53c.11.31.22.63.32.94.16.47.26.83.31,1.07v1.37h.51v-1.37l.61-2.01ZM125.73,48.16v-.88c0-.27-.05-.47-.14-.59-.13-.17-.3-.26-.53-.26s-.41.09-.53.26c-.1.13-.14.32-.14.59v.88c0,.27.05.47.14.59.13.17.3.26.53.26s.41-.09.53-.26c.1-.13.14-.32.14-.59ZM125.28,48.25c0,.23-.07.35-.22.35s-.22-.12-.22-.35v-1.06c0-.23.07-.35.22-.35s.22.12.22.35v1.06ZM127.42,48.98v-2.52h-.46v1.92c-.1.14-.2.21-.29.21-.06,0-.1-.04-.11-.11,0-.01,0-.07,0-.18v-1.85h-.45v1.99c0,.18.02.3.04.37.05.13.15.19.29.19.17,0,.34-.1.52-.31v.27h.46Z"/>
          <g>
            <path class="cls-28" d="M125.99,51.54c-.07,0-.15.04-.23.11v1.52c.08.08.15.11.23.11.13,0,.2-.11.2-.34v-1.06c0-.22-.07-.34-.2-.34Z"/>
            <path class="cls-28" d="M127.67,51.54c-.15,0-.23.12-.23.35v.23h.45v-.23c0-.23-.08-.35-.22-.35Z"/>
            <path class="cls-28" d="M128.77,50.27c-.09-.4-.42-.69-.81-.73-.93-.1-1.86-.1-2.8-.1-.93,0-1.87,0-2.8.1-.39.04-.72.34-.81.73-.13.57-.13,1.18-.13,1.77s0,1.2.13,1.77c.09.4.42.69.81.73.93.1,1.86.1,2.8.1.93,0,1.87,0,2.8-.1.39-.04.72-.34.81-.73.13-.57.13-1.18.13-1.77s0-1.2-.13-1.77ZM123.56,50.78h-.54v2.87h-.5v-2.87h-.53v-.47h1.57v.47ZM124.92,53.65h-.45v-.27c-.18.21-.35.31-.52.31-.15,0-.25-.06-.29-.19-.02-.08-.04-.19-.04-.37v-1.97h.45v1.83c0,.11,0,.16,0,.18.01.07.05.11.11.11.09,0,.19-.07.29-.21v-1.9h.45v2.49ZM126.64,52.9c0,.23-.02.4-.05.5-.06.19-.18.28-.36.28-.16,0-.32-.09-.47-.28v.24h-.45v-3.34h.45v1.09c.15-.18.3-.27.47-.27.18,0,.3.09.36.28.03.1.05.27.05.5v.99ZM128.34,52.49h-.9v.44c0,.23.08.35.23.35.11,0,.18-.06.2-.18,0-.02,0-.12,0-.31h.46v.07c0,.15,0,.25,0,.29-.02.1-.05.19-.11.27-.13.18-.31.27-.55.27s-.42-.09-.55-.26c-.1-.12-.14-.32-.14-.59v-.87c0-.27.04-.46.14-.59.13-.17.31-.26.54-.26s.41.08.53.26c.09.13.14.32.14.59v.52Z"/>
          </g>
        </g>
      </g>
    </g>
  </g>
</svg>