<?xml version="1.0" encoding="UTF-8"?>
<svg id="Layer_2" data-name="Layer 2" xmlns="http://www.w3.org/2000/svg" viewBox="0 0 171.9 223.78">
  <defs>
    <style>
      .cls-1 {
        fill: #1d639e;
      }

      .cls-1, .cls-2, .cls-3, .cls-4, .cls-5 {
        stroke-width: 0px;
      }

      .cls-2 {
        fill: none;
      }

      .cls-3 {
        fill: #be720e;
      }

      .cls-4 {
        fill: #fff;
      }

      .cls-5 {
        fill: #dae3be;
      }
    </style>
  </defs>
  <g id="Layer_1-2" data-name="Layer 1">
    <rect class="cls-2" width="171.9" height="223.78"/>
    <g>
      <path class="cls-5" d="M85.95,8.12C40.52,8.12,3.7,44.94,3.7,90.37s36.82,82.25,82.25,82.25,82.25-36.82,82.25-82.25S131.37,8.12,85.95,8.12"/>
      <path class="cls-3" d="M168.2,89.68h-3.7c0,21.7-8.78,41.31-23,55.54-14.23,14.22-33.84,23-55.54,23.01-21.7,0-41.32-8.79-55.54-23.01-14.22-14.23-23-33.84-23.01-55.54,0-21.7,8.78-41.31,23.01-55.54,14.22-14.22,33.84-23,55.54-23.01,21.7,0,41.31,8.79,55.54,23.01,14.22,14.23,23,33.84,23,55.54h7.41c0-23.72-9.63-45.23-25.17-60.77-15.54-15.55-37.05-25.17-60.78-25.17S40.71,13.36,25.17,28.91C9.63,44.45,0,65.96,0,89.68c0,23.72,9.63,45.23,25.17,60.78,15.54,15.55,37.05,25.17,60.77,25.17s45.23-9.63,60.78-25.17c15.55-15.54,25.17-37.05,25.17-60.78h-3.7Z"/>
      <path class="cls-1" d="M127.74,90.03c-2.39.62-3.18,3.55-3.55,5.99-.5,3.25-.99,6.5-1.49,9.74-.24,1.59-.49,3.2-1.18,4.65-1.6,3.41-5.29,5.34-8.91,6.41-2.28.68-4.66,1.12-6.81,2.15-2.15,1.02-4.12,2.77-4.68,5.09-.21.89-.21,1.82-.44,2.71-.36,1.46-1.31,2.71-2.23,3.91-2.44,3.18-4.88,6.35-7.32,9.53-1.11,1.45-2.72,3.08-4.47,2.53,1.07-2.05-.92-4.41-2.99-5.42-2.07-1.01-4.57-1.6-5.83-3.54,2.68-1.86,5.35-3.71,8.03-5.57,1.16-.81,2.48-2.09,1.94-3.4-.22-.53-.7-.9-1.07-1.34-.98-1.17-1.1-2.99-.27-4.27-2-.63-4.41-1.82-4.33-3.91.02-.4.11-.88-.17-1.17-.39-.4-1.05-.06-1.6.09-1.77.49-3.32-1.55-3.4-3.39-.08-1.84.7-3.62.75-5.46.05-2.23-1.06-4.45-2.86-5.75-1.11.78-2.75.16-3.53-.95-.77-1.11-.9-2.53-.96-3.89-.02-.49-.04-1.01-.3-1.43-.63-1.06-2.15-.92-3.38-.93-4.58-.03-8.57-4.68-7.89-9.21-2.66.91-5.32,1.82-7.99,2.73-1.28.44-2.68.88-3.95.4-1.27-.47-2.03-2.32-1.01-3.21-.88.59-1.83,1.21-2.89,1.25-1.06.05-2.24-.73-2.2-1.79-1.95-.63-2.83-2.98-2.7-5.02.27-3.94,3.67-7.43,7.6-7.8.72-.07,1.54-.09,2-.63.19-.22.29-.51.38-.79.97-3.1.6-6.61-1-9.44.94.32,2.06-.02,2.66-.8-.42-.68-1.16-1.16-1.96-1.26-.65-.68.42-1.75,1.35-1.74.94,0,1.93.44,2.78.04.58-.28,1-.91,1.64-.93,1.36-.03,1.15,2.36,2.3,3.1.44.28,1,.25,1.52.22,1.37-.09,2.81-.21,3.97-.95,1.16-.75,1.89-2.35,1.2-3.55-.38-.66-1.08-1.06-1.6-1.61-.52-.55-.84-1.48-.32-2.04,1.03,1.18,2.87,1.12,4.4.79,2.43-.53,4.75-1.5,6.82-2.87.59-.18,1.16.44,1.21,1.05.05.61-.23,1.19-.44,1.77-.9,2.51.41,6.07,3.08,6.09,1.22,0,2.3-.72,3.44-1.15,1.14-.43,2.67-.45,3.32.57.18-.69.36-1.38.55-2.07,2.16.21,4.39.42,6.46-.21s3.99-2.32,4.2-4.48c1.9.97.34,4.67,2.23,5.66.68.36,1.67.22,2.09.87.33.51.08,1.18.12,1.78.1,1.31,1.51,2.06,2.72,2.56,2.21.9,4.41,1.8,6.62,2.7,1.64.67,3.61,1.93,3.19,3.65,1.62-.6,3.42-.28,5.11.05,2,.38,3.99.77,5.99,1.16,1.73.34,3.63.78,4.65,2.22.49.69.75,1.58,1.43,2.1,1.51,1.14,4.13-.26,5.37,1.16.38.44.5,1.03.61,1.6.42,2.15.83,4.45.05,6.5-.43,1.12-1.19,2.09-1.94,3.03-1.88,2.36-3.76,4.73-5.64,7.09"/>
    </g>
    <g>
      <circle class="cls-1" cx="85.95" cy="181.21" r="31.91"/>
      <path class="cls-4" d="M77.94,165.87h12.87l14.11,31.54h-12.19l-1.54-3.79h-13.63l-1.54,3.79h-12.19l14.11-31.54ZM72.33,194.05l1.68-3.65h20.74l1.68,3.65h2.4l-10.94-24.53h-7.01l-10.94,24.53h2.4ZM82.17,171.73h4.42l7.25,16.56h-18.87l7.2-16.56ZM87.69,184.98l-3.26-8.21h-.1l-3.26,8.21h6.62Z"/>
    </g>
  </g>
</svg>