<?xml version="1.0" encoding="UTF-8"?>
<svg id="Layer_2" data-name="Layer 2" xmlns="http://www.w3.org/2000/svg" viewBox="0 0 171.9 223.78">
  <defs>
    <style>
      .cls-1 {
        fill: #1d639e;
      }

      .cls-1, .cls-2, .cls-3, .cls-4, .cls-5, .cls-6 {
        stroke-width: 0px;
      }

      .cls-2 {
        fill: none;
      }

      .cls-3 {
        fill: #be720e;
      }

      .cls-4 {
        fill: #fff;
      }

      .cls-5 {
        fill: #1f639f;
      }

      .cls-6 {
        fill: #dae3be;
      }
    </style>
  </defs>
  <g id="Layer_1-2" data-name="Layer 1">
    <rect class="cls-2" x="0" width="171.9" height="223.78"/>
    <g>
      <path class="cls-6" d="M85.95,8.12C40.52,8.12,3.7,44.94,3.7,90.37s36.82,82.25,82.25,82.25,82.25-36.82,82.25-82.25S131.37,8.12,85.95,8.12"/>
      <path class="cls-3" d="M168.2,89.68h-3.7c0,21.7-8.78,41.31-23,55.54-14.23,14.22-33.84,23-55.54,23.01-21.7,0-41.32-8.79-55.54-23.01-14.22-14.23-23-33.84-23.01-55.54,0-21.7,8.78-41.31,23.01-55.54,14.22-14.22,33.84-23,55.54-23.01,21.7,0,41.31,8.79,55.54,23.01,14.22,14.23,23,33.84,23,55.54h7.41c0-23.72-9.63-45.23-25.17-60.77-15.54-15.55-37.05-25.17-60.78-25.17S40.71,13.36,25.17,28.91C9.63,44.45,0,65.96,0,89.68c0,23.72,9.63,45.23,25.17,60.78,15.54,15.55,37.05,25.17,60.77,25.17s45.23-9.63,60.78-25.17c15.55-15.54,25.17-37.05,25.17-60.78h-3.7Z"/>
    </g>
    <g>
      <path class="cls-5" d="M35.28,64.29c-.54,0-1.08.02-1.61.06-3.82.29-7.84,2.6-7.65,5.84.12,2,1.78,3.61,3.15,4.61,6.9,5.02,16.15,3.9,22.51,1.17,1.06-.45,2.49-1.08,4.18-1.82l.19-.08c-6.2-6.26-13.61-9.79-20.77-9.79M99.63,125.76c10.93,2.71,22.71,2.03,33.26-1.92,4.88-1.83,8.17-3.95,10.36-6.69,2.28-2.85,3.69-7.41,1.7-11.17-2.39-4.5-8.38-5.8-13.19-5.48-10.2.64-17.11,8.48-25.11,17.55-2.24,2.54-4.55,5.16-7.01,7.71M61.68,144.6l-.1-1.68c15.9-.9,26.37-8.04,34.81-16.3-4.04-1.24-7.35-2.85-10.08-4.89-5.29-3.96-8.73-9.81-11.39-15.02-1.42-2.78-2.77-5.65-4.07-8.44-3.15-6.72-6.41-13.68-10.91-19.66-.86-1.14-1.75-2.22-2.68-3.23-.25.11-.5.22-.74.33-1.7.74-3.13,1.37-4.19,1.83-6.79,2.9-16.7,4.07-24.17-1.36-1.67-1.22-3.68-3.21-3.84-5.88-.25-4.32,4.48-7.27,9.2-7.62,8.32-.61,17.06,3.31,24.16,10.69,10.95-4.8,29.02-12.57,35.77-12.91l.09,1.68c-6.32.32-24.24,8-34.65,12.54.83.93,1.63,1.9,2.39,2.92,4.61,6.12,7.91,13.15,11.09,19.96,1.3,2.77,2.64,5.63,4.05,8.38,2.57,5.03,5.88,10.68,10.9,14.44,2.76,2.07,6.18,3.67,10.42,4.89,2.7-2.74,5.2-5.58,7.62-8.33,7.91-8.96,15.38-17.43,26.28-18.11,5.32-.34,12.02,1.17,14.78,6.37,2.35,4.43.75,9.73-1.87,13.01-2.39,2.98-5.91,5.28-11.08,7.22-11.1,4.16-23.52,4.79-34.98,1.79l-.23-.06c-8.78,8.77-19.67,16.49-36.58,17.45"/>
      <path class="cls-5" d="M105.7,61.28c0,2.47-2,4.47-4.47,4.47s-4.47-2-4.47-4.47,2-4.47,4.47-4.47,4.47,2,4.47,4.47"/>
      <rect class="cls-5" x="100.25" y="31.43" width="2.79" height="23.1"/>
      <path class="cls-5" d="M57.12,144.83c0,2.47-2,4.47-4.47,4.47s-4.47-2-4.47-4.47,2-4.47,4.47-4.47,4.47,2,4.47,4.47"/>
      <rect class="cls-5" x="50.96" y="116.66" width="2.7" height="21.15"/>
      <path class="cls-5" d="M53.55,117.66c.29.02,13.35,6.24,13.18,6.24s-13.76,5.52-13.76,5.52l.58-11.76Z"/>
      <polygon class="cls-5" points="123.46 46.22 102.56 46.22 102.56 44.65 121.89 44.65 121.89 33.27 102.56 33.27 102.56 31.69 123.46 31.69 123.46 46.22"/>
      <rect class="cls-5" x="102.56" y="32.8" width="6.78" height="5.68"/>
      <rect class="cls-5" x="115.89" y="33.28" width="6.78" height="5.68"/>
      <rect class="cls-5" x="109.23" y="38.81" width="6.78" height="5.93"/>
    </g>
    <g>
      <circle class="cls-1" cx="91.77" cy="181.21" r="31.91"/>
      <path class="cls-4" d="M76.82,165.87h19.39c6.48,0,11.33,2.98,11.33,8.93,0,3.7-1.87,5.57-3.7,6.48,1.82.38,5.04,2.26,5.04,7.2,0,5.81-4.51,8.93-10.75,8.93h-21.31v-31.54ZM96.07,194.77c6.14,0,8.93-3.17,8.93-7.1,0-3.55-2.16-5.66-5.86-6.1,3.5-.91,5.14-3.5,5.14-6.29,0-3.98-2.78-6.77-8.45-6.77h-14.64v26.26h14.88ZM83.49,170.53h12.53c3.65,0,6.05,1.82,6.05,4.99s-2.74,5.09-5.38,5.09h-13.2v-10.08ZM83.49,182.63h12.58c3.36,0,6.62,1.2,6.62,4.8,0,2.93-2.11,5.33-6.58,5.33h-12.62v-10.13ZM94.1,177.78c2.21,0,3.55-.48,3.55-2.26,0-1.58-1.34-2.21-3.55-2.21h-6.24v4.46h6.24ZM95.59,189.92c1.63,0,3.02-.62,3.02-2.16,0-1.44-1.39-2.16-3.02-2.16h-7.73v4.32h7.73Z"/>
    </g>
  </g>
</svg>