<?xml version="1.0" encoding="UTF-8"?>
<svg id="Layer_2" data-name="Layer 2" xmlns="http://www.w3.org/2000/svg" viewBox="0 0 171.9 223.78">
  <defs>
    <style>
      .cls-1 {
        fill: #1d639e;
      }

      .cls-1, .cls-2, .cls-3, .cls-4, .cls-5, .cls-6, .cls-7, .cls-8, .cls-9 {
        stroke-width: 0px;
      }

      .cls-2 {
        fill: none;
      }

      .cls-3 {
        fill: #be720e;
      }

      .cls-4 {
        fill: #97a7c2;
      }

      .cls-5 {
        fill: #fff;
      }

      .cls-6 {
        fill: #dae3be;
      }

      .cls-7 {
        fill: #4ab381;
      }

      .cls-8 {
        fill: #b5ba90;
      }

      .cls-9 {
        fill: #1f63a0;
      }
    </style>
  </defs>
  <g id="Layer_1-2" data-name="Layer 1">
    <rect class="cls-2" width="171.9" height="223.78"/>
    <g>
      <path class="cls-6" d="M85.95,8.12C40.52,8.12,3.7,44.94,3.7,90.37s36.82,82.25,82.25,82.25,82.25-36.82,82.25-82.25S131.37,8.12,85.95,8.12"/>
      <path class="cls-3" d="M168.2,89.68h-3.7c0,21.7-8.78,41.31-23,55.54-14.23,14.22-33.84,23-55.54,23.01-21.7,0-41.32-8.79-55.54-23.01-14.22-14.23-23-33.84-23.01-55.54,0-21.7,8.78-41.31,23.01-55.54,14.22-14.22,33.84-23,55.54-23.01,21.7,0,41.31,8.79,55.54,23.01,14.22,14.23,23,33.84,23,55.54h7.41c0-23.72-9.63-45.23-25.17-60.77-15.54-15.55-37.05-25.17-60.78-25.17S40.71,13.36,25.17,28.91C9.63,44.45,0,65.96,0,89.68c0,23.72,9.63,45.23,25.17,60.78,15.54,15.55,37.05,25.17,60.77,25.17s45.23-9.63,60.78-25.17c15.55-15.54,25.17-37.05,25.17-60.78h-3.7Z"/>
    </g>
    <g>
      <path class="cls-3" d="M92.05,143.33v-1.11h-45.27c-1.34,0-2.54-.54-3.41-1.41-.88-.87-1.41-2.07-1.41-3.41v-69.03c0-1.33.54-2.53,1.41-3.41s2.07-1.41,3.41-1.41h28.67c.56,0,1.03-.42,1.1-.97l.47-3.8h17.72c1.21,0,2.23.09,3.06.29.62.15,1.13.35,1.54.6.62.38,1.04.84,1.36,1.55.32.71.5,1.69.5,2.98v14.52l-3.73,1.88c-.37.19-.61.57-.61.99v55.8c0,1.34-.54,2.54-1.41,3.41-.88.88-2.07,1.41-3.41,1.41v2.21c3.89,0,7.04-3.15,7.04-7.04v-55.12l3.73-1.88c.37-.19.61-.57.61-.99v-15.2c0-1.34-.17-2.5-.54-3.51-.28-.76-.69-1.42-1.21-1.98-.78-.83-1.81-1.37-2.97-1.7-1.16-.32-2.47-.45-3.96-.45h-18.7c-.56,0-1.03.41-1.1.97l-.47,3.8h-27.7c-3.89,0-7.04,3.15-7.04,7.03v69.03c0,3.89,3.15,7.04,7.04,7.04h45.27v-1.11Z"/>
      <path class="cls-7" d="M53.47,81.06c.52-.17,33.19,0,33.19,0"/>
      <path class="cls-3" d="M54.17,83.16l-.67-2.01.42,2.08c.05-.01.12-.03.26-.07l-.67-2.01.42,2.08-.35-1.76.19,1.79s.06,0,.16-.02l-.35-1.76.19,1.79-.07-.64.05.64h.02s-.07-.64-.07-.64l.05.64s.13,0,.28-.01c.54-.02,1.64-.03,3.07-.03,1.44,0,3.23-.01,5.22-.01,4.91,0,11,.02,15.86.04,2.43.01,4.55.02,6.06.03,1.51,0,2.42.01,2.42.01,1.22,0,2.22-.98,2.23-2.2,0-1.22-.98-2.22-2.2-2.22,0,0-14.52-.08-24.37-.08-2.46,0-4.63,0-6.21.02-.79,0-1.44.01-1.91.02-.24,0-.43.01-.59.02-.08,0-.16,0-.24.01-.04,0-.09,0-.16.02l-.14.02c-.06.01-.14.03-.28.07-1.16.38-1.79,1.64-1.4,2.8.38,1.16,1.64,1.79,2.8,1.4"/>
      <path class="cls-7" d="M53.47,95c.52-.17,33.19,0,33.19,0"/>
      <path class="cls-3" d="M54.17,97.1l-.67-2.01.42,2.08c.05-.01.12-.03.26-.07l-.67-2.01.42,2.08-.35-1.76.19,1.79s.06,0,.16-.02l-.35-1.76.19,1.79-.07-.64.05.64h.02s-.07-.64-.07-.64l.05.64s.13,0,.28-.01c.54-.02,1.64-.03,3.07-.03,1.44,0,3.23-.01,5.22-.01,4.91,0,11,.02,15.86.04,2.43.01,4.55.02,6.06.03,1.51,0,2.42.01,2.42.01,1.22,0,2.22-.98,2.23-2.2,0-1.22-.98-2.22-2.2-2.22,0,0-14.52-.08-24.37-.08-2.46,0-4.63,0-6.21.02-.79,0-1.44.01-1.91.02-.24,0-.43.01-.59.02-.08,0-.16,0-.24.01-.04,0-.09,0-.16.02l-.14.02c-.06.01-.14.03-.28.07-1.16.38-1.79,1.64-1.4,2.8.38,1.16,1.64,1.79,2.8,1.4"/>
      <path class="cls-7" d="M53.47,108.93c.52-.17,33.19,0,33.19,0"/>
      <path class="cls-3" d="M54.17,111.03l-.67-2.01.42,2.08c.05-.01.12-.03.26-.07l-.67-2.01.42,2.08-.35-1.76.19,1.79s.06,0,.16-.02l-.35-1.76.19,1.79-.07-.64.05.64h.02s-.07-.64-.07-.64l.05.64s.13,0,.28-.01c.54-.02,1.64-.03,3.07-.03,1.44,0,3.23-.01,5.22-.01,4.91,0,11,.02,15.86.04,2.43.01,4.55.02,6.06.03,1.51,0,2.42.01,2.42.01,1.22,0,2.22-.98,2.23-2.2,0-1.22-.98-2.22-2.2-2.22,0,0-14.52-.08-24.37-.08-2.46,0-4.63,0-6.21.02-.79,0-1.44.01-1.91.02-.24,0-.43.01-.59.02-.08,0-.16,0-.24.01-.04,0-.09,0-.16.02l-.14.02c-.06.01-.14.03-.28.07-1.16.38-1.79,1.64-1.4,2.8.38,1.16,1.64,1.79,2.8,1.4"/>
      <path class="cls-7" d="M53.47,122.87c.52-.17,33.19,0,33.19,0"/>
      <path class="cls-3" d="M54.17,124.97l-.67-2.01.42,2.08c.05-.01.12-.03.26-.07l-.67-2.01.42,2.08-.35-1.76.19,1.79s.06,0,.16-.02l-.35-1.76.19,1.79-.07-.64.05.64h.02s-.07-.64-.07-.64l.05.64s.13,0,.28-.01c.54-.02,1.64-.03,3.07-.03,1.44,0,3.23-.01,5.22-.01,4.91,0,11,.02,15.86.04,2.43.01,4.55.02,6.06.03,1.51,0,2.42.01,2.42.01,1.22,0,2.22-.98,2.23-2.2,0-1.22-.98-2.22-2.2-2.22,0,0-14.52-.08-24.37-.08-2.46,0-4.63,0-6.21.02-.79,0-1.44.01-1.91.02-.24,0-.43.01-.59.02-.08,0-.16,0-.24.01-.04,0-.09,0-.16.02l-.14.02c-.06.01-.14.03-.28.07-1.16.38-1.79,1.64-1.4,2.8.38,1.16,1.64,1.79,2.8,1.4"/>
      <path class="cls-4" d="M98.15,37.55c-1.83,0-3.69.23-5.54.7-8.94,2.3-15.21,9.72-16.46,18.31h18.61c1.48,0,2.8.13,3.96.45,1.16.32,2.18.87,2.97,1.7.52.55.93,1.22,1.21,1.98.38,1.01.54,2.17.54,3.51v15.2c0,.41-.24.8-.61.99l-3.03,1.53c1.28-.1,2.58-.31,3.87-.64,11.88-3.05,19.04-15.16,15.99-27.04-2.58-10.03-11.6-16.69-21.5-16.69M94.76,58.78h-17.74l-.47,3.8c-.03.27-.17.51-.36.69.11.67.25,1.35.42,2.03,1.52,5.91,5.28,10.66,10.14,13.56.7.03,1.31.38,1.69.91,2.61,1.26,5.46,2.02,8.43,2.19v-.35c0-.42.24-.8.61-.99l3.73-1.88v-14.52c0-1.3-.19-2.27-.51-2.98-.32-.7-.74-1.17-1.35-1.55-.42-.25-.93-.45-1.55-.6-.83-.19-1.84-.29-3.04-.29"/>
      <path class="cls-8" d="M94.75,56.57h-18.61c-.32,2.18-.31,4.44.05,6.7.19-.17.33-.42.36-.69l.47-3.8h17.74c1.2,0,2.22.1,3.04.29.62.15,1.13.35,1.54.6.62.38,1.04.84,1.36,1.55.32.71.51,1.69.5,2.98v14.52l-3.73,1.88c-.37.19-.61.57-.61.99v.35c.41.02.82.03,1.24.03.55,0,1.11-.02,1.67-.06l3.03-1.53c.37-.19.61-.57.61-.99v-15.2c0-1.34-.17-2.5-.54-3.51-.28-.75-.69-1.42-1.21-1.97-.78-.83-1.81-1.38-2.97-1.7-1.16-.32-2.47-.45-3.96-.45"/>
      <path class="cls-8" d="M86.76,78.85c.55.33,1.12.63,1.69.91-.38-.53-1-.88-1.69-.91"/>
      <path class="cls-9" d="M119.78,52.98l-1.79.46c.44,1.7.64,3.41.64,5.08,0,4.53-1.53,8.87-4.21,12.37-2.68,3.5-6.5,6.16-11.1,7.34-1.7.44-3.41.64-5.08.64-4.53,0-8.87-1.53-12.37-4.21-3.5-2.68-6.16-6.5-7.34-11.1-.44-1.7-.64-3.41-.64-5.08,0-4.53,1.53-8.87,4.21-12.37s6.5-6.16,11.1-7.34c1.7-.44,3.41-.64,5.08-.64,4.53,0,8.87,1.53,12.37,4.21s6.16,6.5,7.34,11.1l1.79-.46,1.79-.46c-1.39-5.43-4.54-9.96-8.67-13.12-4.13-3.16-9.26-4.96-14.62-4.96-1.98,0-4,.25-6,.76-5.43,1.39-9.96,4.54-13.12,8.67-3.16,4.13-4.96,9.25-4.96,14.62,0,1.98.25,4,.76,6,1.39,5.43,4.54,9.96,8.67,13.12,4.13,3.16,9.25,4.96,14.62,4.96,1.98,0,3.99-.25,6-.76,5.43-1.39,9.96-4.54,13.12-8.67,3.16-4.13,4.96-9.25,4.96-14.62,0-1.98-.25-4-.76-6l-1.79.46Z"/>
      <path class="cls-9" d="M114.95,71.25c-.25.35-.33.76-.33,1.05,0,.26.05.44.09.57.09.27.18.38.23.48.12.17.18.22.23.28.1.1.15.14.21.19.11.09.22.17.35.27.49.37,1.32.94,2.31,1.62,2.96,2.03,7.32,4.94,7.33,4.94l2.04-3.07s-.62-.41-1.55-1.03c-1.39-.93-3.49-2.34-5.23-3.53-.87-.59-1.65-1.13-2.2-1.52-.28-.19-.5-.35-.62-.45l-.07-.06-.03-.02-.65.78.72-.71-.07-.06-.65.78.72-.71-1.2,1.18,1.36-.99c-.09-.11-.13-.16-.16-.19l-1.2,1.18,1.36-.99-1.46,1.06,1.63-.78c-.07-.15-.13-.22-.17-.29l-1.46,1.06,1.63-.78-1.65.79h1.83c0-.43-.12-.64-.18-.79l-1.65.79h1.83-1.84l1.51,1.05c.25-.35.33-.76.33-1.05h-1.84l1.51,1.05-3.03-2.1Z"/>
      <path class="cls-9" d="M126.87,81.89c.04-.22.09-.44.16-.65.03-.11.06-.22.1-.32.03-.09.18-.41.03-.11.19-.4.38-.78.63-1.15.06-.08.12-.16.18-.24-.18.27.02-.02.08-.09.14-.17.3-.33.46-.49.08-.07.16-.15.25-.22.07-.06.36-.26.09-.08.19-.13.36-.26.55-.38.49-.3.73-1.01.4-1.51-.32-.5-.99-.72-1.51-.4-1.8,1.1-3.15,2.96-3.55,5.04-.11.57.16,1.22.77,1.36.55.13,1.24-.16,1.36-.77"/>
      <path class="cls-9" d="M128.69,78.33c8.15,5.44,16.08,11.2,23.77,17.28.26-.63.52-1.26.78-1.89-.35-.01-.7-.03-1.05-.04-1.42-.05-1.42,2.16,0,2.21.35.01.7.03,1.05.04.89.03,1.55-1.28.78-1.89-7.83-6.2-15.91-12.08-24.22-17.62-1.18-.79-2.3,1.12-1.12,1.91"/>
      <path class="cls-9" d="M125.34,82.9c7.26,5.93,14.84,11.47,22.69,16.58,1.19.78,2.3-1.14,1.12-1.91-7.7-5.01-15.13-10.43-22.24-16.24-1.09-.89-2.67.67-1.56,1.56"/>
      <path class="cls-9" d="M148.79,100c3.06.68,5.65-1.89,4.98-4.96-.24-1.09-1.86-1.02-2.14,0-.03.12-.21.46-.21.58-.13.14-.11.16.06.06.2-.03.2-.13,0-.27-.14-.43-.66-.92-.95-1.27-.71-.84-1.54-1.57-2.41-2.24-1.79-1.37-3.77-2.43-5.7-3.58-2.19-1.3-4.3-2.72-6.32-4.27-.98-.75-1.93-1.53-2.86-2.34-.5-.44-.99-.88-1.48-1.33-.24-.22-.49-.45-.72-.68-.08-.08-.16-.15-.24-.23-.19-.26-.23-.29-.13-.09l-1.36.77c2.04.52,3.81,1.62,5.5,2.86,1.82,1.34,3.57,2.78,5.3,4.23,3.51,2.95,6.88,6.07,10.09,9.34-.06-.45-.12-.89-.17-1.34.48-.09.61-.16.41-.2l-.18-.08c-.11-.16-.37-.3-.53-.44-.5-.45-1-.9-1.5-1.36-1-.9-2.01-1.8-3.01-2.71-1.05-.95-2.59.56-1.56,1.56,2,1.96,4,3.93,6,5.89.08-.58.15-1.16.22-1.74-.31.22-2.1-1.24-2.4-1.45-.9-.61-1.8-1.22-2.69-1.85-1.83-1.28-3.63-2.6-5.4-3.95-3.52-2.68-6.92-5.52-10.21-8.49-1.08-.97-2.45.47-1.56,1.56,3.01,3.72,6.92,6.57,11.07,8.87,1.14.63,2.14-.8,1.34-1.74-1.66-1.96-3.52-3.73-5.56-5.29-1-.77-2.04-1.49-3.11-2.14-.54-.33-1.09-.64-1.64-.94-.23-.13-.49-.23-.7-.39-.1-.05-.18-.12-.25-.21-.04-.1-.03-.1.04-.01-.45.06-.89.12-1.34.17,7.17,3.32,12.96,8.76,18.62,14.14l1.56-1.56c-.63-.52-1.28-.99-2.03-1.33-.37-.17-.74-.32-1.12-.45-.2-.06-.39-.11-.6-.16-.39-.13-.41-.07-.03.18v1.12l.05-.09c-.32.19-.64.37-.96.55-.12-.04-.24-.08-.36-.12-.17-.42-.34-.83-.51-1.25l-.02.07c-.38,1.37,1.75,1.96,2.13.59l.02-.07c.12-.44-.07-1.04-.51-1.25-1.27-.6-2.6.82-1.51,1.93.43.45,1.15.46,1.7.64.8.26,1.53.67,2.18,1.21,1.08.89,2.62-.57,1.56-1.56-5.79-5.5-11.74-11.1-19.07-14.49-.51-.23-.91-.16-1.34.17-1.1.85-.79,2.45.13,3.3.54.51,1.28.81,1.92,1.17.68.39,1.36.8,2.01,1.24,2.69,1.78,5.08,3.96,7.16,6.42.45-.58.89-1.16,1.34-1.74-4.01-2.23-7.72-4.94-10.63-8.53-.52.52-1.04,1.05-1.56,1.56,3.69,3.32,7.52,6.47,11.48,9.45,1.96,1.48,3.96,2.92,5.99,4.31,1.04.71,2.07,1.45,3.14,2.1.86.52,1.88.84,2.78.22.57-.4.77-1.21.22-1.74-2-1.96-4-3.93-6-5.89-.52.52-1.04,1.04-1.56,1.56,1.6,1.44,3.17,2.9,4.79,4.31.93.8,2.82,1.57,3.5.02.2-.46.2-.96-.17-1.34-3.38-3.43-6.92-6.7-10.63-9.78-3.35-2.79-6.92-6.11-11.25-7.21-.61-.16-1.16.2-1.36.77-.54,1.54,1.18,2.71,2.16,3.6,1.15,1.04,2.33,2.04,3.54,2.99,2.45,1.91,5.01,3.65,7.69,5.21,2.38,1.39,4.88,2.71,6.75,4.79.8.89,1.37,2.39,2.72,2.5,1.32.11,2.05-1.15,2.36-2.25h-2.14c.31,1.39-.86,2.55-2.25,2.24-1.39-.31-1.98,1.82-.59,2.13"/>
    </g>
    <g>
      <circle class="cls-1" cx="85.95" cy="181.21" r="31.91"/>
      <path class="cls-5" d="M69.84,181.76c0-9.36,6.91-17.14,18.48-17.14,5.66,0,10.03,1.87,13.2,4.9l-6.62,6.86c-1.63-1.3-3.31-2.4-6.19-2.4-4.75,0-7.83,3.12-7.83,7.58s3.17,7.68,7.92,7.68c3.22,0,5.52-1.49,6.67-2.64l6.72,6.82c-3.17,3.17-8.06,5.18-13.87,5.18-11.57,0-18.48-7.73-18.48-16.85ZM96.97,192.61l-1.44-1.54c-1.63,1.06-4.08,1.78-6.96,1.78-7.25,0-12.14-4.66-12.14-11.33s4.9-11.42,12.14-11.42c2.54,0,4.66.58,6.43,1.63l1.49-1.63c-2.3-1.3-4.8-2.02-7.92-2.02-9.17,0-14.35,6-14.35,13.44s5.18,13.34,14.35,13.34c3.5,0,6.29-.82,8.4-2.26Z"/>
    </g>
  </g>
</svg>