<?xml version="1.0" encoding="UTF-8"?>
<svg id="Layer_2" data-name="Layer 2" xmlns="http://www.w3.org/2000/svg" viewBox="0 0 171.9 223.78">
  <defs>
    <style>
      .cls-1 {
        fill: #1d639e;
      }

      .cls-1, .cls-2, .cls-3, .cls-4, .cls-5, .cls-6 {
        stroke-width: 0px;
      }

      .cls-2 {
        fill: none;
      }

      .cls-3 {
        fill: #be720e;
      }

      .cls-4 {
        fill: #fff;
      }

      .cls-5 {
        fill: #dae3be;
      }

      .cls-6 {
        fill: #1f63a0;
      }
    </style>
  </defs>
  <g id="Layer_1-2" data-name="Layer 1">
    <rect class="cls-2" x="0" width="171.9" height="223.78"/>
    <g>
      <path class="cls-5" d="M85.95,8.12C40.52,8.12,3.7,44.94,3.7,90.37s36.82,82.25,82.25,82.25,82.25-36.82,82.25-82.25S131.37,8.12,85.95,8.12"/>
      <path class="cls-3" d="M168.2,89.68h-3.7c0,21.7-8.78,41.31-23,55.54-14.23,14.22-33.84,23-55.54,23.01-21.7,0-41.32-8.79-55.54-23.01-14.22-14.23-23-33.84-23.01-55.54,0-21.7,8.78-41.31,23.01-55.54,14.22-14.22,33.84-23,55.54-23.01,21.7,0,41.31,8.79,55.54,23.01,14.22,14.23,23,33.84,23,55.54h7.41c0-23.72-9.63-45.23-25.17-60.77-15.54-15.55-37.05-25.17-60.78-25.17S40.71,13.36,25.17,28.91C9.63,44.45,0,65.96,0,89.68c0,23.72,9.63,45.23,25.17,60.78,15.54,15.55,37.05,25.17,60.77,25.17s45.23-9.63,60.78-25.17c15.55-15.54,25.17-37.05,25.17-60.78h-3.7Z"/>
    </g>
    <g>
      <rect class="cls-6" x="44.84" y="103.88" width="16.28" height="44.22"/>
      <rect class="cls-6" x="75.69" y="85.24" width="16.28" height="62.86"/>
      <rect class="cls-6" x="105.35" y="73.51" width="16.28" height="74.59"/>
      <path class="cls-3" d="M21.9,92.74l26.47-18.78-.45-.64.03.79,34.78-1.68,44.68-30.56-.89-1.3-44.31,30.31-34.56,1.68-.19.13c-8.82,6.26-17.64,12.52-26.47,18.78l.91,1.28Z"/>
      <path class="cls-3" d="M131.65,40.77c0,2.1-1.7,3.8-3.8,3.8s-3.8-1.7-3.8-3.8,1.7-3.8,3.8-3.8,3.8,1.7,3.8,3.8"/>
      <path class="cls-3" d="M86.27,71.14c0,2.1-1.7,3.8-3.8,3.8s-3.8-1.7-3.8-3.8,1.7-3.8,3.8-3.8,3.8,1.7,3.8,3.8"/>
      <path class="cls-3" d="M52.46,74.94c0,2.1-1.7,3.8-3.8,3.8s-3.8-1.7-3.8-3.8,1.7-3.8,3.8-3.8,3.8,1.7,3.8,3.8"/>
    </g>
    <g>
      <circle class="cls-1" cx="89.72" cy="181.21" r="31.91"/>
      <path class="cls-4" d="M73.81,165.87h16.99c10.37,0,16.51,6.19,16.51,15.79s-6.14,15.75-16.51,15.75h-16.99v-31.54ZM90.27,193.95c7.58,0,12.77-4.13,12.77-12.29s-5.18-12.34-12.77-12.34h-12.14v24.63h12.14ZM80.53,171.44h9.75c6.29,0,10.37,3.5,10.37,10.23s-4.08,10.18-10.37,10.18h-9.75v-20.4ZM89.36,188.29c3.94,0,7.06-2.3,7.06-6.62s-3.12-6.67-7.06-6.67h-4.51v13.3h4.51Z"/>
    </g>
  </g>
</svg>