<?xml version="1.0" encoding="utf-8"?>
<!-- Generator: Adobe Illustrator 28.1.0, SVG Export Plug-In . SVG Version: 6.00 Build 0)  -->
<svg version="1.1" id="Layer_2_00000178903928166551797100000006639621669110827159_"
	 xmlns="http://www.w3.org/2000/svg" xmlns:xlink="http://www.w3.org/1999/xlink" x="0px" y="0px" viewBox="0 0 1458 657.3"
	 style="enable-background:new 0 0 1458 657.3;" xml:space="preserve">
<style type="text/css">
	.st0{fill:#F8D2A0;}
	.st1{fill:#009445;}
	.st2{fill:#CC9D76;}
	.st3{fill:#38B54A;}
	.st4{fill:#006938;}
	.st5{fill:#C4996B;}
	.st6{clip-path:url(#SVGID_00000067946864075203367560000005792330250092705422_);}
	.st7{clip-path:url(#SVGID_00000074417671956733604790000013236524192922281604_);}
</style>
<g id="Layer_1-2">
	<g>
		<rect x="-2.5" y="0.5" class="st0" width="1461.4" height="657.3"/>
		<g>
			<rect x="-2.5" y="627.7" class="st1" width="1461.4" height="30.1"/>
			<path class="st2" d="M1423.3,113.7l-57.3,0.1v316c6.8,2.9,12.4,8.4,14.4,15.4c6.1-5,14-7.5,21.9-7.5c6.5,0,13,1.7,18.5,5.3
				c12.1,7.8,18.3,23.8,14.5,37.7c-3.7,13.9-17.1,24.6-31.5,25.3c5.5,10.3,3.1,23.8-4.6,32.6c-7.2,8.3-18.5,12.6-29.6,12.6
				c-0.6,0-1.3,0-1.9,0c-6.6-0.3-11.8-2.2-16.8-4.6v79.9h-10.4v-85.2c-1.8-0.9-3.8-1.8-5.8-2.6c-11.8-4.7-23.4-5.1-34-13.3
				c-10-7.7-17-20.2-15.5-32.7c1.4-11.7,11.9-22.2,23.5-22.2c0.8,0,1.6,0,2.4,0.2c1-3.3,2.1-6.6,3.4-9.8H904.2V207.8l-13.4,0.3
				l-19.3-18.9h-26.7v100.1h-24.7v-82.2l-39.7-44h-44.7v464.5h723.1V163.3l-35.6,0.1L1423.3,113.7L1423.3,113.7z"/>
			<path class="st2" d="M708,113.7l-59.2,0.1v282.9c7,2.9-477.2,63.8-477.2,63.8V207.8l-13.9,0.3l-19.9-18.9h-27.6v100.1H84.7v-82.2
				l-41-44H-2.5v464.5h747.3V169.3l-36.8,0.1L708,113.7L708,113.7z"/>
			<path class="st3" d="M914.9,627.2c0.1,0.7,0.2,1.5,0.4,2.2h196.2c1.2-0.7,2.4-1.4,3.6-2.2c7.7-5.3,13.7-13.6,16-23.2
				c4-16.2-2.6-34.8-15.5-43.9c-12.9-9.1-31.2-8-43,2.6c-3.3-12.3-15.1-20.5-26.9-20.7s-22.9,6.6-30.8,16.1
				c-0.2,0.2-0.3,0.4-0.5,0.6c-4.5-10-15-16.5-25.4-16.7c-11.7-0.2-22.9,6.6-30.8,16.1c-7.8,9.5-12.7,21.6-16,33.8
				c-13.4-1.9-26,11.2-27.6,25.7C914.3,620.9,914.4,624.1,914.9,627.2"/>
			<path class="st4" d="M341.9,627.4c0.1,0.7,0.2,1.3,0.4,2h196.2c1.2-0.6,2.4-1.3,3.6-2c7.7-4.9,13.7-12.5,16-21.2
				c4-14.8-2.6-31.8-15.5-40.1c-12.9-8.3-31.2-7.3-43,2.4c-3.3-11.2-15.1-18.7-26.9-18.9c-11.7-0.2-22.9,6-30.8,14.7
				c-0.2,0.2-0.3,0.3-0.5,0.5c-4.5-9.2-15-15.1-25.4-15.2c-11.7-0.2-22.9,6-30.8,14.7c-7.8,8.7-12.7,19.7-16,30.9
				c-13.4-1.7-26,10.2-27.6,23.5C341.3,621.7,341.4,624.6,341.9,627.4"/>
			<polygon class="st2" points="192.1,460.4 192.1,207.3 201,207.1 201,397 223.6,397.2 218.6,244.8 246.1,244.8 266,260.3 
				307,259.5 307,397 324.6,397 324.6,169.4 413,169.2 413,397 428.2,397 428.2,234.8 516.7,234.7 516.7,322.5 535,322.4 535,234.8 
				603.6,234.7 603.6,113.8 651.1,113.7 651.1,460.6 			"/>
			<g>
				<path class="st1" d="M244.7,519.3c-11-8.5-18.7-22.1-16.9-35.8c1.7-13.7,14.7-26,28.4-24.2c3.5-11.5,8.4-22.9,16.5-31.8
					c8.1-9,19.6-15.3,31.7-15.2c12.1,0.2,24.3,7.9,27.7,19.5c12.3-10,31.1-11,44.4-2.5c13.3,8.6,20.1,26.1,15.9,41.3
					c-4.1,15.2-18.8,27-34.6,27.8c6,11.3,3.4,26.1-5,35.7c-8.4,9.7-21.7,14.3-34.5,13.8c-14.7-0.6-23.4-8.8-36.2-13.9
					C269,528.7,256.3,528.3,244.7,519.3"/>
				<path class="st3" d="M387.8,468c-1.8-8.6-6.8-16.6-14.1-21.2c-5.1-3.3-11.2-5-17.6-5c-7.8,0-15.2,2.5-20.9,7.1l-5.8,4.7
					l-2.1-7.2c-2.6-8.9-12.5-15.8-23-15.9h-0.4c-9.6,0-19.9,5-27.5,13.5c-6.5,7.2-11.5,17-15.5,30l-1.2,4l-4.2-0.5
					c-0.7-0.1-1.4-0.1-2-0.1c-8.8,0-17.5,7.5-20.2,16.7c-0.8-3.4-1.1-6.8-0.7-10.1c1.3-10.7,11.1-20.1,20.8-20.1c0.7,0,1.4,0,2,0.1
					l4.2,0.5l1.2-4c3.9-13,9-22.8,15.5-30c7.6-8.5,17.9-13.5,27.5-13.5h0.4c10.5,0.2,20.4,7,23,15.9l2.1,7.1l5.8-4.7
					c5.7-4.6,13.1-7.1,20.9-7.1c6.5,0,12.6,1.7,17.6,5C384.8,440.5,390.7,455.2,387.8,468"/>
				<path class="st5" d="M361.6,462.2c-0.4,0.9-1,2.1-1.8,3.7c-0.8,1.6-1.9,3.5-3.3,5.5c-1.4,2.1-3.1,4.3-5.3,6.6
					c-4.2,4.6-10,9.3-17.5,12.6c-3.7,1.8-7.8,3.3-12.1,5.2c-2.1,0.9-4.3,1.9-6.5,3.1c-2.2,1.2-4.4,2.5-6.4,4.1
					c-0.9,0.7-1.8,1.5-2.6,2.2c3.6-4.7,8.2-9.2,14.3-12.2c2.7-1.5,5.9-2.9,8.7-5c2.8-2.1,5.2-4.5,7-7c1.9-2.5,3.3-5,4.4-7.4
					c1.2-2.4,2-4.7,2.7-6.8c1.4-4.2,2.1-7.7,2.6-10.1c0.5-2.4,0.7-3.7,0.7-3.7s-0.7,1.2-1.9,3.3c-1.2,2.1-2.9,5.2-5.1,8.8
					c-2.2,3.6-5,7.7-8.7,11.5c-1.8,1.8-3.9,3.5-6.2,5c-2.2,1.5-5,2.6-8.1,4.3c-1.5,0.8-3.1,1.7-4.6,2.8c-0.4,0.3-0.7,0.5-1.1,0.8
					c-0.3,0.3-0.7,0.6-1,0.8c-0.7,0.6-1.4,1.1-1.9,1.7c-0.6,0.6-1.2,1.2-1.8,1.8c-0.5,0.6-1.1,1.3-1.6,1.9c-1,1.3-1.9,2.6-2.7,3.9
					c-1.2,1.9-2.1,3.7-2.9,5.5c0-3.1,0.3-6,1.4-8.7c1.2-3.1,3.2-6.1,5.4-9c2.2-3,4.5-5.9,6.5-9.1c2-3.2,3.4-6.6,4.2-9.8
					c0.9-3.2,1.2-6.3,1.3-9.1c0.1-5.6-1.1-9.9-2.2-12.7c-0.5-1.4-1-2.5-1.4-3.2c-0.4-0.7-0.6-1.1-0.6-1.1s0.1,0.4,0.2,1.2
					c0.2,0.8,0.3,1.9,0.5,3.4c0.3,2.9,0.4,7.1-0.7,12c-1,4.9-3.2,10.4-7.1,15.4c-2,2.6-4.4,5.2-6.9,8.2c-2.5,3-5.2,6.5-6.8,10.9
					c-0.8,2.2-1.4,4.6-1.6,6.8c-0.2,2.2-0.2,4.4,0,6.4c0.1,1,0.2,2,0.3,3c-0.3-0.3-0.7-0.6-1-0.9c-1.2-1-2.3-1.9-3.4-2.9
					c-1.2-0.9-2.4-1.9-3.6-2.8c-9.8-7.5-5.4-9.4-12.8-12.7c-3.7-1.6-21.2-6-23.4-6.7c-2.1-0.7-3.3-1.1-3.3-1.1s1,0.8,2.7,2.2
					c1.8,1.4,18.8,6.6,21.9,9.1c6.3,4.9,0.4,8.5,9.9,15.7c2.4,1.8,4.7,3.5,7,5.2c1,0.8,1.9,1.5,2.6,2.2c0.4,0.4,0.7,0.8,1,1.2h-0.5
					v112h11.4v-90.5c0.3-3.3,0.6-6.8,1.2-10.4c0.6-4,1.5-8.2,3.3-12c0.9-1.9,1.9-3.7,3.3-5.4c1.3-1.7,2.9-3.2,4.7-4.6
					c1.8-1.4,3.7-2.6,5.7-3.7c2-1.1,4-2.1,6.1-3.1c4.1-1.9,8.2-3.7,12-5.8c1.9-1,3.7-2.2,5.5-3.3c1.7-1.2,3.3-2.5,4.7-3.8
					c2.9-2.6,5.3-5.3,7.3-7.9s3.5-5.2,4.7-7.5c1.2-2.3,2-4.4,2.6-6c0.6-1.7,1-3,1.2-4c0.2-0.9,0.4-1.4,0.4-1.4
					S362,461.4,361.6,462.2"/>
			</g>
			<polygon class="st2" points="904.2,207.8 930.5,207.2 934.6,397.1 947.4,397.1 947.4,244.9 974.1,244.9 993.4,260.4 
				1027.5,259.7 1027.5,397.1 1050,397.1 1050,169.5 1135.6,169.3 1135.6,397.1 1150.3,397.1 1150.3,234.9 1235.9,234.9 
				1235.9,322.6 1253.7,322.6 1253.7,234.9 1320,234.9 1320,113.9 1366,113.9 1372.4,472.6 904.2,483.4 			"/>
			<g>
				<path class="st1" d="M1026.3,516.8c-11.2-8.7-19.1-22.7-17.4-36.7c1.7-14,15-26.6,29.1-24.8c3.6-11.8,8.6-23.4,16.9-32.6
					c8.3-9.2,20.1-15.7,32.5-15.5c12.4,0.2,24.9,8.1,28.3,19.9c12.5-10.2,31.8-11.3,45.4-2.5s20.5,26.7,16.3,42.3
					c-4.2,15.6-19.2,27.7-35.4,28.4c6.1,11.6,3.5,26.7-5.2,36.6c-8.6,9.9-22.2,14.7-35.4,14.1c-15.1-0.7-24-9-37-14.2
					C1051.3,526.5,1038.3,526,1026.3,516.8"/>
				<path class="st3" d="M1173,464.3c-1.8-8.8-7-17-14.5-21.8c-5.2-3.4-11.4-5.1-18.1-5.1c-8,0-15.6,2.6-21.4,7.3l-5.9,4.8l-2.2-7.3
					c-2.7-9.1-12.8-16.1-23.6-16.3h-0.4c-9.8,0-20.4,5.2-28.2,13.9c-6.6,7.4-11.8,17.4-15.8,30.7l-1.2,4.1l-4.3-0.5
					c-0.7-0.1-1.4-0.1-2.1-0.1c-9,0-17.9,7.7-20.6,17.1c-0.9-3.5-1.1-7-0.7-10.4c1.4-10.9,11.3-20.5,21.4-20.5c0.7,0,1.4,0,2.1,0.1
					l4.3,0.6l1.2-4.1c4-13.3,9.2-23.3,15.8-30.7c7.8-8.7,18.4-13.9,28.2-13.9h0.4c10.7,0.2,20.9,7.2,23.6,16.3l2.2,7.3l5.9-4.8
					c5.8-4.7,13.4-7.3,21.4-7.3c6.6,0,12.9,1.8,18.1,5.1C1169.9,436.1,1175.9,451.1,1173,464.3"/>
				<path class="st5" d="M1146.1,458.4c-0.4,0.9-1,2.2-1.8,3.8c-0.8,1.6-2,3.5-3.4,5.6c-1.5,2.1-3.2,4.4-5.4,6.8
					c-4.3,4.7-10.3,9.5-17.9,13c-3.8,1.8-8,3.4-12.4,5.3c-2.2,1-4.4,2-6.7,3.2c-2.2,1.2-4.5,2.6-6.6,4.2c-0.9,0.7-1.8,1.5-2.7,2.3
					c3.7-4.8,8.4-9.4,14.6-12.5c2.8-1.5,6-3,8.9-5.1c2.9-2.1,5.3-4.6,7.2-7.1c1.9-2.5,3.4-5.1,4.6-7.6c1.2-2.5,2.1-4.8,2.8-7
					c1.4-4.3,2.2-7.9,2.7-10.3c0.5-2.5,0.7-3.8,0.7-3.8s-0.7,1.2-1.9,3.4c-1.2,2.2-3,5.3-5.3,9c-2.3,3.7-5.2,7.9-8.9,11.7
					c-1.9,1.9-4,3.6-6.4,5.1c-2.3,1.5-5.2,2.7-8.3,4.4c-1.6,0.8-3.2,1.8-4.7,2.9c-0.4,0.3-0.8,0.5-1.1,0.8c-0.4,0.3-0.7,0.6-1,0.9
					c-0.7,0.6-1.4,1.1-2,1.8c-0.6,0.6-1.3,1.2-1.8,1.9c-0.6,0.6-1.1,1.3-1.7,1.9c-1,1.3-2,2.6-2.8,4c-1.2,1.9-2.2,3.8-3,5.7
					c0-3.2,0.3-6.2,1.4-8.9c1.2-3.2,3.3-6.2,5.5-9.2c2.2-3,4.6-6.1,6.6-9.3c2-3.3,3.5-6.8,4.3-10.1c0.9-3.3,1.3-6.5,1.3-9.3
					c0.1-5.7-1.2-10.2-2.2-13.1c-0.6-1.4-1-2.5-1.4-3.2c-0.4-0.7-0.6-1.1-0.6-1.1s0.1,0.4,0.2,1.2c0.2,0.8,0.3,2,0.5,3.4
					c0.3,3,0.4,7.3-0.7,12.3c-1,5-3.3,10.7-7.3,15.8c-2,2.6-4.5,5.3-7.1,8.4c-2.5,3.1-5.3,6.6-7,11.2c-0.9,2.3-1.4,4.7-1.6,7
					c-0.2,2.3-0.2,4.5,0,6.6c0.1,1,0.2,2,0.3,3c-0.3-0.3-0.7-0.6-1-0.9c-1.2-1.1-2.3-2-3.5-3c-1.2-1-2.4-1.9-3.7-2.9
					c-10.1-7.6-5.5-9.7-13.1-13c-3.8-1.7-21.8-6.1-24-6.9c-2.2-0.8-3.4-1.1-3.4-1.1s1,0.8,2.8,2.3c1.8,1.5,19.2,6.8,22.4,9.3
					c6.4,5.1,0.4,8.7,10.2,16.1c2.4,1.8,4.8,3.6,7.1,5.3c1.1,0.8,2,1.6,2.6,2.3c0.4,0.4,0.7,0.8,1,1.3h-0.5v114.8h11.6v-92.8
					c0.3-3.4,0.7-7,1.2-10.7c0.6-4.1,1.6-8.4,3.3-12.3c0.9-2,2-3.8,3.4-5.5c1.3-1.7,3-3.3,4.8-4.7c1.8-1.4,3.8-2.6,5.8-3.8
					c2-1.1,4.1-2.2,6.2-3.2c4.2-2,8.4-3.8,12.3-6c2-1,3.8-2.2,5.6-3.4c1.7-1.2,3.4-2.5,4.9-3.8c3-2.6,5.4-5.4,7.4-8.1
					c2-2.7,3.5-5.3,4.8-7.6c1.2-2.4,2-4.5,2.7-6.2c0.6-1.7,1-3.1,1.2-4c0.2-0.9,0.4-1.4,0.4-1.4S1146.5,457.5,1146.1,458.4"/>
				<g>
					<defs>
						<path id="SVGID_1_" d="M1058.8,426c-4.4,4.9-8.1,10.9-11.3,18.2h7.7c1.2-1.6,2.4-3.1,3.6-4.5c7.8-8.7,18.4-13.9,28.2-13.9h0.4
							c4.3,0.1,8.5,1.2,12.2,3.2v-13.8c-3.7-2-7.9-3.1-12.2-3.2h-0.4C1077.1,412.2,1066.6,417.4,1058.8,426"/>
					</defs>
					<clipPath id="SVGID_00000110455902453126768330000002580097271855932855_">
						<use xlink:href="#SVGID_1_"  style="overflow:visible;"/>
					</clipPath>
					<g style="clip-path:url(#SVGID_00000110455902453126768330000002580097271855932855_);">
						<g>
							<defs>
								<rect id="SVGID_00000175287209558736396530000004737633637151806902_" x="1047.2" y="412" width="52.7" height="32.6"/>
							</defs>
							<clipPath id="SVGID_00000165917306843789279950000010451153037440091817_">
								<use xlink:href="#SVGID_00000175287209558736396530000004737633637151806902_"  style="overflow:visible;"/>
							</clipPath>
							<g style="clip-path:url(#SVGID_00000165917306843789279950000010451153037440091817_);">
								
									<image style="overflow:visible;enable-background:new    ;" width="25" height="16" xlink:href="FF45A57B.png"  transform="matrix(2.1048 0 0 2.04 1047.2083 411.9507)">
								</image>
							</g>
						</g>
					</g>
				</g>
			</g>
			<rect x="1262.5" y="387.1" class="st2" width="179.4" height="240.3"/>
		</g>
	</g>
</g>
</svg>
