<?xml version="1.0" encoding="utf-8"?>
<!-- Generator: Adobe Illustrator 28.1.0, SVG Export Plug-In . SVG Version: 6.00 Build 0)  -->
<svg version="1.1" id="Layer_2_00000178903928166551797100000006639621669110827159_"
	 xmlns="http://www.w3.org/2000/svg" xmlns:xlink="http://www.w3.org/1999/xlink" x="0px" y="0px" viewBox="0 0 1458 657.3"
	 style="enable-background:new 0 0 1458 657.3;" xml:space="preserve">
<style type="text/css">
	.st0{fill:#F8D2A0;}
	.st1{fill:#009445;}
	.st2{fill:#CC9D76;}
	.st3{fill:#006938;}
	.st4{fill:#38B54A;}
	.st5{fill:#C4996B;}
	.st6{clip-path:url(#SVGID_00000065069004106074316720000003933865813786139814_);}
	.st7{clip-path:url(#SVGID_00000062881308524801856090000017446528777979310265_);}
</style>
<g id="Layer_1-2">
	<g>
		<rect x="-2.5" y="0.5" class="st0" width="1461.4" height="657.3"/>
		<g>
			<rect x="-2.5" y="635.6" class="st1" width="1076" height="22.2"/>
			<path class="st2" d="M1047.3,257.2l-42.2,0.1v232.7c5,2.1,9.1,6.2,10.6,11.3c4.5-3.7,10.3-5.5,16.1-5.5c4.8,0,9.6,1.3,13.6,3.9
				c8.9,5.7,13.5,17.5,10.7,27.8c-2.7,10.2-12.6,18.1-23.2,18.6c4,7.6,2.3,17.5-3.4,24c-5.3,6.1-13.6,9.3-21.8,9.3c-0.4,0-1,0-1.4,0
				c-4.9-0.2-8.7-1.6-12.4-3.4v58.8h-7.7V572c-1.3-0.7-2.8-1.3-4.3-1.9c-8.7-3.5-17.2-3.8-25-9.8c-7.4-5.7-12.5-14.9-11.4-24.1
				c1-8.6,8.8-16.3,17.3-16.3c0.6,0,1.2,0,1.8,0.1c0.7-2.4,1.5-4.9,2.5-7.2H665.1V326.5l-9.9,0.2L641,312.8h-19.7v73.7h-18.2v-60.5
				L574,293.5H541v342h532.4V293.7l-26.2,0.1L1047.3,257.2L1047.3,257.2z"/>
			<path class="st2" d="M520.7,257.2l-43.6,0.1v208.3c5.2,2.1-351.4,47-351.4,47V326.5l-10.2,0.2l-14.7-13.9H80.5v73.7H61.7v-60.5
				l-30.2-32.4h-34v342h550.2V298.1l-27.1,0.1V257.2L520.7,257.2z"/>
			<path class="st3" d="M249.7,634.2c0.1,0.5,0.1,1,0.3,1.5h144.5c0.9-0.4,1.8-1,2.7-1.5c5.7-3.6,10.1-9.2,11.8-15.6
				c2.9-10.9-1.9-23.4-11.4-29.5s-23-5.4-31.7,1.8c-2.4-8.2-11.1-13.8-19.8-13.9c-8.6-0.1-16.9,4.4-22.7,10.8
				c-0.1,0.1-0.2,0.2-0.4,0.4c-3.3-6.8-11-11.1-18.7-11.2c-8.6-0.1-16.9,4.4-22.7,10.8c-5.7,6.4-9.4,14.5-11.8,22.8
				c-9.9-1.3-19.1,7.5-20.3,17.3C249.2,630,249.3,632.1,249.7,634.2"/>
			<polygon class="st2" points="140.8,512.5 140.8,326.1 147.3,325.9 147.3,465.8 164,465.9 160.3,353.7 180.5,353.7 195.2,365.1 
				225.4,364.5 225.4,465.8 238.3,465.8 238.3,298.2 303.4,298 303.4,465.8 314.6,465.8 314.6,346.3 379.8,346.3 379.8,410.9 
				393.3,410.8 393.3,346.3 443.8,346.3 443.8,257.2 478.8,257.2 478.8,512.6 			"/>
			<g>
				<path class="st1" d="M179.7,554.5c-8.1-6.3-13.8-16.3-12.4-26.4c1.3-10.1,10.8-19.1,20.9-17.8c2.6-8.5,6.2-16.9,12.1-23.4
					c6-6.6,14.4-11.3,23.3-11.2c8.9,0.1,17.9,5.8,20.4,14.4c9.1-7.4,22.9-8.1,32.7-1.8c9.8,6.3,14.8,19.2,11.7,30.4
					c-3,11.2-13.8,19.9-25.5,20.5c4.4,8.3,2.5,19.2-3.7,26.3c-6.2,7.1-16,10.5-25.4,10.2c-10.8-0.4-17.2-6.5-26.7-10.2
					C197.6,561.4,188.2,561.1,179.7,554.5"/>
				<path class="st4" d="M285,516.7c-1.3-6.3-5-12.2-10.4-15.6c-3.8-2.4-8.2-3.7-13-3.7c-5.7,0-11.2,1.8-15.4,5.2l-4.3,3.5l-1.5-5.3
					c-1.9-6.6-9.2-11.6-16.9-11.7h-0.3c-7.1,0-14.7,3.7-20.2,9.9c-4.8,5.3-8.5,12.5-11.4,22.1l-0.9,2.9l-3.1-0.4
					c-0.5-0.1-1-0.1-1.5-0.1c-6.5,0-12.9,5.5-14.9,12.3c-0.6-2.5-0.8-5-0.5-7.4c1-7.9,8.2-14.8,15.3-14.8c0.5,0,1,0,1.5,0.1l3.1,0.4
					l0.9-2.9c2.9-9.6,6.6-16.8,11.4-22.1c5.6-6.3,13.2-9.9,20.2-9.9h0.3c7.7,0.1,15,5.2,16.9,11.7l1.5,5.2l4.3-3.5
					c4.2-3.4,9.6-5.2,15.4-5.2c4.8,0,9.3,1.3,13,3.7C282.8,496.5,287.2,507.3,285,516.7"/>
				<path class="st5" d="M265.7,511.7c-0.3,0.7-0.7,1.5-1.3,2.7s-1.4,2.6-2.4,4c-1,1.5-2.3,3.2-3.9,4.9c-3.1,3.4-7.4,6.8-12.9,9.3
					c-2.7,1.3-5.7,2.4-8.9,3.8c-1.5,0.7-3.2,1.4-4.8,2.3c-1.6,0.9-3.2,1.8-4.7,3c-0.7,0.5-1.3,1.1-1.9,1.6c2.7-3.5,6-6.8,10.5-9
					c2-1.1,4.3-2.1,6.4-3.7c2.1-1.5,3.8-3.3,5.2-5.2c1.4-1.8,2.4-3.7,3.2-5.4c0.9-1.8,1.5-3.5,2-5c1-3.1,1.5-5.7,1.9-7.4
					c0.4-1.8,0.5-2.7,0.5-2.7s-0.5,0.9-1.4,2.4c-0.9,1.5-2.1,3.8-3.8,6.5c-1.6,2.7-3.7,5.7-6.4,8.5c-1.3,1.3-2.9,2.6-4.6,3.7
					c-1.6,1.1-3.7,1.9-6,3.2c-1.1,0.6-2.3,1.3-3.4,2.1c-0.3,0.2-0.5,0.4-0.8,0.6c-0.2,0.2-0.5,0.4-0.7,0.6c-0.5,0.4-1,0.8-1.4,1.3
					c-0.4,0.4-0.9,0.9-1.3,1.3c-0.4,0.4-0.8,1-1.2,1.4c-0.7,1-1.4,1.9-2,2.9c-0.9,1.4-1.5,2.7-2.1,4c0-2.3,0.2-4.4,1-6.4
					c0.9-2.3,2.4-4.5,4-6.6c1.6-2.2,3.3-4.3,4.8-6.7c1.5-2.4,2.5-4.9,3.1-7.2c0.7-2.4,0.9-4.6,1-6.7c0.1-4.1-0.8-7.3-1.6-9.4
					c-0.4-1-0.7-1.8-1-2.4c-0.3-0.5-0.4-0.8-0.4-0.8s0.1,0.3,0.1,0.9c0.1,0.6,0.2,1.4,0.4,2.5c0.2,2.1,0.3,5.2-0.5,8.8
					c-0.7,3.6-2.4,7.7-5.2,11.3c-1.5,1.9-3.2,3.8-5.1,6s-3.8,4.8-5,8c-0.6,1.6-1,3.4-1.2,5c-0.1,1.6-0.1,3.2,0,4.7
					c0.1,0.7,0.1,1.5,0.2,2.2c-0.2-0.2-0.5-0.4-0.7-0.7c-0.9-0.7-1.7-1.4-2.5-2.1c-0.9-0.7-1.8-1.4-2.7-2.1c-7.2-5.5-4-6.9-9.4-9.4
					c-2.7-1.2-15.6-4.4-17.2-4.9c-1.5-0.5-2.4-0.8-2.4-0.8s0.7,0.6,2,1.6c1.3,1,13.8,4.9,16.1,6.7c4.6,3.6,0.3,6.3,7.3,11.6
					c1.8,1.3,3.5,2.6,5.2,3.8c0.7,0.6,1.4,1.1,1.9,1.6c0.3,0.3,0.5,0.6,0.7,0.9h-0.4v82.5h8.4v-66.6c0.2-2.4,0.4-5,0.9-7.7
					c0.4-2.9,1.1-6,2.4-8.8c0.7-1.4,1.4-2.7,2.4-4c1-1.3,2.1-2.4,3.5-3.4c1.3-1,2.7-1.9,4.2-2.7s2.9-1.5,4.5-2.3
					c3-1.4,6-2.7,8.8-4.3c1.4-0.7,2.7-1.6,4-2.4c1.3-0.9,2.4-1.8,3.5-2.8c2.1-1.9,3.9-3.9,5.4-5.8c1.5-1.9,2.6-3.8,3.5-5.5
					c0.9-1.7,1.5-3.2,1.9-4.4c0.4-1.3,0.7-2.2,0.9-2.9c0.1-0.7,0.3-1,0.3-1S266,511.1,265.7,511.7"/>
			</g>
			<polygon class="st2" points="665.1,326.5 684.5,326 687.5,465.8 696.9,465.8 696.9,353.8 716.6,353.8 730.8,365.2 755.9,364.7 
				755.9,465.8 772.5,465.8 772.5,298.3 835.5,298.1 835.5,465.8 846.3,465.8 846.3,346.4 909.4,346.4 909.4,411 922.5,411 
				922.5,346.4 971.3,346.4 971.3,257.3 1005.1,257.3 1009.9,521.4 665.1,529.4 			"/>
			<rect x="928.9" y="458.5" class="st2" width="132.1" height="176.9"/>
		</g>
		<g>
			<rect x="1073.5" y="635.6" class="st1" width="1076" height="22.2"/>
			<path class="st2" d="M2123.3,257.2l-42.2,0.1v232.7c5,2.1,9.1,6.2,10.6,11.3c4.5-3.7,10.3-5.5,16.1-5.5c4.8,0,9.6,1.3,13.6,3.9
				c8.9,5.7,13.5,17.5,10.7,27.8c-2.7,10.2-12.6,18.1-23.2,18.6c4,7.6,2.3,17.5-3.4,24c-5.3,6.1-13.6,9.3-21.8,9.3c-0.4,0-1,0-1.4,0
				c-4.9-0.2-8.7-1.6-12.4-3.4v58.8h-7.7V572c-1.3-0.7-2.8-1.3-4.3-1.9c-8.7-3.5-17.2-3.8-25-9.8c-7.4-5.7-12.5-14.9-11.4-24.1
				c1-8.6,8.8-16.3,17.3-16.3c0.6,0,1.2,0,1.8,0.1c0.7-2.4,1.5-4.9,2.5-7.2h-302.1V326.5l-9.9,0.2l-14.2-13.9h-19.7v73.7h-18.2
				v-60.5l-29.2-32.4H1617v342h532.4V293.7l-26.2,0.1L2123.3,257.2L2123.3,257.2z"/>
			<path class="st2" d="M1596.6,257.2l-43.6,0.1v208.3c5.2,2.1-351.4,47-351.4,47V326.5l-10.2,0.2l-14.7-13.9h-20.3v73.7h-18.8
				v-60.5l-30.2-32.4h-34v342h550.2V298.1l-27.1,0.1V257.2L1596.6,257.2z"/>
			<path class="st4" d="M1155.7,634c0.1,0.5,0.1,1.1,0.3,1.6h144.5c0.9-0.5,1.8-1,2.7-1.6c5.7-3.9,10.1-10,11.8-17.1
				c2.9-11.9-1.9-25.6-11.4-32.3c-9.5-6.7-23-5.9-31.7,1.9c-2.4-9.1-11.1-15.1-19.8-15.2c-8.7-0.1-16.9,4.9-22.7,11.9
				c-0.1,0.1-0.2,0.3-0.4,0.4c-3.3-7.4-11-12.1-18.7-12.3c-8.6-0.1-16.9,4.9-22.7,11.9c-5.7,7-9.4,15.9-11.8,24.9
				c-9.9-1.4-19.1,8.2-20.3,18.9C1155.3,629.4,1155.4,631.8,1155.7,634"/>
			<polygon class="st2" points="1216.8,512.5 1216.8,326.1 1223.3,325.9 1223.3,465.8 1240,465.9 1236.3,353.7 1256.5,353.7 
				1271.2,365.1 1301.4,364.5 1301.4,465.8 1314.3,465.8 1314.3,298.2 1379.4,298 1379.4,465.8 1390.6,465.8 1390.6,346.3 
				1455.8,346.3 1455.8,410.9 1469.2,410.8 1469.2,346.3 1519.8,346.3 1519.8,257.2 1554.7,257.2 1554.7,512.6 			"/>
			<polygon class="st2" points="1741.1,326.5 1760.5,326 1763.5,465.8 1772.9,465.8 1772.9,353.8 1792.6,353.8 1806.8,365.2 
				1831.9,364.7 1831.9,465.8 1848.4,465.8 1848.4,298.3 1911.5,298.1 1911.5,465.8 1922.3,465.8 1922.3,346.4 1985.3,346.4 
				1985.3,411 1998.4,411 1998.4,346.4 2047.3,346.4 2047.3,257.3 2081.1,257.3 2085.8,521.4 1741.1,529.4 			"/>
			<g>
				<path class="st1" d="M1236.4,554c-8.2-6.4-14.1-16.7-12.8-27c1.3-10.3,11-19.6,21.4-18.3c2.7-8.7,6.3-17.2,12.4-24
					c6.1-6.8,14.8-11.6,23.9-11.4c9.1,0.1,18.3,6,20.8,14.7c9.2-7.5,23.4-8.3,33.4-1.8c10,6.5,15.1,19.7,12,31.1
					c-3.1,11.5-14.1,20.4-26.1,20.9c4.5,8.5,2.6,19.7-3.8,26.9c-6.3,7.3-16.3,10.8-26.1,10.4c-11.1-0.5-17.7-6.6-27.2-10.5
					C1254.8,561.1,1245.3,560.8,1236.4,554"/>
				<path class="st4" d="M1344.5,515.3c-1.3-6.5-5.2-12.5-10.7-16.1c-3.8-2.5-8.4-3.8-13.3-3.8c-5.9,0-11.5,1.9-15.8,5.4l-4.3,3.5
					l-1.6-5.4c-2-6.7-9.4-11.9-17.4-12h-0.3c-7.2,0-15,3.8-20.8,10.2c-4.9,5.4-8.7,12.8-11.6,22.6l-0.9,3l-3.2-0.4
					c-0.5-0.1-1-0.1-1.5-0.1c-6.6,0-13.2,5.7-15.2,12.6c-0.7-2.6-0.8-5.2-0.5-7.7c1-8,8.3-15.1,15.8-15.1c0.5,0,1,0,1.5,0.1l3.2,0.4
					l0.9-3c2.9-9.8,6.8-17.2,11.6-22.6c5.7-6.4,13.5-10.2,20.8-10.2h0.3c7.9,0.1,15.4,5.3,17.4,12l1.6,5.4l4.3-3.5
					c4.3-3.5,9.9-5.4,15.8-5.4c4.9,0,9.5,1.3,13.3,3.8C1342.2,494.6,1346.6,505.6,1344.5,515.3"/>
				<path class="st5" d="M1324.7,509.6c-0.3,0.7-0.7,1.6-1.3,2.8c-0.6,1.2-1.5,2.6-2.5,4.1c-1.1,1.5-2.4,3.2-4,5
					c-3.2,3.5-7.6,7-13.2,9.6c-2.8,1.3-5.9,2.5-9.1,3.9c-1.6,0.7-3.2,1.5-4.9,2.4c-1.6,0.9-3.3,1.9-4.9,3.1c-0.7,0.5-1.3,1.1-2,1.7
					c2.7-3.5,6.2-6.9,10.8-9.2c2.1-1.1,4.4-2.2,6.6-3.8s3.9-3.4,5.3-5.2c1.4-1.8,2.5-3.8,3.4-5.6c0.9-1.8,1.5-3.5,2.1-5.2
					c1-3.2,1.6-5.8,2-7.6c0.4-1.8,0.5-2.8,0.5-2.8s-0.5,0.9-1.4,2.5c-0.9,1.6-2.2,3.9-3.9,6.6s-3.8,5.8-6.6,8.6
					c-1.4,1.4-2.9,2.7-4.7,3.8c-1.7,1.1-3.8,2-6.1,3.2c-1.2,0.6-2.4,1.3-3.5,2.1c-0.3,0.2-0.6,0.4-0.8,0.6c-0.3,0.2-0.5,0.4-0.7,0.7
					c-0.5,0.4-1,0.8-1.5,1.3c-0.4,0.4-1,0.9-1.3,1.4c-0.4,0.4-0.8,1-1.3,1.4c-0.7,1-1.5,1.9-2.1,2.9c-0.9,1.4-1.6,2.8-2.2,4.2
					c0-2.4,0.2-4.6,1-6.6c0.9-2.4,2.4-4.6,4-6.8c1.6-2.2,3.4-4.5,4.9-6.8c1.5-2.4,2.6-5,3.2-7.4c0.7-2.4,1-4.8,1-6.8
					c0.1-4.2-0.9-7.5-1.6-9.6c-0.4-1-0.7-1.8-1-2.4s-0.4-0.8-0.4-0.8s0.1,0.3,0.1,0.9c0.1,0.6,0.2,1.5,0.4,2.5
					c0.2,2.2,0.3,5.4-0.5,9.1c-0.7,3.7-2.4,7.9-5.4,11.6c-1.5,1.9-3.3,3.9-5.2,6.2c-1.8,2.3-3.9,4.9-5.2,8.2c-0.7,1.7-1,3.5-1.2,5.2
					c-0.1,1.7-0.1,3.3,0,4.9c0.1,0.7,0.1,1.5,0.2,2.2c-0.2-0.2-0.5-0.4-0.7-0.7c-0.9-0.8-1.7-1.5-2.6-2.2c-0.9-0.7-1.8-1.4-2.7-2.1
					c-7.4-5.6-4-7.1-9.6-9.6c-2.8-1.3-16.1-4.5-17.7-5.1s-2.5-0.8-2.5-0.8s0.7,0.6,2.1,1.7c1.3,1.1,14.1,5,16.5,6.8
					c4.7,3.8,0.3,6.4,7.5,11.9c1.8,1.3,3.5,2.7,5.2,3.9c0.8,0.6,1.5,1.2,1.9,1.7c0.3,0.3,0.5,0.6,0.7,1h-0.4v83.4h8.5v-67.2
					c0.2-2.5,0.5-5.2,0.9-7.9c0.4-3,1.2-6.2,2.4-9.1c0.7-1.5,1.5-2.8,2.5-4c1-1.3,2.2-2.4,3.5-3.5c1.3-1,2.8-1.9,4.3-2.8
					c1.5-0.8,3-1.6,4.6-2.4c3.1-1.5,6.2-2.8,9.1-4.4c1.5-0.7,2.8-1.6,4.1-2.5c1.3-0.9,2.5-1.8,3.6-2.8c2.2-1.9,4-4,5.4-6
					s2.6-3.9,3.5-5.6c0.9-1.8,1.5-3.3,2-4.6c0.4-1.3,0.7-2.3,0.9-2.9s0.3-1,0.3-1S1324.9,509,1324.7,509.6"/>
				<g>
					<g>
						<defs>
							<path id="SVGID_1_" d="M1260.4,487.1c-3.2,3.6-6,8-8.3,13.4h5.7c0.9-1.2,1.8-2.3,2.7-3.3c5.7-6.4,13.5-10.2,20.8-10.2h0.3
								c3.2,0.1,6.3,0.9,9,2.4v-10.2c-2.7-1.5-5.8-2.3-9-2.4h-0.3C1273.8,477,1266.1,480.8,1260.4,487.1"/>
						</defs>
						<clipPath id="SVGID_00000114785320995274210510000013083340325828658053_">
							<use xlink:href="#SVGID_1_"  style="overflow:visible;"/>
						</clipPath>
						<g style="clip-path:url(#SVGID_00000114785320995274210510000013083340325828658053_);">
							<g>
								<g>
									<defs>
										<rect id="SVGID_00000115501333239771559150000001923234069788400806_" x="1251.8" y="476.8" width="38.8" height="24"/>
									</defs>
									<clipPath id="SVGID_00000142894225668882982470000018266834404691473297_">
										<use xlink:href="#SVGID_00000115501333239771559150000001923234069788400806_"  style="overflow:visible;"/>
									</clipPath>
									<g style="clip-path:url(#SVGID_00000142894225668882982470000018266834404691473297_);">
										
											<image style="overflow:visible;enable-background:new    ;" width="26" height="16" xlink:href="FF45A57B.png"  transform="matrix(1.5068 0 0 1.4604 1251.6212 477.111)">
										</image>
									</g>
								</g>
							</g>
						</g>
					</g>
				</g>
			</g>
			<rect x="2004.9" y="458.5" class="st2" width="132.1" height="176.9"/>
		</g>
	</g>
</g>
</svg>
