<?xml version="1.0" encoding="utf-8"?>
<!-- Generator: Adobe Illustrator 28.1.0, SVG Export Plug-In . SVG Version: 6.00 Build 0)  -->
<svg version="1.1" id="Layer_2_00000022548263509800597760000007382081857897542055_"
	 xmlns="http://www.w3.org/2000/svg" xmlns:xlink="http://www.w3.org/1999/xlink" x="0px" y="0px" viewBox="0 0 200 640"
	 style="enable-background:new 0 0 200 640;" xml:space="preserve">
<style type="text/css">
	.st0{fill:#E6E6E5;}
	.st1{fill:url(#circle-gray_00000109018248848229212300000000058431087729526917_);}
	.st2{fill:#FFFFFF;}
	.st3{fill:#E17300;}
</style>
<path id="circle-fio" class="st0" d="M7.3,281.5c12.3-39.3,49-67.9,92.5-67.9c26.7,0,51,10.8,68.5,28.4
	c17.5,17.5,28.4,41.7,28.4,68.5c0,26.7-10.8,51-28.4,68.5c-17.5,17.5-41.7,28.4-68.5,28.4s-51-10.8-68.5-28.4
	c-17.5-17.5-28.4-41.7-28.4-68.5C2.9,300.4,4.4,290.6,7.3,281.5l-2.1-0.7c-2.9,9.4-4.5,19.3-4.5,29.6c0,54.7,44.4,99.1,99.1,99.1
	s99.1-44.4,99.1-99.1s-44.4-99.1-99.1-99.1c-44.4,0-82,29.2-94.6,69.5L7.3,281.5L7.3,281.5z"/>
<linearGradient id="circle-gray_00000111180048945389493320000001636256181123991446_" gradientUnits="userSpaceOnUse" x1="19.1" y1="329" x2="181.5" y2="329" gradientTransform="matrix(1 0 0 -1 0 640)">
	<stop  offset="0" style="stop-color:#F4F6F8"/>
	<stop  offset="0.9242" style="stop-color:#EEF4F4"/>
	<stop  offset="1" style="stop-color:#EDF4F4"/>
</linearGradient>
<circle id="circle-gray" style="fill:url(#circle-gray_00000111180048945389493320000001636256181123991446_);" cx="100.3" cy="311" r="81.2"/>
<g>
	<path class="st0" d="M156.8,252c14.4,14.7,23.2,34.9,23.2,57.1c0,45.1-36.6,81.7-81.7,81.7c-22.2,0-42.3-8.9-57.1-23.2
		c14.9,15.2,35.5,24.7,58.5,24.7c45.2,0,81.8-36.6,81.8-81.7C181.5,287.5,172,266.8,156.8,252"/>
	<path class="st2" d="M20,312.4c0-45.1,36.6-81.8,81.7-81.8c22.1,0,42,8.8,56.7,23c-14.9-15.3-35.7-24.9-58.7-24.9
		c-45.1,0-81.7,36.6-81.7,81.8c0,23.1,9.6,43.9,25,58.8C28.8,354.5,20,334.5,20,312.4"/>
</g>
<g id="txt-circle1">
	<g>
		<path class="st3" d="M56.6,284.5l-2.2,1.8l-2.5-3l5.3-4.4h4.7v15.2h-5.3V284.5L56.6,284.5z"/>
		<path class="st3" d="M64.4,288.1c0-3.4,1.8-5.5,6-9.1h8c-2.4,1.5-4.7,3.6-5.7,4.7c0.2-0.1,1-0.3,2-0.3c3.1,0,6.3,1.5,6.3,5.3
			c0,3.3-2.3,6-8.1,6C67.6,294.7,64.4,292.5,64.4,288.1L64.4,288.1z M75.6,288.7c0-1-1.2-1.6-2.8-1.6c-1.5,0-2.8,0.5-2.8,1.6
			s1.3,1.6,2.7,1.6C74.4,290.3,75.6,289.6,75.6,288.7L75.6,288.7z"/>
		<path class="st3" d="M85.2,279H89l3.3,7.6H89l-0.6-1.4h-2.6l-0.6,1.4H82L85.2,279L85.2,279z M87.8,283.3l-0.7-2.1l-0.7,2.1H87.8
			L87.8,283.3z"/>
		<path class="st3" d="M100.3,286.6c0-4.5,3.3-8.2,8.9-8.2c2.7,0,4.8,0.9,6.3,2.4l-3.2,3.3c-0.8-0.6-1.6-1.1-3-1.1
			c-2.3,0-3.8,1.5-3.8,3.6s1.5,3.7,3.8,3.7c1.6,0,2.7-0.7,3.2-1.3l3.2,3.3c-1.5,1.5-3.9,2.5-6.7,2.5
			C103.6,294.7,100.3,291,100.3,286.6L100.3,286.6z"/>
		<path class="st3" d="M118,279h4.5l5.9,7.2V279h5.3v15.2h-4.5l-5.9-7v7H118V279L118,279z"/>
		<path class="st3" d="M136.4,292.6l1.7-3.7c1.1,0.7,3.4,1.6,5.4,1.6c1.3,0,1.8-0.3,1.8-0.8c0-0.8-1.7-0.9-3.7-1.3
			c-2.4-0.5-5-1.4-5-4.5s2.6-5.4,6.7-5.4c2.8,0,5.1,1.2,6.1,2.1l-1.8,3.3c-1-0.5-2.9-1.2-4.5-1.2c-1.2,0-1.9,0.3-1.9,0.8
			s0.8,0.7,3.8,1.3c1.9,0.4,5,1,5,4.6c0,3.2-2.4,5.4-6.7,5.4C140.4,294.7,137.6,293.5,136.4,292.6L136.4,292.6z"/>
	</g>
	<g>
		<path d="M57.4,311.8h-4v3.7h4.5v1.1H52v-10.4h5.6v1.1h-4.3v3.3h4L57.4,311.8L57.4,311.8z"/>
		<path d="M61.1,307.1c0,0.5-0.3,0.8-0.9,0.8c-0.5,0-0.8-0.4-0.8-0.8c0-0.5,0.4-0.9,0.9-0.9S61.1,306.6,61.1,307.1z M59.6,316.6
			v-7.5H61v7.5H59.6z"/>
		<path d="M63.8,309.2l1.1,1.6c0.3,0.4,0.5,0.8,0.8,1.2h0.1c0.2-0.5,0.5-0.8,0.7-1.2l1.1-1.6h1.5l-2.5,3.6l2.6,3.9h-1.5l-1.1-1.7
			c-0.3-0.4-0.5-0.9-0.8-1.3l0,0c-0.2,0.5-0.5,0.9-0.8,1.3l-1.1,1.7h-1.5l2.6-3.8l-2.5-3.6L63.8,309.2L63.8,309.2z"/>
		<path d="M76.8,312.8c0,2.8-1.9,4-3.7,4c-2,0-3.6-1.5-3.6-3.8c0-2.5,1.6-4,3.7-4S76.8,310.6,76.8,312.8L76.8,312.8z M70.9,312.9
			c0,1.6,0.9,2.9,2.3,2.9s2.3-1.2,2.3-2.9c0-1.3-0.6-2.9-2.2-2.9S70.9,311.5,70.9,312.9z"/>
		<path d="M83.2,307.4H80v-1.1h7.7v1.1h-3.2v9.2h-1.4L83.2,307.4L83.2,307.4z"/>
		<path d="M88.1,311.5c0-0.9,0-1.6-0.1-2.3h1.2l0.1,1.5h0.1c0.3-1,1.2-1.6,2.1-1.6c0.1,0,0.3,0,0.4,0v1.3c-0.1,0-0.3,0-0.5,0
			c-0.9,0-1.6,0.7-1.8,1.7c0,0.2-0.1,0.4-0.1,0.6v4h-1.3L88.1,311.5L88.1,311.5z"/>
		<path d="M97.2,316.6l-0.1-0.9H97c-0.4,0.6-1.2,1.1-2.3,1.1c-1.5,0-2.3-1.1-2.3-2.1c0-1.8,1.6-2.8,4.5-2.8v-0.1
			c0-0.6-0.2-1.7-1.7-1.7c-0.7,0-1.4,0.2-1.9,0.5l-0.3-0.9c0.6-0.4,1.5-0.7,2.4-0.7c2.3,0,2.8,1.6,2.8,3v2.8c0,0.6,0,1.3,0.1,1.8
			L97.2,316.6L97.2,316.6z M97,312.8c-1.5,0-3.2,0.2-3.2,1.7c0,0.9,0.6,1.3,1.3,1.3c1,0,1.6-0.6,1.8-1.2c0.1-0.1,0.1-0.3,0.1-0.4
			C97,314.2,97,312.8,97,312.8z"/>
		<path d="M100.5,311.2c0-0.8,0-1.4-0.1-2h1.2l0.1,1.2l0,0c0.4-0.7,1.2-1.4,2.5-1.4c1,0,2.6,0.6,2.6,3.2v4.5h-1.4v-4.3
			c0-1.2-0.4-2.2-1.7-2.2c-0.9,0-1.6,0.6-1.8,1.4c-0.1,0.2-0.1,0.4-0.1,0.6v4.5h-1.4L100.5,311.2L100.5,311.2z"/>
		<path d="M108.9,315.2c0.4,0.3,1.1,0.5,1.8,0.5c1,0,1.4-0.5,1.4-1.1s-0.4-1-1.4-1.4c-1.3-0.5-2-1.2-2-2.1c0-1.2,1-2.2,2.6-2.2
			c0.7,0,1.4,0.2,1.8,0.5l-0.3,1c-0.3-0.2-0.8-0.4-1.5-0.4c-0.8,0-1.2,0.5-1.2,1c0,0.6,0.4,0.9,1.4,1.3c1.3,0.5,2,1.1,2,2.2
			c0,1.3-1,2.2-2.8,2.2c-0.8,0-1.6-0.2-2.1-0.5L108.9,315.2L108.9,315.2z"/>
		<path d="M115.7,309.2l1.5,4.2c0.2,0.7,0.5,1.3,0.6,1.9l0,0c0.2-0.6,0.4-1.2,0.6-1.9l1.5-4.2h1.4l-2.9,7.5h-1.3l-2.8-7.5H115.7
			L115.7,309.2z"/>
		<path d="M123.2,313.1c0,1.8,1.2,2.6,2.6,2.6c1,0,1.6-0.2,2.1-0.4l0.2,1c-0.5,0.2-1.3,0.5-2.5,0.5c-2.3,0-3.7-1.5-3.7-3.8
			s1.3-4,3.5-4c2.4,0,3.1,2.1,3.1,3.5c0,0.3,0,0.5,0,0.6L123.2,313.1L123.2,313.1z M127.1,312.2c0-0.9-0.4-2.2-1.9-2.2
			c-1.4,0-2,1.3-2.1,2.2H127.1z"/>
		<path d="M130.1,311.5c0-0.9,0-1.6-0.1-2.3h1.2v1.5h0.1c0.3-1,1.1-1.6,2.1-1.6c0.1,0,0.3,0,0.4,0v1.3c-0.1,0-0.3,0-0.5,0
			c-1,0-1.6,0.7-1.8,1.7c0,0.2-0.1,0.4-0.1,0.6v4h-1.3L130.1,311.5L130.1,311.5z"/>
		<path d="M135,315.2c0.4,0.3,1.1,0.5,1.8,0.5c1,0,1.5-0.5,1.5-1.1s-0.4-1-1.4-1.4c-1.3-0.5-2-1.2-2-2.1c0-1.2,1-2.2,2.6-2.2
			c0.8,0,1.4,0.2,1.8,0.5l-0.3,1c-0.3-0.2-0.8-0.4-1.5-0.4c-0.8,0-1.2,0.5-1.2,1c0,0.6,0.5,0.9,1.4,1.3c1.3,0.5,2,1.1,2,2.2
			c0,1.3-1,2.2-2.8,2.2c-0.8,0-1.6-0.2-2.1-0.5L135,315.2L135,315.2z"/>
		<path d="M145.4,316.6l-0.1-0.9l0,0c-0.4,0.6-1.2,1.1-2.3,1.1c-1.5,0-2.3-1.1-2.3-2.1c0-1.8,1.6-2.8,4.5-2.8v-0.1
			c0-0.6-0.2-1.7-1.7-1.7c-0.7,0-1.4,0.2-1.9,0.5l-0.3-0.9c0.6-0.4,1.5-0.7,2.5-0.7c2.3,0,2.8,1.6,2.8,3v2.8c0,0.6,0,1.3,0.1,1.8
			L145.4,316.6L145.4,316.6z M145.2,312.8c-1.5,0-3.2,0.2-3.2,1.7c0,0.9,0.6,1.3,1.3,1.3c1,0,1.6-0.6,1.8-1.2c0-0.1,0.1-0.3,0.1-0.4
			L145.2,312.8L145.2,312.8z"/>
		<path d="M148.7,305.7h1.4v10.9h-1.4V305.7z"/>
		<path d="M152,310.4c0-0.6,0.4-1,0.9-1s0.9,0.4,0.9,1c0,0.5-0.4,1-0.9,1S152,310.9,152,310.4z M152,315.8c0-0.6,0.4-1,0.9-1
			s0.9,0.4,0.9,1c0,0.5-0.4,1-0.9,1S152,316.4,152,315.8z"/>
		<path d="M39.8,333.7c0.4,0.3,1.1,0.5,1.8,0.5c1,0,1.4-0.5,1.4-1.1s-0.4-1-1.4-1.4c-1.3-0.5-2-1.2-2-2.1c0-1.2,1-2.2,2.6-2.2
			c0.8,0,1.4,0.2,1.8,0.5l-0.3,1c-0.3-0.2-0.8-0.4-1.5-0.4c-0.8,0-1.2,0.5-1.2,1c0,0.6,0.4,0.9,1.4,1.3c1.3,0.5,2,1.1,2,2.2
			c0,1.3-1,2.2-2.8,2.2c-0.8,0-1.6-0.2-2.1-0.5L39.8,333.7L39.8,333.7z"/>
		<path d="M50.2,335.1l-0.1-0.9H50c-0.4,0.6-1.2,1.1-2.3,1.1c-1.5,0-2.3-1.1-2.3-2.1c0-1.8,1.6-2.8,4.5-2.8v-0.1
			c0-0.6-0.2-1.7-1.7-1.7c-0.7,0-1.4,0.2-1.9,0.5l-0.3-0.9c0.6-0.4,1.5-0.7,2.4-0.7c2.3,0,2.8,1.6,2.8,3v2.8c0,0.6,0,1.3,0.1,1.8
			L50.2,335.1L50.2,335.1z M50,331.3c-1.5,0-3.2,0.2-3.2,1.7c0,0.9,0.6,1.3,1.3,1.3c1,0,1.6-0.6,1.8-1.2c0.1-0.1,0.1-0.3,0.1-0.4
			C50,332.7,50,331.3,50,331.3z"/>
		<path d="M59.7,333.1c0,0.8,0,1.5,0.1,2h-1.2l-0.1-1.2l0,0c-0.4,0.6-1.1,1.4-2.5,1.4c-1.2,0-2.6-0.6-2.6-3.3v-4.4h1.4v4.1
			c0,1.4,0.4,2.4,1.7,2.4c0.9,0,1.5-0.6,1.8-1.2c0.1-0.2,0.1-0.5,0.1-0.7v-4.6h1.4L59.7,333.1L59.7,333.1z M58.8,324.4l-1.9,2.2h-1
			l1.4-2.2H58.8L58.8,324.4z"/>
		<path d="M68.4,324.2v9c0,0.7,0,1.4,0.1,1.9h-1.2l-0.1-1.3l0,0c-0.4,0.8-1.3,1.5-2.5,1.5c-1.8,0-3.2-1.5-3.2-3.8c0-2.5,1.5-4,3.3-4
			c1.1,0,1.9,0.5,2.2,1.1l0,0v-4.5L68.4,324.2L68.4,324.2z M67,330.7c0-0.2,0-0.4-0.1-0.6c-0.2-0.9-0.9-1.6-2-1.6
			c-1.4,0-2.2,1.2-2.2,2.9c0,1.5,0.7,2.8,2.2,2.8c0.9,0,1.7-0.6,2-1.6c0.1-0.2,0.1-0.4,0.1-0.6V330.7L67,330.7z"/>
		<path d="M71.4,331.6c0,1.8,1.2,2.6,2.6,2.6c1,0,1.6-0.2,2.1-0.4l0.2,1c-0.5,0.2-1.3,0.5-2.5,0.5c-2.3,0-3.7-1.5-3.7-3.8
			s1.3-4,3.5-4c2.4,0,3.1,2.1,3.1,3.5c0,0.3,0,0.5-0.1,0.6L71.4,331.6L71.4,331.6z M75.4,330.7c0-0.9-0.4-2.2-1.9-2.2
			c-1.4,0-2,1.3-2.1,2.2H75.4z"/>
		<path d="M82.4,331.6c0,1.8,1.2,2.6,2.6,2.6c1,0,1.6-0.2,2.1-0.4l0.2,1c-0.5,0.2-1.3,0.5-2.5,0.5c-2.3,0-3.7-1.5-3.7-3.8
			s1.3-4,3.5-4c2.4,0,3.1,2.1,3.1,3.5c0,0.3,0,0.5-0.1,0.6L82.4,331.6L82.4,331.6z M86.3,330.7c0-0.9-0.4-2.2-1.9-2.2
			c-1.4,0-2,1.3-2.1,2.2H86.3z"/>
		<path d="M99,324.2v9c0,0.7,0,1.4,0.1,1.9h-1.2l-0.1-1.3l0,0c-0.4,0.8-1.3,1.5-2.5,1.5c-1.8,0-3.2-1.5-3.2-3.8c0-2.5,1.5-4,3.3-4
			c1.1,0,1.9,0.5,2.2,1.1l0,0v-4.5L99,324.2L99,324.2z M97.7,330.7c0-0.2,0-0.4-0.1-0.6c-0.2-0.9-0.9-1.6-2-1.6
			c-1.4,0-2.2,1.2-2.2,2.9c0,1.5,0.7,2.8,2.2,2.8c0.9,0,1.7-0.6,2-1.6c0.1-0.2,0.1-0.4,0.1-0.6V330.7L97.7,330.7z"/>
		<path d="M102,331.6c0,1.8,1.2,2.6,2.6,2.6c1,0,1.6-0.2,2.1-0.4l0.2,1c-0.5,0.2-1.3,0.5-2.5,0.5c-2.3,0-3.7-1.5-3.7-3.8
			s1.3-4,3.5-4c2.4,0,3.1,2.1,3.1,3.5c0,0.3,0,0.5-0.1,0.6L102,331.6L102,331.6z M106,330.7c0-0.9-0.4-2.2-1.9-2.2
			c-1.4,0-2,1.3-2.1,2.2H106z"/>
		<path d="M109,329.7c0-0.8,0-1.4-0.1-2h1.2l0.1,1.2h0.1c0.4-0.7,1.1-1.4,2.3-1.4c1,0,1.8,0.6,2.1,1.5l0,0c0.2-0.4,0.5-0.7,0.8-1
			c0.5-0.3,0.9-0.5,1.6-0.5c1,0,2.5,0.6,2.5,3.2v4.4h-1.3v-4.2c0-1.4-0.5-2.3-1.6-2.3c-0.8,0-1.4,0.6-1.6,1.2
			c-0.1,0.2-0.1,0.4-0.1,0.7v4.6h-1.3v-4.5c0-1.2-0.5-2-1.5-2c-0.9,0-1.5,0.7-1.7,1.4c-0.1,0.2-0.1,0.4-0.1,0.7v4.5H109V329.7
			L109,329.7z"/>
		<path d="M128.6,331.3c0,2.8-1.9,4-3.7,4c-2,0-3.6-1.5-3.6-3.8c0-2.5,1.6-4,3.7-4S128.6,329.1,128.6,331.3L128.6,331.3z
			 M122.7,331.4c0,1.6,0.9,2.9,2.3,2.9s2.3-1.2,2.3-2.9c0-1.3-0.6-2.9-2.2-2.9S122.7,330,122.7,331.4z"/>
		<path d="M135.6,334.8c-0.4,0.2-1.1,0.4-2.1,0.4c-2.2,0-3.7-1.5-3.7-3.8s1.6-4,4-4c0.8,0,1.5,0.2,1.9,0.4l-0.3,1
			c-0.3-0.2-0.8-0.4-1.6-0.4c-1.7,0-2.6,1.3-2.6,2.8c0,1.7,1.1,2.8,2.6,2.8c0.8,0,1.3-0.2,1.7-0.4L135.6,334.8L135.6,334.8z"/>
		<path d="M137.2,330c0-0.9,0-1.6-0.1-2.3h1.2v1.5h0.1c0.3-1,1.1-1.6,2.1-1.6c0.1,0,0.3,0,0.4,0v1.3c-0.1,0-0.3,0-0.5,0
			c-1,0-1.6,0.7-1.8,1.7c0,0.2-0.1,0.4-0.1,0.6v4h-1.3L137.2,330L137.2,330z"/>
		<path d="M146.3,335.1l-0.1-0.9l0,0c-0.4,0.6-1.2,1.1-2.3,1.1c-1.5,0-2.3-1.1-2.3-2.1c0-1.8,1.6-2.8,4.5-2.8v-0.1
			c0-0.6-0.2-1.7-1.7-1.7c-0.7,0-1.4,0.2-1.9,0.5l-0.3-0.9c0.6-0.4,1.5-0.7,2.5-0.7c2.3,0,2.8,1.6,2.8,3v2.8c0,0.6,0,1.3,0.1,1.8
			L146.3,335.1L146.3,335.1z M146.1,331.3c-1.5,0-3.2,0.2-3.2,1.7c0,0.9,0.6,1.3,1.3,1.3c1,0,1.6-0.6,1.8-1.2c0-0.1,0.1-0.3,0.1-0.4
			L146.1,331.3L146.1,331.3z"/>
		<path d="M154.9,334.8c-0.4,0.2-1.1,0.4-2.1,0.4c-2.2,0-3.7-1.5-3.7-3.8s1.6-4,4-4c0.8,0,1.5,0.2,1.9,0.4l-0.3,1
			c-0.3-0.2-0.8-0.4-1.6-0.4c-1.7,0-2.6,1.3-2.6,2.8c0,1.7,1.1,2.8,2.6,2.8c0.8,0,1.3-0.2,1.7-0.4L154.9,334.8L154.9,334.8z"/>
		<path d="M158,325.6c0,0.5-0.3,0.8-0.9,0.8c-0.5,0-0.8-0.4-0.8-0.8s0.4-0.9,0.9-0.9S158,325.1,158,325.6z M156.5,335.1v-7.5h1.4
			v7.5H156.5z"/>
		<path d="M164.2,335.1l-0.1-0.9l0,0c-0.4,0.6-1.2,1.1-2.3,1.1c-1.5,0-2.3-1.1-2.3-2.1c0-1.8,1.6-2.8,4.5-2.8v-0.1
			c0-0.6-0.2-1.7-1.7-1.7c-0.7,0-1.4,0.2-1.9,0.5l-0.3-0.9c0.6-0.4,1.5-0.7,2.5-0.7c2.3,0,2.8,1.6,2.8,3v2.8c0,0.6,0,1.3,0.1,1.8
			L164.2,335.1L164.2,335.1z M164,331.3c-1.5,0-3.2,0.2-3.2,1.7c0,0.9,0.6,1.3,1.3,1.3c1,0,1.6-0.6,1.8-1.2c0-0.1,0.1-0.3,0.1-0.4
			L164,331.3L164,331.3z"/>
	</g>
</g>
</svg>
