<?xml version="1.0" encoding="utf-8"?>
<!-- Generator: Adobe Illustrator 28.1.0, SVG Export Plug-In . SVG Version: 6.00 Build 0)  -->
<svg version="1.1" id="Layer_2_00000134234788539411214570000012304565962020574900_"
	 xmlns="http://www.w3.org/2000/svg" xmlns:xlink="http://www.w3.org/1999/xlink" x="0px" y="0px" viewBox="0 0 51.5 640"
	 style="enable-background:new 0 0 51.5 640;" xml:space="preserve">
<style type="text/css">
	.st0{fill:#E6E6E5;}
	.st1{clip-path:url(#SVGID_00000139980375667805802180000011371163979613084558_);}
	.st2{fill:url(#SVGID_00000029726614116893937190000011792128203348288156_);}
	.st3{clip-path:url(#SVGID_00000164485893963850058320000009453475424108521110_);}
	.st4{fill:url(#SVGID_00000099658018630039003380000003732454416035563964_);}
</style>
<g id="Layer_1-2">
	<g id="fios">
		<g>
			<path class="st0" d="M51.5,146.4c-21.1,0-38.3,15.6-38.3,34.7v102.4c0,3.3-1.5,6.3-3.9,8.5c-2.4,2.2-5.7,3.5-9.3,3.5v2.8
				c9,0,16.3-6.6,16.3-14.8V181.1c0-8.8,3.9-16.8,10.3-22.6c6.4-5.8,15.2-9.3,24.9-9.3V146.4z"/>
			<g>
				<defs>
					<path id="SVGID_1_" d="M13.2,181.1h3.1c0-8.8,3.9-16.8,10.3-22.6s15.2-9.3,24.9-9.3v-2.8C30.3,146.4,13.2,161.9,13.2,181.1"/>
				</defs>
				<clipPath id="SVGID_00000139987195884625500520000014623775564509098382_">
					<use xlink:href="#SVGID_1_"  style="overflow:visible;"/>
				</clipPath>
				<g style="clip-path:url(#SVGID_00000139987195884625500520000014623775564509098382_);">
					
						<linearGradient id="SVGID_00000042730435592976090410000014467636426603444867_" gradientUnits="userSpaceOnUse" x1="-911.2022" y1="205.167" x2="-909.6346" y2="205.167" gradientTransform="matrix(-24.57 0 0 -24.57 -22336.3496 5204.6694)">
						<stop  offset="0" style="stop-color:#D68228"/>
						<stop  offset="0.23" style="stop-color:#D9964E"/>
						<stop  offset="0.73" style="stop-color:#E0C9AE"/>
						<stop  offset="1" style="stop-color:#E5E5E4"/>
					</linearGradient>
					
						<rect x="13.2" y="146.4" style="fill:url(#SVGID_00000042730435592976090410000014467636426603444867_);" width="38.3" height="34.7"/>
				</g>
			</g>
		</g>
	</g>
</g>
<g id="Layer_1-2_00000036959868667576576110000000251007630021276583_">
	<g id="fios_00000096060696866539740600000003886655705547832764_">
		<g>
			<path class="st0" d="M51.5,459.3c-9.7,0-18.5-3.6-24.9-9.3c-6.4-5.8-10.3-13.8-10.3-22.6V325c0-8.2-7.3-14.8-16.3-14.8l0,2.8
				c3.6,0,6.9,1.3,9.3,3.5c2.4,2.2,3.9,5.1,3.9,8.5v102.4c0,19.2,17.1,34.7,38.3,34.7V459.3z"/>
			<g>
				<defs>
					<path id="SVGID_00000003101897355770705930000000952864375632153488_" d="M13.2,427.4c0,19.2,17.1,34.7,38.3,34.7v-2.8
						c-9.7,0-18.5-3.6-24.9-9.3s-10.3-13.8-10.3-22.6H13.2"/>
				</defs>
				<clipPath id="SVGID_00000109737773756829581700000003955889465517428105_">
					<use xlink:href="#SVGID_00000003101897355770705930000000952864375632153488_"  style="overflow:visible;"/>
				</clipPath>
				<g style="clip-path:url(#SVGID_00000109737773756829581700000003955889465517428105_);">
					
						<linearGradient id="SVGID_00000106849221143364332820000002315755299380252851_" gradientUnits="userSpaceOnUse" x1="-911.2022" y1="211.838" x2="-909.6346" y2="211.838" gradientTransform="matrix(-24.57 0 0 24.57 -22336.3496 -4760.0493)">
						<stop  offset="0" style="stop-color:#D68228"/>
						<stop  offset="0.23" style="stop-color:#D9964E"/>
						<stop  offset="0.73" style="stop-color:#E0C9AE"/>
						<stop  offset="1" style="stop-color:#E5E5E4"/>
					</linearGradient>
					
						<rect x="13.2" y="427.4" style="fill:url(#SVGID_00000106849221143364332820000002315755299380252851_);" width="38.3" height="34.7"/>
				</g>
			</g>
		</g>
	</g>
</g>
</svg>
