<?xml version="1.0" encoding="UTF-8"?>
<svg id="Layer_2" data-name="Layer 2" xmlns="http://www.w3.org/2000/svg" viewBox="0 0 164.45 164.45">
  <defs>
    <style>
      .cls-1 {
        fill: #fff;
      }

      .cls-1, .cls-2, .cls-3 {
        stroke-width: 0px;
      }

      .cls-2 {
        fill: #00002f;
      }

      .cls-3 {
        fill: #eed7be;
      }
    </style>
  </defs>
  <g id="Layer_1-2" data-name="Layer 1">
    <g>
      <g>
        <circle class="cls-3" cx="82.23" cy="82.23" r="79.73"/>
        <path class="cls-1" d="M82.23,164.45C36.89,164.45,0,127.57,0,82.23S36.89,0,82.23,0s82.23,36.89,82.23,82.23-36.89,82.23-82.23,82.23ZM82.23,5C39.64,5,5,39.64,5,82.23s34.64,77.23,77.23,77.23,77.23-34.64,77.23-77.23S124.81,5,82.23,5Z"/>
      </g>
      <g>
        <path class="cls-2" d="M28.35,65.06l-.86,3.11h-2.84l3.71-12.14h3.6l3.76,12.14h-2.95l-.94-3.11h-3.48ZM31.43,63.01l-.76-2.57c-.22-.72-.43-1.62-.61-2.34h-.04c-.18.72-.36,1.64-.56,2.34l-.72,2.57h2.68Z"/>
        <path class="cls-2" d="M37.17,65.78c.5.31,1.55.67,2.36.67s1.17-.29,1.17-.74-.27-.67-1.3-1.01c-1.82-.61-2.52-1.6-2.5-2.65,0-1.64,1.41-2.88,3.58-2.88,1.03,0,1.95.23,2.49.5l-.49,1.89c-.4-.22-1.15-.5-1.91-.5-.67,0-1.04.27-1.04.72,0,.41.34.63,1.42,1.01,1.67.58,2.38,1.42,2.39,2.72,0,1.64-1.3,2.84-3.82,2.84-1.15,0-2.18-.25-2.84-.61l.49-1.96Z"/>
        <path class="cls-2" d="M53.64,68.18l-.16-.88h-.05c-.58.7-1.48,1.08-2.52,1.08-1.78,0-2.84-1.3-2.84-2.7,0-2.29,2.05-3.38,5.17-3.37v-.13c0-.47-.25-1.13-1.6-1.13-.9,0-1.86.31-2.43.67l-.5-1.76c.61-.34,1.82-.77,3.42-.77,2.94,0,3.87,1.73,3.87,3.8v3.06c0,.85.04,1.66.13,2.14h-2.47ZM53.32,64.02c-1.44-.02-2.56.32-2.56,1.39,0,.7.47,1.04,1.08,1.04.68,0,1.24-.45,1.42-1.01.04-.14.05-.31.05-.47v-.95Z"/>
        <path class="cls-2" d="M58.12,65.78c.5.31,1.55.67,2.36.67s1.17-.29,1.17-.74-.27-.67-1.3-1.01c-1.82-.61-2.52-1.6-2.5-2.65,0-1.64,1.4-2.88,3.58-2.88,1.03,0,1.94.23,2.48.5l-.49,1.89c-.4-.22-1.15-.5-1.91-.5-.67,0-1.04.27-1.04.72,0,.41.34.63,1.42,1.01,1.67.58,2.38,1.42,2.4,2.72,0,1.64-1.3,2.84-3.82,2.84-1.15,0-2.18-.25-2.84-.61l.49-1.96Z"/>
        <path class="cls-2" d="M65.94,65.78c.5.31,1.55.67,2.36.67s1.17-.29,1.17-.74-.27-.67-1.3-1.01c-1.82-.61-2.52-1.6-2.5-2.65,0-1.64,1.41-2.88,3.58-2.88,1.03,0,1.95.23,2.49.5l-.49,1.89c-.4-.22-1.15-.5-1.91-.5-.67,0-1.04.27-1.04.72,0,.41.34.63,1.42,1.01,1.67.58,2.38,1.42,2.39,2.72,0,1.64-1.3,2.84-3.82,2.84-1.15,0-2.18-.25-2.84-.61l.49-1.96Z"/>
        <path class="cls-2" d="M75.87,64.65c.09,1.13,1.21,1.67,2.48,1.67.94,0,1.69-.13,2.43-.36l.36,1.85c-.9.36-2,.54-3.19.54-2.99,0-4.7-1.73-4.7-4.48,0-2.23,1.39-4.7,4.45-4.7,2.84,0,3.92,2.21,3.92,4.39,0,.47-.05.88-.09,1.08h-5.67ZM79.09,62.78c0-.67-.29-1.78-1.55-1.78-1.15,0-1.62,1.04-1.69,1.78h3.24Z"/>
        <path class="cls-2" d="M83.27,62.18c0-1.1-.04-2.03-.07-2.81h2.3l.13,1.19h.05c.38-.56,1.15-1.39,2.66-1.39,1.13,0,2.04.58,2.41,1.49h.04c.32-.45.72-.81,1.13-1.06.49-.29,1.03-.43,1.67-.43,1.69,0,2.97,1.19,2.97,3.82v5.19h-2.67v-4.79c0-1.28-.41-2.02-1.3-2.02-.63,0-1.08.43-1.26.95-.07.2-.11.49-.11.7v5.15h-2.67v-4.93c0-1.12-.4-1.87-1.26-1.87-.7,0-1.12.54-1.28.99-.09.22-.11.47-.11.68v5.13h-2.67v-6Z"/>
        <path class="cls-2" d="M98.68,68.18c.04-.58.07-1.64.07-2.63v-10.15h2.74v5.02h.04c.52-.76,1.44-1.24,2.67-1.24,2.11,0,3.66,1.75,3.64,4.45,0,3.17-2.02,4.75-4.03,4.75-1.03,0-2.02-.38-2.65-1.42h-.04l-.11,1.22h-2.32ZM101.49,64.43c0,.18.02.34.05.49.18.74.81,1.3,1.6,1.3,1.17,0,1.89-.9,1.89-2.48,0-1.37-.61-2.45-1.89-2.45-.74,0-1.42.56-1.6,1.35-.04.16-.05.32-.05.5v1.3Z"/>
        <path class="cls-2" d="M109.51,55.39h2.74v12.78h-2.74v-12.78Z"/>
        <path class="cls-2" d="M116.57,64.65c.09,1.13,1.21,1.67,2.48,1.67.94,0,1.69-.13,2.43-.36l.36,1.85c-.9.36-2,.54-3.19.54-2.99,0-4.7-1.73-4.7-4.48,0-2.23,1.39-4.7,4.45-4.7,2.84,0,3.93,2.21,3.93,4.39,0,.47-.05.88-.09,1.08h-5.67ZM119.79,62.78c0-.67-.29-1.78-1.55-1.78-1.15,0-1.62,1.04-1.69,1.78h3.24Z"/>
        <path class="cls-2" d="M126.79,56.92c0,.76-.58,1.37-1.48,1.37s-1.44-.61-1.42-1.37c-.02-.79.56-1.39,1.44-1.39s1.44.59,1.46,1.39ZM123.97,68.18v-8.8h2.74v8.8h-2.74Z"/>
        <path class="cls-2" d="M133.9,68.18l-.16-.88h-.05c-.58.7-1.48,1.08-2.52,1.08-1.78,0-2.85-1.3-2.85-2.7,0-2.29,2.05-3.38,5.17-3.37v-.13c0-.47-.25-1.13-1.6-1.13-.9,0-1.85.31-2.43.67l-.5-1.76c.61-.34,1.82-.77,3.42-.77,2.93,0,3.87,1.73,3.87,3.8v3.06c0,.85.04,1.66.13,2.14h-2.47ZM133.58,64.02c-1.44-.02-2.56.32-2.56,1.39,0,.7.47,1.04,1.08,1.04.68,0,1.24-.45,1.42-1.01.04-.14.05-.31.05-.47v-.95Z"/>
        <path class="cls-2" d="M138.38,65.78c.5.31,1.55.67,2.36.67s1.17-.29,1.17-.74-.27-.67-1.3-1.01c-1.82-.61-2.52-1.6-2.5-2.65,0-1.64,1.41-2.88,3.58-2.88,1.03,0,1.95.23,2.49.5l-.49,1.89c-.4-.22-1.15-.5-1.91-.5-.67,0-1.04.27-1.04.72,0,.41.34.63,1.42,1.01,1.67.58,2.38,1.42,2.39,2.72,0,1.64-1.3,2.84-3.82,2.84-1.15,0-2.18-.25-2.84-.61l.49-1.96Z"/>
        <path class="cls-2" d="M40.67,76.99h2.74v12.78h-2.74v-12.78Z"/>
        <path class="cls-2" d="M47.73,86.25c.09,1.13,1.21,1.67,2.48,1.67.94,0,1.69-.13,2.43-.36l.36,1.85c-.9.36-2,.54-3.19.54-2.99,0-4.7-1.73-4.7-4.48,0-2.23,1.39-4.7,4.45-4.7,2.84,0,3.93,2.21,3.93,4.39,0,.47-.05.88-.09,1.08h-5.67ZM50.95,84.38c0-.67-.29-1.78-1.55-1.78-1.15,0-1.62,1.04-1.69,1.78h3.24Z"/>
        <path class="cls-2" d="M63.54,80.97c-.04.56-.07,1.3-.07,2.61v4.92c0,1.69-.34,3.08-1.33,3.96-.97.83-2.29,1.08-3.58,1.08-1.15,0-2.38-.23-3.17-.68l.54-2.07c.56.32,1.53.67,2.56.67,1.3,0,2.29-.7,2.29-2.32v-.58h-.04c-.52.74-1.37,1.15-2.38,1.15-2.18,0-3.73-1.76-3.73-4.3,0-2.83,1.84-4.63,4-4.63,1.21,0,1.96.52,2.41,1.24h.04l.09-1.04h2.38ZM60.73,84.56c0-.18-.02-.36-.05-.5-.2-.72-.72-1.21-1.48-1.21-.99,0-1.8.9-1.8,2.5,0,1.31.65,2.34,1.8,2.34.7,0,1.26-.47,1.44-1.12.07-.2.09-.49.09-.72v-1.3Z"/>
        <path class="cls-2" d="M68.48,78.52c0,.76-.58,1.37-1.48,1.37s-1.44-.61-1.42-1.37c-.02-.79.56-1.39,1.44-1.39s1.44.59,1.46,1.39ZM65.66,89.78v-8.8h2.74v8.8h-2.74Z"/>
        <path class="cls-2" d="M70.57,87.38c.5.31,1.55.67,2.36.67s1.17-.29,1.17-.74-.27-.67-1.3-1.01c-1.82-.61-2.52-1.6-2.5-2.65,0-1.64,1.4-2.88,3.58-2.88,1.03,0,1.94.23,2.48.5l-.49,1.89c-.4-.22-1.15-.5-1.91-.5-.67,0-1.04.27-1.04.72,0,.41.34.63,1.42,1.01,1.67.58,2.38,1.42,2.4,2.72,0,1.64-1.3,2.85-3.82,2.85-1.15,0-2.18-.25-2.84-.61l.49-1.96Z"/>
        <path class="cls-2" d="M78.4,76.99h2.74v12.78h-2.74v-12.78Z"/>
        <path class="cls-2" d="M88.36,89.78l-.16-.88h-.05c-.58.7-1.48,1.08-2.52,1.08-1.78,0-2.84-1.3-2.84-2.7,0-2.29,2.05-3.38,5.17-3.37v-.13c0-.47-.25-1.13-1.6-1.13-.9,0-1.86.31-2.43.67l-.5-1.76c.61-.34,1.82-.77,3.42-.77,2.94,0,3.87,1.73,3.87,3.8v3.06c0,.85.04,1.66.13,2.14h-2.47ZM88.03,85.62c-1.44-.02-2.56.32-2.56,1.39,0,.7.47,1.04,1.08,1.04.68,0,1.24-.45,1.42-1.01.04-.14.05-.31.05-.47v-.95Z"/>
        <path class="cls-2" d="M95.77,78.45v2.52h1.96v2.02h-1.96v3.19c0,1.06.25,1.55,1.08,1.55.34,0,.61-.04.81-.07l.02,2.07c-.36.14-1.01.23-1.78.23-.88,0-1.62-.31-2.05-.76-.5-.52-.76-1.37-.76-2.61v-3.6h-1.17v-2.02h1.17v-1.91l2.68-.61Z"/>
        <path class="cls-2" d="M102.14,78.52c0,.76-.58,1.37-1.48,1.37s-1.44-.61-1.42-1.37c-.02-.79.56-1.39,1.44-1.39s1.44.59,1.46,1.39ZM99.32,89.78v-8.8h2.74v8.8h-2.74Z"/>
        <path class="cls-2" d="M106.28,80.97l1.19,4.09c.22.74.38,1.44.5,2.14h.05c.14-.72.29-1.39.49-2.14l1.13-4.09h2.88l-3.28,8.8h-2.74l-3.21-8.8h2.97Z"/>
        <path class="cls-2" d="M118.67,89.78l-.16-.88h-.05c-.58.7-1.48,1.08-2.52,1.08-1.78,0-2.85-1.3-2.85-2.7,0-2.29,2.05-3.38,5.17-3.37v-.13c0-.47-.25-1.13-1.6-1.13-.9,0-1.85.31-2.43.67l-.5-1.76c.61-.34,1.82-.77,3.42-.77,2.93,0,3.87,1.73,3.87,3.8v3.06c0,.85.04,1.66.13,2.14h-2.47ZM118.34,85.62c-1.44-.02-2.56.32-2.56,1.39,0,.7.47,1.04,1.08,1.04.68,0,1.24-.45,1.42-1.01.04-.14.05-.31.05-.47v-.95Z"/>
        <path class="cls-2" d="M123.15,87.38c.5.31,1.55.67,2.36.67s1.17-.29,1.17-.74-.27-.67-1.3-1.01c-1.82-.61-2.52-1.6-2.5-2.65,0-1.64,1.41-2.88,3.58-2.88,1.03,0,1.95.23,2.49.5l-.49,1.89c-.4-.22-1.15-.5-1.91-.5-.67,0-1.04.27-1.04.72,0,.41.34.63,1.42,1.01,1.67.58,2.38,1.42,2.39,2.72,0,1.64-1.3,2.85-3.82,2.85-1.15,0-2.18-.25-2.84-.61l.49-1.96Z"/>
        <path class="cls-2" d="M46.9,98.59v10.15c0,.99.04,2.03.07,2.63h-2.43l-.13-1.3h-.04c-.56.99-1.62,1.49-2.75,1.49-2.09,0-3.76-1.78-3.76-4.52-.02-2.97,1.84-4.68,3.94-4.68,1.08,0,1.93.38,2.32.99h.04v-4.77h2.74ZM44.17,106.3c0-.14-.02-.34-.04-.49-.16-.74-.76-1.35-1.6-1.35-1.24,0-1.89,1.12-1.89,2.5,0,1.49.74,2.43,1.87,2.43.79,0,1.42-.54,1.58-1.31.05-.2.07-.4.07-.63v-1.15Z"/>
        <path class="cls-2" d="M57.79,106.88c0,3.22-2.29,4.7-4.65,4.7-2.57,0-4.55-1.69-4.55-4.54s1.87-4.66,4.7-4.66,4.5,1.85,4.5,4.5ZM51.42,106.97c0,1.51.63,2.65,1.8,2.65,1.06,0,1.75-1.06,1.75-2.65,0-1.31-.5-2.65-1.75-2.65-1.31,0-1.8,1.35-1.8,2.65Z"/>
        <path class="cls-2" d="M59.46,108.98c.5.31,1.55.67,2.36.67s1.17-.29,1.17-.74-.27-.67-1.3-1.01c-1.82-.61-2.52-1.6-2.5-2.65,0-1.64,1.4-2.88,3.58-2.88,1.03,0,1.94.23,2.48.5l-.49,1.89c-.4-.22-1.15-.5-1.91-.5-.67,0-1.04.27-1.04.72,0,.41.34.63,1.42,1.01,1.67.58,2.38,1.42,2.4,2.72,0,1.64-1.3,2.84-3.82,2.84-1.15,0-2.18-.25-2.84-.61l.49-1.96Z"/>
        <path class="cls-2" d="M73.04,107.85c.09,1.13,1.21,1.67,2.48,1.67.94,0,1.69-.13,2.43-.36l.36,1.85c-.9.36-2,.54-3.19.54-2.99,0-4.7-1.73-4.7-4.48,0-2.23,1.39-4.7,4.45-4.7,2.84,0,3.93,2.21,3.93,4.39,0,.47-.05.88-.09,1.08h-5.67ZM76.26,105.98c0-.67-.29-1.78-1.55-1.78-1.15,0-1.62,1.04-1.69,1.78h3.24Z"/>
        <path class="cls-2" d="M80.42,108.98c.5.31,1.55.67,2.36.67s1.17-.29,1.17-.74-.27-.67-1.3-1.01c-1.82-.61-2.52-1.6-2.5-2.65,0-1.64,1.41-2.88,3.58-2.88,1.03,0,1.95.23,2.49.5l-.49,1.89c-.4-.22-1.15-.5-1.91-.5-.67,0-1.04.27-1.04.72,0,.41.34.63,1.42,1.01,1.67.58,2.38,1.42,2.39,2.72,0,1.64-1.3,2.84-3.82,2.84-1.15,0-2.18-.25-2.84-.61l.49-1.96Z"/>
        <path class="cls-2" d="M91.31,100.05v2.52h1.96v2.02h-1.96v3.19c0,1.06.25,1.55,1.08,1.55.34,0,.61-.04.81-.07l.02,2.07c-.36.14-1.01.23-1.78.23-.88,0-1.62-.31-2.05-.76-.5-.52-.76-1.37-.76-2.61v-3.6h-1.17v-2.02h1.17v-1.91l2.68-.61Z"/>
        <path class="cls-2" d="M99.86,111.38l-.16-.88h-.05c-.58.7-1.48,1.08-2.52,1.08-1.78,0-2.85-1.3-2.85-2.7,0-2.29,2.05-3.38,5.17-3.37v-.13c0-.47-.25-1.13-1.6-1.13-.9,0-1.85.31-2.43.67l-.5-1.76c.61-.34,1.82-.77,3.42-.77,2.93,0,3.87,1.73,3.87,3.8v3.06c0,.85.04,1.66.13,2.14h-2.47ZM99.53,107.22c-1.44-.02-2.56.32-2.56,1.39,0,.7.47,1.04,1.08,1.04.68,0,1.24-.45,1.42-1.01.04-.14.05-.31.05-.47v-.95Z"/>
        <path class="cls-2" d="M112.89,98.59v10.15c0,.99.04,2.03.07,2.63h-2.43l-.13-1.3h-.04c-.56.99-1.62,1.49-2.75,1.49-2.09,0-3.76-1.78-3.76-4.52-.02-2.97,1.84-4.68,3.94-4.68,1.08,0,1.93.38,2.32.99h.04v-4.77h2.74ZM110.15,106.3c0-.14-.02-.34-.04-.49-.16-.74-.76-1.35-1.6-1.35-1.24,0-1.89,1.12-1.89,2.5,0,1.49.74,2.43,1.87,2.43.79,0,1.42-.54,1.58-1.31.05-.2.07-.4.07-.63v-1.15Z"/>
        <path class="cls-2" d="M123.78,106.88c0,3.22-2.29,4.7-4.65,4.7-2.57,0-4.55-1.69-4.55-4.54s1.87-4.66,4.7-4.66,4.5,1.85,4.5,4.5ZM117.41,106.97c0,1.51.63,2.65,1.8,2.65,1.06,0,1.75-1.06,1.75-2.65,0-1.31-.5-2.65-1.75-2.65-1.31,0-1.8,1.35-1.8,2.65Z"/>
        <path class="cls-2" d="M125.45,108.98c.5.31,1.55.67,2.36.67s1.17-.29,1.17-.74-.27-.67-1.3-1.01c-1.82-.61-2.52-1.6-2.5-2.65,0-1.64,1.4-2.88,3.58-2.88,1.03,0,1.94.23,2.48.5l-.49,1.89c-.4-.22-1.15-.5-1.91-.5-.67,0-1.04.27-1.04.72,0,.41.34.63,1.42,1.01,1.67.58,2.38,1.42,2.4,2.72,0,1.64-1.3,2.84-3.82,2.84-1.15,0-2.18-.25-2.84-.61l.49-1.96Z"/>
      </g>
    </g>
  </g>
</svg>