<?xml version="1.0" encoding="UTF-8"?>
<svg id="Layer_2" data-name="Layer 2" xmlns="http://www.w3.org/2000/svg" viewBox="0 0 218.74 218.74">
  <defs>
    <style>
      .cls-1 {
        fill: #fff;
      }

      .cls-1, .cls-2, .cls-3 {
        stroke-width: 0px;
      }

      .cls-2 {
        fill: #00002f;
      }

      .cls-3 {
        fill: #eed7be;
      }
    </style>
  </defs>
  <g id="Layer_1-2" data-name="Layer 1">
    <g>
      <g>
        <circle class="cls-3" cx="109.37" cy="109.37" r="106.87"/>
        <path class="cls-1" d="M109.37,218.74C49.06,218.74,0,169.67,0,109.37S49.06,0,109.37,0s109.37,49.06,109.37,109.37-49.06,109.37-109.37,109.37ZM109.37,5C51.82,5,5,51.82,5,109.37s46.82,104.37,104.37,104.37,104.37-46.82,104.37-104.37S166.92,5,109.37,5Z"/>
      </g>
      <g>
        <path class="cls-2" d="M54.74,81.61h4.07l2.29,6.9,2.29-6.9h4.07l-4.23,10.52h-4.26l-4.23-10.52Z"/>
        <path class="cls-2" d="M68.8,81.61h3.68v10.52h-3.68v-10.52ZM70.56,78.33h3.12l-1.62,2.22h-3.12l1.62-2.22Z"/>
        <path class="cls-2" d="M74.88,81.61h3.14l4.11,4.98v-4.98h3.68v10.52h-3.14l-4.11-4.87v4.87h-3.68v-10.52Z"/>
        <path class="cls-2" d="M87.49,86.91c0-3.12,2.31-5.71,6.16-5.71,1.89,0,3.35.62,4.4,1.63l-2.21,2.29c-.54-.43-1.1-.8-2.06-.8-1.58,0-2.61,1.04-2.61,2.53s1.06,2.56,2.64,2.56c1.07,0,1.84-.5,2.22-.88l2.24,2.27c-1.06,1.06-2.69,1.73-4.63,1.73-3.86,0-6.16-2.58-6.16-5.62Z"/>
        <path class="cls-2" d="M99.73,87.04v-5.43h3.68v5.59c0,1.15.74,2.02,1.86,2.02s1.86-.86,1.86-2.02v-5.59h3.68v5.43c0,3.57-2.58,5.46-5.54,5.46s-5.54-1.89-5.54-5.46Z"/>
        <path class="cls-2" d="M112.86,81.61h3.68v7.31h5.92v3.2h-9.6v-10.52Z"/>
        <path class="cls-2" d="M123.58,86.86c0-3.12,2.32-5.67,6.16-5.67s6.16,2.55,6.16,5.67-2.32,5.67-6.16,5.67-6.16-2.54-6.16-5.67ZM132.23,86.86c0-1.52-1.01-2.62-2.48-2.62s-2.48,1.1-2.48,2.62,1.01,2.62,2.48,2.62,2.48-1.1,2.48-2.62Z"/>
        <path class="cls-2" d="M137.18,91.07l1.18-2.54c.78.48,2.34,1.12,3.73,1.12.88,0,1.26-.24,1.26-.54,0-.53-1.18-.64-2.54-.9-1.65-.32-3.44-.98-3.44-3.14s1.78-3.76,4.63-3.76c1.94,0,3.55.82,4.23,1.42l-1.26,2.29c-.67-.37-1.98-.86-3.11-.86-.85,0-1.31.22-1.31.54,0,.37.56.51,2.66.91,1.33.26,3.44.69,3.44,3.17,0,2.22-1.68,3.73-4.63,3.73-2.11,0-4-.82-4.83-1.44Z"/>
        <path class="cls-2" d="M153.28,81.61h9.92v3.04h-6.24v1.01h5.28v2.35h-5.28v1.07h6.24v3.04h-9.92v-10.52Z"/>
        <path class="cls-2" d="M22.18,100.81h4.29l4.71,10.52h-4.07l-.51-1.26h-4.55l-.51,1.26h-4.07l4.71-10.52ZM25.43,107.18l-1.09-2.74h-.03l-1.09,2.74h2.21Z"/>
        <path class="cls-2" d="M36.21,108.2v3.12h-3.68v-10.52h7.41c2.58,0,3.99,1.73,3.99,3.83,0,2.38-1.84,3.2-3.78,3.2.58.61,1.34.75,1.92.75.83,0,1.41-.32,1.62-.56l1.31,2.42c-.43.51-1.6,1.18-3.22,1.18-2,0-3.47-.94-5.57-3.43ZM39.22,105.63c.66,0,1.04-.45,1.04-.96s-.38-.96-1.04-.96h-3.01v1.92h3.01Z"/>
        <path class="cls-2" d="M48.53,104.01h-3.57v-3.2h10.66v3.2h-3.57v7.31h-3.52v-7.31Z"/>
        <path class="cls-2" d="M57.14,100.81h3.68v10.52h-3.68v-10.52Z"/>
        <path class="cls-2" d="M62.5,106.11c0-3.12,2.31-5.71,6.16-5.71,1.89,0,3.35.62,4.4,1.63l-2.21,2.29c-.54-.43-1.1-.8-2.06-.8-1.58,0-2.61,1.04-2.61,2.53s1.06,2.56,2.64,2.56c1.07,0,1.84-.5,2.22-.88l2.24,2.27c-1.06,1.06-2.69,1.73-4.63,1.73-3.86,0-6.16-2.58-6.16-5.62Z"/>
        <path class="cls-2" d="M74.74,106.24v-5.43h3.68v5.59c0,1.15.74,2.02,1.86,2.02s1.86-.86,1.86-2.02v-5.59h3.68v5.43c0,3.57-2.58,5.46-5.54,5.46s-5.54-1.89-5.54-5.46Z"/>
        <path class="cls-2" d="M87.87,100.81h3.68v7.31h5.92v3.2h-9.6v-10.52Z"/>
        <path class="cls-2" d="M102.82,100.81h4.29l4.71,10.52h-4.07l-.51-1.26h-4.55l-.51,1.26h-4.07l4.71-10.52ZM106.07,107.18l-1.09-2.74h-.03l-1.09,2.74h2.21Z"/>
        <path class="cls-2" d="M121.08,113.81c0,1.18-.74,1.79-1.81,1.79h-2.48l-.3-1.31h1.65c.5,0,.86-.03.86-.48s-.46-.43-.86-.43h-1.83l-.18-.62.83-1.1c-3.15-.46-4.99-2.82-4.99-5.54,0-3.12,2.31-5.71,6.16-5.71,1.89,0,3.34.62,4.4,1.63l-2.21,2.29c-.54-.43-1.1-.8-2.06-.8-1.58,0-2.61,1.04-2.61,2.53s1.06,2.56,2.64,2.56c1.07,0,1.84-.5,2.22-.88l2.24,2.27c-.86.86-2.11,1.47-3.6,1.66l-.32.48c.85,0,2.24.08,2.24,1.67Z"/>
        <path class="cls-2" d="M123.66,106.06c0-3.12,2.32-5.67,6.16-5.67s6.16,2.55,6.16,5.67-2.32,5.67-6.16,5.67-6.16-2.54-6.16-5.67ZM125.7,98.33c.37-.5,1.28-1.17,2.38-1.17,1.63,0,2.02.77,3.09.77.74-.02,1.41-.46,1.7-.8l1.07,1.6c-.5.5-1.47,1.17-2.3,1.17-1.75,0-2.1-.77-3.17-.77-.74.02-1.41.46-1.7.8l-1.07-1.6ZM132.31,106.06c0-1.52-1.01-2.62-2.48-2.62s-2.48,1.1-2.48,2.62,1.01,2.62,2.48,2.62,2.48-1.1,2.48-2.62Z"/>
        <path class="cls-2" d="M137.66,100.81h9.92v3.04h-6.24v1.01h5.28v2.35h-5.28v1.07h6.24v3.04h-9.92v-10.52Z"/>
        <path class="cls-2" d="M149.18,110.27l1.18-2.54c.78.48,2.34,1.12,3.73,1.12.88,0,1.26-.24,1.26-.54,0-.53-1.18-.64-2.54-.9-1.65-.32-3.44-.98-3.44-3.14s1.78-3.76,4.62-3.76c1.94,0,3.55.82,4.23,1.42l-1.26,2.29c-.67-.37-1.99-.86-3.11-.86-.85,0-1.31.22-1.31.54,0,.37.56.51,2.66.91,1.33.26,3.44.69,3.44,3.17,0,2.22-1.68,3.73-4.63,3.73-2.11,0-4-.82-4.83-1.44Z"/>
        <path class="cls-2" d="M165.28,100.81h5.67c3.46,0,5.51,2.06,5.51,5.27s-2.05,5.25-5.51,5.25h-5.67v-10.52ZM170.47,108.28c1.31,0,2.35-.74,2.35-2.21s-1.04-2.22-2.35-2.22h-1.5v4.43h1.5Z"/>
        <path class="cls-2" d="M177.73,106.06c0-3.12,2.32-5.67,6.16-5.67s6.16,2.55,6.16,5.67-2.32,5.67-6.16,5.67-6.16-2.54-6.16-5.67ZM186.37,106.06c0-1.52-1.01-2.62-2.48-2.62s-2.48,1.1-2.48,2.62,1.01,2.62,2.48,2.62,2.48-1.1,2.48-2.62Z"/>
        <path class="cls-2" d="M191.33,110.27l1.18-2.54c.78.48,2.34,1.12,3.73,1.12.88,0,1.26-.24,1.26-.54,0-.53-1.18-.64-2.54-.9-1.65-.32-3.44-.98-3.44-3.14s1.78-3.76,4.62-3.76c1.94,0,3.55.82,4.23,1.42l-1.26,2.29c-.67-.37-1.99-.86-3.11-.86-.85,0-1.31.22-1.31.54,0,.37.56.51,2.66.91,1.33.26,3.44.69,3.44,3.17,0,2.22-1.68,3.73-4.63,3.73-2.11,0-4-.82-4.83-1.44Z"/>
        <path class="cls-2" d="M38.93,125.31c0-3.12,2.31-5.71,6.16-5.71,1.89,0,3.35.62,4.4,1.63l-2.21,2.29c-.54-.43-1.1-.8-2.06-.8-1.58,0-2.61,1.04-2.61,2.53s1.06,2.56,2.64,2.56c1.07,0,1.84-.5,2.22-.88l2.24,2.27c-1.06,1.06-2.69,1.73-4.63,1.73-3.86,0-6.16-2.58-6.16-5.62Z"/>
        <path class="cls-2" d="M50.62,125.26c0-3.12,2.32-5.67,6.16-5.67s6.16,2.54,6.16,5.67-2.32,5.67-6.16,5.67-6.16-2.55-6.16-5.67ZM59.27,125.26c0-1.52-1.01-2.62-2.48-2.62s-2.48,1.1-2.48,2.62,1.01,2.62,2.48,2.62,2.48-1.1,2.48-2.62Z"/>
        <path class="cls-2" d="M64.62,120.01h3.14l4.11,4.98v-4.98h3.68v10.52h-3.14l-4.11-4.87v4.87h-3.68v-10.52Z"/>
        <path class="cls-2" d="M77.39,129.47l1.18-2.54c.78.48,2.34,1.12,3.73,1.12.88,0,1.26-.24,1.26-.54,0-.53-1.18-.64-2.54-.9-1.65-.32-3.44-.98-3.44-3.14s1.78-3.76,4.63-3.76c1.94,0,3.55.82,4.23,1.42l-1.26,2.29c-.67-.37-1.98-.86-3.11-.86-.85,0-1.31.22-1.31.54,0,.37.56.51,2.66.91,1.33.26,3.44.69,3.44,3.17,0,2.22-1.68,3.73-4.63,3.73-2.11,0-4-.82-4.83-1.44Z"/>
        <path class="cls-2" d="M88.69,120.01h9.92v3.04h-6.24v1.01h5.28v2.35h-5.28v1.07h6.24v3.04h-9.92v-10.52Z"/>
        <path class="cls-2" d="M100.77,120.01h3.68v7.32h5.92v3.2h-9.6v-10.52Z"/>
        <path class="cls-2" d="M112.05,120.01h3.68v3.59h3.71v-3.59h3.68v10.52h-3.68v-3.73h-3.71v3.73h-3.68v-10.52Z"/>
        <path class="cls-2" d="M125.52,120.01h9.92v3.04h-6.24v1.01h5.28v2.35h-5.28v1.07h6.24v3.04h-9.92v-10.52Z"/>
        <path class="cls-2" d="M137.6,120.01h3.68v10.52h-3.68v-10.52Z"/>
        <path class="cls-2" d="M147.36,127.4v3.12h-3.68v-10.52h7.41c2.58,0,3.99,1.73,3.99,3.83,0,2.39-1.84,3.2-3.78,3.2.58.61,1.34.75,1.92.75.83,0,1.41-.32,1.62-.56l1.31,2.42c-.43.51-1.6,1.18-3.22,1.18-2,0-3.47-.94-5.57-3.42ZM150.37,124.83c.66,0,1.04-.45,1.04-.96s-.38-.96-1.04-.96h-3.01v1.92h3.01Z"/>
        <path class="cls-2" d="M156.75,125.26c0-3.12,2.32-5.67,6.16-5.67s6.16,2.54,6.16,5.67-2.32,5.67-6.16,5.67-6.16-2.55-6.16-5.67ZM165.4,125.26c0-1.52-1.01-2.62-2.48-2.62s-2.48,1.1-2.48,2.62,1.01,2.62,2.48,2.62,2.48-1.1,2.48-2.62Z"/>
        <path class="cls-2" d="M170.35,129.47l1.18-2.54c.78.48,2.34,1.12,3.73,1.12.88,0,1.26-.24,1.26-.54,0-.53-1.18-.64-2.54-.9-1.65-.32-3.44-.98-3.44-3.14s1.78-3.76,4.63-3.76c1.94,0,3.55.82,4.23,1.42l-1.26,2.29c-.67-.37-1.98-.86-3.11-.86-.85,0-1.31.22-1.31.54,0,.37.56.51,2.66.91,1.33.26,3.44.69,3.44,3.17,0,2.22-1.68,3.73-4.63,3.73-2.11,0-4-.82-4.83-1.44Z"/>
      </g>
    </g>
  </g>
</svg>