<?xml version="1.0" encoding="UTF-8"?>
<svg id="Layer_2" data-name="Layer 2" xmlns="http://www.w3.org/2000/svg" viewBox="0 0 164.45 164.45">
  <defs>
    <style>
      .cls-1 {
        fill: #fff;
      }

      .cls-1, .cls-2, .cls-3 {
        stroke-width: 0px;
      }

      .cls-2 {
        fill: #00002f;
      }

      .cls-3 {
        fill: #eed7be;
      }
    </style>
  </defs>
  <g id="Layer_1-2" data-name="Layer 1">
    <g>
      <g>
        <circle class="cls-3" cx="82.23" cy="82.23" r="79.73"/>
        <path class="cls-1" d="M82.23,164.45C36.89,164.45,0,127.57,0,82.23S36.89,0,82.23,0s82.23,36.89,82.23,82.23-36.89,82.23-82.23,82.23ZM82.23,5C39.64,5,5,39.64,5,82.23s34.64,77.23,77.23,77.23,77.23-34.64,77.23-77.23S124.81,5,82.23,5Z"/>
      </g>
      <g>
        <path class="cls-2" d="M50.31,77.71c-.5.25-1.64.52-3.12.52-4.19,0-6.36-2.61-6.36-6.07,0-4.14,2.95-6.45,6.63-6.45,1.42,0,2.5.29,2.99.54l-.56,2.18c-.56-.23-1.33-.45-2.3-.45-2.18,0-3.87,1.31-3.87,4.02,0,2.43,1.44,3.96,3.89,3.96.83,0,1.75-.18,2.29-.4l.41,2.14Z"/>
        <path class="cls-2" d="M60.37,73.56c0,3.22-2.29,4.7-4.65,4.7-2.57,0-4.56-1.69-4.56-4.54s1.87-4.66,4.7-4.66,4.5,1.86,4.5,4.5ZM53.99,73.64c0,1.51.63,2.65,1.8,2.65,1.06,0,1.75-1.06,1.75-2.65,0-1.31-.5-2.65-1.75-2.65-1.31,0-1.8,1.35-1.8,2.65Z"/>
        <path class="cls-2" d="M62.06,72.06c0-1.1-.04-2.04-.07-2.81h2.38l.13,1.21h.05c.36-.56,1.26-1.4,2.72-1.4,1.8,0,3.15,1.19,3.15,3.78v5.22h-2.74v-4.88c0-1.13-.4-1.91-1.39-1.91-.76,0-1.21.52-1.39,1.03-.07.16-.11.43-.11.68v5.08h-2.74v-6Z"/>
        <path class="cls-2" d="M81.01,69.25c-.04.56-.07,1.3-.07,2.61v4.92c0,1.69-.34,3.08-1.33,3.96-.97.83-2.29,1.08-3.58,1.08-1.15,0-2.38-.23-3.17-.68l.54-2.07c.56.32,1.53.67,2.56.67,1.3,0,2.29-.7,2.29-2.32v-.58h-.04c-.52.74-1.37,1.15-2.38,1.15-2.18,0-3.73-1.77-3.73-4.3,0-2.83,1.84-4.63,4-4.63,1.21,0,1.96.52,2.41,1.24h.04l.09-1.04h2.38ZM78.21,72.83c0-.18-.02-.36-.05-.5-.2-.72-.72-1.21-1.48-1.21-.99,0-1.8.9-1.8,2.5,0,1.31.65,2.34,1.8,2.34.7,0,1.26-.47,1.44-1.12.07-.2.09-.49.09-.72v-1.3Z"/>
        <path class="cls-2" d="M83.14,72.15c0-1.3-.04-2.14-.07-2.9h2.36l.09,1.62h.07c.45-1.28,1.53-1.82,2.38-1.82.25,0,.38,0,.58.04v2.58c-.2-.04-.43-.07-.74-.07-1.01,0-1.69.54-1.87,1.39-.04.18-.05.4-.05.61v4.47h-2.74v-5.91Z"/>
        <path class="cls-2" d="M91.94,74.53c.09,1.13,1.21,1.67,2.48,1.67.94,0,1.69-.13,2.43-.36l.36,1.85c-.9.36-2,.54-3.19.54-2.99,0-4.7-1.73-4.7-4.48,0-2.23,1.39-4.7,4.45-4.7,2.84,0,3.93,2.21,3.93,4.39,0,.47-.05.88-.09,1.08h-5.67ZM95.16,72.65c0-.67-.29-1.78-1.55-1.78-1.15,0-1.62,1.04-1.69,1.78h3.24Z"/>
        <path class="cls-2" d="M99.32,75.66c.5.31,1.55.67,2.36.67s1.17-.29,1.17-.74-.27-.67-1.3-1.01c-1.82-.61-2.52-1.6-2.5-2.65,0-1.64,1.4-2.88,3.58-2.88,1.03,0,1.94.23,2.48.5l-.49,1.89c-.4-.22-1.15-.5-1.91-.5-.67,0-1.04.27-1.04.72,0,.41.34.63,1.42,1.01,1.67.58,2.38,1.42,2.4,2.72,0,1.64-1.3,2.85-3.82,2.85-1.15,0-2.18-.25-2.84-.61l.49-1.96Z"/>
        <path class="cls-2" d="M107.13,75.66c.5.31,1.55.67,2.36.67s1.17-.29,1.17-.74-.27-.67-1.3-1.01c-1.82-.61-2.52-1.6-2.5-2.65,0-1.64,1.4-2.88,3.58-2.88,1.03,0,1.94.23,2.48.5l-.49,1.89c-.4-.22-1.15-.5-1.91-.5-.67,0-1.04.27-1.04.72,0,.41.34.63,1.42,1.01,1.67.58,2.38,1.42,2.4,2.72,0,1.64-1.3,2.85-3.82,2.85-1.15,0-2.18-.25-2.84-.61l.49-1.96Z"/>
        <path class="cls-2" d="M123.66,73.56c0,3.22-2.29,4.7-4.65,4.7-2.57,0-4.56-1.69-4.56-4.54s1.87-4.66,4.7-4.66,4.5,1.86,4.5,4.5ZM117.28,73.64c0,1.51.63,2.65,1.8,2.65,1.06,0,1.75-1.06,1.75-2.65,0-1.31-.5-2.65-1.75-2.65-1.31,0-1.8,1.35-1.8,2.65Z"/>
        <path class="cls-2" d="M48.23,99.66v-12.14h3.2l2.52,4.45c.72,1.28,1.44,2.79,1.98,4.16h.05c-.18-1.6-.23-3.24-.23-5.06v-3.55h2.52v12.14h-2.88l-2.59-4.68c-.72-1.3-1.51-2.86-2.11-4.29l-.05.02c.07,1.6.11,3.31.11,5.29v3.66h-2.52Z"/>
        <path class="cls-2" d="M65.57,99.66l-.16-.88h-.05c-.58.7-1.48,1.08-2.52,1.08-1.78,0-2.85-1.3-2.85-2.7,0-2.29,2.05-3.38,5.17-3.37v-.13c0-.47-.25-1.13-1.6-1.13-.9,0-1.85.31-2.43.67l-.5-1.76c.61-.34,1.82-.78,3.42-.78,2.94,0,3.87,1.73,3.87,3.8v3.06c0,.85.04,1.66.13,2.14h-2.47ZM65.25,95.5c-1.44-.02-2.56.32-2.56,1.39,0,.7.47,1.04,1.08,1.04.68,0,1.24-.45,1.42-1.01.04-.14.05-.31.05-.47v-.96Z"/>
        <path class="cls-2" d="M76.68,99.44c-.49.22-1.4.4-2.45.4-2.84,0-4.66-1.73-4.66-4.5,0-2.57,1.76-4.68,5.04-4.68.72,0,1.51.13,2.09.34l-.43,2.03c-.32-.14-.81-.27-1.53-.27-1.44,0-2.38,1.03-2.36,2.47,0,1.62,1.08,2.47,2.41,2.47.65,0,1.15-.11,1.57-.27l.32,2.02Z"/>
        <path class="cls-2" d="M81.01,88.4c0,.76-.58,1.37-1.48,1.37s-1.44-.61-1.42-1.37c-.02-.79.56-1.39,1.44-1.39s1.44.59,1.46,1.39ZM78.19,99.66v-8.8h2.74v8.8h-2.74Z"/>
        <path class="cls-2" d="M91.81,95.15c0,3.22-2.29,4.7-4.65,4.7-2.57,0-4.56-1.69-4.56-4.54s1.87-4.66,4.7-4.66,4.5,1.86,4.5,4.5ZM85.44,95.24c0,1.51.63,2.65,1.8,2.65,1.06,0,1.75-1.06,1.75-2.65,0-1.31-.5-2.65-1.75-2.65-1.31,0-1.8,1.35-1.8,2.65Z"/>
        <path class="cls-2" d="M93.5,93.66c0-1.1-.04-2.04-.07-2.81h2.38l.13,1.21h.05c.36-.56,1.26-1.41,2.72-1.41,1.8,0,3.15,1.19,3.15,3.78v5.22h-2.74v-4.88c0-1.13-.4-1.91-1.39-1.91-.76,0-1.21.52-1.39,1.03-.07.16-.11.43-.11.68v5.08h-2.74v-6Z"/>
        <path class="cls-2" d="M109.06,99.66l-.16-.88h-.05c-.58.7-1.48,1.08-2.52,1.08-1.78,0-2.85-1.3-2.85-2.7,0-2.29,2.05-3.38,5.17-3.37v-.13c0-.47-.25-1.13-1.6-1.13-.9,0-1.85.31-2.43.67l-.5-1.76c.61-.34,1.82-.78,3.42-.78,2.94,0,3.87,1.73,3.87,3.8v3.06c0,.85.04,1.66.13,2.14h-2.47ZM108.73,95.5c-1.44-.02-2.56.32-2.56,1.39,0,.7.47,1.04,1.08,1.04.68,0,1.24-.45,1.42-1.01.04-.14.05-.31.05-.47v-.96Z"/>
        <path class="cls-2" d="M113.55,86.87h2.74v12.78h-2.74v-12.78Z"/>
      </g>
    </g>
  </g>
</svg>