<?xml version="1.0" encoding="UTF-8"?>
<svg id="Layer_2" data-name="Layer 2" xmlns="http://www.w3.org/2000/svg" viewBox="0 0 164.45 164.45">
  <defs>
    <style>
      .cls-1 {
        fill: #fff;
      }

      .cls-1, .cls-2, .cls-3 {
        stroke-width: 0px;
      }

      .cls-2 {
        fill: #00002f;
      }

      .cls-3 {
        fill: #eed7be;
      }
    </style>
  </defs>
  <g id="Layer_1-2" data-name="Layer 1">
    <g>
      <g>
        <circle class="cls-3" cx="82.23" cy="82.23" r="79.73"/>
        <path class="cls-1" d="M82.23,164.45C36.89,164.45,0,127.57,0,82.23S36.89,0,82.23,0s82.23,36.89,82.23,82.23-36.89,82.23-82.23,82.23ZM82.23,5C39.64,5,5,39.64,5,82.23s34.64,77.23,77.23,77.23,77.23-34.64,77.23-77.23S124.81,5,82.23,5Z"/>
      </g>
      <g>
        <path class="cls-2" d="M55.31,76.78c-.05-1.46-.11-3.22-.11-4.99h-.05c-.38,1.55-.88,3.28-1.35,4.7l-1.48,4.74h-2.14l-1.3-4.7c-.4-1.42-.81-3.15-1.1-4.74h-.04c-.07,1.64-.13,3.51-.22,5.02l-.22,4.61h-2.54l.77-12.14h3.66l1.19,4.05c.38,1.4.76,2.92,1.03,4.34h.05c.34-1.4.76-3.01,1.15-4.36l1.3-4.03h3.58l.67,12.14h-2.68l-.18-4.65Z"/>
        <path class="cls-2" d="M63.12,70.17c0,.76-.58,1.37-1.48,1.37s-1.44-.61-1.42-1.37c-.02-.79.56-1.39,1.44-1.39s1.44.59,1.46,1.39ZM60.29,81.42v-8.8h2.74v8.8h-2.74Z"/>
        <path class="cls-2" d="M65.22,75.43c0-1.1-.04-2.03-.07-2.81h2.38l.13,1.21h.05c.36-.56,1.26-1.4,2.72-1.4,1.8,0,3.15,1.19,3.15,3.78v5.22h-2.74v-4.88c0-1.13-.4-1.91-1.39-1.91-.76,0-1.21.52-1.39,1.03-.07.16-.11.43-.11.68v5.08h-2.74v-6Z"/>
        <path class="cls-2" d="M78.6,70.17c0,.76-.58,1.37-1.48,1.37s-1.44-.61-1.42-1.37c-.02-.79.56-1.39,1.44-1.39s1.44.59,1.46,1.39ZM75.77,81.42v-8.8h2.74v8.8h-2.74Z"/>
        <path class="cls-2" d="M80.69,79.03c.5.31,1.55.67,2.36.67s1.17-.29,1.17-.74-.27-.67-1.3-1.01c-1.82-.61-2.52-1.6-2.5-2.65,0-1.64,1.41-2.88,3.58-2.88,1.03,0,1.95.23,2.49.5l-.49,1.89c-.4-.22-1.15-.5-1.91-.5-.67,0-1.04.27-1.04.72,0,.41.34.63,1.42,1.01,1.67.58,2.38,1.42,2.39,2.72,0,1.64-1.3,2.84-3.82,2.84-1.15,0-2.18-.25-2.84-.61l.49-1.96Z"/>
        <path class="cls-2" d="M91.58,70.1v2.52h1.96v2.02h-1.96v3.19c0,1.06.25,1.55,1.08,1.55.34,0,.61-.04.81-.07l.02,2.07c-.36.14-1.01.23-1.78.23-.88,0-1.62-.31-2.05-.76-.5-.52-.76-1.37-.76-2.61v-3.6h-1.17v-2.02h1.17v-1.91l2.68-.61Z"/>
        <path class="cls-2" d="M97.14,77.89c.09,1.13,1.21,1.67,2.48,1.67.94,0,1.69-.13,2.43-.36l.36,1.85c-.9.36-2,.54-3.19.54-2.99,0-4.7-1.73-4.7-4.48,0-2.23,1.39-4.7,4.45-4.7,2.84,0,3.93,2.21,3.93,4.39,0,.47-.05.88-.09,1.08h-5.67ZM100.36,76.02c0-.67-.29-1.78-1.55-1.78-1.15,0-1.62,1.04-1.69,1.78h3.24ZM101.87,68.78l-2.2,2.74h-1.89l1.55-2.74h2.54Z"/>
        <path class="cls-2" d="M104.54,75.52c0-1.3-.04-2.14-.07-2.9h2.36l.09,1.62h.07c.45-1.28,1.53-1.82,2.38-1.82.25,0,.38,0,.58.04v2.57c-.2-.04-.43-.07-.74-.07-1.01,0-1.69.54-1.87,1.39-.04.18-.05.4-.05.61v4.47h-2.74v-5.91Z"/>
        <path class="cls-2" d="M114.2,70.17c0,.76-.58,1.37-1.48,1.37s-1.44-.61-1.42-1.37c-.02-.79.56-1.39,1.44-1.39s1.44.59,1.46,1.39ZM111.38,81.42v-8.8h2.74v8.8h-2.74Z"/>
        <path class="cls-2" d="M125,76.92c0,3.22-2.29,4.7-4.65,4.7-2.58,0-4.56-1.69-4.56-4.54s1.87-4.66,4.7-4.66,4.5,1.85,4.5,4.5ZM118.63,77.01c0,1.51.63,2.65,1.8,2.65,1.06,0,1.75-1.06,1.75-2.65,0-1.31-.5-2.65-1.75-2.65-1.31,0-1.8,1.35-1.8,2.65Z"/>
        <path class="cls-2" d="M56.05,91.05c.85-.14,2.04-.25,3.71-.25s2.9.32,3.71.97c.77.61,1.3,1.62,1.3,2.81s-.4,2.2-1.12,2.88c-.94.88-2.32,1.28-3.94,1.28-.36,0-.68-.02-.94-.05v4.34h-2.72v-11.97ZM58.77,96.56c.23.05.52.07.92.07,1.46,0,2.36-.74,2.36-1.98,0-1.12-.77-1.78-2.14-1.78-.56,0-.94.05-1.13.11v3.58Z"/>
        <path class="cls-2" d="M74.54,100.2c0,1.15.04,2.09.07,2.83h-2.38l-.13-1.24h-.05c-.34.54-1.17,1.44-2.75,1.44-1.78,0-3.1-1.12-3.1-3.83v-5.17h2.75v4.74c0,1.28.41,2.05,1.37,2.05.76,0,1.19-.52,1.37-.95.07-.16.09-.38.09-.59v-5.24h2.75v5.98ZM73.35,90.38l-2.2,2.74h-1.89l1.55-2.74h2.54Z"/>
        <path class="cls-2" d="M76.66,103.02c.04-.58.07-1.64.07-2.63v-10.15h2.74v5.02h.04c.52-.76,1.44-1.24,2.67-1.24,2.11,0,3.65,1.75,3.64,4.45,0,3.17-2.02,4.75-4.03,4.75-1.03,0-2.02-.38-2.65-1.42h-.04l-.11,1.22h-2.32ZM79.47,99.28c0,.18.02.34.05.49.18.74.81,1.3,1.6,1.3,1.17,0,1.89-.9,1.89-2.49,0-1.37-.61-2.45-1.89-2.45-.74,0-1.42.56-1.6,1.35-.04.16-.05.32-.05.5v1.3Z"/>
        <path class="cls-2" d="M87.5,90.24h2.74v12.78h-2.74v-12.78Z"/>
        <path class="cls-2" d="M95.28,91.77c0,.76-.58,1.37-1.48,1.37s-1.44-.61-1.42-1.37c-.02-.79.56-1.39,1.44-1.39s1.44.59,1.46,1.39ZM92.45,103.02v-8.8h2.74v8.8h-2.74Z"/>
        <path class="cls-2" d="M103.99,102.81c-.49.22-1.4.4-2.45.4-2.84,0-4.66-1.73-4.66-4.5,0-2.57,1.76-4.68,5.04-4.68.72,0,1.51.13,2.09.34l-.43,2.03c-.32-.14-.81-.27-1.53-.27-1.44,0-2.38,1.03-2.36,2.47,0,1.62,1.08,2.47,2.41,2.47.65,0,1.15-.11,1.57-.27l.32,2.02Z"/>
        <path class="cls-2" d="M114,98.52c0,3.22-2.29,4.7-4.65,4.7-2.57,0-4.55-1.69-4.55-4.54s1.87-4.66,4.7-4.66,4.5,1.86,4.5,4.5ZM107.62,98.61c0,1.51.63,2.65,1.8,2.65,1.06,0,1.75-1.06,1.75-2.65,0-1.31-.5-2.65-1.75-2.65-1.31,0-1.8,1.35-1.8,2.65Z"/>
      </g>
    </g>
  </g>
</svg>