<?xml version="1.0" encoding="UTF-8"?>
<svg id="Layer_2" data-name="Layer 2" xmlns="http://www.w3.org/2000/svg" viewBox="0 0 164.45 164.45">
  <defs>
    <style>
      .cls-1 {
        fill: #fff;
      }

      .cls-1, .cls-2, .cls-3 {
        stroke-width: 0px;
      }

      .cls-2 {
        fill: #00002f;
      }

      .cls-3 {
        fill: #eed7be;
      }
    </style>
  </defs>
  <g id="Layer_1-2" data-name="Layer 1">
    <g>
      <g>
        <circle class="cls-3" cx="82.23" cy="82.23" r="79.73"/>
        <path class="cls-1" d="M82.23,164.45C36.89,164.45,0,127.57,0,82.23S36.89,0,82.23,0s82.23,36.89,82.23,82.23-36.89,82.23-82.23,82.23ZM82.23,5C39.64,5,5,39.64,5,82.23s34.64,77.23,77.23,77.23,77.23-34.64,77.23-77.23S124.81,5,82.23,5Z"/>
      </g>
      <g>
        <path class="cls-2" d="M50.55,61.98c0,3.98-2.41,6.39-5.96,6.39s-5.71-2.72-5.71-6.18c0-3.64,2.32-6.36,5.91-6.36s5.76,2.79,5.76,6.14ZM41.78,62.15c0,2.38,1.12,4.05,2.95,4.05s2.92-1.76,2.92-4.12c0-2.18-1.04-4.05-2.94-4.05s-2.93,1.76-2.93,4.12Z"/>
        <path class="cls-2" d="M52.33,62.27c0-1.3-.04-2.14-.07-2.9h2.36l.09,1.62h.07c.45-1.28,1.53-1.82,2.38-1.82.25,0,.38,0,.58.04v2.57c-.2-.04-.43-.07-.74-.07-1.01,0-1.69.54-1.87,1.39-.04.18-.05.4-.05.61v4.47h-2.74v-5.91Z"/>
        <path class="cls-2" d="M67.56,55.39v10.15c0,.99.04,2.03.07,2.63h-2.43l-.13-1.3h-.04c-.56.99-1.62,1.49-2.75,1.49-2.09,0-3.76-1.78-3.76-4.52-.02-2.97,1.84-4.68,3.94-4.68,1.08,0,1.93.38,2.32.99h.04v-4.77h2.74ZM64.82,63.1c0-.14-.02-.34-.04-.49-.16-.74-.76-1.35-1.6-1.35-1.24,0-1.89,1.12-1.89,2.5,0,1.49.74,2.43,1.87,2.43.79,0,1.42-.54,1.58-1.31.05-.2.07-.4.07-.63v-1.15Z"/>
        <path class="cls-2" d="M71.86,64.65c.09,1.13,1.21,1.67,2.48,1.67.94,0,1.69-.13,2.43-.36l.36,1.85c-.9.36-2,.54-3.19.54-2.99,0-4.7-1.73-4.7-4.48,0-2.23,1.39-4.7,4.45-4.7,2.84,0,3.93,2.21,3.93,4.39,0,.47-.05.88-.09,1.08h-5.67ZM75.08,62.78c0-.67-.29-1.78-1.55-1.78-1.15,0-1.62,1.04-1.69,1.78h3.24Z"/>
        <path class="cls-2" d="M79.26,62.18c0-1.1-.04-2.03-.07-2.81h2.3l.13,1.19h.05c.38-.56,1.15-1.39,2.66-1.39,1.13,0,2.03.58,2.41,1.49h.04c.32-.45.72-.81,1.13-1.06.49-.29,1.03-.43,1.67-.43,1.69,0,2.97,1.19,2.97,3.82v5.19h-2.66v-4.79c0-1.28-.41-2.02-1.3-2.02-.63,0-1.08.43-1.26.95-.07.2-.11.49-.11.7v5.15h-2.67v-4.93c0-1.12-.4-1.87-1.26-1.87-.7,0-1.12.54-1.28.99-.09.22-.11.47-.11.68v5.13h-2.67v-6Z"/>
        <path class="cls-2" d="M106.91,55.39v10.15c0,.99.04,2.03.07,2.63h-2.43l-.13-1.3h-.04c-.56.99-1.62,1.49-2.75,1.49-2.09,0-3.76-1.78-3.76-4.52-.02-2.97,1.84-4.68,3.94-4.68,1.08,0,1.93.38,2.32.99h.04v-4.77h2.74ZM104.17,63.1c0-.14-.02-.34-.04-.49-.16-.74-.76-1.35-1.6-1.35-1.24,0-1.89,1.12-1.89,2.5,0,1.49.74,2.43,1.87,2.43.79,0,1.42-.54,1.58-1.31.05-.2.07-.4.07-.63v-1.15Z"/>
        <path class="cls-2" d="M117.8,63.68c0,3.22-2.29,4.7-4.65,4.7-2.57,0-4.56-1.69-4.56-4.54s1.87-4.66,4.7-4.66,4.5,1.85,4.5,4.5ZM111.42,63.77c0,1.51.63,2.65,1.8,2.65,1.06,0,1.75-1.06,1.75-2.65,0-1.31-.5-2.65-1.75-2.65-1.31,0-1.8,1.35-1.8,2.65Z"/>
        <path class="cls-2" d="M119.47,65.78c.5.31,1.55.67,2.36.67s1.17-.29,1.17-.74-.27-.67-1.3-1.01c-1.82-.61-2.52-1.6-2.5-2.65,0-1.64,1.4-2.88,3.58-2.88,1.03,0,1.94.23,2.48.5l-.49,1.89c-.4-.22-1.15-.5-1.91-.5-.67,0-1.04.27-1.04.72,0,.41.34.63,1.42,1.01,1.67.58,2.38,1.42,2.4,2.72,0,1.64-1.3,2.84-3.82,2.84-1.15,0-2.18-.25-2.84-.61l.49-1.96Z"/>
        <path class="cls-2" d="M40.77,86.66l-.86,3.11h-2.84l3.71-12.14h3.6l3.76,12.14h-2.95l-.94-3.11h-3.48ZM43.84,84.61l-.76-2.57c-.22-.72-.43-1.62-.61-2.34h-.04c-.18.72-.36,1.64-.56,2.34l-.72,2.57h2.68Z"/>
        <path class="cls-2" d="M57.94,76.99v10.15c0,.99.04,2.03.07,2.63h-2.43l-.13-1.3h-.04c-.56.99-1.62,1.49-2.75,1.49-2.09,0-3.76-1.78-3.76-4.52-.02-2.97,1.84-4.68,3.94-4.68,1.08,0,1.93.38,2.32.99h.04v-4.77h2.74ZM55.2,84.7c0-.14-.02-.34-.04-.49-.16-.74-.76-1.35-1.6-1.35-1.24,0-1.89,1.12-1.89,2.5,0,1.49.74,2.43,1.87,2.43.79,0,1.42-.54,1.58-1.31.05-.2.07-.4.07-.63v-1.15Z"/>
        <path class="cls-2" d="M62.17,80.97l1.19,4.09c.22.74.38,1.44.5,2.14h.05c.14-.72.29-1.39.49-2.14l1.13-4.09h2.88l-3.28,8.8h-2.74l-3.21-8.8h2.97Z"/>
        <path class="cls-2" d="M78.1,85.28c0,3.22-2.29,4.7-4.65,4.7-2.57,0-4.56-1.69-4.56-4.54s1.87-4.66,4.7-4.66,4.5,1.85,4.5,4.5ZM71.72,85.37c0,1.51.63,2.65,1.8,2.65,1.06,0,1.75-1.06,1.75-2.65,0-1.31-.5-2.65-1.75-2.65-1.31,0-1.8,1.35-1.8,2.65Z"/>
        <path class="cls-2" d="M88.25,80.97c-.04.56-.07,1.3-.07,2.61v4.92c0,1.69-.34,3.08-1.33,3.96-.97.83-2.29,1.08-3.58,1.08-1.15,0-2.38-.23-3.17-.68l.54-2.07c.56.32,1.53.67,2.56.67,1.3,0,2.29-.7,2.29-2.32v-.58h-.04c-.52.74-1.37,1.15-2.38,1.15-2.18,0-3.73-1.76-3.73-4.3,0-2.83,1.84-4.63,4-4.63,1.21,0,1.96.52,2.41,1.24h.04l.09-1.04h2.38ZM85.44,84.56c0-.18-.02-.36-.05-.5-.2-.72-.72-1.21-1.48-1.21-.99,0-1.8.9-1.8,2.5,0,1.31.65,2.34,1.8,2.34.7,0,1.26-.47,1.44-1.12.07-.2.09-.49.09-.72v-1.3Z"/>
        <path class="cls-2" d="M95.38,89.78l-.16-.88h-.05c-.58.7-1.48,1.08-2.52,1.08-1.78,0-2.85-1.3-2.85-2.7,0-2.29,2.05-3.38,5.17-3.37v-.13c0-.47-.25-1.13-1.6-1.13-.9,0-1.85.31-2.43.67l-.5-1.76c.61-.34,1.82-.77,3.42-.77,2.94,0,3.87,1.73,3.87,3.8v3.06c0,.85.04,1.66.13,2.14h-2.47ZM95.05,85.62c-1.44-.02-2.56.32-2.56,1.39,0,.7.47,1.04,1.08,1.04.68,0,1.24-.45,1.42-1.01.04-.14.05-.31.05-.47v-.95Z"/>
        <path class="cls-2" d="M108.41,76.99v10.15c0,.99.04,2.03.07,2.63h-2.43l-.13-1.3h-.04c-.56.99-1.62,1.49-2.75,1.49-2.09,0-3.76-1.78-3.76-4.52-.02-2.97,1.84-4.68,3.94-4.68,1.08,0,1.93.38,2.32.99h.04v-4.77h2.74ZM105.67,84.7c0-.14-.02-.34-.04-.49-.16-.74-.76-1.35-1.6-1.35-1.24,0-1.89,1.12-1.89,2.5,0,1.49.74,2.43,1.87,2.43.79,0,1.42-.54,1.58-1.31.05-.2.07-.4.07-.63v-1.15Z"/>
        <path class="cls-2" d="M119.3,85.28c0,3.22-2.29,4.7-4.65,4.7-2.57,0-4.56-1.69-4.56-4.54s1.87-4.66,4.7-4.66,4.5,1.85,4.5,4.5ZM112.93,85.37c0,1.51.63,2.65,1.8,2.65,1.06,0,1.75-1.06,1.75-2.65,0-1.31-.5-2.65-1.75-2.65-1.31,0-1.8,1.35-1.8,2.65Z"/>
        <path class="cls-2" d="M120.97,87.38c.5.31,1.55.67,2.36.67s1.17-.29,1.17-.74-.27-.67-1.3-1.01c-1.82-.61-2.52-1.6-2.5-2.65,0-1.64,1.4-2.88,3.58-2.88,1.03,0,1.94.23,2.48.5l-.49,1.89c-.4-.22-1.15-.5-1.91-.5-.67,0-1.04.27-1.04.72,0,.41.34.63,1.42,1.01,1.67.58,2.38,1.42,2.4,2.72,0,1.64-1.3,2.85-3.82,2.85-1.15,0-2.18-.25-2.84-.61l.49-1.96Z"/>
        <path class="cls-2" d="M57.13,98.59v10.15c0,.99.04,2.03.07,2.63h-2.43l-.13-1.3h-.04c-.56.99-1.62,1.49-2.75,1.49-2.09,0-3.76-1.78-3.76-4.52-.02-2.97,1.84-4.68,3.94-4.68,1.08,0,1.93.38,2.32.99h.04v-4.77h2.74ZM54.39,106.3c0-.14-.02-.34-.04-.49-.16-.74-.76-1.35-1.6-1.35-1.24,0-1.89,1.12-1.89,2.5,0,1.49.74,2.43,1.87,2.43.79,0,1.42-.54,1.58-1.31.05-.2.07-.4.07-.63v-1.15Z"/>
        <path class="cls-2" d="M68.02,106.88c0,3.22-2.29,4.7-4.65,4.7-2.57,0-4.56-1.69-4.56-4.54s1.87-4.66,4.7-4.66,4.5,1.85,4.5,4.5ZM61.65,106.97c0,1.51.63,2.65,1.8,2.65,1.06,0,1.75-1.06,1.75-2.65,0-1.31-.5-2.65-1.75-2.65-1.31,0-1.8,1.35-1.8,2.65Z"/>
        <path class="cls-2" d="M73.43,99.4c.72-.14,2.18-.25,3.55-.25,1.67,0,2.7.16,3.58.68.85.45,1.46,1.28,1.46,2.38s-.63,2.09-2,2.59v.04c1.39.38,2.41,1.42,2.41,2.99,0,1.1-.5,1.96-1.26,2.57-.88.7-2.36,1.1-4.77,1.1-1.35,0-2.36-.09-2.97-.18v-11.92ZM76.15,104.05h.9c1.44,0,2.21-.59,2.21-1.49s-.7-1.4-1.94-1.4c-.59,0-.94.04-1.17.07v2.83ZM76.15,109.43c.27.04.59.04,1.06.04,1.24,0,2.34-.47,2.34-1.75s-1.1-1.71-2.47-1.71h-.94v3.42Z"/>
        <path class="cls-2" d="M84.22,105.47c0-1.3-.04-2.14-.07-2.9h2.36l.09,1.62h.07c.45-1.28,1.53-1.82,2.38-1.82.25,0,.38,0,.58.04v2.57c-.2-.04-.43-.07-.74-.07-1.01,0-1.69.54-1.87,1.39-.04.18-.05.4-.05.61v4.47h-2.74v-5.91Z"/>
        <path class="cls-2" d="M95.86,111.38l-.16-.88h-.05c-.58.7-1.48,1.08-2.52,1.08-1.78,0-2.85-1.3-2.85-2.7,0-2.29,2.05-3.38,5.17-3.37v-.13c0-.47-.25-1.13-1.6-1.13-.9,0-1.85.31-2.43.67l-.5-1.76c.61-.34,1.82-.77,3.42-.77,2.94,0,3.87,1.73,3.87,3.8v3.06c0,.85.04,1.66.13,2.14h-2.47ZM95.54,107.22c-1.44-.02-2.56.32-2.56,1.39,0,.7.47,1.04,1.08,1.04.68,0,1.24-.45,1.42-1.01.04-.14.05-.31.05-.47v-.95Z"/>
        <path class="cls-2" d="M100.34,108.98c.5.31,1.55.67,2.36.67s1.17-.29,1.17-.74-.27-.67-1.3-1.01c-1.82-.61-2.52-1.6-2.5-2.65,0-1.64,1.4-2.88,3.58-2.88,1.03,0,1.94.23,2.48.5l-.49,1.89c-.4-.22-1.15-.5-1.91-.5-.67,0-1.04.27-1.04.72,0,.41.34.63,1.42,1.01,1.67.58,2.38,1.42,2.4,2.72,0,1.64-1.3,2.84-3.82,2.84-1.15,0-2.18-.25-2.84-.61l.49-1.96Z"/>
        <path class="cls-2" d="M111,100.12c0,.76-.58,1.37-1.48,1.37s-1.44-.61-1.42-1.37c-.02-.79.56-1.39,1.44-1.39s1.44.59,1.46,1.39ZM108.17,111.38v-8.8h2.74v8.8h-2.74Z"/>
        <path class="cls-2" d="M113.11,98.59h2.74v12.78h-2.74v-12.78Z"/>
      </g>
    </g>
  </g>
</svg>