<?xml version="1.0" encoding="UTF-8"?>
<svg id="Layer_2" data-name="Layer 2" xmlns="http://www.w3.org/2000/svg" viewBox="0 0 164.45 164.45">
  <defs>
    <style>
      .cls-1 {
        fill: #fff;
      }

      .cls-1, .cls-2, .cls-3 {
        stroke-width: 0px;
      }

      .cls-2 {
        fill: #00002f;
      }

      .cls-3 {
        fill: #eed7be;
      }
    </style>
  </defs>
  <g id="Layer_1-2" data-name="Layer 1">
    <g>
      <g>
        <circle class="cls-3" cx="82.23" cy="82.23" r="79.73"/>
        <path class="cls-1" d="M82.23,164.45C36.89,164.45,0,127.57,0,82.23S36.89,0,82.23,0s82.23,36.89,82.23,82.23-36.89,82.23-82.23,82.23ZM82.23,5C39.64,5,5,39.64,5,82.23s34.64,77.23,77.23,77.23,77.23-34.64,77.23-77.23S124.81,5,82.23,5Z"/>
      </g>
      <g>
        <path class="cls-2" d="M50.77,59.8c-.5.25-1.64.52-3.12.52-4.2,0-6.36-2.61-6.36-6.07,0-4.14,2.95-6.45,6.63-6.45,1.42,0,2.5.29,2.99.54l-.56,2.18c-.56-.23-1.33-.45-2.3-.45-2.18,0-3.87,1.31-3.87,4.02,0,2.43,1.44,3.96,3.89,3.96.83,0,1.75-.18,2.29-.4l.41,2.14Z"/>
        <path class="cls-2" d="M57.3,60.14l-.16-.88h-.05c-.58.7-1.48,1.08-2.52,1.08-1.78,0-2.84-1.3-2.84-2.7,0-2.29,2.05-3.38,5.17-3.37v-.13c0-.47-.25-1.13-1.6-1.13-.9,0-1.86.31-2.43.67l-.5-1.76c.61-.34,1.82-.77,3.42-.77,2.94,0,3.87,1.73,3.87,3.8v3.06c0,.85.04,1.66.13,2.14h-2.47ZM56.82,47.5l1.78,2.74h-1.78l-.9-1.57h-.04l-.92,1.57h-1.78l1.8-2.74h1.84ZM56.98,55.98c-1.44-.02-2.56.32-2.56,1.39,0,.7.47,1.04,1.08,1.04.68,0,1.24-.45,1.42-1.01.04-.14.05-.31.05-.47v-.95Z"/>
        <path class="cls-2" d="M61.8,54.15c0-1.1-.04-2.03-.07-2.81h2.3l.13,1.19h.05c.38-.56,1.15-1.39,2.66-1.39,1.13,0,2.04.58,2.41,1.49h.04c.32-.45.72-.81,1.13-1.06.49-.29,1.03-.43,1.67-.43,1.69,0,2.97,1.19,2.97,3.82v5.19h-2.67v-4.79c0-1.28-.41-2.02-1.3-2.02-.63,0-1.08.43-1.26.95-.07.2-.11.49-.11.7v5.15h-2.67v-4.93c0-1.12-.4-1.87-1.26-1.87-.7,0-1.12.54-1.28.99-.09.22-.11.47-.11.68v5.13h-2.67v-6Z"/>
        <path class="cls-2" d="M82.29,60.14l-.16-.88h-.05c-.58.7-1.48,1.08-2.52,1.08-1.78,0-2.84-1.3-2.84-2.7,0-2.29,2.05-3.38,5.17-3.37v-.13c0-.47-.25-1.13-1.6-1.13-.9,0-1.86.31-2.43.67l-.5-1.76c.61-.34,1.82-.77,3.42-.77,2.94,0,3.87,1.73,3.87,3.8v3.06c0,.85.04,1.66.13,2.14h-2.47ZM81.96,55.98c-1.44-.02-2.56.32-2.56,1.39,0,.7.47,1.04,1.08,1.04.68,0,1.24-.45,1.42-1.01.04-.14.05-.31.05-.47v-.95Z"/>
        <path class="cls-2" d="M86.78,54.24c0-1.3-.04-2.14-.07-2.9h2.36l.09,1.62h.07c.45-1.28,1.53-1.82,2.38-1.82.25,0,.38,0,.58.04v2.57c-.2-.04-.43-.07-.74-.07-1.01,0-1.69.54-1.87,1.39-.04.18-.05.4-.05.61v4.47h-2.74v-5.91Z"/>
        <path class="cls-2" d="M98.43,60.14l-.16-.88h-.05c-.58.7-1.48,1.08-2.52,1.08-1.78,0-2.85-1.3-2.85-2.7,0-2.29,2.05-3.38,5.17-3.37v-.13c0-.47-.25-1.13-1.6-1.13-.9,0-1.85.31-2.43.67l-.5-1.76c.61-.34,1.82-.77,3.42-.77,2.93,0,3.87,1.73,3.87,3.8v3.06c0,.85.04,1.66.13,2.14h-2.47ZM98.11,55.98c-1.44-.02-2.56.32-2.56,1.39,0,.7.47,1.04,1.08,1.04.68,0,1.24-.45,1.42-1.01.04-.14.05-.31.05-.47v-.95Z"/>
        <path class="cls-2" d="M115.1,47.36v10.15c0,.99.04,2.03.07,2.63h-2.43l-.13-1.3h-.04c-.56.99-1.62,1.49-2.75,1.49-2.09,0-3.76-1.78-3.76-4.52-.02-2.97,1.84-4.68,3.94-4.68,1.08,0,1.93.38,2.32.99h.04v-4.77h2.74ZM112.36,55.07c0-.14-.02-.34-.04-.49-.16-.74-.76-1.35-1.6-1.35-1.24,0-1.89,1.12-1.89,2.5,0,1.49.74,2.43,1.87,2.43.79,0,1.42-.54,1.58-1.31.05-.2.07-.4.07-.63v-1.15Z"/>
        <path class="cls-2" d="M119.4,56.61c.09,1.13,1.21,1.67,2.48,1.67.94,0,1.69-.13,2.43-.36l.36,1.85c-.9.36-2,.54-3.19.54-2.99,0-4.7-1.73-4.7-4.48,0-2.23,1.39-4.7,4.45-4.7,2.84,0,3.92,2.21,3.92,4.39,0,.47-.05.88-.09,1.08h-5.67ZM122.62,54.74c0-.67-.29-1.78-1.55-1.78-1.15,0-1.62,1.04-1.69,1.78h3.24Z"/>
        <path class="cls-2" d="M29.35,81.74l-3.89-12.14h3.01l1.48,5.13c.41,1.44.79,2.83,1.08,4.34h.05c.31-1.46.68-2.9,1.1-4.29l1.55-5.19h2.92l-4.09,12.14h-3.21Z"/>
        <path class="cls-2" d="M39.19,78.21c.09,1.13,1.21,1.67,2.48,1.67.94,0,1.69-.13,2.43-.36l.36,1.85c-.9.36-2,.54-3.19.54-2.99,0-4.7-1.73-4.7-4.48,0-2.23,1.39-4.7,4.45-4.7,2.84,0,3.93,2.21,3.93,4.39,0,.47-.05.88-.09,1.08h-5.67ZM42.42,76.34c0-.67-.29-1.78-1.55-1.78-1.15,0-1.62,1.04-1.69,1.78h3.24Z"/>
        <path class="cls-2" d="M46.59,75.84c0-1.3-.04-2.14-.07-2.9h2.36l.09,1.62h.07c.45-1.28,1.53-1.82,2.38-1.82.25,0,.38,0,.58.04v2.57c-.2-.04-.43-.07-.74-.07-1.01,0-1.69.54-1.87,1.39-.04.18-.05.4-.05.61v4.47h-2.74v-5.91Z"/>
        <path class="cls-2" d="M55.39,78.21c.09,1.13,1.21,1.67,2.48,1.67.94,0,1.69-.13,2.43-.36l.36,1.85c-.9.36-2,.54-3.19.54-2.99,0-4.7-1.73-4.7-4.48,0-2.23,1.39-4.7,4.45-4.7,2.84,0,3.92,2.21,3.92,4.39,0,.47-.05.88-.09,1.08h-5.67ZM58.62,76.34c0-.67-.29-1.78-1.55-1.78-1.15,0-1.62,1.04-1.69,1.78h3.24Z"/>
        <path class="cls-2" d="M67.8,81.74l-.16-.88h-.05c-.58.7-1.48,1.08-2.52,1.08-1.78,0-2.84-1.3-2.84-2.7,0-2.29,2.05-3.38,5.17-3.37v-.13c0-.47-.25-1.13-1.6-1.13-.9,0-1.86.31-2.43.67l-.5-1.76c.61-.34,1.82-.77,3.42-.77,2.94,0,3.87,1.73,3.87,3.8v3.06c0,.85.04,1.66.13,2.14h-2.47ZM67.47,77.58c-1.44-.02-2.56.32-2.56,1.39,0,.7.47,1.04,1.08,1.04.68,0,1.24-.45,1.42-1.01.04-.14.05-.31.05-.47v-.95Z"/>
        <path class="cls-2" d="M80.83,68.96v10.15c0,.99.04,2.03.07,2.63h-2.43l-.13-1.3h-.04c-.56.99-1.62,1.49-2.75,1.49-2.09,0-3.76-1.78-3.76-4.52-.02-2.97,1.84-4.68,3.94-4.68,1.08,0,1.93.38,2.32.99h.04v-4.77h2.74ZM78.09,76.67c0-.14-.02-.34-.04-.49-.16-.74-.76-1.35-1.6-1.35-1.24,0-1.89,1.12-1.89,2.5,0,1.49.74,2.43,1.87,2.43.79,0,1.42-.54,1.58-1.31.05-.2.07-.4.07-.63v-1.15Z"/>
        <path class="cls-2" d="M91.72,77.24c0,3.22-2.29,4.7-4.65,4.7-2.58,0-4.56-1.69-4.56-4.54s1.87-4.66,4.7-4.66,4.5,1.85,4.5,4.5ZM85.35,77.33c0,1.51.63,2.65,1.8,2.65,1.06,0,1.75-1.06,1.75-2.65,0-1.31-.5-2.65-1.75-2.65-1.31,0-1.8,1.35-1.8,2.65Z"/>
        <path class="cls-2" d="M93.41,75.84c0-1.3-.04-2.14-.07-2.9h2.36l.09,1.62h.07c.45-1.28,1.53-1.82,2.38-1.82.25,0,.38,0,.58.04v2.57c-.2-.04-.43-.07-.74-.07-1.01,0-1.69.54-1.87,1.39-.04.18-.05.4-.05.61v4.47h-2.74v-5.91Z"/>
        <path class="cls-2" d="M102.21,78.21c.09,1.13,1.21,1.67,2.48,1.67.94,0,1.69-.13,2.43-.36l.36,1.85c-.9.36-2,.54-3.19.54-2.99,0-4.7-1.73-4.7-4.48,0-2.23,1.39-4.7,4.45-4.7,2.84,0,3.92,2.21,3.92,4.39,0,.47-.05.88-.09,1.08h-5.67ZM105.43,76.34c0-.67-.29-1.78-1.55-1.78-1.15,0-1.62,1.04-1.69,1.78h3.24Z"/>
        <path class="cls-2" d="M109.59,79.35c.5.31,1.55.67,2.36.67s1.17-.29,1.17-.74-.27-.67-1.3-1.01c-1.82-.61-2.52-1.6-2.5-2.65,0-1.64,1.4-2.88,3.58-2.88,1.03,0,1.94.23,2.48.5l-.49,1.89c-.4-.22-1.15-.5-1.91-.5-.67,0-1.04.27-1.04.72,0,.41.34.63,1.42,1.01,1.67.58,2.38,1.42,2.4,2.72,0,1.64-1.3,2.85-3.82,2.85-1.15,0-2.18-.25-2.84-.61l.49-1.96Z"/>
        <path class="cls-2" d="M129.59,68.96v10.15c0,.99.04,2.03.07,2.63h-2.43l-.13-1.3h-.04c-.56.99-1.62,1.49-2.75,1.49-2.09,0-3.76-1.78-3.76-4.52-.02-2.97,1.84-4.68,3.94-4.68,1.08,0,1.93.38,2.32.99h.04v-4.77h2.74ZM126.85,76.67c0-.14-.02-.34-.04-.49-.16-.74-.76-1.35-1.6-1.35-1.24,0-1.89,1.12-1.89,2.5,0,1.49.74,2.43,1.87,2.43.79,0,1.42-.54,1.58-1.31.05-.2.07-.4.07-.63v-1.15Z"/>
        <path class="cls-2" d="M140.48,77.24c0,3.22-2.29,4.7-4.65,4.7-2.57,0-4.55-1.69-4.55-4.54s1.87-4.66,4.7-4.66,4.5,1.85,4.5,4.5ZM134.11,77.33c0,1.51.63,2.65,1.8,2.65,1.06,0,1.75-1.06,1.75-2.65,0-1.31-.5-2.65-1.75-2.65-1.31,0-1.8,1.35-1.8,2.65Z"/>
        <path class="cls-2" d="M43.99,97.35c0-1.1-.04-2.03-.07-2.81h2.3l.13,1.19h.05c.38-.56,1.15-1.39,2.66-1.39,1.13,0,2.04.58,2.41,1.49h.04c.32-.45.72-.81,1.13-1.06.49-.29,1.03-.43,1.67-.43,1.69,0,2.97,1.19,2.97,3.82v5.19h-2.67v-4.79c0-1.28-.41-2.02-1.3-2.02-.63,0-1.08.43-1.26.95-.07.2-.11.49-.11.7v5.15h-2.67v-4.93c0-1.12-.4-1.87-1.26-1.87-.7,0-1.12.54-1.28.99-.09.22-.11.47-.11.68v5.13h-2.67v-6Z"/>
        <path class="cls-2" d="M67.77,100.52c0,1.15.04,2.09.07,2.83h-2.38l-.13-1.24h-.05c-.34.54-1.17,1.44-2.75,1.44-1.78,0-3.1-1.12-3.1-3.84v-5.17h2.75v4.74c0,1.28.41,2.05,1.37,2.05.76,0,1.19-.52,1.37-.95.07-.16.09-.38.09-.59v-5.24h2.75v5.98Z"/>
        <path class="cls-2" d="M69.96,97.35c0-1.1-.04-2.03-.07-2.81h2.38l.13,1.21h.05c.36-.56,1.26-1.4,2.72-1.4,1.8,0,3.15,1.19,3.15,3.78v5.22h-2.74v-4.88c0-1.13-.4-1.91-1.39-1.91-.76,0-1.21.52-1.39,1.03-.07.16-.11.43-.11.68v5.08h-2.74v-6Z"/>
        <path class="cls-2" d="M83.34,92.09c0,.76-.58,1.37-1.48,1.37s-1.44-.61-1.42-1.37c-.02-.79.56-1.39,1.44-1.39s1.44.59,1.46,1.39ZM80.51,103.34v-8.8h2.74v8.8h-2.74Z"/>
        <path class="cls-2" d="M92.05,103.13c-.49.22-1.4.4-2.45.4-2.84,0-4.66-1.73-4.66-4.5,0-2.57,1.76-4.68,5.04-4.68.72,0,1.51.13,2.09.34l-.43,2.03c-.32-.14-.81-.27-1.53-.27-1.44,0-2.38,1.03-2.36,2.47,0,1.62,1.08,2.47,2.41,2.47.65,0,1.15-.11,1.57-.27l.32,2.02Z"/>
        <path class="cls-2" d="M93.56,103.34v-8.8h2.74v8.8h-2.74ZM97.85,90.7l-2.2,2.74h-1.89l1.55-2.74h2.54Z"/>
        <path class="cls-2" d="M98.49,97.49c0-1.15-.04-2.14-.07-2.95h2.38l.13,1.22h.04c.65-.94,1.66-1.42,2.93-1.42,1.93,0,3.66,1.67,3.66,4.48,0,3.21-2.03,4.72-4,4.72-1.06,0-1.89-.43-2.29-1.01h-.04v4.38h-2.74v-9.42ZM101.23,99.56c0,.22.02.41.05.58.18.74.81,1.3,1.6,1.3,1.19,0,1.89-.99,1.89-2.48,0-1.4-.63-2.47-1.85-2.47-.77,0-1.46.58-1.64,1.39-.04.14-.05.32-.05.49v1.21Z"/>
        <path class="cls-2" d="M112.08,92.09c0,.76-.58,1.37-1.48,1.37s-1.44-.61-1.42-1.37c-.02-.79.56-1.39,1.44-1.39s1.44.59,1.46,1.39ZM109.26,103.34v-8.8h2.74v8.8h-2.74Z"/>
        <path class="cls-2" d="M122.88,98.84c0,3.22-2.29,4.7-4.65,4.7-2.57,0-4.55-1.69-4.55-4.54s1.87-4.66,4.7-4.66,4.5,1.85,4.5,4.5ZM116.51,98.93c0,1.51.63,2.65,1.8,2.65,1.06,0,1.75-1.06,1.75-2.65,0-1.31-.5-2.65-1.75-2.65-1.31,0-1.8,1.35-1.8,2.65Z"/>
      </g>
    </g>
  </g>
</svg>