<?xml version="1.0" encoding="UTF-8"?>
<svg id="Layer_2" data-name="Layer 2" xmlns="http://www.w3.org/2000/svg" viewBox="0 0 30.26 42.01">
  <defs>
    <style>
      .cls-1 {
        fill: #fff;
        stroke-width: 0px;
      }
    </style>
  </defs>
  <g id="Layer_1-2" data-name="Layer 1">
    <path class="cls-1" d="M25.05,9.28l-.46.52-3.66,3.87-.46.51-2.37-2.42.93-.93,1.44,1.39,3.2-3.35.41-.52.98.93ZM5.67,12.17h9.69v-1.8H5.67v1.8ZM24.07,15.67l-.41.52-3.2,3.35-1.44-1.39-.93.93,2.37,2.42.46-.51,3.66-3.92.46-.46-.98-.93ZM5.67,19.49h9.69v-1.8H5.67v1.8ZM24.07,22.99l-.41.46-3.2,3.4-1.44-1.44-.93.98,2.37,2.37.46-.46,3.66-3.92.46-.46-.98-.93ZM5.67,26.75h9.69v-1.8H5.67v1.8ZM24.07,30.31l-.41.46-3.2,3.4-1.44-1.44-.93.98,2.37,2.37.46-.46,3.66-3.92.46-.46-.98-.93ZM5.67,34.07h9.69v-1.8H5.67v1.8ZM27.94,4.9h-6.34v.93h-12.53v-.93H2.27v34.8h25.67V4.9ZM30.26,2.63v39.38H0V2.63h9.02v-.98h2.68c0-.93.72-1.65,1.65-1.65h3.92c.93,0,1.65.72,1.65,1.65h2.68v.98h8.66Z"/>
  </g>
</svg>