<?xml version="1.0" encoding="UTF-8"?>
<svg id="Layer_2" data-name="Layer 2" xmlns="http://www.w3.org/2000/svg" viewBox="0 0 47.86 42.52">
  <defs>
    <style>
      .cls-1 {
        fill: #fff;
        stroke-width: 0px;
      }
    </style>
  </defs>
  <g id="Layer_1-2" data-name="Layer 1">
    <path class="cls-1" d="M20.87,42.52c2.89,0,4.96-.38,7.49-1.22.32-.11.68-.24.99-.37.33-.13.68-.27.98-.42,1.35-.66,1.49-.81,2.61-1.47,1.42-.84,2.61-2.01,3.77-3.16.63-.62,1.32-1.53,1.85-2.23.59-.79,1.14-1.66,1.57-2.55,1.17-2.37,1.94-4.69,2.27-7.34.1-.8.18-1.84.16-2.61-.01-.39-.1-.91-.1-1.31.41,0,.79-.2,1.2-.3l3.33-.88c1.9-.52.18-2.45-.47-3.43-.54-.8-.4-.61-.36-1.52l.09-1.88c0-.37.11-.53-.03-.86-.35-.81-1.4-.33-2.02-.16-.47.13-3.49,1.02-3.85,1.02-.07,0-.63-1.09-.71-1.22-.24-.4-.48-.79-.74-1.18-.5-.76-1.04-1.51-1.66-2.18-.53-.57-1.07-1.16-1.64-1.69-.76-.7-1.61-1.36-2.47-1.93-.38-.25-.76-.54-1.17-.75-.85-.43-1.67-.91-2.57-1.27C25.26-.03,20.83-.47,16.45.53c-2.83.65-5.36,1.87-7.69,3.55-.14.1-.23.18-.38.28-.57.39-2.06,1.67-2.46,2.18l-.91,1.05c-1.15,1.42-2.38,3.16-3.09,4.88-.26.64-.53,1.23-.76,1.86-.46,1.22-.84,2.96-.99,4.3l-.11,1.2c-.09.62-.04,1.8-.03,2.55.01,1.06.27,2.46.48,3.45.15.72.33,1.4.56,2.07.32.97.73,1.9,1.18,2.8.47.94.8,1.61,1.46,2.53.37.52.74,1,1.14,1.49.21.26.38.47.59.72.39.46.85.97,1.31,1.36l.7.61c.45.44.99.8,1.49,1.18.26.19.51.34.78.53.81.56,1.66.98,2.55,1.43,2.41,1.21,5.92,1.98,8.6,1.98h0ZM21.24,38.59c2.56,0,5.18-.6,7.42-1.67.14-.07.21-.11.34-.17,1.52-.76,2.87-1.73,4.1-2.88l.28-.28c.17-.19.33-.34.51-.52,1.29-1.29,2.23-2.87,3.05-4.49.11-.23.23-.48.32-.71,1.29-3.23,1.69-6.91.88-10.36.15-.04.21-.08.38-.09.17.31.42.66.64.96.33.45.9,1.66,1.34,1.85.33.14.46-.13.47.33,0,.33.04.46.04.8,0,1.5-.22,3.07-.49,4.33-.34,1.56-.88,3.07-1.61,4.48l-.43.79c-.16.27-.28.51-.45.77l-1.53,2.12c-.54.68-1.15,1.28-1.76,1.89l-1.32,1.11c-3.38,2.52-7.36,4.14-11.69,4.14-2.61,0-4.74-.29-7.07-1.13-.58-.21-1.18-.45-1.74-.7-.55-.25-1.06-.55-1.58-.86-.15-.09-.23-.15-.37-.23-.15-.08-.25-.14-.39-.22-.73-.44-1.45-1.01-2.1-1.56-1.55-1.31-2.86-2.87-3.94-4.58-.48-.76-.9-1.55-1.27-2.38-.77-1.73-1.32-3.77-1.58-5.73-.29-2.22-.11-4.49.35-6.65.33-1.57.89-3.11,1.6-4.53.14-.28.27-.53.43-.8l2.54-3.55c.2-.24.41-.38.62-.65.19-.25.4-.37.62-.59l.97-.86c.7-.54,1.39-1.05,2.16-1.5.15-.09.24-.13.39-.22.52-.31,1.06-.6,1.62-.86l.85-.37c1.55-.65,3.16-1.09,4.84-1.29,3.09-.37,5.9-.13,8.79.83,2.06.68,4.01,1.73,5.7,3.05.09.07.13.11.23.19.28.21,1.41,1.17,1.62,1.43.27.32.6.59.86.92,1.09,1.36,1.25,1.58,2.21,3.03.25.37.4.79.64,1.14-.59.4-.41,1.36-.47,2.11l-.09,1.5c-.13.03-.25.06-.38.09-.09-.18-.14-.42-.22-.62-.58-1.46-1.23-2.72-2.1-4.03-.24-.37-.48-.65-.75-.98-.27-.32-.5-.64-.8-.93-.44-.44-.86-.9-1.34-1.28l-1.48-1.14c-.33-.23-.68-.47-1.05-.68-1.35-.8-2.81-1.4-4.34-1.8-.23-.06-.49-.12-.71-.18-1.27-.32-2.81-.38-4.21-.38-2.33,0-4.95.66-6.92,1.65-1.38.7-2.37,1.35-3.57,2.28l-1.42,1.3c-.19.19-.3.35-.49.54-.12.12-.14.15-.24.28-.57.7-1.13,1.41-1.61,2.19-1,1.6-1.79,3.49-2.16,5.38-.18.9-.51,3.02-.38,3.88.05.32,0,.68.03,1,.18,1.63.34,2.9.92,4.46l.61,1.55c.37.9,1.03,1.93,1.58,2.73.52.75,1.77,2.26,2.49,2.85.6.48,1.16,1,1.81,1.43,1.84,1.23,3.78,2.19,5.97,2.64,1.23.26,2.53.46,3.85.46h0ZM7.94,21.02c0,2.17.44,4.27,1.25,5.87.87,1.73,2.06,3.43,3.6,4.65l1.41,1.02c.19.12.35.2.53.31.17.1.33.18.52.28.19.1.37.16.58.26,1.59.77,3.6,1.19,5.42,1.19,1.04,0,2.07-.15,2.95-.33,1.96-.4,3.98-1.38,5.52-2.68.35-.3.98-.83,1.27-1.17.09-.11.09-.13.19-.23.1-.1.12-.12.2-.22.97-1.27,1.11-1.29,1.95-2.96.19-.38.33-.77.48-1.16.8-2.03.97-4.53.64-6.73-.02-.16-.08-.38-.08-.58.21-.1,2.12-.6,2.34-.61,0,.38.33,1.67.33,2.81v1.08c0,2.72-1,5.51-2.2,7.5-.96,1.6-2.18,3.02-3.62,4.2-.19.15-.36.27-.56.42-.2.15-.35.28-.57.42-1.23.82-2.54,1.44-3.95,1.91-1.02.34-2.14.62-3.25.68-.47.03-1.4.12-1.87.09-.21-.01-.2-.04-.42-.05-1.6-.05-3.01-.36-4.53-.86-1.41-.46-2.66-1.16-3.87-1.99-.77-.52-1.49-1.15-2.13-1.8-1.08-1.08-1.92-2.32-2.68-3.64-.07-.11-.13-.2-.18-.33-.85-1.93-1.27-3.12-1.56-5.28l-.13-1.84.12-1.8c.09-.62.15-1.12.27-1.69.54-2.47,1.69-4.57,3.19-6.51l.67-.78c.21-.27.5-.48.74-.71l1.05-.91c.81-.67,2.04-1.47,3.01-1.86,2.52-1.04,4.15-1.47,7.1-1.47.99,0,2.05.15,2.87.32,1.22.24,2.49.68,3.56,1.21.37.19.69.34,1.04.55l1.44.94c.76.58,1.45,1.18,2.12,1.86l.54.63c1.15,1.37,1.86,2.55,2.59,4.2.1.22.38.95.39,1.2-.46.11-1.95.58-2.34.61-.02-.27-.29-.84-.41-1.09-.56-1.25-1.17-2.18-2-3.24-.38-.48-.82-.94-1.28-1.34-3.03-2.67-6.9-3.85-11.06-3.26-1.97.28-3.74,1.06-5.36,2.14-.3.2-.59.41-.87.63-1.27,1.03-2.3,2.25-3.14,3.65-.69,1.15-1.23,2.46-1.51,3.79-.17.85-.33,1.69-.33,2.71h0ZM11.92,21.07c0,.88.04,1.57.24,2.38.18.73.3,1.04.6,1.7,1.16,2.55,3.47,4.51,6.18,5.2,2.98.76,6.16,0,8.42-1.98.27-.24.66-.57.88-.85.11-.14.16-.18.26-.3.32-.4.67-.92.93-1.36.67-1.12,1.21-3.01,1.21-4.55,0-.37-.09-1.52-.19-1.73.38-.09.78-.21,1.19-.31.28-.07.98-.29,1.2-.3,0,.36.19.97.19,1.83,0,1.43,0,2-.36,3.44-.1.4-.19.76-.33,1.12-.14.36-.29.68-.44,1.02-.08.17-.15.29-.25.45-.1.18-.17.33-.26.49-.31.54-.53.8-.88,1.28-.59.79-1.79,1.89-2.62,2.44-.6.4-1.18.73-1.86,1.04-2.01.94-5.01,1.3-7.37.7-.42-.11-.77-.19-1.15-.3-1.34-.41-2.65-1.21-3.74-2.07-.74-.59-1.54-1.46-2.09-2.21-1.27-1.76-2.22-4.27-2.22-6.49,0-1.96.24-3.65,1.11-5.45.35-.72.89-1.6,1.37-2.23.7-.92,1.72-1.81,2.64-2.47.13-.1.28-.18.43-.27,1.14-.7,2.3-1.19,3.61-1.49,2.67-.61,5.57-.25,7.9.94l1.52.91c.46.31,1.23,1,1.61,1.39.22.22.36.38.56.61.18.21.37.45.53.68.83,1.21.67.95,1.31,2.29l.34.87c-.17.01-.41.1-.6.15l-1.19.31c-.19.05-.43.14-.6.15-.09-.38-.36-.95-.55-1.28-.82-1.48-2.25-2.99-3.75-3.75-2.66-1.35-5.51-1.62-8.28-.33-1.66.78-2.68,1.59-3.82,3.11-.34.45-.59.94-.86,1.48-.48.95-.87,2.36-.87,3.76h0ZM44.57,14.84c0,.34.14.43.32.71l1.13,1.77c-.25.12-.9.25-1.22.33-.4.1-.82.22-1.22.33-.82.21-1.61.46-2.44.65-.18-.34-.44-.72-.66-1.03-.24-.33-.43-.68-.67-1.02-.24-.34-.15-.18-.13-.62l.05-1.22c.01-.2.04-.17.05-.38,0-.14,0-.29,0-.42.01-.21.04-.17.05-.38.25,0,2.11-.55,2.42-.63.43-.11.78-.22,1.22-.33l1.24-.31c-.05.24-.04.32-.04.61,0,.27-.05.32-.05.61,0,.45-.04.82-.04,1.31h0ZM15.86,21.21c0,.81.2,1.59.45,2.17.17.39.46.92.73,1.24.11.13.21.26.32.38l.71.61c.28.21.49.33.81.5,1.5.75,3.26.72,4.78.02.26-.12.56-.32.78-.49.81-.61,1.28-1.21,1.75-2.14.14-.27.27-.68.33-.98.2-.97.16-1.01.1-1.91.24-.11.88-.22,1.2-.31l1.2-.3c0,.42.09.8.09,1.26,0,1.27-.3,2.25-.67,3.17-.35.85-.76,1.38-1.32,2.05-.59.69-1.69,1.55-2.52,1.89-1.38.57-1.95.72-3.54.72-2.15,0-4.4-1.13-5.75-2.73l-1.1-1.7c-.57-1.3-.74-2.1-.74-3.62,0-2.06,1.06-4.26,2.57-5.59.11-.09.15-.11.26-.21.17-.17.35-.29.56-.42.9-.57,1.6-.91,2.68-1.16,3.1-.71,6.22.54,7.94,2.85.82,1.1.64,1.08,1.13,2.01l-2.39.61c-.05-.21-.22-.48-.33-.65-.35-.59-.88-1.14-1.44-1.55-.98-.72-1.97-1.02-3.38-1.02-.97,0-2.18.45-2.92,1.01-.43.32-.33.25-.69.62-.26.26-.4.4-.61.7-.57.85-.97,1.96-.97,3.01h0ZM22.18,20.18c-.08,0-.2-.33-.98-.33-1.16,0-1.83,1.53-.93,2.43,1.01,1,2.28.03,2.33-.6l2.53-.65c0,1.86-.79,3.04-2.28,3.76-1.01.49-2.14.4-3.16,0-2.29-.93-3.14-4.25-1.2-6.18.38-.38.56-.53,1.08-.79,1.87-.93,4.12-.2,5.14,1.72-.44.1-2.36.65-2.53.65h0Z"/>
  </g>
</svg>