<?xml version="1.0" encoding="UTF-8"?>
<svg id="Layer_2" data-name="Layer 2" xmlns="http://www.w3.org/2000/svg" viewBox="0 0 38.12 38.12">
  <defs>
    <style>
      .cls-1 {
        fill: #fff;
        stroke-width: 0px;
      }
    </style>
  </defs>
  <g id="Layer_1-2" data-name="Layer 1">
    <path class="cls-1" d="M28.23,26.54l7.17,7.17c.48.48.48,1.2,0,1.69-.48.48-1.2.48-1.69,0l-7.17-7.17,1.69-1.69ZM20.45,6.09l-1.68,1.69.84.84c1.88,1.88,2.67,4.59,2.09,7.18l-.26,1.16,2.33.52.26-1.17c.75-3.39-.28-6.92-2.74-9.37l-.84-.84ZM14.11,2.37c3,0,6,1.15,8.3,3.44,4.59,4.59,4.59,12.01,0,16.6-4.59,4.59-12.01,4.59-16.6,0C1.22,17.82,1.22,10.41,5.81,5.81c2.3-2.3,5.3-3.44,8.3-3.44h0ZM14.11,0c-3.62,0-7.23,1.38-9.99,4.13-5.5,5.5-5.5,14.46,0,19.96,5.25,5.25,13.64,5.49,19.18.72l1.64,1.64-1.78,1.78.84.84,8.01,8.01c1.39,1.39,3.68,1.39,5.07,0,1.39-1.39,1.39-3.68,0-5.07l-8.85-8.85-1.59,1.6-1.65-1.65c4.59-5.54,4.3-13.8-.89-18.99C21.34,1.38,17.73,0,14.11,0Z"/>
  </g>
</svg>