<?xml version="1.0" encoding="UTF-8"?>
<svg id="Layer_1" data-name="Layer 1" xmlns="http://www.w3.org/2000/svg" viewBox="0 0 720 720">
  <defs>
    <style>
      .cls-1 {
        fill: #d88210;
      }

      .cls-1, .cls-2, .cls-3, .cls-4 {
        stroke-width: 0px;
      }

      .cls-2 {
        fill: #eed7be;
      }

      .cls-5 {
        fill: none;
        stroke: #d88210;
        stroke-miterlimit: 10;
        stroke-width: 8px;
      }

      .cls-3 {
        fill: #fff;
      }

      .cls-4 {
        fill: #00002f;
      }
    </style>
  </defs>
  <g id="info">
    <g id="circle-background">
      <path class="cls-1" d="M361.24,609.29c-62.93,0-122.09-24.5-166.58-69s-69-103.66-69-166.58,24.51-122.09,69-166.58,103.66-69,166.58-69,122.09,24.51,166.58,69,69,103.66,69,166.58-24.5,122.09-69,166.58-103.66,69-166.58,69ZM361.24,153.12c-121.63,0-220.59,98.95-220.59,220.59s98.95,220.58,220.59,220.58,220.58-98.95,220.58-220.58-98.95-220.59-220.58-220.59Z"/>
    </g>
    <line id="line-1" class="cls-5" x1="361.74" y1="365.77" x2="361.74" y2="138.12"/>
    <line id="line-2" class="cls-5" x1="570.33" y1="283.12" x2="361.24" y2="367.28"/>
    <line id="line-3" class="cls-5" x1="361.24" y1="367.28" x2="491.11" y2="563.88"/>
    <line id="line-4" class="cls-5" x1="361.74" y1="365.77" x2="228.97" y2="563.88"/>
    <line id="line-5" class="cls-5" x1="140.66" y1="302.75" x2="361.24" y2="367.28"/>
    <g id="circle-0">
      <g>
        <circle class="cls-2" cx="355.48" cy="367.28" r="106.87"/>
        <path class="cls-3" d="M355.48,476.64c-60.31,0-109.37-49.06-109.37-109.37s49.06-109.37,109.37-109.37,109.37,49.06,109.37,109.37-49.06,109.37-109.37,109.37ZM355.48,262.91c-57.55,0-104.37,46.82-104.37,104.37s46.82,104.37,104.37,104.37,104.37-46.82,104.37-104.37-46.82-104.37-104.37-104.37Z"/>
      </g>
      <g>
        <path class="cls-4" d="M300.85,339.52h4.07l2.29,6.9,2.29-6.9h4.07l-4.23,10.52h-4.26l-4.23-10.52Z"/>
        <path class="cls-4" d="M314.92,339.52h3.68v10.52h-3.68v-10.52ZM316.68,336.24h3.12l-1.62,2.22h-3.12l1.62-2.22Z"/>
        <path class="cls-4" d="M321,339.52h3.14l4.11,4.98v-4.98h3.68v10.52h-3.14l-4.11-4.87v4.87h-3.68v-10.52Z"/>
        <path class="cls-4" d="M333.6,344.81c0-3.12,2.31-5.71,6.16-5.71,1.89,0,3.35.62,4.4,1.63l-2.21,2.29c-.54-.43-1.1-.8-2.06-.8-1.58,0-2.61,1.04-2.61,2.53s1.06,2.56,2.64,2.56c1.07,0,1.84-.5,2.22-.88l2.24,2.27c-1.06,1.06-2.69,1.73-4.63,1.73-3.86,0-6.16-2.58-6.16-5.62Z"/>
        <path class="cls-4" d="M345.84,344.94v-5.43h3.68v5.59c0,1.15.74,2.02,1.86,2.02s1.86-.86,1.86-2.02v-5.59h3.68v5.43c0,3.57-2.58,5.46-5.54,5.46s-5.54-1.89-5.54-5.46Z"/>
        <path class="cls-4" d="M358.98,339.52h3.68v7.31h5.92v3.2h-9.6v-10.52Z"/>
        <path class="cls-4" d="M369.7,344.77c0-3.12,2.32-5.67,6.16-5.67s6.16,2.55,6.16,5.67-2.32,5.67-6.16,5.67-6.16-2.54-6.16-5.67ZM378.34,344.77c0-1.52-1.01-2.62-2.48-2.62s-2.48,1.1-2.48,2.62,1.01,2.62,2.48,2.62,2.48-1.1,2.48-2.62Z"/>
        <path class="cls-4" d="M383.3,348.98l1.18-2.54c.78.48,2.34,1.12,3.73,1.12.88,0,1.26-.24,1.26-.54,0-.53-1.18-.64-2.54-.9-1.65-.32-3.44-.98-3.44-3.14s1.78-3.76,4.62-3.76c1.94,0,3.55.82,4.23,1.42l-1.26,2.29c-.67-.37-1.99-.86-3.11-.86-.85,0-1.31.22-1.31.54,0,.37.56.51,2.66.91,1.33.26,3.44.69,3.44,3.17,0,2.22-1.68,3.73-4.63,3.73-2.11,0-4-.82-4.83-1.44Z"/>
        <path class="cls-4" d="M399.4,339.52h9.92v3.04h-6.24v1.01h5.28v2.35h-5.28v1.07h6.24v3.04h-9.92v-10.52Z"/>
        <path class="cls-4" d="M268.3,358.72h4.29l4.71,10.52h-4.07l-.51-1.26h-4.55l-.51,1.26h-4.07l4.71-10.52ZM271.54,365.09l-1.09-2.74h-.03l-1.09,2.74h2.21Z"/>
        <path class="cls-4" d="M282.33,366.11v3.12h-3.68v-10.52h7.41c2.58,0,3.99,1.73,3.99,3.83,0,2.38-1.84,3.2-3.78,3.2.58.61,1.34.75,1.92.75.83,0,1.41-.32,1.62-.56l1.31,2.42c-.43.51-1.6,1.18-3.22,1.18-2,0-3.47-.94-5.57-3.43ZM285.34,363.53c.66,0,1.04-.45,1.04-.96s-.38-.96-1.04-.96h-3.01v1.92h3.01Z"/>
        <path class="cls-4" d="M294.65,361.92h-3.57v-3.2h10.66v3.2h-3.57v7.31h-3.52v-7.31Z"/>
        <path class="cls-4" d="M303.25,358.72h3.68v10.52h-3.68v-10.52Z"/>
        <path class="cls-4" d="M308.61,364.01c0-3.12,2.31-5.71,6.16-5.71,1.89,0,3.35.62,4.4,1.63l-2.21,2.29c-.54-.43-1.1-.8-2.06-.8-1.58,0-2.61,1.04-2.61,2.53s1.06,2.56,2.64,2.56c1.07,0,1.84-.5,2.22-.88l2.24,2.27c-1.06,1.06-2.69,1.73-4.63,1.73-3.86,0-6.16-2.58-6.16-5.62Z"/>
        <path class="cls-4" d="M320.85,364.14v-5.43h3.68v5.59c0,1.15.74,2.02,1.86,2.02s1.86-.86,1.86-2.02v-5.59h3.68v5.43c0,3.57-2.58,5.46-5.54,5.46s-5.54-1.89-5.54-5.46Z"/>
        <path class="cls-4" d="M333.99,358.72h3.68v7.31h5.92v3.2h-9.6v-10.52Z"/>
        <path class="cls-4" d="M348.93,358.72h4.29l4.71,10.52h-4.07l-.51-1.26h-4.55l-.51,1.26h-4.07l4.71-10.52ZM352.18,365.09l-1.09-2.74h-.03l-1.09,2.74h2.21Z"/>
        <path class="cls-4" d="M367.19,371.71c0,1.18-.74,1.79-1.81,1.79h-2.48l-.3-1.31h1.65c.5,0,.86-.03.86-.48s-.46-.43-.86-.43h-1.82l-.18-.62.83-1.1c-3.15-.46-4.99-2.82-4.99-5.54,0-3.12,2.31-5.71,6.16-5.71,1.89,0,3.35.62,4.4,1.63l-2.21,2.29c-.54-.43-1.1-.8-2.07-.8-1.58,0-2.61,1.04-2.61,2.53s1.06,2.56,2.64,2.56c1.07,0,1.84-.5,2.22-.88l2.24,2.27c-.86.86-2.11,1.47-3.6,1.66l-.32.48c.85,0,2.24.08,2.24,1.67Z"/>
        <path class="cls-4" d="M369.78,363.97c0-3.12,2.32-5.67,6.16-5.67s6.16,2.55,6.16,5.67-2.32,5.67-6.16,5.67-6.16-2.54-6.16-5.67ZM371.81,356.24c.37-.5,1.28-1.17,2.39-1.17,1.63,0,2.02.77,3.09.77.74-.02,1.41-.46,1.7-.8l1.07,1.6c-.5.5-1.47,1.17-2.31,1.17-1.74,0-2.1-.77-3.17-.77-.74.02-1.41.46-1.7.8l-1.07-1.6ZM378.42,363.97c0-1.52-1.01-2.62-2.48-2.62s-2.48,1.1-2.48,2.62,1.01,2.62,2.48,2.62,2.48-1.1,2.48-2.62Z"/>
        <path class="cls-4" d="M383.78,358.72h9.92v3.04h-6.24v1.01h5.28v2.35h-5.28v1.07h6.24v3.04h-9.92v-10.52Z"/>
        <path class="cls-4" d="M395.3,368.18l1.18-2.54c.78.48,2.34,1.12,3.73,1.12.88,0,1.26-.24,1.26-.54,0-.53-1.18-.64-2.54-.9-1.65-.32-3.44-.98-3.44-3.14s1.78-3.76,4.63-3.76c1.94,0,3.55.82,4.23,1.42l-1.26,2.29c-.67-.37-1.98-.86-3.11-.86-.85,0-1.31.22-1.31.54,0,.37.56.51,2.66.91,1.33.26,3.44.69,3.44,3.17,0,2.22-1.68,3.73-4.63,3.73-2.11,0-4-.82-4.83-1.44Z"/>
        <path class="cls-4" d="M411.4,358.72h5.67c3.46,0,5.51,2.06,5.51,5.27s-2.05,5.25-5.51,5.25h-5.67v-10.52ZM416.58,366.19c1.31,0,2.35-.74,2.35-2.21s-1.04-2.22-2.35-2.22h-1.5v4.43h1.5Z"/>
        <path class="cls-4" d="M423.84,363.97c0-3.12,2.32-5.67,6.16-5.67s6.16,2.55,6.16,5.67-2.32,5.67-6.16,5.67-6.16-2.54-6.16-5.67ZM432.49,363.97c0-1.52-1.01-2.62-2.48-2.62s-2.48,1.1-2.48,2.62,1.01,2.62,2.48,2.62,2.48-1.1,2.48-2.62Z"/>
        <path class="cls-4" d="M437.44,368.18l1.18-2.54c.78.48,2.34,1.12,3.73,1.12.88,0,1.26-.24,1.26-.54,0-.53-1.18-.64-2.54-.9-1.65-.32-3.44-.98-3.44-3.14s1.78-3.76,4.63-3.76c1.94,0,3.55.82,4.23,1.42l-1.26,2.29c-.67-.37-1.98-.86-3.11-.86-.85,0-1.31.22-1.31.54,0,.37.56.51,2.66.91,1.33.26,3.44.69,3.44,3.17,0,2.22-1.68,3.73-4.63,3.73-2.11,0-4-.82-4.83-1.44Z"/>
        <path class="cls-4" d="M285.04,383.21c0-3.12,2.31-5.71,6.16-5.71,1.89,0,3.35.62,4.4,1.63l-2.21,2.29c-.54-.43-1.1-.8-2.06-.8-1.58,0-2.61,1.04-2.61,2.53s1.06,2.56,2.64,2.56c1.07,0,1.84-.5,2.22-.88l2.24,2.27c-1.06,1.06-2.69,1.73-4.63,1.73-3.86,0-6.16-2.58-6.16-5.62Z"/>
        <path class="cls-4" d="M296.74,383.17c0-3.12,2.32-5.67,6.16-5.67s6.16,2.54,6.16,5.67-2.32,5.67-6.16,5.67-6.16-2.55-6.16-5.67ZM305.38,383.17c0-1.52-1.01-2.62-2.48-2.62s-2.48,1.1-2.48,2.62,1.01,2.62,2.48,2.62,2.48-1.1,2.48-2.62Z"/>
        <path class="cls-4" d="M310.74,377.92h3.14l4.11,4.98v-4.98h3.68v10.52h-3.14l-4.11-4.87v4.87h-3.68v-10.52Z"/>
        <path class="cls-4" d="M323.51,387.38l1.18-2.54c.78.48,2.34,1.12,3.73,1.12.88,0,1.26-.24,1.26-.54,0-.53-1.18-.64-2.54-.9-1.65-.32-3.44-.98-3.44-3.14s1.78-3.76,4.63-3.76c1.94,0,3.55.82,4.23,1.42l-1.26,2.29c-.67-.37-1.98-.86-3.11-.86-.85,0-1.31.22-1.31.54,0,.37.56.51,2.66.91,1.33.26,3.44.69,3.44,3.17,0,2.22-1.68,3.73-4.63,3.73-2.11,0-4-.82-4.83-1.44Z"/>
        <path class="cls-4" d="M334.8,377.92h9.92v3.04h-6.24v1.01h5.28v2.35h-5.28v1.07h6.24v3.04h-9.92v-10.52Z"/>
        <path class="cls-4" d="M346.88,377.92h3.68v7.32h5.92v3.2h-9.6v-10.52Z"/>
        <path class="cls-4" d="M358.16,377.92h3.68v3.59h3.71v-3.59h3.68v10.52h-3.68v-3.73h-3.71v3.73h-3.68v-10.52Z"/>
        <path class="cls-4" d="M371.64,377.92h9.92v3.04h-6.24v1.01h5.28v2.35h-5.28v1.07h6.24v3.04h-9.92v-10.52Z"/>
        <path class="cls-4" d="M383.72,377.92h3.68v10.52h-3.68v-10.52Z"/>
        <path class="cls-4" d="M393.48,385.31v3.12h-3.68v-10.52h7.41c2.58,0,3.99,1.73,3.99,3.83,0,2.39-1.84,3.2-3.78,3.2.58.61,1.34.75,1.92.75.83,0,1.41-.32,1.62-.56l1.31,2.42c-.43.51-1.6,1.18-3.22,1.18-2,0-3.47-.94-5.57-3.42ZM396.49,382.73c.66,0,1.04-.45,1.04-.96s-.38-.96-1.04-.96h-3.01v1.92h3.01Z"/>
        <path class="cls-4" d="M402.87,383.17c0-3.12,2.32-5.67,6.16-5.67s6.16,2.54,6.16,5.67-2.32,5.67-6.16,5.67-6.16-2.55-6.16-5.67ZM411.51,383.17c0-1.52-1.01-2.62-2.48-2.62s-2.48,1.1-2.48,2.62,1.01,2.62,2.48,2.62,2.48-1.1,2.48-2.62Z"/>
        <path class="cls-4" d="M416.47,387.38l1.18-2.54c.78.48,2.34,1.12,3.73,1.12.88,0,1.26-.24,1.26-.54,0-.53-1.18-.64-2.54-.9-1.65-.32-3.44-.98-3.44-3.14s1.78-3.76,4.62-3.76c1.94,0,3.55.82,4.23,1.42l-1.26,2.29c-.67-.37-1.99-.86-3.11-.86-.85,0-1.31.22-1.31.54,0,.37.56.51,2.66.91,1.33.26,3.44.69,3.44,3.17,0,2.22-1.68,3.73-4.63,3.73-2.11,0-4-.82-4.83-1.44Z"/>
      </g>
    </g>
    <g id="circle-1">
      <g>
        <circle class="cls-2" cx="355.48" cy="113.38" r="79.73"/>
        <path class="cls-3" d="M355.48,195.61c-45.34,0-82.23-36.89-82.23-82.23s36.89-82.23,82.23-82.23,82.23,36.89,82.23,82.23-36.89,82.23-82.23,82.23ZM355.48,36.16c-42.58,0-77.23,34.64-77.23,77.23s34.64,77.23,77.23,77.23,77.23-34.64,77.23-77.23-34.64-77.23-77.23-77.23Z"/>
      </g>
      <g>
        <path class="cls-4" d="M326.47,91.67c-.45.22-1.46.46-2.77.46-3.73,0-5.65-2.32-5.65-5.39,0-3.68,2.62-5.73,5.89-5.73,1.26,0,2.22.26,2.66.48l-.5,1.94c-.5-.21-1.18-.4-2.05-.4-1.94,0-3.44,1.17-3.44,3.57,0,2.16,1.28,3.52,3.46,3.52.74,0,1.55-.16,2.03-.35l.37,1.9Z"/>
        <path class="cls-4" d="M332.28,91.97l-.14-.78h-.05c-.51.62-1.31.96-2.24.96-1.58,0-2.53-1.15-2.53-2.4,0-2.03,1.82-3.01,4.59-2.99v-.11c0-.42-.22-1.01-1.42-1.01-.8,0-1.65.27-2.16.59l-.45-1.57c.54-.3,1.62-.69,3.04-.69,2.61,0,3.44,1.54,3.44,3.38v2.72c0,.75.03,1.47.11,1.9h-2.19ZM331.85,80.73l1.58,2.43h-1.58l-.8-1.39h-.03l-.82,1.39h-1.58l1.6-2.43h1.63ZM331.99,88.27c-1.28-.02-2.27.29-2.27,1.23,0,.62.42.93.96.93.61,0,1.1-.4,1.26-.9.03-.13.05-.27.05-.42v-.85Z"/>
        <path class="cls-4" d="M336.28,86.64c0-.98-.03-1.81-.06-2.5h2.05l.11,1.06h.05c.34-.5,1.02-1.23,2.37-1.23,1.01,0,1.81.51,2.15,1.33h.03c.29-.4.64-.72,1.01-.94.43-.26.91-.38,1.49-.38,1.5,0,2.64,1.06,2.64,3.39v4.61h-2.37v-4.26c0-1.14-.37-1.79-1.15-1.79-.56,0-.96.38-1.12.85-.06.18-.1.43-.1.62v4.58h-2.37v-4.39c0-.99-.35-1.66-1.12-1.66-.62,0-.99.48-1.14.88-.08.19-.1.42-.1.61v4.56h-2.37v-5.33Z"/>
        <path class="cls-4" d="M354.49,91.97l-.14-.78h-.05c-.51.62-1.31.96-2.24.96-1.58,0-2.53-1.15-2.53-2.4,0-2.03,1.82-3.01,4.59-2.99v-.11c0-.42-.22-1.01-1.42-1.01-.8,0-1.65.27-2.16.59l-.45-1.57c.54-.3,1.62-.69,3.04-.69,2.61,0,3.44,1.54,3.44,3.38v2.72c0,.75.03,1.47.11,1.9h-2.19ZM354.2,88.27c-1.28-.02-2.27.29-2.27,1.23,0,.62.42.93.96.93.61,0,1.1-.4,1.26-.9.03-.13.05-.27.05-.42v-.85Z"/>
        <path class="cls-4" d="M358.48,86.72c0-1.15-.03-1.9-.06-2.58h2.1l.08,1.44h.06c.4-1.14,1.36-1.62,2.11-1.62.22,0,.34,0,.51.03v2.29c-.18-.03-.38-.06-.66-.06-.9,0-1.5.48-1.66,1.23-.03.16-.05.35-.05.54v3.97h-2.43v-5.25Z"/>
        <path class="cls-4" d="M368.84,91.97l-.14-.78h-.05c-.51.62-1.31.96-2.24.96-1.58,0-2.53-1.15-2.53-2.4,0-2.03,1.82-3.01,4.59-2.99v-.11c0-.42-.22-1.01-1.42-1.01-.8,0-1.65.27-2.16.59l-.45-1.57c.54-.3,1.62-.69,3.04-.69,2.61,0,3.44,1.54,3.44,3.38v2.72c0,.75.03,1.47.11,1.9h-2.19ZM368.55,88.27c-1.28-.02-2.27.29-2.27,1.23,0,.62.42.93.96.93.61,0,1.1-.4,1.26-.9.03-.13.05-.27.05-.42v-.85Z"/>
        <path class="cls-4" d="M383.66,80.6v9.03c0,.88.03,1.81.06,2.34h-2.16l-.11-1.15h-.03c-.5.88-1.44,1.33-2.45,1.33-1.86,0-3.35-1.58-3.35-4.02-.02-2.64,1.63-4.16,3.51-4.16.96,0,1.71.34,2.06.88h.03v-4.24h2.43ZM381.22,87.46c0-.13-.02-.3-.03-.43-.14-.66-.67-1.2-1.42-1.2-1.1,0-1.68.99-1.68,2.23,0,1.33.66,2.16,1.67,2.16.7,0,1.26-.48,1.41-1.17.05-.18.06-.35.06-.56v-1.02Z"/>
        <path class="cls-4" d="M387.48,88.83c.08,1.01,1.07,1.49,2.21,1.49.83,0,1.5-.11,2.16-.32l.32,1.65c-.8.32-1.78.48-2.83.48-2.66,0-4.18-1.54-4.18-3.99,0-1.98,1.23-4.18,3.95-4.18,2.53,0,3.49,1.97,3.49,3.91,0,.42-.05.78-.08.96h-5.04ZM390.34,87.17c0-.59-.26-1.58-1.38-1.58-1.02,0-1.44.93-1.5,1.58h2.88Z"/>
        <path class="cls-4" d="M303.96,111.17l-3.46-10.79h2.67l1.31,4.56c.37,1.28.7,2.51.96,3.86h.05c.27-1.3.61-2.58.98-3.81l1.38-4.61h2.59l-3.63,10.79h-2.85Z"/>
        <path class="cls-4" d="M312.71,108.03c.08,1.01,1.07,1.49,2.21,1.49.83,0,1.5-.11,2.16-.32l.32,1.65c-.8.32-1.78.48-2.83.48-2.66,0-4.18-1.54-4.18-3.99,0-1.98,1.23-4.18,3.95-4.18,2.53,0,3.49,1.97,3.49,3.91,0,.42-.05.78-.08.96h-5.04ZM315.57,106.37c0-.59-.26-1.58-1.38-1.58-1.02,0-1.44.93-1.5,1.58h2.88Z"/>
        <path class="cls-4" d="M319.28,105.92c0-1.15-.03-1.9-.06-2.58h2.1l.08,1.44h.06c.4-1.14,1.36-1.62,2.11-1.62.22,0,.34,0,.51.03v2.29c-.18-.03-.38-.06-.66-.06-.9,0-1.5.48-1.66,1.23-.03.16-.05.35-.05.54v3.97h-2.43v-5.25Z"/>
        <path class="cls-4" d="M327.11,108.03c.08,1.01,1.07,1.49,2.21,1.49.83,0,1.5-.11,2.16-.32l.32,1.65c-.8.32-1.78.48-2.83.48-2.66,0-4.18-1.54-4.18-3.99,0-1.98,1.23-4.18,3.95-4.18,2.53,0,3.49,1.97,3.49,3.91,0,.42-.05.78-.08.96h-5.04ZM329.97,106.37c0-.59-.26-1.58-1.38-1.58-1.02,0-1.44.93-1.5,1.58h2.88Z"/>
        <path class="cls-4" d="M338.13,111.17l-.14-.78h-.05c-.51.62-1.31.96-2.24.96-1.58,0-2.53-1.15-2.53-2.4,0-2.03,1.82-3.01,4.59-2.99v-.11c0-.42-.22-1.01-1.42-1.01-.8,0-1.65.27-2.16.59l-.45-1.57c.54-.3,1.62-.69,3.04-.69,2.61,0,3.44,1.54,3.44,3.38v2.72c0,.75.03,1.47.11,1.9h-2.19ZM337.85,107.47c-1.28-.02-2.27.29-2.27,1.23,0,.62.42.93.96.93.61,0,1.1-.4,1.26-.9.03-.13.05-.27.05-.42v-.85Z"/>
        <path class="cls-4" d="M349.72,99.81v9.03c0,.88.03,1.81.06,2.34h-2.16l-.11-1.15h-.03c-.5.88-1.44,1.33-2.45,1.33-1.86,0-3.35-1.58-3.35-4.02-.02-2.64,1.63-4.16,3.51-4.16.96,0,1.71.34,2.06.88h.03v-4.24h2.43ZM347.29,106.66c0-.13-.02-.3-.03-.43-.14-.66-.67-1.2-1.42-1.2-1.1,0-1.68.99-1.68,2.23,0,1.33.66,2.16,1.66,2.16.7,0,1.26-.48,1.41-1.17.05-.18.06-.35.06-.56v-1.02Z"/>
        <path class="cls-4" d="M359.4,107.17c0,2.87-2.03,4.18-4.13,4.18-2.29,0-4.05-1.5-4.05-4.03s1.66-4.15,4.18-4.15,4,1.65,4,4ZM353.73,107.25c0,1.34.56,2.35,1.6,2.35.94,0,1.55-.94,1.55-2.35,0-1.17-.45-2.35-1.55-2.35-1.17,0-1.6,1.2-1.6,2.35Z"/>
        <path class="cls-4" d="M360.9,105.92c0-1.15-.03-1.9-.06-2.58h2.1l.08,1.44h.06c.4-1.14,1.36-1.62,2.11-1.62.22,0,.34,0,.51.03v2.29c-.18-.03-.38-.06-.66-.06-.9,0-1.5.48-1.67,1.23-.03.16-.05.35-.05.54v3.97h-2.43v-5.25Z"/>
        <path class="cls-4" d="M368.73,108.03c.08,1.01,1.07,1.49,2.21,1.49.83,0,1.5-.11,2.16-.32l.32,1.65c-.8.32-1.78.48-2.83.48-2.66,0-4.18-1.54-4.18-3.99,0-1.98,1.23-4.18,3.95-4.18,2.53,0,3.49,1.97,3.49,3.91,0,.42-.05.78-.08.96h-5.04ZM371.59,106.37c0-.59-.26-1.58-1.38-1.58-1.02,0-1.44.93-1.5,1.58h2.88Z"/>
        <path class="cls-4" d="M375.29,109.04c.45.27,1.38.59,2.1.59s1.04-.26,1.04-.66-.24-.59-1.15-.9c-1.62-.54-2.24-1.42-2.22-2.35,0-1.46,1.25-2.56,3.19-2.56.91,0,1.73.21,2.21.45l-.43,1.68c-.35-.19-1.02-.45-1.7-.45-.59,0-.93.24-.93.64,0,.37.3.56,1.26.9,1.49.51,2.11,1.26,2.13,2.42,0,1.46-1.15,2.53-3.39,2.53-1.02,0-1.94-.22-2.53-.54l.43-1.74Z"/>
        <path class="cls-4" d="M393.06,99.81v9.03c0,.88.03,1.81.06,2.34h-2.16l-.11-1.15h-.03c-.5.88-1.44,1.33-2.45,1.33-1.86,0-3.35-1.58-3.35-4.02-.02-2.64,1.63-4.16,3.51-4.16.96,0,1.71.34,2.06.88h.03v-4.24h2.43ZM390.63,106.66c0-.13-.02-.3-.03-.43-.14-.66-.67-1.2-1.42-1.2-1.1,0-1.68.99-1.68,2.23,0,1.33.66,2.16,1.67,2.16.7,0,1.26-.48,1.41-1.17.05-.18.06-.35.06-.56v-1.02Z"/>
        <path class="cls-4" d="M402.74,107.17c0,2.87-2.03,4.18-4.13,4.18-2.29,0-4.05-1.5-4.05-4.03s1.67-4.15,4.18-4.15,4,1.65,4,4ZM397.08,107.25c0,1.34.56,2.35,1.6,2.35.94,0,1.55-.94,1.55-2.35,0-1.17-.45-2.35-1.55-2.35-1.17,0-1.6,1.2-1.6,2.35Z"/>
        <path class="cls-4" d="M404.23,109.04c.45.27,1.38.59,2.1.59s1.04-.26,1.04-.66-.24-.59-1.15-.9c-1.62-.54-2.24-1.42-2.23-2.35,0-1.46,1.25-2.56,3.19-2.56.91,0,1.73.21,2.21.45l-.43,1.68c-.35-.19-1.02-.45-1.7-.45-.59,0-.93.24-.93.64,0,.37.3.56,1.26.9,1.49.51,2.11,1.26,2.13,2.42,0,1.46-1.15,2.53-3.39,2.53-1.02,0-1.94-.22-2.53-.54l.43-1.74Z"/>
        <path class="cls-4" d="M316.97,125.04c0-.98-.03-1.81-.06-2.5h2.05l.11,1.06h.05c.34-.5,1.02-1.23,2.37-1.23,1.01,0,1.81.51,2.15,1.33h.03c.29-.4.64-.72,1.01-.94.43-.26.91-.38,1.49-.38,1.5,0,2.64,1.06,2.64,3.39v4.61h-2.37v-4.26c0-1.14-.37-1.79-1.15-1.79-.56,0-.96.38-1.12.85-.06.18-.1.43-.1.62v4.58h-2.37v-4.39c0-.99-.35-1.66-1.12-1.66-.62,0-.99.48-1.14.88-.08.19-.1.42-.1.61v4.56h-2.37v-5.33Z"/>
        <path class="cls-4" d="M338.11,127.86c0,1.02.03,1.86.06,2.51h-2.11l-.11-1.1h-.05c-.3.48-1.04,1.28-2.45,1.28-1.58,0-2.75-.99-2.75-3.41v-4.59h2.45v4.21c0,1.14.37,1.82,1.22,1.82.67,0,1.06-.46,1.22-.85.06-.14.08-.34.08-.53v-4.66h2.45v5.31Z"/>
        <path class="cls-4" d="M340.06,125.04c0-.98-.03-1.81-.06-2.5h2.11l.11,1.07h.05c.32-.5,1.12-1.25,2.42-1.25,1.6,0,2.8,1.06,2.8,3.36v4.64h-2.43v-4.34c0-1.01-.35-1.7-1.23-1.7-.67,0-1.07.46-1.23.91-.06.14-.1.38-.1.61v4.51h-2.43v-5.33Z"/>
        <path class="cls-4" d="M351.95,120.37c0,.67-.51,1.22-1.31,1.22s-1.28-.54-1.26-1.22c-.02-.7.5-1.23,1.28-1.23s1.28.53,1.3,1.23ZM349.44,130.37v-7.83h2.43v7.83h-2.43Z"/>
        <path class="cls-4" d="M359.69,130.18c-.43.19-1.25.35-2.18.35-2.53,0-4.15-1.54-4.15-4,0-2.29,1.57-4.16,4.48-4.16.64,0,1.34.11,1.86.3l-.38,1.81c-.29-.13-.72-.24-1.36-.24-1.28,0-2.11.91-2.1,2.19,0,1.44.96,2.19,2.14,2.19.58,0,1.02-.1,1.39-.24l.29,1.79Z"/>
        <path class="cls-4" d="M361.04,130.37v-7.83h2.43v7.83h-2.43ZM364.85,119.13l-1.95,2.43h-1.68l1.38-2.43h2.26Z"/>
        <path class="cls-4" d="M365.42,125.17c0-1.02-.03-1.9-.06-2.62h2.11l.11,1.09h.03c.58-.83,1.47-1.26,2.61-1.26,1.71,0,3.25,1.49,3.25,3.99,0,2.85-1.81,4.19-3.55,4.19-.94,0-1.68-.38-2.03-.9h-.03v3.89h-2.43v-8.37ZM367.85,127.01c0,.19.02.37.05.51.16.66.72,1.15,1.42,1.15,1.06,0,1.68-.88,1.68-2.21,0-1.25-.56-2.19-1.65-2.19-.69,0-1.3.51-1.46,1.23-.03.13-.05.29-.05.43v1.07Z"/>
        <path class="cls-4" d="M377.5,120.37c0,.67-.51,1.22-1.31,1.22s-1.28-.54-1.26-1.22c-.02-.7.5-1.23,1.28-1.23s1.28.53,1.3,1.23ZM374.99,130.37v-7.83h2.43v7.83h-2.43Z"/>
        <path class="cls-4" d="M387.1,126.37c0,2.87-2.03,4.18-4.13,4.18-2.29,0-4.05-1.5-4.05-4.03s1.66-4.15,4.18-4.15,4,1.65,4,4ZM381.44,126.45c0,1.34.56,2.35,1.6,2.35.94,0,1.55-.94,1.55-2.35,0-1.17-.45-2.35-1.55-2.35-1.17,0-1.6,1.2-1.6,2.35Z"/>
        <path class="cls-4" d="M388.59,128.24c.45.27,1.38.59,2.1.59s1.04-.26,1.04-.66-.24-.59-1.15-.9c-1.62-.54-2.24-1.42-2.22-2.35,0-1.46,1.25-2.56,3.19-2.56.91,0,1.73.21,2.21.45l-.43,1.68c-.35-.19-1.02-.45-1.7-.45-.59,0-.93.24-.93.64,0,.37.3.56,1.26.9,1.49.51,2.11,1.26,2.13,2.42,0,1.46-1.15,2.53-3.39,2.53-1.02,0-1.94-.22-2.53-.54l.43-1.74Z"/>
      </g>
    </g>
    <g id="circle-2">
      <g>
        <circle class="cls-2" cx="613.49" cy="302.53" r="79.73"/>
        <path class="cls-3" d="M613.49,384.76c-45.34,0-82.23-36.89-82.23-82.23s36.89-82.23,82.23-82.23,82.23,36.89,82.23,82.23-36.89,82.23-82.23,82.23ZM613.49,225.31c-42.58,0-77.23,34.64-77.23,77.23s34.64,77.23,77.23,77.23,77.23-34.64,77.23-77.23-34.64-77.23-77.23-77.23Z"/>
      </g>
      <g>
        <path class="cls-4" d="M565.88,283.23l-.77,2.77h-2.53l3.3-10.79h3.2l3.35,10.79h-2.62l-.83-2.77h-3.09ZM568.62,281.4l-.67-2.29c-.19-.64-.38-1.44-.54-2.08h-.03c-.16.64-.32,1.46-.5,2.08l-.64,2.29h2.39Z"/>
        <path class="cls-4" d="M573.72,283.87c.45.27,1.38.59,2.1.59s1.04-.26,1.04-.66-.24-.59-1.15-.9c-1.62-.54-2.24-1.42-2.23-2.35,0-1.46,1.25-2.56,3.19-2.56.91,0,1.73.21,2.21.45l-.43,1.68c-.35-.19-1.02-.45-1.7-.45-.59,0-.93.24-.93.64,0,.37.3.56,1.26.9,1.49.51,2.11,1.26,2.13,2.42,0,1.46-1.15,2.53-3.39,2.53-1.02,0-1.94-.22-2.53-.54l.43-1.74Z"/>
        <path class="cls-4" d="M588.36,286l-.14-.78h-.05c-.51.62-1.31.96-2.24.96-1.58,0-2.53-1.15-2.53-2.4,0-2.03,1.83-3.01,4.59-2.99v-.11c0-.42-.22-1.01-1.42-1.01-.8,0-1.65.27-2.16.59l-.45-1.57c.54-.3,1.62-.69,3.04-.69,2.61,0,3.44,1.54,3.44,3.38v2.72c0,.75.03,1.47.11,1.9h-2.19ZM588.08,282.3c-1.28-.02-2.27.29-2.27,1.23,0,.62.42.93.96.93.61,0,1.1-.4,1.26-.9.03-.13.05-.27.05-.42v-.85Z"/>
        <path class="cls-4" d="M592.35,283.87c.45.27,1.38.59,2.1.59s1.04-.26,1.04-.66-.24-.59-1.15-.9c-1.62-.54-2.24-1.42-2.23-2.35,0-1.46,1.25-2.56,3.19-2.56.91,0,1.73.21,2.21.45l-.43,1.68c-.35-.19-1.02-.45-1.7-.45-.59,0-.93.24-.93.64,0,.37.3.56,1.26.9,1.49.51,2.11,1.26,2.13,2.42,0,1.46-1.15,2.53-3.39,2.53-1.02,0-1.94-.22-2.53-.54l.43-1.74Z"/>
        <path class="cls-4" d="M599.29,283.87c.45.27,1.38.59,2.1.59s1.04-.26,1.04-.66-.24-.59-1.15-.9c-1.62-.54-2.24-1.42-2.22-2.35,0-1.46,1.25-2.56,3.19-2.56.91,0,1.73.21,2.21.45l-.43,1.68c-.35-.19-1.02-.45-1.7-.45-.59,0-.93.24-.93.64,0,.37.3.56,1.26.9,1.49.51,2.11,1.26,2.13,2.42,0,1.46-1.15,2.53-3.39,2.53-1.02,0-1.94-.22-2.53-.54l.43-1.74Z"/>
        <path class="cls-4" d="M608.12,282.86c.08,1.01,1.07,1.49,2.21,1.49.83,0,1.5-.11,2.16-.32l.32,1.65c-.8.32-1.78.48-2.83.48-2.66,0-4.18-1.54-4.18-3.99,0-1.98,1.23-4.18,3.95-4.18,2.53,0,3.49,1.97,3.49,3.91,0,.42-.05.78-.08.96h-5.04ZM610.99,281.19c0-.59-.26-1.58-1.38-1.58-1.02,0-1.44.93-1.5,1.58h2.88Z"/>
        <path class="cls-4" d="M614.7,280.67c0-.98-.03-1.81-.06-2.5h2.05l.11,1.06h.05c.34-.5,1.02-1.23,2.37-1.23,1.01,0,1.81.51,2.14,1.33h.03c.29-.4.64-.72,1.01-.94.43-.26.91-.38,1.49-.38,1.5,0,2.64,1.06,2.64,3.39v4.61h-2.37v-4.26c0-1.14-.37-1.79-1.15-1.79-.56,0-.96.38-1.12.85-.06.18-.1.43-.1.62v4.58h-2.37v-4.39c0-.99-.35-1.66-1.12-1.66-.62,0-.99.48-1.14.88-.08.19-.1.42-.1.61v4.56h-2.37v-5.33Z"/>
        <path class="cls-4" d="M628.39,286c.03-.51.06-1.46.06-2.34v-9.03h2.43v4.47h.03c.46-.67,1.28-1.1,2.37-1.1,1.87,0,3.25,1.55,3.23,3.95,0,2.82-1.79,4.23-3.58,4.23-.91,0-1.79-.34-2.35-1.26h-.03l-.1,1.09h-2.06ZM630.89,282.67c0,.16.02.3.05.43.16.66.72,1.15,1.42,1.15,1.04,0,1.68-.8,1.68-2.21,0-1.22-.54-2.18-1.68-2.18-.66,0-1.26.5-1.42,1.2-.03.14-.05.29-.05.45v1.15Z"/>
        <path class="cls-4" d="M638.03,274.63h2.43v11.36h-2.43v-11.36Z"/>
        <path class="cls-4" d="M644.3,282.86c.08,1.01,1.07,1.49,2.21,1.49.83,0,1.5-.11,2.16-.32l.32,1.65c-.8.32-1.78.48-2.83.48-2.66,0-4.18-1.54-4.18-3.99,0-1.98,1.23-4.18,3.95-4.18,2.53,0,3.49,1.97,3.49,3.91,0,.42-.05.78-.08.96h-5.04ZM647.16,281.19c0-.59-.26-1.58-1.38-1.58-1.02,0-1.44.93-1.5,1.58h2.88Z"/>
        <path class="cls-4" d="M653.39,275.99c0,.67-.51,1.22-1.31,1.22s-1.28-.54-1.26-1.22c-.02-.7.5-1.23,1.28-1.23s1.28.53,1.3,1.23ZM650.88,286v-7.83h2.43v7.83h-2.43Z"/>
        <path class="cls-4" d="M659.71,286l-.14-.78h-.05c-.51.62-1.31.96-2.24.96-1.58,0-2.53-1.15-2.53-2.4,0-2.03,1.83-3.01,4.59-2.99v-.11c0-.42-.22-1.01-1.42-1.01-.8,0-1.65.27-2.16.59l-.45-1.57c.54-.3,1.62-.69,3.04-.69,2.61,0,3.44,1.54,3.44,3.38v2.72c0,.75.03,1.47.11,1.9h-2.19ZM659.42,282.3c-1.28-.02-2.27.29-2.27,1.23,0,.62.42.93.96.93.61,0,1.1-.4,1.26-.9.03-.13.05-.27.05-.42v-.85Z"/>
        <path class="cls-4" d="M663.69,283.87c.45.27,1.38.59,2.1.59s1.04-.26,1.04-.66-.24-.59-1.15-.9c-1.62-.54-2.24-1.42-2.23-2.35,0-1.46,1.25-2.56,3.19-2.56.91,0,1.73.21,2.21.45l-.43,1.68c-.35-.19-1.02-.45-1.7-.45-.59,0-.93.24-.93.64,0,.37.3.56,1.26.9,1.49.51,2.11,1.26,2.13,2.42,0,1.46-1.15,2.53-3.39,2.53-1.02,0-1.94-.22-2.53-.54l.43-1.74Z"/>
        <path class="cls-4" d="M576.83,293.83h2.43v11.36h-2.43v-11.36Z"/>
        <path class="cls-4" d="M583.11,302.06c.08,1.01,1.07,1.49,2.21,1.49.83,0,1.5-.11,2.16-.32l.32,1.65c-.8.32-1.78.48-2.83.48-2.66,0-4.18-1.54-4.18-3.99,0-1.98,1.23-4.18,3.95-4.18,2.53,0,3.49,1.97,3.49,3.91,0,.42-.05.78-.08.96h-5.04ZM585.97,300.39c0-.59-.26-1.58-1.38-1.58-1.02,0-1.44.93-1.5,1.58h2.88Z"/>
        <path class="cls-4" d="M597.16,297.37c-.03.5-.06,1.15-.06,2.32v4.37c0,1.5-.3,2.74-1.18,3.52-.87.74-2.03.96-3.19.96-1.02,0-2.11-.21-2.82-.61l.48-1.84c.5.29,1.36.59,2.27.59,1.15,0,2.03-.62,2.03-2.06v-.51h-.03c-.46.66-1.22,1.02-2.11,1.02-1.94,0-3.31-1.57-3.31-3.83,0-2.51,1.63-4.11,3.55-4.11,1.07,0,1.75.46,2.15,1.1h.03l.08-.93h2.11ZM594.66,300.55c0-.16-.02-.32-.05-.45-.18-.64-.64-1.07-1.31-1.07-.88,0-1.6.8-1.6,2.23,0,1.17.58,2.08,1.6,2.08.62,0,1.12-.42,1.28-.99.06-.18.08-.43.08-.64v-1.15Z"/>
        <path class="cls-4" d="M601.55,295.19c0,.67-.51,1.22-1.31,1.22s-1.28-.54-1.26-1.22c-.02-.7.5-1.23,1.28-1.23s1.28.53,1.3,1.23ZM599.04,305.2v-7.83h2.43v7.83h-2.43Z"/>
        <path class="cls-4" d="M603.41,303.07c.45.27,1.38.59,2.1.59s1.04-.26,1.04-.66-.24-.59-1.15-.9c-1.62-.54-2.24-1.42-2.22-2.35,0-1.46,1.25-2.56,3.19-2.56.91,0,1.73.21,2.21.45l-.43,1.68c-.35-.19-1.02-.45-1.7-.45-.59,0-.93.24-.93.64,0,.37.3.56,1.26.9,1.49.51,2.11,1.26,2.13,2.42,0,1.46-1.15,2.53-3.39,2.53-1.02,0-1.94-.22-2.53-.54l.43-1.74Z"/>
        <path class="cls-4" d="M610.37,293.83h2.43v11.36h-2.43v-11.36Z"/>
        <path class="cls-4" d="M619.22,305.2l-.14-.78h-.05c-.51.62-1.31.96-2.24.96-1.58,0-2.53-1.15-2.53-2.4,0-2.03,1.82-3.01,4.59-2.99v-.11c0-.42-.22-1.01-1.42-1.01-.8,0-1.65.27-2.16.59l-.45-1.57c.54-.3,1.62-.69,3.04-.69,2.61,0,3.44,1.54,3.44,3.38v2.72c0,.75.03,1.47.11,1.9h-2.19ZM618.93,301.5c-1.28-.02-2.27.29-2.27,1.23,0,.62.42.93.96.93.61,0,1.1-.4,1.26-.9.03-.13.05-.27.05-.42v-.85Z"/>
        <path class="cls-4" d="M625.81,295.13v2.24h1.75v1.79h-1.75v2.83c0,.94.22,1.38.96,1.38.3,0,.54-.03.72-.06l.02,1.84c-.32.13-.9.21-1.58.21-.78,0-1.44-.27-1.83-.67-.45-.46-.67-1.22-.67-2.32v-3.2h-1.04v-1.79h1.04v-1.7l2.38-.54Z"/>
        <path class="cls-4" d="M631.47,295.19c0,.67-.51,1.22-1.31,1.22s-1.28-.54-1.26-1.22c-.02-.7.5-1.23,1.28-1.23s1.28.53,1.3,1.23ZM628.96,305.2v-7.83h2.43v7.83h-2.43Z"/>
        <path class="cls-4" d="M635.15,297.37l1.06,3.63c.19.66.34,1.28.45,1.9h.05c.13-.64.26-1.23.43-1.9l1.01-3.63h2.56l-2.91,7.83h-2.43l-2.85-7.83h2.64Z"/>
        <path class="cls-4" d="M646.16,305.2l-.14-.78h-.05c-.51.62-1.31.96-2.24.96-1.58,0-2.53-1.15-2.53-2.4,0-2.03,1.83-3.01,4.59-2.99v-.11c0-.42-.22-1.01-1.42-1.01-.8,0-1.65.27-2.16.59l-.45-1.57c.54-.3,1.62-.69,3.04-.69,2.61,0,3.44,1.54,3.44,3.38v2.72c0,.75.03,1.47.11,1.9h-2.19ZM645.88,301.5c-1.28-.02-2.27.29-2.27,1.23,0,.62.42.93.96.93.61,0,1.1-.4,1.26-.9.03-.13.05-.27.05-.42v-.85Z"/>
        <path class="cls-4" d="M650.15,303.07c.45.27,1.38.59,2.1.59s1.04-.26,1.04-.66-.24-.59-1.15-.9c-1.62-.54-2.24-1.42-2.22-2.35,0-1.46,1.25-2.56,3.19-2.56.91,0,1.73.21,2.21.45l-.43,1.68c-.35-.19-1.02-.45-1.7-.45-.59,0-.93.24-.93.64,0,.37.3.56,1.26.9,1.49.51,2.11,1.26,2.13,2.42,0,1.46-1.15,2.53-3.39,2.53-1.02,0-1.94-.22-2.53-.54l.43-1.74Z"/>
        <path class="cls-4" d="M582.37,313.03v9.03c0,.88.03,1.81.06,2.34h-2.16l-.11-1.15h-.03c-.5.88-1.44,1.33-2.45,1.33-1.86,0-3.35-1.58-3.35-4.02-.02-2.64,1.63-4.16,3.51-4.16.96,0,1.71.34,2.06.88h.03v-4.24h2.43ZM579.94,319.88c0-.13-.02-.3-.03-.43-.14-.66-.67-1.2-1.42-1.2-1.1,0-1.68.99-1.68,2.23,0,1.33.66,2.16,1.67,2.16.7,0,1.26-.48,1.41-1.17.05-.18.06-.35.06-.56v-1.02Z"/>
        <path class="cls-4" d="M592.05,320.39c0,2.87-2.03,4.18-4.13,4.18-2.29,0-4.05-1.5-4.05-4.03s1.66-4.15,4.18-4.15,4,1.65,4,4ZM586.39,320.47c0,1.34.56,2.35,1.6,2.35.94,0,1.55-.94,1.55-2.35,0-1.17-.45-2.35-1.55-2.35-1.17,0-1.6,1.2-1.6,2.35Z"/>
        <path class="cls-4" d="M593.54,322.27c.45.27,1.38.59,2.1.59s1.04-.26,1.04-.66-.24-.59-1.15-.9c-1.62-.54-2.24-1.42-2.22-2.35,0-1.46,1.25-2.56,3.19-2.56.91,0,1.73.21,2.21.45l-.43,1.68c-.35-.19-1.02-.45-1.7-.45-.59,0-.93.24-.93.64,0,.37.3.56,1.26.9,1.49.51,2.11,1.26,2.13,2.42,0,1.46-1.15,2.53-3.39,2.53-1.02,0-1.94-.22-2.53-.54l.43-1.74Z"/>
        <path class="cls-4" d="M605.6,321.26c.08,1.01,1.07,1.49,2.21,1.49.83,0,1.5-.11,2.16-.32l.32,1.65c-.8.32-1.78.48-2.83.48-2.66,0-4.18-1.54-4.18-3.99,0-1.98,1.23-4.18,3.95-4.18,2.53,0,3.49,1.97,3.49,3.91,0,.42-.05.78-.08.96h-5.04ZM608.47,319.59c0-.59-.26-1.58-1.38-1.58-1.02,0-1.44.93-1.5,1.58h2.88Z"/>
        <path class="cls-4" d="M612.16,322.27c.45.27,1.38.59,2.1.59s1.04-.26,1.04-.66-.24-.59-1.15-.9c-1.62-.54-2.24-1.42-2.23-2.35,0-1.46,1.25-2.56,3.19-2.56.91,0,1.73.21,2.21.45l-.43,1.68c-.35-.19-1.02-.45-1.7-.45-.59,0-.93.24-.93.64,0,.37.3.56,1.26.9,1.49.51,2.11,1.26,2.13,2.42,0,1.46-1.15,2.53-3.39,2.53-1.02,0-1.94-.22-2.53-.54l.43-1.74Z"/>
        <path class="cls-4" d="M621.84,314.33v2.24h1.75v1.79h-1.75v2.83c0,.94.22,1.38.96,1.38.3,0,.54-.03.72-.06l.02,1.84c-.32.13-.9.21-1.58.21-.78,0-1.44-.27-1.82-.67-.45-.46-.67-1.22-.67-2.32v-3.2h-1.04v-1.79h1.04v-1.7l2.38-.54Z"/>
        <path class="cls-4" d="M629.44,324.4l-.14-.78h-.05c-.51.62-1.31.96-2.24.96-1.58,0-2.53-1.15-2.53-2.4,0-2.03,1.83-3.01,4.59-2.99v-.11c0-.42-.22-1.01-1.42-1.01-.8,0-1.65.27-2.16.59l-.45-1.57c.54-.3,1.62-.69,3.04-.69,2.61,0,3.44,1.54,3.44,3.38v2.72c0,.75.03,1.47.11,1.9h-2.19ZM629.15,320.7c-1.28-.02-2.27.29-2.27,1.23,0,.62.42.93.96.93.61,0,1.1-.4,1.26-.9.03-.13.05-.27.05-.42v-.85Z"/>
        <path class="cls-4" d="M641.03,313.03v9.03c0,.88.03,1.81.06,2.34h-2.16l-.11-1.15h-.03c-.5.88-1.44,1.33-2.45,1.33-1.86,0-3.34-1.58-3.34-4.02-.02-2.64,1.63-4.16,3.5-4.16.96,0,1.71.34,2.07.88h.03v-4.24h2.43ZM638.59,319.88c0-.13-.02-.3-.03-.43-.14-.66-.67-1.2-1.42-1.2-1.1,0-1.68.99-1.68,2.23,0,1.33.66,2.16,1.66,2.16.71,0,1.26-.48,1.41-1.17.05-.18.06-.35.06-.56v-1.02Z"/>
        <path class="cls-4" d="M650.71,320.39c0,2.87-2.03,4.18-4.13,4.18-2.29,0-4.05-1.5-4.05-4.03s1.66-4.15,4.18-4.15,4,1.65,4,4ZM645.04,320.47c0,1.34.56,2.35,1.6,2.35.94,0,1.55-.94,1.55-2.35,0-1.17-.45-2.35-1.55-2.35-1.17,0-1.6,1.2-1.6,2.35Z"/>
        <path class="cls-4" d="M652.19,322.27c.45.27,1.38.59,2.1.59s1.04-.26,1.04-.66-.24-.59-1.15-.9c-1.62-.54-2.24-1.42-2.22-2.35,0-1.46,1.25-2.56,3.19-2.56.91,0,1.73.21,2.21.45l-.43,1.68c-.35-.19-1.02-.45-1.7-.45-.59,0-.93.24-.93.64,0,.37.3.56,1.26.9,1.49.51,2.11,1.26,2.13,2.42,0,1.46-1.15,2.53-3.39,2.53-1.02,0-1.94-.22-2.53-.54l.43-1.74Z"/>
      </g>
    </g>
    <g id="circle-3">
      <g>
        <circle class="cls-2" cx="483.91" cy="588.85" r="79.73"/>
        <path class="cls-3" d="M483.91,671.08c-45.34,0-82.23-36.89-82.23-82.23s36.89-82.23,82.23-82.23,82.23,36.89,82.23,82.23-36.89,82.23-82.23,82.23ZM483.91,511.62c-42.58,0-77.23,34.64-77.23,77.23s34.64,77.23,77.23,77.23,77.23-34.64,77.23-77.23-34.64-77.23-77.23-77.23Z"/>
      </g>
      <g>
        <path class="cls-4" d="M460.26,584.72c-.05-1.3-.1-2.87-.1-4.43h-.05c-.34,1.38-.78,2.91-1.2,4.18l-1.31,4.21h-1.91l-1.15-4.18c-.35-1.26-.72-2.8-.98-4.21h-.03c-.06,1.46-.11,3.12-.19,4.47l-.19,4.1h-2.26l.69-10.79h3.25l1.06,3.6c.34,1.25.67,2.59.91,3.86h.05c.3-1.25.67-2.67,1.02-3.87l1.15-3.59h3.18l.59,10.79h-2.38l-.16-4.13Z"/>
        <path class="cls-4" d="M467.2,578.85c0,.67-.51,1.22-1.31,1.22s-1.28-.54-1.26-1.22c-.02-.71.5-1.23,1.28-1.23s1.28.53,1.3,1.23ZM464.69,588.85v-7.83h2.43v7.83h-2.43Z"/>
        <path class="cls-4" d="M469.07,583.52c0-.98-.03-1.81-.06-2.5h2.11l.11,1.07h.05c.32-.5,1.12-1.25,2.42-1.25,1.6,0,2.8,1.06,2.8,3.36v4.64h-2.43v-4.34c0-1.01-.35-1.7-1.23-1.7-.67,0-1.07.46-1.23.91-.06.14-.1.38-.1.61v4.51h-2.43v-5.33Z"/>
        <path class="cls-4" d="M480.96,578.85c0,.67-.51,1.22-1.31,1.22s-1.28-.54-1.26-1.22c-.02-.71.5-1.23,1.28-1.23s1.28.53,1.3,1.23ZM478.45,588.85v-7.83h2.43v7.83h-2.43Z"/>
        <path class="cls-4" d="M482.82,586.72c.45.27,1.38.59,2.1.59s1.04-.26,1.04-.66-.24-.59-1.15-.9c-1.62-.54-2.24-1.42-2.22-2.35,0-1.46,1.25-2.56,3.19-2.56.91,0,1.73.21,2.21.45l-.43,1.68c-.35-.19-1.02-.45-1.7-.45-.59,0-.93.24-.93.64,0,.37.3.56,1.26.9,1.49.51,2.11,1.26,2.13,2.42,0,1.46-1.15,2.53-3.39,2.53-1.02,0-1.94-.22-2.53-.54l.43-1.74Z"/>
        <path class="cls-4" d="M492.5,578.79v2.24h1.75v1.79h-1.75v2.83c0,.94.22,1.38.96,1.38.3,0,.54-.03.72-.06l.02,1.84c-.32.13-.9.21-1.58.21-.78,0-1.44-.27-1.82-.67-.45-.46-.67-1.22-.67-2.32v-3.2h-1.04v-1.79h1.04v-1.7l2.38-.54Z"/>
        <path class="cls-4" d="M497.44,585.72c.08,1.01,1.07,1.49,2.21,1.49.83,0,1.5-.11,2.16-.32l.32,1.65c-.8.32-1.78.48-2.83.48-2.66,0-4.18-1.54-4.18-3.99,0-1.98,1.23-4.18,3.95-4.18,2.53,0,3.49,1.97,3.49,3.91,0,.42-.05.78-.08.96h-5.04ZM500.31,584.05c0-.59-.26-1.58-1.38-1.58-1.02,0-1.44.93-1.5,1.58h2.88ZM501.65,577.62l-1.95,2.43h-1.68l1.38-2.43h2.26Z"/>
        <path class="cls-4" d="M504.02,583.6c0-1.15-.03-1.91-.06-2.58h2.1l.08,1.44h.06c.4-1.14,1.36-1.62,2.11-1.62.22,0,.34,0,.51.03v2.29c-.18-.03-.38-.06-.66-.06-.9,0-1.5.48-1.67,1.23-.03.16-.05.35-.05.54v3.97h-2.43v-5.25Z"/>
        <path class="cls-4" d="M512.61,578.85c0,.67-.51,1.22-1.31,1.22s-1.28-.54-1.26-1.22c-.02-.71.5-1.23,1.28-1.23s1.28.53,1.3,1.23ZM510.1,588.85v-7.83h2.43v7.83h-2.43Z"/>
        <path class="cls-4" d="M522.21,584.85c0,2.87-2.03,4.18-4.13,4.18-2.29,0-4.05-1.5-4.05-4.03s1.66-4.15,4.18-4.15,4,1.65,4,4ZM516.55,584.93c0,1.34.56,2.35,1.6,2.35.94,0,1.55-.94,1.55-2.35,0-1.17-.45-2.35-1.55-2.35-1.17,0-1.6,1.2-1.6,2.35Z"/>
        <path class="cls-4" d="M460.92,597.41c.75-.13,1.81-.22,3.3-.22s2.58.29,3.3.86c.69.54,1.15,1.44,1.15,2.5s-.35,1.95-.99,2.56c-.83.78-2.07,1.14-3.51,1.14-.32,0-.61-.02-.83-.05v3.86h-2.42v-10.64ZM463.34,602.31c.21.05.46.06.82.06,1.3,0,2.1-.66,2.1-1.76,0-.99-.69-1.58-1.9-1.58-.5,0-.83.05-1.01.1v3.19Z"/>
        <path class="cls-4" d="M477.36,605.54c0,1.02.03,1.86.06,2.51h-2.11l-.11-1.1h-.05c-.3.48-1.04,1.28-2.45,1.28-1.58,0-2.75-.99-2.75-3.41v-4.59h2.45v4.21c0,1.14.37,1.83,1.22,1.83.67,0,1.06-.46,1.22-.85.06-.14.08-.34.08-.53v-4.66h2.45v5.31ZM476.3,596.82l-1.95,2.43h-1.68l1.38-2.43h2.26Z"/>
        <path class="cls-4" d="M479.24,608.05c.03-.51.06-1.46.06-2.34v-9.03h2.43v4.47h.03c.46-.67,1.28-1.1,2.37-1.1,1.87,0,3.25,1.55,3.23,3.95,0,2.82-1.79,4.23-3.59,4.23-.91,0-1.79-.34-2.35-1.26h-.03l-.1,1.09h-2.06ZM481.74,604.72c0,.16.02.3.05.43.16.66.72,1.15,1.42,1.15,1.04,0,1.68-.8,1.68-2.21,0-1.22-.54-2.18-1.68-2.18-.66,0-1.26.5-1.42,1.2-.03.14-.05.29-.05.45v1.15Z"/>
        <path class="cls-4" d="M488.87,596.69h2.43v11.37h-2.43v-11.37Z"/>
        <path class="cls-4" d="M495.79,598.05c0,.67-.51,1.22-1.31,1.22s-1.28-.54-1.26-1.22c-.02-.71.5-1.23,1.28-1.23s1.28.53,1.3,1.23ZM493.27,608.05v-7.83h2.43v7.83h-2.43Z"/>
        <path class="cls-4" d="M503.53,607.86c-.43.19-1.25.35-2.18.35-2.53,0-4.15-1.54-4.15-4,0-2.29,1.57-4.16,4.48-4.16.64,0,1.34.11,1.86.3l-.38,1.81c-.29-.13-.72-.24-1.36-.24-1.28,0-2.11.91-2.1,2.19,0,1.44.96,2.19,2.14,2.19.58,0,1.02-.1,1.39-.24l.29,1.79Z"/>
        <path class="cls-4" d="M512.43,604.05c0,2.87-2.03,4.18-4.13,4.18-2.29,0-4.05-1.5-4.05-4.03s1.67-4.15,4.18-4.15,4,1.65,4,4ZM506.76,604.13c0,1.34.56,2.35,1.6,2.35.94,0,1.55-.94,1.55-2.35,0-1.17-.45-2.35-1.55-2.35-1.17,0-1.6,1.2-1.6,2.35Z"/>
      </g>
    </g>
    <g id="circle-4">
      <g>
        <circle class="cls-2" cx="222.88" cy="588.85" r="79.73"/>
        <path class="cls-3" d="M222.88,671.08c-45.34,0-82.23-36.89-82.23-82.23s36.89-82.23,82.23-82.23,82.23,36.89,82.23,82.23-36.89,82.23-82.23,82.23ZM222.88,511.62c-42.58,0-77.23,34.64-77.23,77.23s34.64,77.23,77.23,77.23,77.23-34.64,77.23-77.23-34.64-77.23-77.23-77.23Z"/>
      </g>
      <g>
        <path class="cls-4" d="M194.51,588.55c-.45.22-1.46.46-2.77.46-3.73,0-5.65-2.32-5.65-5.39,0-3.68,2.62-5.73,5.89-5.73,1.26,0,2.22.26,2.66.48l-.5,1.94c-.5-.21-1.18-.4-2.05-.4-1.94,0-3.44,1.17-3.44,3.57,0,2.16,1.28,3.52,3.46,3.52.74,0,1.55-.16,2.03-.35l.37,1.9Z"/>
        <path class="cls-4" d="M203.46,584.85c0,2.87-2.03,4.18-4.13,4.18-2.29,0-4.05-1.5-4.05-4.03s1.66-4.15,4.18-4.15,4,1.65,4,4ZM197.79,584.93c0,1.34.56,2.35,1.6,2.35.94,0,1.55-.94,1.55-2.35,0-1.17-.45-2.35-1.55-2.35-1.17,0-1.6,1.2-1.6,2.35Z"/>
        <path class="cls-4" d="M204.96,583.52c0-.98-.03-1.81-.06-2.5h2.11l.11,1.07h.05c.32-.5,1.12-1.25,2.42-1.25,1.6,0,2.8,1.06,2.8,3.36v4.64h-2.43v-4.34c0-1.01-.35-1.7-1.23-1.7-.67,0-1.07.46-1.23.91-.06.14-.1.38-.1.61v4.51h-2.43v-5.33Z"/>
        <path class="cls-4" d="M221.81,581.03c-.03.5-.06,1.15-.06,2.32v4.37c0,1.5-.3,2.74-1.18,3.52-.86.74-2.03.96-3.19.96-1.02,0-2.11-.21-2.82-.61l.48-1.84c.5.29,1.36.59,2.27.59,1.15,0,2.03-.62,2.03-2.06v-.51h-.03c-.46.66-1.22,1.02-2.11,1.02-1.94,0-3.31-1.57-3.31-3.83,0-2.51,1.63-4.11,3.55-4.11,1.07,0,1.74.46,2.15,1.1h.03l.08-.93h2.11ZM219.31,584.21c0-.16-.02-.32-.05-.45-.18-.64-.64-1.07-1.31-1.07-.88,0-1.6.8-1.6,2.23,0,1.17.58,2.08,1.6,2.08.62,0,1.12-.42,1.28-.99.06-.18.08-.43.08-.64v-1.15Z"/>
        <path class="cls-4" d="M223.69,583.6c0-1.15-.03-1.91-.06-2.58h2.1l.08,1.44h.06c.4-1.14,1.36-1.62,2.11-1.62.22,0,.34,0,.51.03v2.29c-.18-.03-.38-.06-.66-.06-.9,0-1.5.48-1.66,1.23-.03.16-.05.35-.05.54v3.97h-2.43v-5.25Z"/>
        <path class="cls-4" d="M231.52,585.72c.08,1.01,1.07,1.49,2.21,1.49.83,0,1.5-.11,2.16-.32l.32,1.65c-.8.32-1.78.48-2.83.48-2.66,0-4.18-1.54-4.18-3.99,0-1.98,1.23-4.18,3.95-4.18,2.53,0,3.49,1.97,3.49,3.91,0,.42-.05.78-.08.96h-5.04ZM234.38,584.05c0-.59-.26-1.58-1.38-1.58-1.02,0-1.44.93-1.5,1.58h2.88Z"/>
        <path class="cls-4" d="M238.08,586.72c.45.27,1.38.59,2.1.59s1.04-.26,1.04-.66-.24-.59-1.15-.9c-1.62-.54-2.24-1.42-2.23-2.35,0-1.46,1.25-2.56,3.19-2.56.91,0,1.73.21,2.21.45l-.43,1.68c-.35-.19-1.02-.45-1.7-.45-.59,0-.93.24-.93.64,0,.37.3.56,1.26.9,1.49.51,2.11,1.26,2.13,2.42,0,1.46-1.15,2.53-3.39,2.53-1.02,0-1.94-.22-2.53-.54l.43-1.74Z"/>
        <path class="cls-4" d="M245.02,586.72c.45.27,1.38.59,2.1.59s1.04-.26,1.04-.66-.24-.59-1.15-.9c-1.62-.54-2.24-1.42-2.23-2.35,0-1.46,1.25-2.56,3.19-2.56.91,0,1.73.21,2.21.45l-.43,1.68c-.35-.19-1.02-.45-1.7-.45-.59,0-.93.24-.93.64,0,.37.3.56,1.26.9,1.49.51,2.11,1.26,2.13,2.42,0,1.46-1.15,2.53-3.39,2.53-1.02,0-1.94-.22-2.53-.54l.43-1.74Z"/>
        <path class="cls-4" d="M259.71,584.85c0,2.87-2.03,4.18-4.13,4.18-2.29,0-4.05-1.5-4.05-4.03s1.66-4.15,4.18-4.15,4,1.65,4,4ZM254.04,584.93c0,1.34.56,2.35,1.6,2.35.94,0,1.55-.94,1.55-2.35,0-1.17-.45-2.35-1.55-2.35-1.17,0-1.6,1.2-1.6,2.35Z"/>
        <path class="cls-4" d="M192.67,608.05v-10.79h2.85l2.24,3.95c.64,1.14,1.28,2.48,1.76,3.7h.05c-.16-1.42-.21-2.88-.21-4.5v-3.15h2.24v10.79h-2.56l-2.31-4.16c-.64-1.15-1.34-2.54-1.87-3.81l-.05.02c.06,1.42.1,2.94.1,4.71v3.25h-2.24Z"/>
        <path class="cls-4" d="M208.08,608.05l-.14-.78h-.05c-.51.62-1.31.96-2.24.96-1.58,0-2.53-1.15-2.53-2.4,0-2.03,1.82-3.01,4.59-2.99v-.11c0-.42-.22-1.01-1.42-1.01-.8,0-1.65.27-2.16.59l-.45-1.57c.54-.3,1.62-.69,3.04-.69,2.61,0,3.44,1.54,3.44,3.38v2.72c0,.75.03,1.47.11,1.91h-2.19ZM207.79,604.36c-1.28-.02-2.27.29-2.27,1.23,0,.62.42.93.96.93.61,0,1.1-.4,1.26-.9.03-.13.05-.27.05-.42v-.85Z"/>
        <path class="cls-4" d="M217.95,607.86c-.43.19-1.25.35-2.18.35-2.53,0-4.15-1.54-4.15-4,0-2.29,1.57-4.16,4.48-4.16.64,0,1.34.11,1.86.3l-.38,1.81c-.29-.13-.72-.24-1.36-.24-1.28,0-2.11.91-2.1,2.19,0,1.44.96,2.19,2.14,2.19.58,0,1.02-.1,1.39-.24l.29,1.79Z"/>
        <path class="cls-4" d="M221.8,598.05c0,.67-.51,1.22-1.31,1.22s-1.28-.54-1.26-1.22c-.02-.71.5-1.23,1.28-1.23s1.28.53,1.3,1.23ZM219.29,608.05v-7.83h2.43v7.83h-2.43Z"/>
        <path class="cls-4" d="M231.41,604.05c0,2.87-2.03,4.18-4.13,4.18-2.29,0-4.05-1.5-4.05-4.03s1.66-4.15,4.18-4.15,4,1.65,4,4ZM225.74,604.13c0,1.34.56,2.35,1.6,2.35.94,0,1.55-.94,1.55-2.35,0-1.17-.45-2.35-1.55-2.35-1.17,0-1.6,1.2-1.6,2.35Z"/>
        <path class="cls-4" d="M232.91,602.72c0-.98-.03-1.81-.06-2.5h2.11l.11,1.07h.05c.32-.5,1.12-1.25,2.42-1.25,1.6,0,2.8,1.06,2.8,3.36v4.64h-2.43v-4.34c0-1.01-.35-1.7-1.23-1.7-.67,0-1.07.46-1.23.91-.06.14-.1.38-.1.61v4.51h-2.43v-5.33Z"/>
        <path class="cls-4" d="M246.73,608.05l-.14-.78h-.05c-.51.62-1.31.96-2.24.96-1.58,0-2.53-1.15-2.53-2.4,0-2.03,1.82-3.01,4.59-2.99v-.11c0-.42-.22-1.01-1.42-1.01-.8,0-1.65.27-2.16.59l-.45-1.57c.54-.3,1.62-.69,3.04-.69,2.61,0,3.44,1.54,3.44,3.38v2.72c0,.75.03,1.47.11,1.91h-2.19ZM246.44,604.36c-1.28-.02-2.27.29-2.27,1.23,0,.62.42.93.96.93.61,0,1.1-.4,1.26-.9.03-.13.05-.27.05-.42v-.85Z"/>
        <path class="cls-4" d="M250.73,596.69h2.43v11.37h-2.43v-11.37Z"/>
      </g>
    </g>
    <g id="circle-5">
      <g>
        <circle class="cls-2" cx="109.87" cy="289.79" r="79.73"/>
        <path class="cls-3" d="M109.87,372.01c-45.34,0-82.23-36.89-82.23-82.23s36.89-82.23,82.23-82.23,82.23,36.89,82.23,82.23-36.89,82.23-82.23,82.23ZM109.87,212.56c-42.58,0-77.23,34.64-77.23,77.23s34.64,77.23,77.23,77.23,77.23-34.64,77.23-77.23-34.64-77.23-77.23-77.23Z"/>
      </g>
      <g>
        <path class="cls-4" d="M75.42,267.74c0,3.54-2.15,5.68-5.3,5.68s-5.07-2.42-5.07-5.49c0-3.23,2.06-5.65,5.25-5.65s5.12,2.48,5.12,5.46ZM67.63,267.89c0,2.11.99,3.6,2.62,3.6s2.59-1.57,2.59-3.67c0-1.94-.93-3.6-2.61-3.6s-2.61,1.57-2.61,3.67Z"/>
        <path class="cls-4" d="M77,268c0-1.15-.03-1.9-.06-2.58h2.1l.08,1.44h.06c.4-1.14,1.36-1.62,2.11-1.62.22,0,.34,0,.51.03v2.29c-.18-.03-.38-.06-.66-.06-.9,0-1.5.48-1.66,1.23-.03.16-.05.35-.05.54v3.97h-2.43v-5.25Z"/>
        <path class="cls-4" d="M90.54,261.88v9.03c0,.88.03,1.81.06,2.34h-2.16l-.11-1.15h-.03c-.5.88-1.44,1.33-2.45,1.33-1.86,0-3.35-1.58-3.35-4.02-.02-2.64,1.63-4.16,3.51-4.16.96,0,1.71.34,2.06.88h.03v-4.24h2.43ZM88.11,268.74c0-.13-.02-.3-.03-.43-.14-.66-.67-1.2-1.42-1.2-1.1,0-1.68.99-1.68,2.23,0,1.33.66,2.16,1.66,2.16.7,0,1.26-.48,1.41-1.17.05-.18.06-.35.06-.56v-1.02Z"/>
        <path class="cls-4" d="M94.36,270.11c.08,1.01,1.07,1.49,2.21,1.49.83,0,1.5-.11,2.16-.32l.32,1.65c-.8.32-1.78.48-2.83.48-2.66,0-4.18-1.54-4.18-3.99,0-1.98,1.23-4.18,3.95-4.18,2.53,0,3.49,1.97,3.49,3.91,0,.42-.05.78-.08.96h-5.04ZM97.23,268.45c0-.59-.26-1.58-1.38-1.58-1.02,0-1.44.93-1.5,1.58h2.88Z"/>
        <path class="cls-4" d="M100.94,267.92c0-.98-.03-1.81-.06-2.5h2.05l.11,1.06h.05c.34-.5,1.02-1.23,2.37-1.23,1.01,0,1.81.51,2.15,1.33h.03c.29-.4.64-.72,1.01-.94.43-.26.91-.38,1.49-.38,1.5,0,2.64,1.06,2.64,3.39v4.61h-2.37v-4.26c0-1.14-.37-1.79-1.15-1.79-.56,0-.96.38-1.12.85-.06.18-.1.43-.1.62v4.58h-2.37v-4.39c0-.99-.35-1.66-1.12-1.66-.62,0-.99.48-1.14.88-.08.19-.1.42-.1.61v4.56h-2.37v-5.33Z"/>
        <path class="cls-4" d="M125.52,261.88v9.03c0,.88.03,1.81.06,2.34h-2.16l-.11-1.15h-.03c-.5.88-1.44,1.33-2.45,1.33-1.86,0-3.35-1.58-3.35-4.02-.02-2.64,1.63-4.16,3.51-4.16.96,0,1.71.34,2.06.88h.03v-4.24h2.43ZM123.08,268.74c0-.13-.02-.3-.03-.43-.14-.66-.67-1.2-1.42-1.2-1.1,0-1.68.99-1.68,2.23,0,1.33.66,2.16,1.66,2.16.7,0,1.26-.48,1.41-1.17.05-.18.06-.35.06-.56v-1.02Z"/>
        <path class="cls-4" d="M135.2,269.25c0,2.87-2.03,4.18-4.13,4.18-2.29,0-4.05-1.5-4.05-4.03s1.66-4.15,4.18-4.15,4,1.65,4,4ZM129.53,269.33c0,1.34.56,2.35,1.6,2.35.94,0,1.55-.94,1.55-2.35,0-1.17-.45-2.35-1.55-2.35-1.17,0-1.6,1.2-1.6,2.35Z"/>
        <path class="cls-4" d="M136.68,271.12c.45.27,1.38.59,2.1.59s1.04-.26,1.04-.66-.24-.59-1.15-.9c-1.62-.54-2.24-1.42-2.23-2.35,0-1.46,1.25-2.56,3.19-2.56.91,0,1.73.21,2.21.45l-.43,1.68c-.35-.19-1.02-.45-1.7-.45-.59,0-.93.24-.93.64,0,.37.3.56,1.26.9,1.49.51,2.11,1.26,2.13,2.42,0,1.46-1.15,2.53-3.39,2.53-1.02,0-1.94-.22-2.53-.54l.43-1.74Z"/>
        <path class="cls-4" d="M66.72,289.68l-.77,2.77h-2.53l3.3-10.79h3.2l3.35,10.79h-2.62l-.83-2.77h-3.09ZM69.46,287.86l-.67-2.29c-.19-.64-.38-1.44-.54-2.08h-.03c-.16.64-.32,1.46-.5,2.08l-.64,2.29h2.39Z"/>
        <path class="cls-4" d="M81.99,281.08v9.03c0,.88.03,1.81.06,2.34h-2.16l-.11-1.15h-.03c-.5.88-1.44,1.33-2.45,1.33-1.86,0-3.35-1.58-3.35-4.02-.02-2.64,1.63-4.16,3.51-4.16.96,0,1.71.34,2.06.88h.03v-4.24h2.43ZM79.56,287.94c0-.13-.02-.3-.03-.43-.14-.66-.67-1.2-1.42-1.2-1.1,0-1.68.99-1.68,2.23,0,1.33.66,2.16,1.66,2.16.7,0,1.26-.48,1.41-1.17.05-.18.06-.35.06-.56v-1.02Z"/>
        <path class="cls-4" d="M85.75,284.62l1.06,3.63c.19.66.34,1.28.45,1.9h.05c.13-.64.26-1.23.43-1.9l1.01-3.63h2.56l-2.91,7.83h-2.43l-2.85-7.83h2.64Z"/>
        <path class="cls-4" d="M99.91,288.45c0,2.87-2.03,4.18-4.13,4.18-2.29,0-4.05-1.5-4.05-4.03s1.66-4.15,4.18-4.15,4,1.65,4,4ZM94.24,288.53c0,1.34.56,2.35,1.6,2.35.94,0,1.55-.94,1.55-2.35,0-1.17-.45-2.35-1.55-2.35-1.17,0-1.6,1.2-1.6,2.35Z"/>
        <path class="cls-4" d="M108.93,284.62c-.03.5-.06,1.15-.06,2.32v4.37c0,1.5-.3,2.74-1.18,3.52-.86.74-2.03.96-3.19.96-1.02,0-2.11-.21-2.82-.61l.48-1.84c.5.29,1.36.59,2.27.59,1.15,0,2.03-.62,2.03-2.06v-.51h-.03c-.46.66-1.22,1.02-2.11,1.02-1.94,0-3.31-1.57-3.31-3.83,0-2.51,1.63-4.11,3.55-4.11,1.07,0,1.74.46,2.15,1.1h.03l.08-.93h2.11ZM106.44,287.81c0-.16-.02-.32-.05-.45-.18-.64-.64-1.07-1.31-1.07-.88,0-1.6.8-1.6,2.23,0,1.17.58,2.08,1.6,2.08.62,0,1.12-.42,1.28-.99.06-.18.08-.43.08-.64v-1.15Z"/>
        <path class="cls-4" d="M115.27,292.45l-.14-.78h-.05c-.51.62-1.31.96-2.24.96-1.58,0-2.53-1.15-2.53-2.4,0-2.03,1.82-3.01,4.59-2.99v-.11c0-.42-.22-1.01-1.42-1.01-.8,0-1.65.27-2.16.59l-.45-1.57c.54-.3,1.62-.69,3.04-.69,2.61,0,3.44,1.54,3.44,3.38v2.72c0,.75.03,1.47.11,1.9h-2.19ZM114.98,288.75c-1.28-.02-2.27.29-2.27,1.23,0,.62.42.93.96.93.61,0,1.1-.4,1.26-.9.03-.13.05-.27.05-.42v-.85Z"/>
        <path class="cls-4" d="M126.85,281.08v9.03c0,.88.03,1.81.06,2.34h-2.16l-.11-1.15h-.03c-.5.88-1.44,1.33-2.45,1.33-1.86,0-3.35-1.58-3.35-4.02-.02-2.64,1.63-4.16,3.51-4.16.96,0,1.71.34,2.06.88h.03v-4.24h2.43ZM124.42,287.94c0-.13-.02-.3-.03-.43-.14-.66-.67-1.2-1.42-1.2-1.1,0-1.68.99-1.68,2.23,0,1.33.66,2.16,1.66,2.16.7,0,1.26-.48,1.41-1.17.05-.18.06-.35.06-.56v-1.02Z"/>
        <path class="cls-4" d="M136.53,288.45c0,2.87-2.03,4.18-4.13,4.18-2.29,0-4.05-1.5-4.05-4.03s1.66-4.15,4.18-4.15,4,1.65,4,4ZM130.87,288.53c0,1.34.56,2.35,1.6,2.35.94,0,1.55-.94,1.55-2.35,0-1.17-.45-2.35-1.55-2.35-1.17,0-1.6,1.2-1.6,2.35Z"/>
        <path class="cls-4" d="M138.02,290.32c.45.27,1.38.59,2.1.59s1.04-.26,1.04-.66-.24-.59-1.15-.9c-1.62-.54-2.24-1.42-2.23-2.35,0-1.46,1.25-2.56,3.19-2.56.91,0,1.73.21,2.21.45l-.43,1.68c-.35-.19-1.02-.45-1.7-.45-.59,0-.93.24-.93.64,0,.37.3.56,1.26.9,1.49.51,2.11,1.26,2.13,2.42,0,1.46-1.15,2.53-3.39,2.53-1.02,0-1.94-.22-2.53-.54l.43-1.74Z"/>
        <path class="cls-4" d="M81.27,300.28v9.03c0,.88.03,1.81.06,2.34h-2.16l-.11-1.15h-.03c-.5.88-1.44,1.33-2.45,1.33-1.86,0-3.35-1.58-3.35-4.02-.02-2.64,1.63-4.16,3.51-4.16.96,0,1.71.34,2.06.88h.03v-4.24h2.43ZM78.83,307.14c0-.13-.02-.3-.03-.43-.14-.66-.67-1.2-1.42-1.2-1.1,0-1.68.99-1.68,2.23,0,1.33.66,2.16,1.66,2.16.7,0,1.26-.48,1.41-1.17.05-.18.06-.35.06-.56v-1.02Z"/>
        <path class="cls-4" d="M90.95,307.65c0,2.87-2.03,4.18-4.13,4.18-2.29,0-4.05-1.5-4.05-4.03s1.66-4.15,4.18-4.15,4,1.65,4,4ZM85.28,307.73c0,1.34.56,2.35,1.6,2.35.94,0,1.55-.94,1.55-2.35,0-1.17-.45-2.35-1.55-2.35-1.17,0-1.6,1.2-1.6,2.35Z"/>
        <path class="cls-4" d="M95.76,301c.64-.13,1.94-.22,3.15-.22,1.49,0,2.4.14,3.19.61.75.4,1.3,1.14,1.3,2.11s-.56,1.86-1.78,2.31v.03c1.23.34,2.14,1.26,2.14,2.66,0,.98-.45,1.74-1.12,2.29-.78.62-2.1.98-4.24.98-1.2,0-2.1-.08-2.64-.16v-10.6ZM98.18,305.13h.8c1.28,0,1.97-.53,1.97-1.33s-.62-1.25-1.73-1.25c-.53,0-.83.03-1.04.06v2.51ZM98.18,309.92c.24.03.53.03.94.03,1.1,0,2.08-.42,2.08-1.55s-.98-1.52-2.19-1.52h-.83v3.04Z"/>
        <path class="cls-4" d="M105.35,306.4c0-1.15-.03-1.9-.06-2.58h2.1l.08,1.44h.06c.4-1.14,1.36-1.62,2.11-1.62.22,0,.34,0,.51.03v2.29c-.18-.03-.38-.06-.66-.06-.9,0-1.5.48-1.66,1.23-.03.16-.05.35-.05.54v3.97h-2.43v-5.25Z"/>
        <path class="cls-4" d="M115.7,311.65l-.14-.78h-.05c-.51.62-1.31.96-2.24.96-1.58,0-2.53-1.15-2.53-2.4,0-2.03,1.82-3.01,4.59-2.99v-.11c0-.42-.22-1.01-1.42-1.01-.8,0-1.65.27-2.16.59l-.45-1.57c.54-.3,1.62-.69,3.04-.69,2.61,0,3.44,1.54,3.44,3.38v2.72c0,.75.03,1.47.11,1.9h-2.19ZM115.41,307.95c-1.28-.02-2.27.29-2.27,1.23,0,.62.42.93.96.93.61,0,1.1-.4,1.26-.9.03-.13.05-.27.05-.42v-.85Z"/>
        <path class="cls-4" d="M119.68,309.52c.45.27,1.38.59,2.1.59s1.04-.26,1.04-.66-.24-.59-1.15-.9c-1.62-.54-2.24-1.42-2.23-2.35,0-1.46,1.25-2.56,3.19-2.56.91,0,1.73.21,2.21.45l-.43,1.68c-.35-.19-1.02-.45-1.7-.45-.59,0-.93.24-.93.64,0,.37.3.56,1.26.9,1.49.51,2.11,1.26,2.13,2.42,0,1.46-1.15,2.53-3.39,2.53-1.02,0-1.94-.22-2.53-.54l.43-1.74Z"/>
        <path class="cls-4" d="M129.15,301.65c0,.67-.51,1.22-1.31,1.22s-1.28-.54-1.26-1.22c-.02-.7.5-1.23,1.28-1.23s1.28.53,1.3,1.23ZM126.64,311.65v-7.83h2.43v7.83h-2.43Z"/>
        <path class="cls-4" d="M131.03,300.28h2.43v11.36h-2.43v-11.36Z"/>
      </g>
    </g>
  </g>
</svg>