<?xml version="1.0" encoding="utf-8"?>
<!-- Generator: Adobe Illustrator 28.1.0, SVG Export Plug-In . SVG Version: 6.00 Build 0)  -->
<svg version="1.1" id="Layer_1" xmlns="http://www.w3.org/2000/svg" xmlns:xlink="http://www.w3.org/1999/xlink" x="0px" y="0px"
	 viewBox="0 0 720 720" style="enable-background:new 0 0 720 720;" xml:space="preserve">
<style type="text/css">
	.st0{fill:#D88210;}
	.st1{fill:#EED7BE;}
	.st2{fill:#FFFFFF;}
	.st3{fill:#00002F;}
</style>
<g>
	<g>
		<g>
			
				<rect x="244.2" y="237.6" transform="matrix(0.3595 -0.9332 0.9332 0.3595 -151.1191 445.8213)" class="st0" width="10" height="190.8"/>
		</g>
		<g>
			<rect x="359.6" y="176.9" class="st0" width="10" height="190.8"/>
		</g>
		<g>
			
				<rect x="397.4" y="327.3" transform="matrix(0.914 -0.4056 0.4056 0.914 -92.4324 228.4749)" class="st0" width="190.8" height="10"/>
		</g>
		<g>
			
				<rect x="199.8" y="466.6" transform="matrix(0.615 -0.7885 0.7885 0.615 -258.2574 414.3432)" class="st0" width="190.8" height="10"/>
		</g>
		<g>
			
				<rect x="426.1" y="376.3" transform="matrix(0.7885 -0.615 0.615 0.7885 -198.8965 364.8484)" class="st0" width="10" height="190.8"/>
		</g>
	</g>
	<g>
		<path class="st0" d="M367.6,609.3c-62.9,0-122.1-24.5-166.6-69s-69-103.7-69-166.6c0-62.9,24.5-122.1,69-166.6s103.7-69,166.6-69
			c62.9,0,122.1,24.5,166.6,69s69,103.7,69,166.6c0,62.9-24.5,122.1-69,166.6S430.6,609.3,367.6,609.3z M367.6,153.1
			c-121.6,0-220.6,99-220.6,220.6c0,121.6,99,220.6,220.6,220.6c121.6,0,220.6-99,220.6-220.6C588.2,252.1,489.3,153.1,367.6,153.1z
			"/>
	</g>
</g>
<g>
	<g>
		<g>
			<circle class="st1" cx="361.9" cy="367.3" r="106.9"/>
		</g>
		<g>
			<path class="st2" d="M361.9,476.6c-60.3,0-109.4-49.1-109.4-109.4s49.1-109.4,109.4-109.4S471.2,307,471.2,367.3
				S422.2,476.6,361.9,476.6z M361.9,262.9c-57.5,0-104.4,46.8-104.4,104.4s46.8,104.4,104.4,104.4c57.5,0,104.4-46.8,104.4-104.4
				S419.4,262.9,361.9,262.9z"/>
		</g>
	</g>
	<g>
		<g>
			<path class="st3" d="M307.2,339.5h4.1l2.3,6.9l2.3-6.9h4.1l-4.2,10.5h-4.3L307.2,339.5z"/>
			<path class="st3" d="M321.3,339.5h3.7V350h-3.7V339.5z M323.1,336.2h3.1l-1.6,2.2h-3.1L323.1,336.2z"/>
			<path class="st3" d="M327.4,339.5h3.1l4.1,5v-5h3.7V350h-3.1l-4.1-4.9v4.9h-3.7V339.5z"/>
			<path class="st3" d="M340,344.8c0-3.1,2.3-5.7,6.2-5.7c1.9,0,3.3,0.6,4.4,1.6l-2.2,2.3c-0.5-0.4-1.1-0.8-2.1-0.8
				c-1.6,0-2.6,1-2.6,2.5c0,1.5,1.1,2.6,2.6,2.6c1.1,0,1.8-0.5,2.2-0.9l2.2,2.3c-1.1,1.1-2.7,1.7-4.6,1.7
				C342.3,350.4,340,347.9,340,344.8z"/>
			<path class="st3" d="M352.2,344.9v-5.4h3.7v5.6c0,1.2,0.7,2,1.9,2c1.1,0,1.9-0.9,1.9-2v-5.6h3.7v5.4c0,3.6-2.6,5.5-5.5,5.5
				C354.8,350.4,352.2,348.5,352.2,344.9z"/>
			<path class="st3" d="M365.4,339.5h3.7v7.3h5.9v3.2h-9.6V339.5z"/>
			<path class="st3" d="M376.1,344.8c0-3.1,2.3-5.7,6.2-5.7s6.2,2.5,6.2,5.7s-2.3,5.7-6.2,5.7S376.1,347.9,376.1,344.8z
				 M384.7,344.8c0-1.5-1-2.6-2.5-2.6s-2.5,1.1-2.5,2.6s1,2.6,2.5,2.6S384.7,346.3,384.7,344.8z"/>
			<path class="st3" d="M389.7,349l1.2-2.5c0.8,0.5,2.3,1.1,3.7,1.1c0.9,0,1.3-0.2,1.3-0.5c0-0.5-1.2-0.6-2.5-0.9
				c-1.6-0.3-3.4-1-3.4-3.1c0-2.1,1.8-3.8,4.6-3.8c1.9,0,3.6,0.8,4.2,1.4l-1.3,2.3c-0.7-0.4-2-0.9-3.1-0.9c-0.8,0-1.3,0.2-1.3,0.5
				c0,0.4,0.6,0.5,2.7,0.9c1.3,0.3,3.4,0.7,3.4,3.2c0,2.2-1.7,3.7-4.6,3.7C392.4,350.4,390.5,349.6,389.7,349z"/>
			<path class="st3" d="M405.8,339.5h9.9v3h-6.2v1h5.3v2.4h-5.3v1.1h6.2v3h-9.9V339.5z"/>
			<path class="st3" d="M274.7,358.7h4.3l4.7,10.5h-4.1l-0.5-1.3h-4.5l-0.5,1.3H270L274.7,358.7z M277.9,365.1l-1.1-2.7h0l-1.1,2.7
				H277.9z"/>
			<path class="st3" d="M288.7,366.1v3.1H285v-10.5h7.4c2.6,0,4,1.7,4,3.8c0,2.4-1.8,3.2-3.8,3.2c0.6,0.6,1.3,0.8,1.9,0.8
				c0.8,0,1.4-0.3,1.6-0.6l1.3,2.4c-0.4,0.5-1.6,1.2-3.2,1.2C292.3,369.5,290.8,368.6,288.7,366.1z M291.7,363.5c0.7,0,1-0.4,1-1
				c0-0.5-0.4-1-1-1h-3v1.9H291.7z"/>
			<path class="st3" d="M301,361.9h-3.6v-3.2h10.7v3.2h-3.6v7.3H301V361.9z"/>
			<path class="st3" d="M309.7,358.7h3.7v10.5h-3.7V358.7z"/>
			<path class="st3" d="M315,364c0-3.1,2.3-5.7,6.2-5.7c1.9,0,3.3,0.6,4.4,1.6l-2.2,2.3c-0.5-0.4-1.1-0.8-2.1-0.8
				c-1.6,0-2.6,1-2.6,2.5c0,1.5,1.1,2.6,2.6,2.6c1.1,0,1.8-0.5,2.2-0.9l2.2,2.3c-1.1,1.1-2.7,1.7-4.6,1.7
				C317.3,369.6,315,367.1,315,364z"/>
			<path class="st3" d="M327.2,364.1v-5.4h3.7v5.6c0,1.2,0.7,2,1.9,2c1.1,0,1.9-0.9,1.9-2v-5.6h3.7v5.4c0,3.6-2.6,5.5-5.5,5.5
				C329.8,369.6,327.2,367.7,327.2,364.1z"/>
			<path class="st3" d="M340.4,358.7h3.7v7.3h5.9v3.2h-9.6V358.7z"/>
			<path class="st3" d="M355.3,358.7h4.3l4.7,10.5h-4.1l-0.5-1.3h-4.5l-0.5,1.3h-4.1L355.3,358.7z M358.6,365.1l-1.1-2.7h0l-1.1,2.7
				H358.6z"/>
			<path class="st3" d="M373.6,371.7c0,1.2-0.7,1.8-1.8,1.8h-2.5l-0.3-1.3h1.6c0.5,0,0.9,0,0.9-0.5s-0.5-0.4-0.9-0.4h-1.8l-0.2-0.6
				l0.8-1.1c-3.2-0.5-5-2.8-5-5.5c0-3.1,2.3-5.7,6.2-5.7c1.9,0,3.3,0.6,4.4,1.6l-2.2,2.3c-0.5-0.4-1.1-0.8-2.1-0.8
				c-1.6,0-2.6,1-2.6,2.5c0,1.5,1.1,2.6,2.6,2.6c1.1,0,1.8-0.5,2.2-0.9l2.2,2.3c-0.9,0.9-2.1,1.5-3.6,1.7l-0.3,0.5
				C372.2,370,373.6,370.1,373.6,371.7z"/>
			<path class="st3" d="M376.2,364c0-3.1,2.3-5.7,6.2-5.7s6.2,2.5,6.2,5.7s-2.3,5.7-6.2,5.7S376.2,367.1,376.2,364z M378.2,356.2
				c0.4-0.5,1.3-1.2,2.4-1.2c1.6,0,2,0.8,3.1,0.8c0.7,0,1.4-0.5,1.7-0.8l1.1,1.6c-0.5,0.5-1.5,1.2-2.3,1.2c-1.7,0-2.1-0.8-3.2-0.8
				c-0.7,0-1.4,0.5-1.7,0.8L378.2,356.2z M384.8,364c0-1.5-1-2.6-2.5-2.6s-2.5,1.1-2.5,2.6s1,2.6,2.5,2.6S384.8,365.5,384.8,364z"/>
			<path class="st3" d="M390.2,358.7h9.9v3h-6.2v1h5.3v2.4h-5.3v1.1h6.2v3h-9.9V358.7z"/>
			<path class="st3" d="M401.7,368.2l1.2-2.5c0.8,0.5,2.3,1.1,3.7,1.1c0.9,0,1.3-0.2,1.3-0.5c0-0.5-1.2-0.6-2.5-0.9
				c-1.6-0.3-3.4-1-3.4-3.1c0-2.1,1.8-3.8,4.6-3.8c1.9,0,3.6,0.8,4.2,1.4l-1.3,2.3c-0.7-0.4-2-0.9-3.1-0.9c-0.8,0-1.3,0.2-1.3,0.5
				c0,0.4,0.6,0.5,2.7,0.9c1.3,0.3,3.4,0.7,3.4,3.2c0,2.2-1.7,3.7-4.6,3.7C404.4,369.6,402.5,368.8,401.7,368.2z"/>
			<path class="st3" d="M417.8,358.7h5.7c3.5,0,5.5,2.1,5.5,5.3s-2,5.2-5.5,5.2h-5.7V358.7z M423,366.2c1.3,0,2.4-0.7,2.4-2.2
				c0-1.5-1-2.2-2.4-2.2h-1.5v4.4H423z"/>
			<path class="st3" d="M430.2,364c0-3.1,2.3-5.7,6.2-5.7s6.2,2.5,6.2,5.7s-2.3,5.7-6.2,5.7S430.2,367.1,430.2,364z M438.9,364
				c0-1.5-1-2.6-2.5-2.6s-2.5,1.1-2.5,2.6s1,2.6,2.5,2.6S438.9,365.5,438.9,364z"/>
			<path class="st3" d="M443.8,368.2l1.2-2.5c0.8,0.5,2.3,1.1,3.7,1.1c0.9,0,1.3-0.2,1.3-0.5c0-0.5-1.2-0.6-2.5-0.9
				c-1.6-0.3-3.4-1-3.4-3.1c0-2.1,1.8-3.8,4.6-3.8c1.9,0,3.6,0.8,4.2,1.4l-1.3,2.3c-0.7-0.4-2-0.9-3.1-0.9c-0.8,0-1.3,0.2-1.3,0.5
				c0,0.4,0.6,0.5,2.7,0.9c1.3,0.3,3.4,0.7,3.4,3.2c0,2.2-1.7,3.7-4.6,3.7C446.6,369.6,444.7,368.8,443.8,368.2z"/>
			<path class="st3" d="M291.4,383.2c0-3.1,2.3-5.7,6.2-5.7c1.9,0,3.3,0.6,4.4,1.6l-2.2,2.3c-0.5-0.4-1.1-0.8-2.1-0.8
				c-1.6,0-2.6,1-2.6,2.5s1.1,2.6,2.6,2.6c1.1,0,1.8-0.5,2.2-0.9l2.2,2.3c-1.1,1.1-2.7,1.7-4.6,1.7
				C293.7,388.8,291.4,386.3,291.4,383.2z"/>
			<path class="st3" d="M303.1,383.2c0-3.1,2.3-5.7,6.2-5.7c3.8,0,6.2,2.5,6.2,5.7s-2.3,5.7-6.2,5.7
				C305.5,388.8,303.1,386.3,303.1,383.2z M311.8,383.2c0-1.5-1-2.6-2.5-2.6s-2.5,1.1-2.5,2.6s1,2.6,2.5,2.6
				S311.8,384.7,311.8,383.2z"/>
			<path class="st3" d="M317.1,377.9h3.1l4.1,5v-5h3.7v10.5h-3.1l-4.1-4.9v4.9h-3.7V377.9z"/>
			<path class="st3" d="M329.9,387.4l1.2-2.5c0.8,0.5,2.3,1.1,3.7,1.1c0.9,0,1.3-0.2,1.3-0.5c0-0.5-1.2-0.6-2.5-0.9
				c-1.6-0.3-3.4-1-3.4-3.1c0-2.1,1.8-3.8,4.6-3.8c1.9,0,3.6,0.8,4.2,1.4l-1.3,2.3c-0.7-0.4-2-0.9-3.1-0.9c-0.8,0-1.3,0.2-1.3,0.5
				c0,0.4,0.6,0.5,2.7,0.9c1.3,0.3,3.4,0.7,3.4,3.2c0,2.2-1.7,3.7-4.6,3.7C332.6,388.8,330.7,388,329.9,387.4z"/>
			<path class="st3" d="M341.2,377.9h9.9v3h-6.2v1h5.3v2.4h-5.3v1.1h6.2v3h-9.9V377.9z"/>
			<path class="st3" d="M353.3,377.9h3.7v7.3h5.9v3.2h-9.6V377.9z"/>
			<path class="st3" d="M364.6,377.9h3.7v3.6h3.7v-3.6h3.7v10.5H372v-3.7h-3.7v3.7h-3.7V377.9z"/>
			<path class="st3" d="M378,377.9h9.9v3h-6.2v1h5.3v2.4h-5.3v1.1h6.2v3H378V377.9z"/>
			<path class="st3" d="M390.1,377.9h3.7v10.5h-3.7V377.9z"/>
			<path class="st3" d="M399.9,385.3v3.1h-3.7v-10.5h7.4c2.6,0,4,1.7,4,3.8c0,2.4-1.8,3.2-3.8,3.2c0.6,0.6,1.3,0.8,1.9,0.8
				c0.8,0,1.4-0.3,1.6-0.6l1.3,2.4c-0.4,0.5-1.6,1.2-3.2,1.2C403.4,388.7,402,387.8,399.9,385.3z M402.9,382.7c0.7,0,1-0.4,1-1
				c0-0.5-0.4-1-1-1h-3v1.9H402.9z"/>
			<path class="st3" d="M409.3,383.2c0-3.1,2.3-5.7,6.2-5.7s6.2,2.5,6.2,5.7s-2.3,5.7-6.2,5.7S409.3,386.3,409.3,383.2z
				 M417.9,383.2c0-1.5-1-2.6-2.5-2.6s-2.5,1.1-2.5,2.6s1,2.6,2.5,2.6S417.9,384.7,417.9,383.2z"/>
			<path class="st3" d="M422.9,387.4l1.2-2.5c0.8,0.5,2.3,1.1,3.7,1.1c0.9,0,1.3-0.2,1.3-0.5c0-0.5-1.2-0.6-2.5-0.9
				c-1.6-0.3-3.4-1-3.4-3.1c0-2.1,1.8-3.8,4.6-3.8c1.9,0,3.6,0.8,4.2,1.4l-1.3,2.3c-0.7-0.4-2-0.9-3.1-0.9c-0.8,0-1.3,0.2-1.3,0.5
				c0,0.4,0.6,0.5,2.7,0.9c1.3,0.3,3.4,0.7,3.4,3.2c0,2.2-1.7,3.7-4.6,3.7C425.6,388.8,423.7,388,422.9,387.4z"/>
		</g>
	</g>
</g>
<g>
	<g>
		<g>
			<circle class="st1" cx="361.9" cy="126.9" r="79.7"/>
		</g>
		<g>
			<path class="st2" d="M361.9,209.2c-45.3,0-82.2-36.9-82.2-82.2s36.9-82.2,82.2-82.2s82.2,36.9,82.2,82.2S407.2,209.2,361.9,209.2
				z M361.9,49.7c-42.6,0-77.2,34.6-77.2,77.2c0,42.6,34.6,77.2,77.2,77.2c42.6,0,77.2-34.6,77.2-77.2
				C439.1,84.3,404.5,49.7,361.9,49.7z"/>
		</g>
	</g>
	<g>
		<g>
			<path class="st3" d="M330.4,104.5c-0.5,0.3-1.6,0.5-3.1,0.5c-4.2,0-6.4-2.6-6.4-6.1c0-4.1,3-6.4,6.6-6.4c1.4,0,2.5,0.3,3,0.5
				l-0.6,2.2c-0.6-0.2-1.3-0.5-2.3-0.5c-2.2,0-3.9,1.3-3.9,4c0,2.4,1.4,4,3.9,4c0.8,0,1.7-0.2,2.3-0.4L330.4,104.5z"/>
			<path class="st3" d="M337,104.8l-0.2-0.9h-0.1c-0.6,0.7-1.5,1.1-2.5,1.1c-1.8,0-2.8-1.3-2.8-2.7c0-2.3,2.1-3.4,5.2-3.4v-0.1
				c0-0.5-0.3-1.1-1.6-1.1c-0.9,0-1.9,0.3-2.4,0.7l-0.5-1.8c0.6-0.3,1.8-0.8,3.4-0.8c2.9,0,3.9,1.7,3.9,3.8v3.1c0,0.8,0,1.7,0.1,2.1
				H337z M336.5,92.2l1.8,2.7h-1.8l-0.9-1.6h0l-0.9,1.6h-1.8l1.8-2.7H336.5z M336.6,100.7c-1.4,0-2.6,0.3-2.6,1.4c0,0.7,0.5,1,1.1,1
				c0.7,0,1.2-0.5,1.4-1c0-0.1,0.1-0.3,0.1-0.5V100.7z"/>
			<path class="st3" d="M341.5,98.8c0-1.1,0-2-0.1-2.8h2.3l0.1,1.2h0.1c0.4-0.6,1.2-1.4,2.7-1.4c1.1,0,2,0.6,2.4,1.5h0
				c0.3-0.5,0.7-0.8,1.1-1.1c0.5-0.3,1-0.4,1.7-0.4c1.7,0,3,1.2,3,3.8v5.2h-2.7v-4.8c0-1.3-0.4-2-1.3-2c-0.6,0-1.1,0.4-1.3,1
				c-0.1,0.2-0.1,0.5-0.1,0.7v5.1h-2.7v-4.9c0-1.1-0.4-1.9-1.3-1.9c-0.7,0-1.1,0.5-1.3,1c-0.1,0.2-0.1,0.5-0.1,0.7v5.1h-2.7V98.8z"
				/>
			<path class="st3" d="M361.9,104.8l-0.2-0.9h-0.1c-0.6,0.7-1.5,1.1-2.5,1.1c-1.8,0-2.8-1.3-2.8-2.7c0-2.3,2.1-3.4,5.2-3.4v-0.1
				c0-0.5-0.3-1.1-1.6-1.1c-0.9,0-1.9,0.3-2.4,0.7l-0.5-1.8c0.6-0.3,1.8-0.8,3.4-0.8c2.9,0,3.9,1.7,3.9,3.8v3.1c0,0.8,0,1.7,0.1,2.1
				H361.9z M361.6,100.7c-1.4,0-2.6,0.3-2.6,1.4c0,0.7,0.5,1,1.1,1c0.7,0,1.2-0.5,1.4-1c0-0.1,0.1-0.3,0.1-0.5V100.7z"/>
			<path class="st3" d="M366.4,98.9c0-1.3,0-2.1-0.1-2.9h2.4l0.1,1.6h0.1c0.5-1.3,1.5-1.8,2.4-1.8c0.3,0,0.4,0,0.6,0v2.6
				c-0.2,0-0.4-0.1-0.7-0.1c-1,0-1.7,0.5-1.9,1.4c0,0.2-0.1,0.4-0.1,0.6v4.5h-2.7V98.9z"/>
			<path class="st3" d="M378.1,104.8l-0.2-0.9h-0.1c-0.6,0.7-1.5,1.1-2.5,1.1c-1.8,0-2.8-1.3-2.8-2.7c0-2.3,2.1-3.4,5.2-3.4v-0.1
				c0-0.5-0.3-1.1-1.6-1.1c-0.9,0-1.9,0.3-2.4,0.7l-0.5-1.8c0.6-0.3,1.8-0.8,3.4-0.8c2.9,0,3.9,1.7,3.9,3.8v3.1c0,0.8,0,1.7,0.1,2.1
				H378.1z M377.8,100.7c-1.4,0-2.6,0.3-2.6,1.4c0,0.7,0.5,1,1.1,1c0.7,0,1.2-0.5,1.4-1c0-0.1,0.1-0.3,0.1-0.5V100.7z"/>
			<path class="st3" d="M394.8,92.1v10.2c0,1,0,2,0.1,2.6h-2.4l-0.1-1.3h0c-0.6,1-1.6,1.5-2.8,1.5c-2.1,0-3.8-1.8-3.8-4.5
				c0-3,1.8-4.7,3.9-4.7c1.1,0,1.9,0.4,2.3,1h0v-4.8H394.8z M392,99.8c0-0.1,0-0.3,0-0.5c-0.2-0.7-0.8-1.4-1.6-1.4
				c-1.2,0-1.9,1.1-1.9,2.5c0,1.5,0.7,2.4,1.9,2.4c0.8,0,1.4-0.5,1.6-1.3c0.1-0.2,0.1-0.4,0.1-0.6V99.8z"/>
			<path class="st3" d="M399.1,101.3c0.1,1.1,1.2,1.7,2.5,1.7c0.9,0,1.7-0.1,2.4-0.4l0.4,1.9c-0.9,0.4-2,0.5-3.2,0.5
				c-3,0-4.7-1.7-4.7-4.5c0-2.2,1.4-4.7,4.4-4.7c2.8,0,3.9,2.2,3.9,4.4c0,0.5-0.1,0.9-0.1,1.1H399.1z M402.3,99.4
				c0-0.7-0.3-1.8-1.5-1.8c-1.2,0-1.6,1-1.7,1.8H402.3z"/>
			<path class="st3" d="M309,126.4l-3.9-12.1h3l1.5,5.1c0.4,1.4,0.8,2.8,1.1,4.3h0.1c0.3-1.5,0.7-2.9,1.1-4.3l1.5-5.2h2.9l-4.1,12.1
				H309z"/>
			<path class="st3" d="M318.8,122.9c0.1,1.1,1.2,1.7,2.5,1.7c0.9,0,1.7-0.1,2.4-0.4l0.4,1.9c-0.9,0.4-2,0.5-3.2,0.5
				c-3,0-4.7-1.7-4.7-4.5c0-2.2,1.4-4.7,4.4-4.7c2.8,0,3.9,2.2,3.9,4.4c0,0.5-0.1,0.9-0.1,1.1H318.8z M322.1,121
				c0-0.7-0.3-1.8-1.5-1.8c-1.2,0-1.6,1-1.7,1.8H322.1z"/>
			<path class="st3" d="M326.2,120.5c0-1.3,0-2.1-0.1-2.9h2.4l0.1,1.6h0.1c0.5-1.3,1.5-1.8,2.4-1.8c0.3,0,0.4,0,0.6,0v2.6
				c-0.2,0-0.4-0.1-0.7-0.1c-1,0-1.7,0.5-1.9,1.4c0,0.2-0.1,0.4-0.1,0.6v4.5h-2.7V120.5z"/>
			<path class="st3" d="M335,122.9c0.1,1.1,1.2,1.7,2.5,1.7c0.9,0,1.7-0.1,2.4-0.4l0.4,1.9c-0.9,0.4-2,0.5-3.2,0.5
				c-3,0-4.7-1.7-4.7-4.5c0-2.2,1.4-4.7,4.4-4.7c2.8,0,3.9,2.2,3.9,4.4c0,0.5-0.1,0.9-0.1,1.1H335z M338.3,121
				c0-0.7-0.3-1.8-1.5-1.8c-1.2,0-1.6,1-1.7,1.8H338.3z"/>
			<path class="st3" d="M347.5,126.4l-0.2-0.9h-0.1c-0.6,0.7-1.5,1.1-2.5,1.1c-1.8,0-2.8-1.3-2.8-2.7c0-2.3,2.1-3.4,5.2-3.4v-0.1
				c0-0.5-0.3-1.1-1.6-1.1c-0.9,0-1.9,0.3-2.4,0.7l-0.5-1.8c0.6-0.3,1.8-0.8,3.4-0.8c2.9,0,3.9,1.7,3.9,3.8v3.1c0,0.8,0,1.7,0.1,2.1
				H347.5z M347.1,122.3c-1.4,0-2.6,0.3-2.6,1.4c0,0.7,0.5,1,1.1,1c0.7,0,1.2-0.5,1.4-1c0-0.1,0.1-0.3,0.1-0.5V122.3z"/>
			<path class="st3" d="M360.5,113.7v10.2c0,1,0,2,0.1,2.6h-2.4l-0.1-1.3h0c-0.6,1-1.6,1.5-2.8,1.5c-2.1,0-3.8-1.8-3.8-4.5
				c0-3,1.8-4.7,3.9-4.7c1.1,0,1.9,0.4,2.3,1h0v-4.8H360.5z M357.7,121.4c0-0.1,0-0.3,0-0.5c-0.2-0.7-0.8-1.4-1.6-1.4
				c-1.2,0-1.9,1.1-1.9,2.5c0,1.5,0.7,2.4,1.9,2.4c0.8,0,1.4-0.5,1.6-1.3c0.1-0.2,0.1-0.4,0.1-0.6V121.4z"/>
			<path class="st3" d="M371.4,121.9c0,3.2-2.3,4.7-4.6,4.7c-2.6,0-4.6-1.7-4.6-4.5s1.9-4.7,4.7-4.7
				C369.6,117.4,371.4,119.3,371.4,121.9z M365,122c0,1.5,0.6,2.6,1.8,2.6c1.1,0,1.7-1.1,1.7-2.6c0-1.3-0.5-2.6-1.7-2.6
				C365.5,119.4,365,120.7,365,122z"/>
			<path class="st3" d="M373.1,120.5c0-1.3,0-2.1-0.1-2.9h2.4l0.1,1.6h0.1c0.5-1.3,1.5-1.8,2.4-1.8c0.3,0,0.4,0,0.6,0v2.6
				c-0.2,0-0.4-0.1-0.7-0.1c-1,0-1.7,0.5-1.9,1.4c0,0.2-0.1,0.4-0.1,0.6v4.5h-2.7V120.5z"/>
			<path class="st3" d="M381.9,122.9c0.1,1.1,1.2,1.7,2.5,1.7c0.9,0,1.7-0.1,2.4-0.4l0.4,1.9c-0.9,0.4-2,0.5-3.2,0.5
				c-3,0-4.7-1.7-4.7-4.5c0-2.2,1.4-4.7,4.4-4.7c2.8,0,3.9,2.2,3.9,4.4c0,0.5-0.1,0.9-0.1,1.1H381.9z M385.1,121
				c0-0.7-0.3-1.8-1.5-1.8c-1.2,0-1.6,1-1.7,1.8H385.1z"/>
			<path class="st3" d="M389.2,124c0.5,0.3,1.5,0.7,2.4,0.7c0.8,0,1.2-0.3,1.2-0.7s-0.3-0.7-1.3-1c-1.8-0.6-2.5-1.6-2.5-2.6
				c0-1.6,1.4-2.9,3.6-2.9c1,0,1.9,0.2,2.5,0.5l-0.5,1.9c-0.4-0.2-1.2-0.5-1.9-0.5c-0.7,0-1,0.3-1,0.7c0,0.4,0.3,0.6,1.4,1
				c1.7,0.6,2.4,1.4,2.4,2.7c0,1.6-1.3,2.8-3.8,2.8c-1.2,0-2.2-0.3-2.8-0.6L389.2,124z"/>
			<path class="st3" d="M409.2,113.7v10.2c0,1,0,2,0.1,2.6h-2.4l-0.1-1.3h0c-0.6,1-1.6,1.5-2.8,1.5c-2.1,0-3.8-1.8-3.8-4.5
				c0-3,1.8-4.7,3.9-4.7c1.1,0,1.9,0.4,2.3,1h0v-4.8H409.2z M406.5,121.4c0-0.1,0-0.3,0-0.5c-0.2-0.7-0.8-1.4-1.6-1.4
				c-1.2,0-1.9,1.1-1.9,2.5c0,1.5,0.7,2.4,1.9,2.4c0.8,0,1.4-0.5,1.6-1.3c0.1-0.2,0.1-0.4,0.1-0.6V121.4z"/>
			<path class="st3" d="M420.1,121.9c0,3.2-2.3,4.7-4.6,4.7c-2.6,0-4.6-1.7-4.6-4.5s1.9-4.7,4.7-4.7
				C418.3,117.4,420.1,119.3,420.1,121.9z M413.8,122c0,1.5,0.6,2.6,1.8,2.6c1.1,0,1.7-1.1,1.7-2.6c0-1.3-0.5-2.6-1.7-2.6
				C414.2,119.4,413.8,120.7,413.8,122z"/>
			<path class="st3" d="M323.6,142c0-1.1,0-2-0.1-2.8h2.3l0.1,1.2h0.1c0.4-0.6,1.2-1.4,2.7-1.4c1.1,0,2,0.6,2.4,1.5h0
				c0.3-0.5,0.7-0.8,1.1-1.1c0.5-0.3,1-0.4,1.7-0.4c1.7,0,3,1.2,3,3.8v5.2h-2.7v-4.8c0-1.3-0.4-2-1.3-2c-0.6,0-1.1,0.4-1.3,1
				c-0.1,0.2-0.1,0.5-0.1,0.7v5.1H329v-4.9c0-1.1-0.4-1.9-1.3-1.9c-0.7,0-1.1,0.5-1.3,1c-0.1,0.2-0.1,0.5-0.1,0.7v5.1h-2.7V142z"/>
			<path class="st3" d="M347.4,145.2c0,1.2,0,2.1,0.1,2.8h-2.4l-0.1-1.2h-0.1c-0.3,0.5-1.2,1.4-2.8,1.4c-1.8,0-3.1-1.1-3.1-3.8v-5.2
				h2.8v4.7c0,1.3,0.4,2.1,1.4,2.1c0.8,0,1.2-0.5,1.4-1c0.1-0.2,0.1-0.4,0.1-0.6v-5.2h2.8V145.2z"/>
			<path class="st3" d="M349.6,142c0-1.1,0-2-0.1-2.8h2.4l0.1,1.2h0.1c0.4-0.6,1.3-1.4,2.7-1.4c1.8,0,3.2,1.2,3.2,3.8v5.2h-2.7v-4.9
				c0-1.1-0.4-1.9-1.4-1.9c-0.8,0-1.2,0.5-1.4,1c-0.1,0.2-0.1,0.4-0.1,0.7v5.1h-2.7V142z"/>
			<path class="st3" d="M363,136.8c0,0.8-0.6,1.4-1.5,1.4c-0.9,0-1.4-0.6-1.4-1.4c0-0.8,0.6-1.4,1.4-1.4
				C362.4,135.4,363,136,363,136.8z M360.2,148v-8.8h2.7v8.8H360.2z"/>
			<path class="st3" d="M371.7,147.8c-0.5,0.2-1.4,0.4-2.4,0.4c-2.8,0-4.7-1.7-4.7-4.5c0-2.6,1.8-4.7,5-4.7c0.7,0,1.5,0.1,2.1,0.3
				l-0.4,2c-0.3-0.1-0.8-0.3-1.5-0.3c-1.4,0-2.4,1-2.4,2.5c0,1.6,1.1,2.5,2.4,2.5c0.6,0,1.2-0.1,1.6-0.3L371.7,147.8z"/>
			<path class="st3" d="M373.2,148v-8.8h2.7v8.8H373.2z M377.5,135.4l-2.2,2.7h-1.9l1.5-2.7H377.5z"/>
			<path class="st3" d="M378.1,142.2c0-1.2,0-2.1-0.1-3h2.4l0.1,1.2h0c0.6-0.9,1.7-1.4,2.9-1.4c1.9,0,3.7,1.7,3.7,4.5
				c0,3.2-2,4.7-4,4.7c-1.1,0-1.9-0.4-2.3-1h0v4.4h-2.7V142.2z M380.9,144.3c0,0.2,0,0.4,0.1,0.6c0.2,0.7,0.8,1.3,1.6,1.3
				c1.2,0,1.9-1,1.9-2.5c0-1.4-0.6-2.5-1.9-2.5c-0.8,0-1.5,0.6-1.6,1.4c0,0.1-0.1,0.3-0.1,0.5V144.3z"/>
			<path class="st3" d="M391.7,136.8c0,0.8-0.6,1.4-1.5,1.4c-0.9,0-1.4-0.6-1.4-1.4c0-0.8,0.6-1.4,1.4-1.4
				C391.2,135.4,391.7,136,391.7,136.8z M388.9,148v-8.8h2.7v8.8H388.9z"/>
			<path class="st3" d="M402.5,143.5c0,3.2-2.3,4.7-4.6,4.7c-2.6,0-4.6-1.7-4.6-4.5s1.9-4.7,4.7-4.7
				C400.7,139,402.5,140.9,402.5,143.5z M396.2,143.6c0,1.5,0.6,2.6,1.8,2.6c1.1,0,1.7-1.1,1.7-2.6c0-1.3-0.5-2.6-1.7-2.6
				C396.7,141,396.2,142.3,396.2,143.6z"/>
		</g>
	</g>
</g>
<g>
	<g>
		<g>
			<circle class="st1" cx="612.7" cy="307.6" r="79.7"/>
		</g>
		<g>
			<path class="st2" d="M612.7,389.9c-45.3,0-82.2-36.9-82.2-82.2s36.9-82.2,82.2-82.2c45.3,0,82.2,36.9,82.2,82.2
				S658,389.9,612.7,389.9z M612.7,230.4c-42.6,0-77.2,34.6-77.2,77.2c0,42.6,34.6,77.2,77.2,77.2c42.6,0,77.2-34.6,77.2-77.2
				C689.9,265.1,655.2,230.4,612.7,230.4z"/>
		</g>
	</g>
	<g>
		<g>
			<path class="st3" d="M558.8,290.5l-0.9,3.1h-2.8l3.7-12.1h3.6l3.8,12.1h-3l-0.9-3.1H558.8z M561.9,288.4l-0.8-2.6
				c-0.2-0.7-0.4-1.6-0.6-2.3h0c-0.2,0.7-0.4,1.6-0.6,2.3l-0.7,2.6H561.9z"/>
			<path class="st3" d="M567.6,291.2c0.5,0.3,1.5,0.7,2.4,0.7c0.8,0,1.2-0.3,1.2-0.7s-0.3-0.7-1.3-1c-1.8-0.6-2.5-1.6-2.5-2.6
				c0-1.6,1.4-2.9,3.6-2.9c1,0,1.9,0.2,2.5,0.5l-0.5,1.9c-0.4-0.2-1.2-0.5-1.9-0.5c-0.7,0-1,0.3-1,0.7c0,0.4,0.3,0.6,1.4,1
				c1.7,0.6,2.4,1.4,2.4,2.7c0,1.6-1.3,2.8-3.8,2.8c-1.2,0-2.2-0.3-2.8-0.6L567.6,291.2z"/>
			<path class="st3" d="M584.1,293.6l-0.2-0.9h-0.1c-0.6,0.7-1.5,1.1-2.5,1.1c-1.8,0-2.8-1.3-2.8-2.7c0-2.3,2.1-3.4,5.2-3.4v-0.1
				c0-0.5-0.3-1.1-1.6-1.1c-0.9,0-1.9,0.3-2.4,0.7l-0.5-1.8c0.6-0.3,1.8-0.8,3.4-0.8c2.9,0,3.9,1.7,3.9,3.8v3.1c0,0.8,0,1.7,0.1,2.1
				H584.1z M583.7,289.4c-1.4,0-2.6,0.3-2.6,1.4c0,0.7,0.5,1,1.1,1c0.7,0,1.2-0.5,1.4-1c0-0.1,0.1-0.3,0.1-0.5V289.4z"/>
			<path class="st3" d="M588.5,291.2c0.5,0.3,1.5,0.7,2.4,0.7c0.8,0,1.2-0.3,1.2-0.7s-0.3-0.7-1.3-1c-1.8-0.6-2.5-1.6-2.5-2.6
				c0-1.6,1.4-2.9,3.6-2.9c1,0,1.9,0.2,2.5,0.5l-0.5,1.9c-0.4-0.2-1.2-0.5-1.9-0.5c-0.7,0-1,0.3-1,0.7c0,0.4,0.3,0.6,1.4,1
				c1.7,0.6,2.4,1.4,2.4,2.7c0,1.6-1.3,2.8-3.8,2.8c-1.2,0-2.2-0.3-2.8-0.6L588.5,291.2z"/>
			<path class="st3" d="M596.4,291.2c0.5,0.3,1.5,0.7,2.4,0.7c0.8,0,1.2-0.3,1.2-0.7s-0.3-0.7-1.3-1c-1.8-0.6-2.5-1.6-2.5-2.6
				c0-1.6,1.4-2.9,3.6-2.9c1,0,1.9,0.2,2.5,0.5l-0.5,1.9c-0.4-0.2-1.2-0.5-1.9-0.5c-0.7,0-1,0.3-1,0.7c0,0.4,0.3,0.6,1.4,1
				c1.7,0.6,2.4,1.4,2.4,2.7c0,1.6-1.3,2.8-3.8,2.8c-1.2,0-2.2-0.3-2.8-0.6L596.4,291.2z"/>
			<path class="st3" d="M606.3,290.1c0.1,1.1,1.2,1.7,2.5,1.7c0.9,0,1.7-0.1,2.4-0.4l0.4,1.9c-0.9,0.4-2,0.5-3.2,0.5
				c-3,0-4.7-1.7-4.7-4.5c0-2.2,1.4-4.7,4.4-4.7c2.8,0,3.9,2.2,3.9,4.4c0,0.5-0.1,0.9-0.1,1.1H606.3z M609.5,288.2
				c0-0.7-0.3-1.8-1.5-1.8c-1.2,0-1.6,1-1.7,1.8H609.5z"/>
			<path class="st3" d="M613.7,287.6c0-1.1,0-2-0.1-2.8h2.3l0.1,1.2h0.1c0.4-0.6,1.2-1.4,2.7-1.4c1.1,0,2,0.6,2.4,1.5h0
				c0.3-0.5,0.7-0.8,1.1-1.1c0.5-0.3,1-0.4,1.7-0.4c1.7,0,3,1.2,3,3.8v5.2h-2.7v-4.8c0-1.3-0.4-2-1.3-2c-0.6,0-1.1,0.4-1.3,1
				c-0.1,0.2-0.1,0.5-0.1,0.7v5.1H619v-4.9c0-1.1-0.4-1.9-1.3-1.9c-0.7,0-1.1,0.5-1.3,1c-0.1,0.2-0.1,0.5-0.1,0.7v5.1h-2.7V287.6z"
				/>
			<path class="st3" d="M629.1,293.6c0-0.6,0.1-1.6,0.1-2.6v-10.2h2.7v5h0c0.5-0.8,1.4-1.2,2.7-1.2c2.1,0,3.7,1.7,3.6,4.4
				c0,3.2-2,4.8-4,4.8c-1,0-2-0.4-2.6-1.4h0l-0.1,1.2H629.1z M631.9,289.8c0,0.2,0,0.3,0.1,0.5c0.2,0.7,0.8,1.3,1.6,1.3
				c1.2,0,1.9-0.9,1.9-2.5c0-1.4-0.6-2.4-1.9-2.4c-0.7,0-1.4,0.6-1.6,1.4c0,0.2-0.1,0.3-0.1,0.5V289.8z"/>
			<path class="st3" d="M639.9,280.8h2.7v12.8h-2.7V280.8z"/>
			<path class="st3" d="M647,290.1c0.1,1.1,1.2,1.7,2.5,1.7c0.9,0,1.7-0.1,2.4-0.4l0.4,1.9c-0.9,0.4-2,0.5-3.2,0.5
				c-3,0-4.7-1.7-4.7-4.5c0-2.2,1.4-4.7,4.4-4.7c2.8,0,3.9,2.2,3.9,4.4c0,0.5-0.1,0.9-0.1,1.1H647z M650.2,288.2
				c0-0.7-0.3-1.8-1.5-1.8c-1.2,0-1.6,1-1.7,1.8H650.2z"/>
			<path class="st3" d="M657.2,282.3c0,0.8-0.6,1.4-1.5,1.4c-0.9,0-1.4-0.6-1.4-1.4c0-0.8,0.6-1.4,1.4-1.4
				C656.6,281,657.2,281.5,657.2,282.3z M654.4,293.6v-8.8h2.7v8.8H654.4z"/>
			<path class="st3" d="M664.3,293.6l-0.2-0.9h-0.1c-0.6,0.7-1.5,1.1-2.5,1.1c-1.8,0-2.8-1.3-2.8-2.7c0-2.3,2.1-3.4,5.2-3.4v-0.1
				c0-0.5-0.3-1.1-1.6-1.1c-0.9,0-1.9,0.3-2.4,0.7l-0.5-1.8c0.6-0.3,1.8-0.8,3.4-0.8c2.9,0,3.9,1.7,3.9,3.8v3.1c0,0.8,0,1.7,0.1,2.1
				H664.3z M664,289.4c-1.4,0-2.6,0.3-2.6,1.4c0,0.7,0.5,1,1.1,1c0.7,0,1.2-0.5,1.4-1c0-0.1,0.1-0.3,0.1-0.5V289.4z"/>
			<path class="st3" d="M668.8,291.2c0.5,0.3,1.5,0.7,2.4,0.7c0.8,0,1.2-0.3,1.2-0.7s-0.3-0.7-1.3-1c-1.8-0.6-2.5-1.6-2.5-2.6
				c0-1.6,1.4-2.9,3.6-2.9c1,0,1.9,0.2,2.5,0.5l-0.5,1.9c-0.4-0.2-1.2-0.5-1.9-0.5c-0.7,0-1,0.3-1,0.7c0,0.4,0.3,0.6,1.4,1
				c1.7,0.6,2.4,1.4,2.4,2.7c0,1.6-1.3,2.8-3.8,2.8c-1.2,0-2.2-0.3-2.8-0.6L668.8,291.2z"/>
			<path class="st3" d="M571.1,302.4h2.7v12.8h-2.7V302.4z"/>
			<path class="st3" d="M578.2,311.7c0.1,1.1,1.2,1.7,2.5,1.7c0.9,0,1.7-0.1,2.4-0.4l0.4,1.9c-0.9,0.4-2,0.5-3.2,0.5
				c-3,0-4.7-1.7-4.7-4.5c0-2.2,1.4-4.7,4.4-4.7c2.8,0,3.9,2.2,3.9,4.4c0,0.5-0.1,0.9-0.1,1.1H578.2z M581.4,309.8
				c0-0.7-0.3-1.8-1.5-1.8c-1.2,0-1.6,1-1.7,1.8H581.4z"/>
			<path class="st3" d="M594,306.4c0,0.6-0.1,1.3-0.1,2.6v4.9c0,1.7-0.3,3.1-1.3,4c-1,0.8-2.3,1.1-3.6,1.1c-1.2,0-2.4-0.2-3.2-0.7
				l0.5-2.1c0.6,0.3,1.5,0.7,2.6,0.7c1.3,0,2.3-0.7,2.3-2.3V314h0c-0.5,0.7-1.4,1.2-2.4,1.2c-2.2,0-3.7-1.8-3.7-4.3
				c0-2.8,1.8-4.6,4-4.6c1.2,0,2,0.5,2.4,1.2h0l0.1-1H594z M591.2,310c0-0.2,0-0.4-0.1-0.5c-0.2-0.7-0.7-1.2-1.5-1.2
				c-1,0-1.8,0.9-1.8,2.5c0,1.3,0.6,2.3,1.8,2.3c0.7,0,1.3-0.5,1.4-1.1c0.1-0.2,0.1-0.5,0.1-0.7V310z"/>
			<path class="st3" d="M598.9,303.9c0,0.8-0.6,1.4-1.5,1.4c-0.9,0-1.4-0.6-1.4-1.4c0-0.8,0.6-1.4,1.4-1.4
				C598.3,302.6,598.9,303.1,598.9,303.9z M596.1,315.2v-8.8h2.7v8.8H596.1z"/>
			<path class="st3" d="M601,312.8c0.5,0.3,1.5,0.7,2.4,0.7c0.8,0,1.2-0.3,1.2-0.7s-0.3-0.7-1.3-1c-1.8-0.6-2.5-1.6-2.5-2.6
				c0-1.6,1.4-2.9,3.6-2.9c1,0,1.9,0.2,2.5,0.5l-0.5,1.9c-0.4-0.2-1.2-0.5-1.9-0.5c-0.7,0-1,0.3-1,0.7c0,0.4,0.3,0.6,1.4,1
				c1.7,0.6,2.4,1.4,2.4,2.7c0,1.6-1.3,2.8-3.8,2.8c-1.2,0-2.2-0.3-2.8-0.6L601,312.8z"/>
			<path class="st3" d="M608.8,302.4h2.7v12.8h-2.7V302.4z"/>
			<path class="st3" d="M618.8,315.2l-0.2-0.9h-0.1c-0.6,0.7-1.5,1.1-2.5,1.1c-1.8,0-2.8-1.3-2.8-2.7c0-2.3,2.1-3.4,5.2-3.4v-0.1
				c0-0.5-0.3-1.1-1.6-1.1c-0.9,0-1.9,0.3-2.4,0.7l-0.5-1.8c0.6-0.3,1.8-0.8,3.4-0.8c2.9,0,3.9,1.7,3.9,3.8v3.1c0,0.8,0,1.7,0.1,2.1
				H618.8z M618.5,311c-1.4,0-2.6,0.3-2.6,1.4c0,0.7,0.5,1,1.1,1c0.7,0,1.2-0.5,1.4-1c0-0.1,0.1-0.3,0.1-0.5V311z"/>
			<path class="st3" d="M626.2,303.9v2.5h2v2h-2v3.2c0,1.1,0.3,1.5,1.1,1.5c0.3,0,0.6,0,0.8-0.1l0,2.1c-0.4,0.1-1,0.2-1.8,0.2
				c-0.9,0-1.6-0.3-2.1-0.8c-0.5-0.5-0.8-1.4-0.8-2.6v-3.6h-1.2v-2h1.2v-1.9L626.2,303.9z"/>
			<path class="st3" d="M632.6,303.9c0,0.8-0.6,1.4-1.5,1.4c-0.9,0-1.4-0.6-1.4-1.4c0-0.8,0.6-1.4,1.4-1.4
				C632,302.6,632.5,303.1,632.6,303.9z M629.7,315.2v-8.8h2.7v8.8H629.7z"/>
			<path class="st3" d="M636.7,306.4l1.2,4.1c0.2,0.7,0.4,1.4,0.5,2.1h0.1c0.1-0.7,0.3-1.4,0.5-2.1l1.1-4.1h2.9l-3.3,8.8h-2.7
				l-3.2-8.8H636.7z"/>
			<path class="st3" d="M649.1,315.2l-0.2-0.9h-0.1c-0.6,0.7-1.5,1.1-2.5,1.1c-1.8,0-2.8-1.3-2.8-2.7c0-2.3,2.1-3.4,5.2-3.4v-0.1
				c0-0.5-0.3-1.1-1.6-1.1c-0.9,0-1.9,0.3-2.4,0.7l-0.5-1.8c0.6-0.3,1.8-0.8,3.4-0.8c2.9,0,3.9,1.7,3.9,3.8v3.1c0,0.8,0,1.7,0.1,2.1
				H649.1z M648.8,311c-1.4,0-2.6,0.3-2.6,1.4c0,0.7,0.5,1,1.1,1c0.7,0,1.2-0.5,1.4-1c0-0.1,0.1-0.3,0.1-0.5V311z"/>
			<path class="st3" d="M653.6,312.8c0.5,0.3,1.5,0.7,2.4,0.7c0.8,0,1.2-0.3,1.2-0.7s-0.3-0.7-1.3-1c-1.8-0.6-2.5-1.6-2.5-2.6
				c0-1.6,1.4-2.9,3.6-2.9c1,0,1.9,0.2,2.5,0.5l-0.5,1.9c-0.4-0.2-1.2-0.5-1.9-0.5c-0.7,0-1,0.3-1,0.7c0,0.4,0.3,0.6,1.4,1
				c1.7,0.6,2.4,1.4,2.4,2.7c0,1.6-1.3,2.8-3.8,2.8c-1.2,0-2.2-0.3-2.8-0.6L653.6,312.8z"/>
			<path class="st3" d="M577.3,324v10.2c0,1,0,2,0.1,2.6H575l-0.1-1.3h0c-0.6,1-1.6,1.5-2.8,1.5c-2.1,0-3.8-1.8-3.8-4.5
				c0-3,1.8-4.7,3.9-4.7c1.1,0,1.9,0.4,2.3,1h0V324H577.3z M574.6,331.7c0-0.1,0-0.3,0-0.5c-0.2-0.7-0.8-1.4-1.6-1.4
				c-1.2,0-1.9,1.1-1.9,2.5c0,1.5,0.7,2.4,1.9,2.4c0.8,0,1.4-0.5,1.6-1.3c0.1-0.2,0.1-0.4,0.1-0.6V331.7z"/>
			<path class="st3" d="M588.2,332.3c0,3.2-2.3,4.7-4.6,4.7c-2.6,0-4.6-1.7-4.6-4.5s1.9-4.7,4.7-4.7
				C586.4,327.8,588.2,329.6,588.2,332.3z M581.8,332.4c0,1.5,0.6,2.6,1.8,2.6c1.1,0,1.7-1.1,1.7-2.6c0-1.3-0.5-2.6-1.7-2.6
				C582.3,329.7,581.8,331.1,581.8,332.4z"/>
			<path class="st3" d="M589.9,334.4c0.5,0.3,1.5,0.7,2.4,0.7c0.8,0,1.2-0.3,1.2-0.7s-0.3-0.7-1.3-1c-1.8-0.6-2.5-1.6-2.5-2.6
				c0-1.6,1.4-2.9,3.6-2.9c1,0,1.9,0.2,2.5,0.5l-0.5,1.9c-0.4-0.2-1.2-0.5-1.9-0.5c-0.7,0-1,0.3-1,0.7c0,0.4,0.3,0.6,1.4,1
				c1.7,0.6,2.4,1.4,2.4,2.7c0,1.6-1.3,2.8-3.8,2.8c-1.2,0-2.2-0.3-2.8-0.6L589.9,334.4z"/>
			<path class="st3" d="M603.5,333.3c0.1,1.1,1.2,1.7,2.5,1.7c0.9,0,1.7-0.1,2.4-0.4l0.4,1.9c-0.9,0.4-2,0.5-3.2,0.5
				c-3,0-4.7-1.7-4.7-4.5c0-2.2,1.4-4.7,4.4-4.7c2.8,0,3.9,2.2,3.9,4.4c0,0.5-0.1,0.9-0.1,1.1H603.5z M606.7,331.4
				c0-0.7-0.3-1.8-1.5-1.8c-1.2,0-1.6,1-1.7,1.8H606.7z"/>
			<path class="st3" d="M610.8,334.4c0.5,0.3,1.5,0.7,2.4,0.7c0.8,0,1.2-0.3,1.2-0.7s-0.3-0.7-1.3-1c-1.8-0.6-2.5-1.6-2.5-2.6
				c0-1.6,1.4-2.9,3.6-2.9c1,0,1.9,0.2,2.5,0.5l-0.5,1.9c-0.4-0.2-1.2-0.5-1.9-0.5c-0.7,0-1,0.3-1,0.7c0,0.4,0.3,0.6,1.4,1
				c1.7,0.6,2.4,1.4,2.4,2.7c0,1.6-1.3,2.8-3.8,2.8c-1.2,0-2.2-0.3-2.8-0.6L610.8,334.4z"/>
			<path class="st3" d="M621.7,325.5v2.5h2v2h-2v3.2c0,1.1,0.3,1.5,1.1,1.5c0.3,0,0.6,0,0.8-0.1l0,2.1c-0.4,0.1-1,0.2-1.8,0.2
				c-0.9,0-1.6-0.3-2.1-0.8c-0.5-0.5-0.8-1.4-0.8-2.6V330h-1.2v-2h1.2v-1.9L621.7,325.5z"/>
			<path class="st3" d="M630.3,336.8l-0.2-0.9h-0.1c-0.6,0.7-1.5,1.1-2.5,1.1c-1.8,0-2.8-1.3-2.8-2.7c0-2.3,2.1-3.4,5.2-3.4v-0.1
				c0-0.5-0.3-1.1-1.6-1.1c-0.9,0-1.9,0.3-2.4,0.7l-0.5-1.8c0.6-0.3,1.8-0.8,3.4-0.8c2.9,0,3.9,1.7,3.9,3.8v3.1c0,0.8,0,1.7,0.1,2.1
				H630.3z M630,332.6c-1.4,0-2.6,0.3-2.6,1.4c0,0.7,0.5,1,1.1,1c0.7,0,1.2-0.5,1.4-1c0-0.1,0.1-0.3,0.1-0.5V332.6z"/>
			<path class="st3" d="M643.3,324v10.2c0,1,0,2,0.1,2.6H641l-0.1-1.3h0c-0.6,1-1.6,1.5-2.8,1.5c-2.1,0-3.8-1.8-3.8-4.5
				c0-3,1.8-4.7,3.9-4.7c1.1,0,1.9,0.4,2.3,1h0V324H643.3z M640.6,331.7c0-0.1,0-0.3,0-0.5c-0.2-0.7-0.8-1.4-1.6-1.4
				c-1.2,0-1.9,1.1-1.9,2.5c0,1.5,0.7,2.4,1.9,2.4c0.8,0,1.4-0.5,1.6-1.3c0.1-0.2,0.1-0.4,0.1-0.6V331.7z"/>
			<path class="st3" d="M654.2,332.3c0,3.2-2.3,4.7-4.6,4.7c-2.6,0-4.6-1.7-4.6-4.5s1.9-4.7,4.7-4.7
				C652.4,327.8,654.2,329.6,654.2,332.3z M647.8,332.4c0,1.5,0.6,2.6,1.8,2.6c1.1,0,1.7-1.1,1.7-2.6c0-1.3-0.5-2.6-1.7-2.6
				C648.3,329.7,647.8,331.1,647.8,332.4z"/>
			<path class="st3" d="M655.9,334.4c0.5,0.3,1.5,0.7,2.4,0.7c0.8,0,1.2-0.3,1.2-0.7s-0.3-0.7-1.3-1c-1.8-0.6-2.5-1.6-2.5-2.6
				c0-1.6,1.4-2.9,3.6-2.9c1,0,1.9,0.2,2.5,0.5l-0.5,1.9c-0.4-0.2-1.2-0.5-1.9-0.5c-0.7,0-1,0.3-1,0.7c0,0.4,0.3,0.6,1.4,1
				c1.7,0.6,2.4,1.4,2.4,2.7c0,1.6-1.3,2.8-3.8,2.8c-1.2,0-2.2-0.3-2.8-0.6L655.9,334.4z"/>
		</g>
	</g>
</g>
<g>
	<g>
		<g>
			<circle class="st1" cx="114.1" cy="307.6" r="79.7"/>
		</g>
		<g>
			<path class="st2" d="M114.1,389.9c-45.3,0-82.2-36.9-82.2-82.2s36.9-82.2,82.2-82.2s82.2,36.9,82.2,82.2S159.4,389.9,114.1,389.9
				z M114.1,230.4c-42.6,0-77.2,34.6-77.2,77.2c0,42.6,34.6,77.2,77.2,77.2s77.2-34.6,77.2-77.2
				C191.3,265.1,156.7,230.4,114.1,230.4z"/>
		</g>
	</g>
	<g>
		<g>
			<path class="st3" d="M82.4,287.4c0,4-2.4,6.4-6,6.4c-3.6,0-5.7-2.7-5.7-6.2c0-3.6,2.3-6.4,5.9-6.4
				C80.4,281.3,82.4,284.1,82.4,287.4z M73.6,287.6c0,2.4,1.1,4.1,3,4.1c1.9,0,2.9-1.8,2.9-4.1c0-2.2-1-4.1-2.9-4.1
				C74.7,283.4,73.6,285.2,73.6,287.6z"/>
			<path class="st3" d="M84.2,287.7c0-1.3,0-2.1-0.1-2.9h2.4l0.1,1.6h0.1c0.5-1.3,1.5-1.8,2.4-1.8c0.3,0,0.4,0,0.6,0v2.6
				c-0.2,0-0.4-0.1-0.7-0.1c-1,0-1.7,0.5-1.9,1.4c0,0.2-0.1,0.4-0.1,0.6v4.5h-2.7V287.7z"/>
			<path class="st3" d="M99.4,280.8V291c0,1,0,2,0.1,2.6h-2.4l-0.1-1.3h0c-0.6,1-1.6,1.5-2.8,1.5c-2.1,0-3.8-1.8-3.8-4.5
				c0-3,1.8-4.7,3.9-4.7c1.1,0,1.9,0.4,2.3,1h0v-4.8H99.4z M96.7,288.5c0-0.1,0-0.3,0-0.5c-0.2-0.7-0.8-1.4-1.6-1.4
				c-1.2,0-1.9,1.1-1.9,2.5c0,1.5,0.7,2.4,1.9,2.4c0.8,0,1.4-0.5,1.6-1.3c0.1-0.2,0.1-0.4,0.1-0.6V288.5z"/>
			<path class="st3" d="M103.7,290.1c0.1,1.1,1.2,1.7,2.5,1.7c0.9,0,1.7-0.1,2.4-0.4l0.4,1.9c-0.9,0.4-2,0.5-3.2,0.5
				c-3,0-4.7-1.7-4.7-4.5c0-2.2,1.4-4.7,4.4-4.7c2.8,0,3.9,2.2,3.9,4.4c0,0.5-0.1,0.9-0.1,1.1H103.7z M106.9,288.2
				c0-0.7-0.3-1.8-1.5-1.8c-1.2,0-1.6,1-1.7,1.8H106.9z"/>
			<path class="st3" d="M111.1,287.6c0-1.1,0-2-0.1-2.8h2.3l0.1,1.2h0.1c0.4-0.6,1.2-1.4,2.7-1.4c1.1,0,2,0.6,2.4,1.5h0
				c0.3-0.5,0.7-0.8,1.1-1.1c0.5-0.3,1-0.4,1.7-0.4c1.7,0,3,1.2,3,3.8v5.2h-2.7v-4.8c0-1.3-0.4-2-1.3-2c-0.6,0-1.1,0.4-1.3,1
				c-0.1,0.2-0.1,0.5-0.1,0.7v5.1h-2.7v-4.9c0-1.1-0.4-1.9-1.3-1.9c-0.7,0-1.1,0.5-1.3,1c-0.1,0.2-0.1,0.5-0.1,0.7v5.1h-2.7V287.6z"
				/>
			<path class="st3" d="M138.8,280.8V291c0,1,0,2,0.1,2.6h-2.4l-0.1-1.3h0c-0.6,1-1.6,1.5-2.8,1.5c-2.1,0-3.8-1.8-3.8-4.5
				c0-3,1.8-4.7,3.9-4.7c1.1,0,1.9,0.4,2.3,1h0v-4.8H138.8z M136,288.5c0-0.1,0-0.3,0-0.5c-0.2-0.7-0.8-1.4-1.6-1.4
				c-1.2,0-1.9,1.1-1.9,2.5c0,1.5,0.7,2.4,1.9,2.4c0.8,0,1.4-0.5,1.6-1.3c0.1-0.2,0.1-0.4,0.1-0.6V288.5z"/>
			<path class="st3" d="M149.7,289.1c0,3.2-2.3,4.7-4.6,4.7c-2.6,0-4.6-1.7-4.6-4.5s1.9-4.7,4.7-4.7
				C147.9,284.6,149.7,286.4,149.7,289.1z M143.3,289.2c0,1.5,0.6,2.6,1.8,2.6c1.1,0,1.7-1.1,1.7-2.6c0-1.3-0.5-2.6-1.7-2.6
				C143.8,286.5,143.3,287.9,143.3,289.2z"/>
			<path class="st3" d="M151.3,291.2c0.5,0.3,1.5,0.7,2.4,0.7c0.8,0,1.2-0.3,1.2-0.7s-0.3-0.7-1.3-1c-1.8-0.6-2.5-1.6-2.5-2.6
				c0-1.6,1.4-2.9,3.6-2.9c1,0,1.9,0.2,2.5,0.5l-0.5,1.9c-0.4-0.2-1.2-0.5-1.9-0.5c-0.7,0-1,0.3-1,0.7c0,0.4,0.3,0.6,1.4,1
				c1.7,0.6,2.4,1.4,2.4,2.7c0,1.6-1.3,2.8-3.8,2.8c-1.2,0-2.2-0.3-2.8-0.6L151.3,291.2z"/>
			<path class="st3" d="M72.6,312.1l-0.9,3.1h-2.8l3.7-12.1h3.6l3.8,12.1h-3l-0.9-3.1H72.6z M75.7,310l-0.8-2.6
				c-0.2-0.7-0.4-1.6-0.6-2.3h0c-0.2,0.7-0.4,1.6-0.6,2.3L73,310H75.7z"/>
			<path class="st3" d="M89.8,302.4v10.2c0,1,0,2,0.1,2.6h-2.4l-0.1-1.3h0c-0.6,1-1.6,1.5-2.8,1.5c-2.1,0-3.8-1.8-3.8-4.5
				c0-3,1.8-4.7,3.9-4.7c1.1,0,1.9,0.4,2.3,1h0v-4.8H89.8z M87.1,310.1c0-0.1,0-0.3,0-0.5c-0.2-0.7-0.8-1.4-1.6-1.4
				c-1.2,0-1.9,1.1-1.9,2.5c0,1.5,0.7,2.4,1.9,2.4c0.8,0,1.4-0.5,1.6-1.3c0.1-0.2,0.1-0.4,0.1-0.6V310.1z"/>
			<path class="st3" d="M94,306.4l1.2,4.1c0.2,0.7,0.4,1.4,0.5,2.1h0.1c0.1-0.7,0.3-1.4,0.5-2.1l1.1-4.1h2.9l-3.3,8.8h-2.7l-3.2-8.8
				H94z"/>
			<path class="st3" d="M110,310.7c0,3.2-2.3,4.7-4.6,4.7c-2.6,0-4.6-1.7-4.6-4.5s1.9-4.7,4.7-4.7C108.2,306.2,110,308,110,310.7z
				 M103.6,310.8c0,1.5,0.6,2.6,1.8,2.6c1.1,0,1.7-1.1,1.7-2.6c0-1.3-0.5-2.6-1.7-2.6C104.1,308.1,103.6,309.5,103.6,310.8z"/>
			<path class="st3" d="M120.1,306.4c0,0.6-0.1,1.3-0.1,2.6v4.9c0,1.7-0.3,3.1-1.3,4c-1,0.8-2.3,1.1-3.6,1.1c-1.2,0-2.4-0.2-3.2-0.7
				l0.5-2.1c0.6,0.3,1.5,0.7,2.6,0.7c1.3,0,2.3-0.7,2.3-2.3V314h0c-0.5,0.7-1.4,1.2-2.4,1.2c-2.2,0-3.7-1.8-3.7-4.3
				c0-2.8,1.8-4.6,4-4.6c1.2,0,2,0.5,2.4,1.2h0l0.1-1H120.1z M117.3,310c0-0.2,0-0.4-0.1-0.5c-0.2-0.7-0.7-1.2-1.5-1.2
				c-1,0-1.8,0.9-1.8,2.5c0,1.3,0.6,2.3,1.8,2.3c0.7,0,1.3-0.5,1.4-1.1c0.1-0.2,0.1-0.5,0.1-0.7V310z"/>
			<path class="st3" d="M127.2,315.2l-0.2-0.9H127c-0.6,0.7-1.5,1.1-2.5,1.1c-1.8,0-2.8-1.3-2.8-2.7c0-2.3,2.1-3.4,5.2-3.4v-0.1
				c0-0.5-0.3-1.1-1.6-1.1c-0.9,0-1.9,0.3-2.4,0.7l-0.5-1.8c0.6-0.3,1.8-0.8,3.4-0.8c2.9,0,3.9,1.7,3.9,3.8v3.1c0,0.8,0,1.7,0.1,2.1
				H127.2z M126.9,311c-1.4,0-2.6,0.3-2.6,1.4c0,0.7,0.5,1,1.1,1c0.7,0,1.2-0.5,1.4-1c0-0.1,0.1-0.3,0.1-0.5V311z"/>
			<path class="st3" d="M140.3,302.4v10.2c0,1,0,2,0.1,2.6h-2.4l-0.1-1.3h0c-0.6,1-1.6,1.5-2.8,1.5c-2.1,0-3.8-1.8-3.8-4.5
				c0-3,1.8-4.7,3.9-4.7c1.1,0,1.9,0.4,2.3,1h0v-4.8H140.3z M137.5,310.1c0-0.1,0-0.3,0-0.5c-0.2-0.7-0.8-1.4-1.6-1.4
				c-1.2,0-1.9,1.1-1.9,2.5c0,1.5,0.7,2.4,1.9,2.4c0.8,0,1.4-0.5,1.6-1.3c0.1-0.2,0.1-0.4,0.1-0.6V310.1z"/>
			<path class="st3" d="M151.2,310.7c0,3.2-2.3,4.7-4.6,4.7c-2.6,0-4.6-1.7-4.6-4.5s1.9-4.7,4.7-4.7
				C149.4,306.2,151.2,308,151.2,310.7z M144.8,310.8c0,1.5,0.6,2.6,1.8,2.6c1.1,0,1.7-1.1,1.7-2.6c0-1.3-0.5-2.6-1.7-2.6
				C145.3,308.1,144.8,309.5,144.8,310.8z"/>
			<path class="st3" d="M152.8,312.8c0.5,0.3,1.5,0.7,2.4,0.7c0.8,0,1.2-0.3,1.2-0.7s-0.3-0.7-1.3-1c-1.8-0.6-2.5-1.6-2.5-2.6
				c0-1.6,1.4-2.9,3.6-2.9c1,0,1.9,0.2,2.5,0.5l-0.5,1.9c-0.4-0.2-1.2-0.5-1.9-0.5c-0.7,0-1,0.3-1,0.7c0,0.4,0.3,0.6,1.4,1
				c1.7,0.6,2.4,1.4,2.4,2.7c0,1.6-1.3,2.8-3.8,2.8c-1.2,0-2.2-0.3-2.8-0.6L152.8,312.8z"/>
			<path class="st3" d="M89,324v10.2c0,1,0,2,0.1,2.6h-2.4l-0.1-1.3h0c-0.6,1-1.6,1.5-2.8,1.5c-2.1,0-3.8-1.8-3.8-4.5
				c0-3,1.8-4.7,3.9-4.7c1.1,0,1.9,0.4,2.3,1h0V324H89z M86.2,331.7c0-0.1,0-0.3,0-0.5c-0.2-0.7-0.8-1.4-1.6-1.4
				c-1.2,0-1.9,1.1-1.9,2.5c0,1.5,0.7,2.4,1.9,2.4c0.8,0,1.4-0.5,1.6-1.3c0.1-0.2,0.1-0.4,0.1-0.6V331.7z"/>
			<path class="st3" d="M99.9,332.3c0,3.2-2.3,4.7-4.6,4.7c-2.6,0-4.6-1.7-4.6-4.5s1.9-4.7,4.7-4.7
				C98.1,327.8,99.9,329.6,99.9,332.3z M93.5,332.4c0,1.5,0.6,2.6,1.8,2.6c1.1,0,1.7-1.1,1.7-2.6c0-1.3-0.5-2.6-1.7-2.6
				C94,329.7,93.5,331.1,93.5,332.4z"/>
			<path class="st3" d="M105.3,324.8c0.7-0.1,2.2-0.3,3.5-0.3c1.7,0,2.7,0.2,3.6,0.7c0.8,0.5,1.5,1.3,1.5,2.4c0,1.1-0.6,2.1-2,2.6v0
				c1.4,0.4,2.4,1.4,2.4,3c0,1.1-0.5,2-1.3,2.6c-0.9,0.7-2.4,1.1-4.8,1.1c-1.4,0-2.4-0.1-3-0.2V324.8z M108,329.5h0.9
				c1.4,0,2.2-0.6,2.2-1.5c0-0.9-0.7-1.4-1.9-1.4c-0.6,0-0.9,0-1.2,0.1V329.5z M108,334.8c0.3,0,0.6,0,1.1,0c1.2,0,2.3-0.5,2.3-1.7
				c0-1.2-1.1-1.7-2.5-1.7H108V334.8z"/>
			<path class="st3" d="M116.1,330.9c0-1.3,0-2.1-0.1-2.9h2.4l0.1,1.6h0.1c0.5-1.3,1.5-1.8,2.4-1.8c0.3,0,0.4,0,0.6,0v2.6
				c-0.2,0-0.4-0.1-0.7-0.1c-1,0-1.7,0.5-1.9,1.4c0,0.2-0.1,0.4-0.1,0.6v4.5h-2.7V330.9z"/>
			<path class="st3" d="M127.7,336.8l-0.2-0.9h-0.1c-0.6,0.7-1.5,1.1-2.5,1.1c-1.8,0-2.8-1.3-2.8-2.7c0-2.3,2.1-3.4,5.2-3.4v-0.1
				c0-0.5-0.3-1.1-1.6-1.1c-0.9,0-1.9,0.3-2.4,0.7l-0.5-1.8c0.6-0.3,1.8-0.8,3.4-0.8c2.9,0,3.9,1.7,3.9,3.8v3.1c0,0.8,0,1.7,0.1,2.1
				H127.7z M127.4,332.6c-1.4,0-2.6,0.3-2.6,1.4c0,0.7,0.5,1,1.1,1c0.7,0,1.2-0.5,1.4-1c0-0.1,0.1-0.3,0.1-0.5V332.6z"/>
			<path class="st3" d="M132.2,334.4c0.5,0.3,1.5,0.7,2.4,0.7c0.8,0,1.2-0.3,1.2-0.7s-0.3-0.7-1.3-1c-1.8-0.6-2.5-1.6-2.5-2.6
				c0-1.6,1.4-2.9,3.6-2.9c1,0,1.9,0.2,2.5,0.5l-0.5,1.9c-0.4-0.2-1.2-0.5-1.9-0.5c-0.7,0-1,0.3-1,0.7c0,0.4,0.3,0.6,1.4,1
				c1.7,0.6,2.4,1.4,2.4,2.7c0,1.6-1.3,2.8-3.8,2.8c-1.2,0-2.2-0.3-2.8-0.6L132.2,334.4z"/>
			<path class="st3" d="M142.9,325.5c0,0.8-0.6,1.4-1.5,1.4c-0.9,0-1.4-0.6-1.4-1.4c0-0.8,0.6-1.4,1.4-1.4S142.8,324.7,142.9,325.5z
				 M140,336.8V328h2.7v8.8H140z"/>
			<path class="st3" d="M145,324h2.7v12.8H145V324z"/>
		</g>
	</g>
</g>
<g>
	<g>
		<g>
			<circle class="st1" cx="500.5" cy="577.5" r="79.7"/>
		</g>
		<g>
			<path class="st2" d="M500.5,659.7c-45.3,0-82.2-36.9-82.2-82.2s36.9-82.2,82.2-82.2s82.2,36.9,82.2,82.2S545.9,659.7,500.5,659.7
				z M500.5,500.3c-42.6,0-77.2,34.6-77.2,77.2s34.6,77.2,77.2,77.2s77.2-34.6,77.2-77.2S543.1,500.3,500.5,500.3z"/>
		</g>
	</g>
	<g>
		<g>
			<path class="st3" d="M473.6,572c-0.1-1.5-0.1-3.2-0.1-5h-0.1c-0.4,1.5-0.9,3.3-1.4,4.7l-1.5,4.7h-2.1l-1.3-4.7
				c-0.4-1.4-0.8-3.2-1.1-4.7h0c-0.1,1.6-0.1,3.5-0.2,5l-0.2,4.6h-2.5l0.8-12.1h3.7l1.2,4.1c0.4,1.4,0.8,2.9,1,4.3h0.1
				c0.3-1.4,0.8-3,1.2-4.4l1.3-4h3.6l0.7,12.1h-2.7L473.6,572z"/>
			<path class="st3" d="M481.4,565.4c0,0.8-0.6,1.4-1.5,1.4c-0.9,0-1.4-0.6-1.4-1.4c0-0.8,0.6-1.4,1.4-1.4
				C480.8,564.1,481.4,564.6,481.4,565.4z M478.6,576.7v-8.8h2.7v8.8H478.6z"/>
			<path class="st3" d="M483.5,570.7c0-1.1,0-2-0.1-2.8h2.4l0.1,1.2h0.1c0.4-0.6,1.3-1.4,2.7-1.4c1.8,0,3.2,1.2,3.2,3.8v5.2h-2.7
				v-4.9c0-1.1-0.4-1.9-1.4-1.9c-0.8,0-1.2,0.5-1.4,1c-0.1,0.2-0.1,0.4-0.1,0.7v5.1h-2.7V570.7z"/>
			<path class="st3" d="M496.9,565.4c0,0.8-0.6,1.4-1.5,1.4c-0.9,0-1.4-0.6-1.4-1.4c0-0.8,0.6-1.4,1.4-1.4
				C496.3,564.1,496.9,564.6,496.9,565.4z M494.1,576.7v-8.8h2.7v8.8H494.1z"/>
			<path class="st3" d="M499,574.3c0.5,0.3,1.5,0.7,2.4,0.7c0.8,0,1.2-0.3,1.2-0.7s-0.3-0.7-1.3-1c-1.8-0.6-2.5-1.6-2.5-2.6
				c0-1.6,1.4-2.9,3.6-2.9c1,0,1.9,0.2,2.5,0.5l-0.5,1.9c-0.4-0.2-1.2-0.5-1.9-0.5c-0.7,0-1,0.3-1,0.7c0,0.4,0.3,0.6,1.4,1
				c1.7,0.6,2.4,1.4,2.4,2.7c0,1.6-1.3,2.8-3.8,2.8c-1.2,0-2.2-0.3-2.8-0.6L499,574.3z"/>
			<path class="st3" d="M509.9,565.4v2.5h2v2h-2v3.2c0,1.1,0.3,1.5,1.1,1.5c0.3,0,0.6,0,0.8-0.1l0,2.1c-0.4,0.1-1,0.2-1.8,0.2
				c-0.9,0-1.6-0.3-2.1-0.8c-0.5-0.5-0.8-1.4-0.8-2.6v-3.6H506v-2h1.2V566L509.9,565.4z"/>
			<path class="st3" d="M515.4,573.2c0.1,1.1,1.2,1.7,2.5,1.7c0.9,0,1.7-0.1,2.4-0.4l0.4,1.9c-0.9,0.4-2,0.5-3.2,0.5
				c-3,0-4.7-1.7-4.7-4.5c0-2.2,1.4-4.7,4.4-4.7c2.8,0,3.9,2.2,3.9,4.4c0,0.5-0.1,0.9-0.1,1.1H515.4z M518.7,571.3
				c0-0.7-0.3-1.8-1.5-1.8c-1.2,0-1.6,1-1.7,1.8H518.7z M520.2,564.1l-2.2,2.7h-1.9l1.5-2.7H520.2z"/>
			<path class="st3" d="M522.8,570.8c0-1.3,0-2.1-0.1-2.9h2.4l0.1,1.6h0.1c0.5-1.3,1.5-1.8,2.4-1.8c0.3,0,0.4,0,0.6,0v2.6
				c-0.2,0-0.4-0.1-0.7-0.1c-1,0-1.7,0.5-1.9,1.4c0,0.2-0.1,0.4-0.1,0.6v4.5h-2.7V570.8z"/>
			<path class="st3" d="M532.5,565.4c0,0.8-0.6,1.4-1.5,1.4c-0.9,0-1.4-0.6-1.4-1.4c0-0.8,0.6-1.4,1.4-1.4
				C531.9,564.1,532.5,564.6,532.5,565.4z M529.7,576.7v-8.8h2.7v8.8H529.7z"/>
			<path class="st3" d="M543.3,572.2c0,3.2-2.3,4.7-4.6,4.7c-2.6,0-4.6-1.7-4.6-4.5s1.9-4.7,4.7-4.7
				C541.5,567.7,543.3,569.5,543.3,572.2z M536.9,572.3c0,1.5,0.6,2.6,1.8,2.6c1.1,0,1.7-1.1,1.7-2.6c0-1.3-0.5-2.6-1.7-2.6
				C537.4,569.6,536.9,571,536.9,572.3z"/>
			<path class="st3" d="M474.3,586.3c0.8-0.1,2-0.3,3.7-0.3c1.7,0,2.9,0.3,3.7,1c0.8,0.6,1.3,1.6,1.3,2.8s-0.4,2.2-1.1,2.9
				c-0.9,0.9-2.3,1.3-3.9,1.3c-0.4,0-0.7,0-0.9-0.1v4.3h-2.7V586.3z M477.1,591.8c0.2,0.1,0.5,0.1,0.9,0.1c1.5,0,2.4-0.7,2.4-2
				c0-1.1-0.8-1.8-2.1-1.8c-0.6,0-0.9,0.1-1.1,0.1V591.8z"/>
			<path class="st3" d="M492.8,595.5c0,1.2,0,2.1,0.1,2.8h-2.4l-0.1-1.2h-0.1c-0.3,0.5-1.2,1.4-2.8,1.4c-1.8,0-3.1-1.1-3.1-3.8v-5.2
				h2.8v4.7c0,1.3,0.4,2.1,1.4,2.1c0.8,0,1.2-0.5,1.4-1c0.1-0.2,0.1-0.4,0.1-0.6v-5.2h2.8V595.5z M491.6,585.7l-2.2,2.7h-1.9
				l1.5-2.7H491.6z"/>
			<path class="st3" d="M495,598.3c0-0.6,0.1-1.6,0.1-2.6v-10.2h2.7v5h0c0.5-0.8,1.4-1.2,2.7-1.2c2.1,0,3.7,1.7,3.6,4.4
				c0,3.2-2,4.8-4,4.8c-1,0-2-0.4-2.6-1.4h0l-0.1,1.2H495z M497.8,594.5c0,0.2,0,0.3,0.1,0.5c0.2,0.7,0.8,1.3,1.6,1.3
				c1.2,0,1.9-0.9,1.9-2.5c0-1.4-0.6-2.4-1.9-2.4c-0.7,0-1.4,0.6-1.6,1.3c0,0.2-0.1,0.3-0.1,0.5V594.5z"/>
			<path class="st3" d="M505.8,585.5h2.7v12.8h-2.7V585.5z"/>
			<path class="st3" d="M513.6,587c0,0.8-0.6,1.4-1.5,1.4c-0.9,0-1.4-0.6-1.4-1.4c0-0.8,0.6-1.4,1.4-1.4
				C513,585.7,513.5,586.2,513.6,587z M510.7,598.3v-8.8h2.7v8.8H510.7z"/>
			<path class="st3" d="M522.3,598.1c-0.5,0.2-1.4,0.4-2.4,0.4c-2.8,0-4.7-1.7-4.7-4.5c0-2.6,1.8-4.7,5-4.7c0.7,0,1.5,0.1,2.1,0.3
				l-0.4,2c-0.3-0.1-0.8-0.3-1.5-0.3c-1.4,0-2.4,1-2.4,2.5c0,1.6,1.1,2.5,2.4,2.5c0.6,0,1.2-0.1,1.6-0.3L522.3,598.1z"/>
			<path class="st3" d="M532.3,593.8c0,3.2-2.3,4.7-4.6,4.7c-2.6,0-4.6-1.7-4.6-4.5s1.9-4.7,4.7-4.7
				C530.5,589.3,532.3,591.1,532.3,593.8z M525.9,593.9c0,1.5,0.6,2.6,1.8,2.6c1.1,0,1.7-1.1,1.7-2.6c0-1.3-0.5-2.6-1.7-2.6
				C526.4,591.2,525.9,592.6,525.9,593.9z"/>
		</g>
	</g>
</g>
<g>
	<g>
		<g>
			<circle class="st1" cx="218.9" cy="573.1" r="79.7"/>
		</g>
		<g>
			<path class="st2" d="M218.9,655.3c-45.3,0-82.2-36.9-82.2-82.2s36.9-82.2,82.2-82.2s82.2,36.9,82.2,82.2S264.2,655.3,218.9,655.3
				z M218.9,495.9c-42.6,0-77.2,34.6-77.2,77.2s34.6,77.2,77.2,77.2c42.6,0,77.2-34.6,77.2-77.2S261.5,495.9,218.9,495.9z"/>
		</g>
	</g>
	<g>
		<g>
			<path class="st3" d="M187,568.6c-0.5,0.3-1.6,0.5-3.1,0.5c-4.2,0-6.4-2.6-6.4-6.1c0-4.1,3-6.4,6.6-6.4c1.4,0,2.5,0.3,3,0.5
				l-0.6,2.2c-0.6-0.2-1.3-0.5-2.3-0.5c-2.2,0-3.9,1.3-3.9,4c0,2.4,1.4,4,3.9,4c0.8,0,1.7-0.2,2.3-0.4L187,568.6z"/>
			<path class="st3" d="M197,564.4c0,3.2-2.3,4.7-4.6,4.7c-2.6,0-4.6-1.7-4.6-4.5c0-2.8,1.9-4.7,4.7-4.7
				C195.2,559.9,197,561.8,197,564.4z M190.7,564.5c0,1.5,0.6,2.6,1.8,2.6c1.1,0,1.7-1.1,1.7-2.6c0-1.3-0.5-2.6-1.7-2.6
				C191.1,561.9,190.7,563.2,190.7,564.5z"/>
			<path class="st3" d="M198.7,562.9c0-1.1,0-2-0.1-2.8h2.4l0.1,1.2h0.1c0.4-0.6,1.3-1.4,2.7-1.4c1.8,0,3.2,1.2,3.2,3.8v5.2h-2.7
				v-4.9c0-1.1-0.4-1.9-1.4-1.9c-0.8,0-1.2,0.5-1.4,1c-0.1,0.2-0.1,0.4-0.1,0.7v5.1h-2.7V562.9z"/>
			<path class="st3" d="M217.7,560.1c0,0.6-0.1,1.3-0.1,2.6v4.9c0,1.7-0.3,3.1-1.3,4c-1,0.8-2.3,1.1-3.6,1.1c-1.2,0-2.4-0.2-3.2-0.7
				l0.5-2.1c0.6,0.3,1.5,0.7,2.6,0.7c1.3,0,2.3-0.7,2.3-2.3v-0.6h0c-0.5,0.7-1.4,1.2-2.4,1.2c-2.2,0-3.7-1.8-3.7-4.3
				c0-2.8,1.8-4.6,4-4.6c1.2,0,2,0.5,2.4,1.2h0l0.1-1H217.7z M214.9,563.7c0-0.2,0-0.4-0.1-0.5c-0.2-0.7-0.7-1.2-1.5-1.2
				c-1,0-1.8,0.9-1.8,2.5c0,1.3,0.6,2.3,1.8,2.3c0.7,0,1.3-0.5,1.4-1.1c0.1-0.2,0.1-0.5,0.1-0.7V563.7z"/>
			<path class="st3" d="M219.8,563c0-1.3,0-2.1-0.1-2.9h2.4l0.1,1.6h0.1c0.5-1.3,1.5-1.8,2.4-1.8c0.3,0,0.4,0,0.6,0v2.6
				c-0.2,0-0.4-0.1-0.7-0.1c-1,0-1.7,0.5-1.9,1.4c0,0.2-0.1,0.4-0.1,0.6v4.5h-2.7V563z"/>
			<path class="st3" d="M228.6,565.4c0.1,1.1,1.2,1.7,2.5,1.7c0.9,0,1.7-0.1,2.4-0.4l0.4,1.9c-0.9,0.4-2,0.5-3.2,0.5
				c-3,0-4.7-1.7-4.7-4.5c0-2.2,1.4-4.7,4.4-4.7c2.8,0,3.9,2.2,3.9,4.4c0,0.5-0.1,0.9-0.1,1.1H228.6z M231.8,563.5
				c0-0.7-0.3-1.8-1.5-1.8c-1.2,0-1.6,1-1.7,1.8H231.8z"/>
			<path class="st3" d="M236,566.5c0.5,0.3,1.5,0.7,2.4,0.7c0.8,0,1.2-0.3,1.2-0.7s-0.3-0.7-1.3-1c-1.8-0.6-2.5-1.6-2.5-2.6
				c0-1.6,1.4-2.9,3.6-2.9c1,0,1.9,0.2,2.5,0.5l-0.5,1.9c-0.4-0.2-1.2-0.5-1.9-0.5c-0.7,0-1,0.3-1,0.7c0,0.4,0.3,0.6,1.4,1
				c1.7,0.6,2.4,1.4,2.4,2.7c0,1.6-1.3,2.8-3.8,2.8c-1.2,0-2.2-0.3-2.8-0.6L236,566.5z"/>
			<path class="st3" d="M243.8,566.5c0.5,0.3,1.5,0.7,2.4,0.7c0.8,0,1.2-0.3,1.2-0.7s-0.3-0.7-1.3-1c-1.8-0.6-2.5-1.6-2.5-2.6
				c0-1.6,1.4-2.9,3.6-2.9c1,0,1.9,0.2,2.5,0.5l-0.5,1.9c-0.4-0.2-1.2-0.5-1.9-0.5c-0.7,0-1,0.3-1,0.7c0,0.4,0.3,0.6,1.4,1
				c1.7,0.6,2.4,1.4,2.4,2.7c0,1.6-1.3,2.8-3.8,2.8c-1.2,0-2.2-0.3-2.8-0.6L243.8,566.5z"/>
			<path class="st3" d="M260.3,564.4c0,3.2-2.3,4.7-4.6,4.7c-2.6,0-4.6-1.7-4.6-4.5c0-2.8,1.9-4.7,4.7-4.7
				C258.5,559.9,260.3,561.8,260.3,564.4z M253.9,564.5c0,1.5,0.6,2.6,1.8,2.6c1.1,0,1.7-1.1,1.7-2.6c0-1.3-0.5-2.6-1.7-2.6
				C254.4,561.9,253.9,563.2,253.9,564.5z"/>
			<path class="st3" d="M184.9,590.5v-12.1h3.2l2.5,4.4c0.7,1.3,1.4,2.8,2,4.2h0.1c-0.2-1.6-0.2-3.2-0.2-5.1v-3.5h2.5v12.1h-2.9
				l-2.6-4.7c-0.7-1.3-1.5-2.9-2.1-4.3l-0.1,0c0.1,1.6,0.1,3.3,0.1,5.3v3.7H184.9z"/>
			<path class="st3" d="M202.2,590.5l-0.2-0.9H202c-0.6,0.7-1.5,1.1-2.5,1.1c-1.8,0-2.8-1.3-2.8-2.7c0-2.3,2.1-3.4,5.2-3.4v-0.1
				c0-0.5-0.3-1.1-1.6-1.1c-0.9,0-1.9,0.3-2.4,0.7l-0.5-1.8c0.6-0.3,1.8-0.8,3.4-0.8c2.9,0,3.9,1.7,3.9,3.8v3.1c0,0.8,0,1.7,0.1,2.1
				H202.2z M201.9,586.4c-1.4,0-2.6,0.3-2.6,1.4c0,0.7,0.5,1,1.1,1c0.7,0,1.2-0.5,1.4-1c0-0.1,0.1-0.3,0.1-0.5V586.4z"/>
			<path class="st3" d="M213.3,590.3c-0.5,0.2-1.4,0.4-2.4,0.4c-2.8,0-4.7-1.7-4.7-4.5c0-2.6,1.8-4.7,5-4.7c0.7,0,1.5,0.1,2.1,0.3
				l-0.4,2c-0.3-0.1-0.8-0.3-1.5-0.3c-1.4,0-2.4,1-2.4,2.5c0,1.6,1.1,2.5,2.4,2.5c0.6,0,1.2-0.1,1.6-0.3L213.3,590.3z"/>
			<path class="st3" d="M217.7,579.3c0,0.8-0.6,1.4-1.5,1.4c-0.9,0-1.4-0.6-1.4-1.4c0-0.8,0.6-1.4,1.4-1.4S217.7,578.5,217.7,579.3z
				 M214.9,590.5v-8.8h2.7v8.8H214.9z"/>
			<path class="st3" d="M228.5,586c0,3.2-2.3,4.7-4.6,4.7c-2.6,0-4.6-1.7-4.6-4.5s1.9-4.7,4.7-4.7
				C226.7,581.5,228.5,583.4,228.5,586z M222.1,586.1c0,1.5,0.6,2.6,1.8,2.6c1.1,0,1.7-1.1,1.7-2.6c0-1.3-0.5-2.6-1.7-2.6
				C222.6,583.5,222.1,584.8,222.1,586.1z"/>
			<path class="st3" d="M230.2,584.5c0-1.1,0-2-0.1-2.8h2.4l0.1,1.2h0.1c0.4-0.6,1.3-1.4,2.7-1.4c1.8,0,3.2,1.2,3.2,3.8v5.2h-2.7
				v-4.9c0-1.1-0.4-1.9-1.4-1.9c-0.8,0-1.2,0.5-1.4,1c-0.1,0.2-0.1,0.4-0.1,0.7v5.1h-2.7V584.5z"/>
			<path class="st3" d="M245.7,590.5l-0.2-0.9h-0.1c-0.6,0.7-1.5,1.1-2.5,1.1c-1.8,0-2.8-1.3-2.8-2.7c0-2.3,2.1-3.4,5.2-3.4v-0.1
				c0-0.5-0.3-1.1-1.6-1.1c-0.9,0-1.9,0.3-2.4,0.7l-0.5-1.8c0.6-0.3,1.8-0.8,3.4-0.8c2.9,0,3.9,1.7,3.9,3.8v3.1c0,0.8,0,1.7,0.1,2.1
				H245.7z M245.4,586.4c-1.4,0-2.6,0.3-2.6,1.4c0,0.7,0.5,1,1.1,1c0.7,0,1.2-0.5,1.4-1c0-0.1,0.1-0.3,0.1-0.5V586.4z"/>
			<path class="st3" d="M250.2,577.8h2.7v12.8h-2.7V577.8z"/>
		</g>
	</g>
</g>
</svg>
