<?xml version="1.0" encoding="utf-8"?>
<!-- Generator: Adobe Illustrator 28.1.0, SVG Export Plug-In . SVG Version: 6.00 Build 0)  -->
<svg version="1.1" id="Layer_1" xmlns="http://www.w3.org/2000/svg" xmlns:xlink="http://www.w3.org/1999/xlink" x="0px" y="0px"
	 viewBox="0 0 360 387" style="enable-background:new 0 0 360 387;" xml:space="preserve">
<style type="text/css">
	.st0{fill:#D88210;}
	.st1{fill:#EED7BE;}
	.st2{fill:#FFFFFF;}
	.st3{fill:#00002F;}
</style>
<g>
	<rect x="114" y="134" transform="matrix(0.3595 -0.9332 0.9332 0.3595 -97.7921 229.1257)" class="st0" width="8" height="103.6"/>
</g>
<g>
	<rect x="176.7" y="101" class="st0" width="8" height="103.6"/>
</g>
<g>
	
		<rect x="198.5" y="181.4" transform="matrix(0.914 -0.4057 0.4057 0.914 -53.7067 117.4947)" class="st0" width="103.6" height="8"/>
</g>
<g>
	
		<rect x="91.2" y="257.1" transform="matrix(0.615 -0.7885 0.7885 0.615 -150.8243 213.2708)" class="st0" width="103.6" height="8"/>
</g>
<g>
	
		<rect x="212.8" y="209.3" transform="matrix(0.7885 -0.615 0.615 0.7885 -114.7237 188.5214)" class="st0" width="8" height="103.6"/>
</g>
<g>
	<path class="st0" d="M182.3,335.8c-34.2,0-66.3-13.3-90.4-37.5c-24.2-24.2-37.5-56.3-37.5-90.4c0-34.2,13.3-66.3,37.5-90.4
		S148.2,80,182.3,80c34.2,0,66.3,13.3,90.4,37.5s37.5,56.3,37.5,90.4c0,34.2-13.3,66.3-37.5,90.4
		C248.6,322.5,216.5,335.8,182.3,335.8z M182.3,88.1c-66,0-119.8,53.7-119.8,119.8c0,66,53.7,119.8,119.8,119.8
		c66,0,119.8-53.7,119.8-119.8C302.1,141.9,248.4,88.1,182.3,88.1z"/>
</g>
<g>
	<g>
		<circle class="st1" cx="315.4" cy="172" r="43.3"/>
	</g>
	<g>
		<path class="st2" d="M315.4,216.7c-24.6,0-44.6-20-44.6-44.6s20-44.6,44.6-44.6c24.6,0,44.6,20,44.6,44.6S340,216.7,315.4,216.7z
			 M315.4,130.1c-23.1,0-41.9,18.8-41.9,41.9c0,23.1,18.8,41.9,41.9,41.9c23.1,0,41.9-18.8,41.9-41.9
			C357.3,148.9,338.5,130.1,315.4,130.1z"/>
	</g>
</g>
<g>
	<g>
		<circle class="st1" cx="44.6" cy="172" r="43.3"/>
	</g>
	<g>
		<path class="st2" d="M44.6,216.7C20,216.7,0,196.7,0,172s20-44.6,44.6-44.6s44.6,20,44.6,44.6S69.3,216.7,44.6,216.7z M44.6,130.1
			c-23.1,0-41.9,18.8-41.9,41.9c0,23.1,18.8,41.9,41.9,41.9s41.9-18.8,41.9-41.9C86.6,148.9,67.8,130.1,44.6,130.1z"/>
	</g>
</g>
<g>
	<g>
		<circle class="st1" cx="101.6" cy="316.2" r="43.3"/>
	</g>
	<g>
		<path class="st2" d="M101.6,360.8c-24.6,0-44.6-20-44.6-44.6c0-24.6,20-44.6,44.6-44.6s44.6,20,44.6,44.6
			C146.2,340.8,126.2,360.8,101.6,360.8z M101.6,274.2c-23.1,0-41.9,18.8-41.9,41.9s18.8,41.9,41.9,41.9c23.1,0,41.9-18.8,41.9-41.9
			S124.7,274.2,101.6,274.2z"/>
	</g>
</g>
<g>
	<g>
		<circle class="st1" cx="254.5" cy="318.6" r="43.3"/>
	</g>
	<g>
		<path class="st2" d="M254.5,363.2c-24.6,0-44.6-20-44.6-44.6c0-24.6,20-44.6,44.6-44.6s44.6,20,44.6,44.6
			C299.1,343.2,279.1,363.2,254.5,363.2z M254.5,276.6c-23.1,0-41.9,18.8-41.9,41.9c0,23.1,18.8,41.9,41.9,41.9s41.9-18.8,41.9-41.9
			C296.4,295.4,277.6,276.6,254.5,276.6z"/>
	</g>
</g>
<g>
	<g>
		<circle class="st1" cx="179.2" cy="204.4" r="58"/>
	</g>
	<g>
		<path class="st2" d="M179.2,263.8c-32.7,0-59.4-26.6-59.4-59.4s26.6-59.4,59.4-59.4s59.4,26.6,59.4,59.4S211.9,263.8,179.2,263.8z
			 M179.2,147.7c-31.2,0-56.7,25.4-56.7,56.7s25.4,56.7,56.7,56.7c31.2,0,56.7-25.4,56.7-56.7S210.4,147.7,179.2,147.7z"/>
	</g>
</g>
<g>
	<g>
		<path class="st3" d="M149.5,189.3h2.2l1.2,3.7l1.2-3.7h2.2l-2.3,5.7h-2.3L149.5,189.3z"/>
		<path class="st3" d="M157.2,189.3h2v5.7h-2V189.3z M158.1,187.6h1.7l-0.9,1.2h-1.7L158.1,187.6z"/>
		<path class="st3" d="M160.5,189.3h1.7l2.2,2.7v-2.7h2v5.7h-1.7l-2.2-2.6v2.6h-2V189.3z"/>
		<path class="st3" d="M167.3,192.2c0-1.7,1.2-3.1,3.3-3.1c1,0,1.8,0.3,2.4,0.9l-1.2,1.2c-0.3-0.2-0.6-0.4-1.1-0.4
			c-0.9,0-1.4,0.6-1.4,1.4c0,0.8,0.6,1.4,1.4,1.4c0.6,0,1-0.3,1.2-0.5l1.2,1.2c-0.6,0.6-1.5,0.9-2.5,0.9
			C168.6,195.3,167.3,193.9,167.3,192.2z"/>
		<path class="st3" d="M174,192.3v-2.9h2v3c0,0.6,0.4,1.1,1,1.1c0.6,0,1-0.5,1-1.1v-3h2v2.9c0,1.9-1.4,3-3,3S174,194.2,174,192.3z"
			/>
		<path class="st3" d="M181.1,189.3h2v4h3.2v1.7h-5.2V189.3z"/>
		<path class="st3" d="M186.9,192.2c0-1.7,1.3-3.1,3.3-3.1c2.1,0,3.3,1.4,3.3,3.1s-1.3,3.1-3.3,3.1
			C188.2,195.3,186.9,193.9,186.9,192.2z M191.6,192.2c0-0.8-0.5-1.4-1.3-1.4c-0.8,0-1.3,0.6-1.3,1.4s0.5,1.4,1.3,1.4
			C191.1,193.6,191.6,193,191.6,192.2z"/>
		<path class="st3" d="M194.3,194.5l0.6-1.4c0.4,0.3,1.3,0.6,2,0.6c0.5,0,0.7-0.1,0.7-0.3c0-0.3-0.6-0.3-1.4-0.5
			c-0.9-0.2-1.9-0.5-1.9-1.7c0-1.2,1-2,2.5-2c1,0,1.9,0.4,2.3,0.8l-0.7,1.2c-0.4-0.2-1.1-0.5-1.7-0.5c-0.5,0-0.7,0.1-0.7,0.3
			c0,0.2,0.3,0.3,1.4,0.5c0.7,0.1,1.9,0.4,1.9,1.7c0,1.2-0.9,2-2.5,2C195.8,195.3,194.7,194.8,194.3,194.5z"/>
		<path class="st3" d="M203,189.3h5.4v1.6H205v0.5h2.9v1.3H205v0.6h3.4v1.6H203V189.3z"/>
		<path class="st3" d="M131.9,199.8h2.3l2.6,5.7h-2.2l-0.3-0.7h-2.5l-0.3,0.7h-2.2L131.9,199.8z M133.6,203.2l-0.6-1.5h0l-0.6,1.5
			H133.6z"/>
		<path class="st3" d="M139.5,203.8v1.7h-2v-5.7h4c1.4,0,2.2,0.9,2.2,2.1c0,1.3-1,1.7-2,1.7c0.3,0.3,0.7,0.4,1,0.4
			c0.5,0,0.8-0.2,0.9-0.3l0.7,1.3c-0.2,0.3-0.9,0.6-1.7,0.6C141.4,205.6,140.6,205.1,139.5,203.8z M141.1,202.4
			c0.4,0,0.6-0.2,0.6-0.5s-0.2-0.5-0.6-0.5h-1.6v1H141.1z"/>
		<path class="st3" d="M146.2,201.5h-1.9v-1.7h5.8v1.7h-1.9v4h-1.9V201.5z"/>
		<path class="st3" d="M150.8,199.8h2v5.7h-2V199.8z"/>
		<path class="st3" d="M153.7,202.6c0-1.7,1.2-3.1,3.3-3.1c1,0,1.8,0.3,2.4,0.9l-1.2,1.2c-0.3-0.2-0.6-0.4-1.1-0.4
			c-0.9,0-1.4,0.6-1.4,1.4c0,0.8,0.6,1.4,1.4,1.4c0.6,0,1-0.3,1.2-0.5l1.2,1.2c-0.6,0.6-1.5,0.9-2.5,0.9
			C155,205.7,153.7,204.3,153.7,202.6z"/>
		<path class="st3" d="M160.4,202.7v-2.9h2v3c0,0.6,0.4,1.1,1,1.1c0.6,0,1-0.5,1-1.1v-3h2v2.9c0,1.9-1.4,3-3,3
			S160.4,204.7,160.4,202.7z"/>
		<path class="st3" d="M167.5,199.8h2v4h3.2v1.7h-5.2V199.8z"/>
		<path class="st3" d="M175.6,199.8h2.3l2.6,5.7h-2.2l-0.3-0.7h-2.5l-0.3,0.7h-2.2L175.6,199.8z M177.4,203.2l-0.6-1.5h0l-0.6,1.5
			H177.4z"/>
		<path class="st3" d="M185.5,206.8c0,0.6-0.4,1-1,1h-1.3l-0.2-0.7h0.9c0.3,0,0.5,0,0.5-0.3s-0.3-0.2-0.5-0.2h-1l-0.1-0.3l0.5-0.6
			c-1.7-0.3-2.7-1.5-2.7-3c0-1.7,1.2-3.1,3.3-3.1c1,0,1.8,0.3,2.4,0.9l-1.2,1.2c-0.3-0.2-0.6-0.4-1.1-0.4c-0.9,0-1.4,0.6-1.4,1.4
			c0,0.8,0.6,1.4,1.4,1.4c0.6,0,1-0.3,1.2-0.5l1.2,1.2c-0.5,0.5-1.1,0.8-2,0.9l-0.2,0.3C184.8,205.9,185.5,206,185.5,206.8z"/>
		<path class="st3" d="M187,202.6c0-1.7,1.3-3.1,3.3-3.1c2.1,0,3.3,1.4,3.3,3.1s-1.3,3.1-3.3,3.1C188.2,205.7,187,204.3,187,202.6z
			 M188.1,198.4c0.2-0.3,0.7-0.6,1.3-0.6c0.9,0,1.1,0.4,1.7,0.4c0.4,0,0.8-0.3,0.9-0.4l0.6,0.9c-0.3,0.3-0.8,0.6-1.2,0.6
			c-0.9,0-1.1-0.4-1.7-0.4c-0.4,0-0.8,0.3-0.9,0.4L188.1,198.4z M191.6,202.6c0-0.8-0.5-1.4-1.3-1.4c-0.8,0-1.3,0.6-1.3,1.4
			s0.5,1.4,1.3,1.4C191.1,204,191.6,203.4,191.6,202.6z"/>
		<path class="st3" d="M194.6,199.8h5.4v1.6h-3.4v0.5h2.9v1.3h-2.9v0.6h3.4v1.6h-5.4V199.8z"/>
		<path class="st3" d="M200.8,204.9l0.6-1.4c0.4,0.3,1.3,0.6,2,0.6c0.5,0,0.7-0.1,0.7-0.3c0-0.3-0.6-0.3-1.4-0.5
			c-0.9-0.2-1.9-0.5-1.9-1.7c0-1.2,1-2,2.5-2c1,0,1.9,0.4,2.3,0.8l-0.7,1.2c-0.4-0.2-1.1-0.5-1.7-0.5c-0.5,0-0.7,0.1-0.7,0.3
			c0,0.2,0.3,0.3,1.4,0.5c0.7,0.1,1.9,0.4,1.9,1.7c0,1.2-0.9,2-2.5,2C202.3,205.7,201.3,205.2,200.8,204.9z"/>
		<path class="st3" d="M209.6,199.8h3.1c1.9,0,3,1.1,3,2.9s-1.1,2.8-3,2.8h-3.1V199.8z M212.4,203.8c0.7,0,1.3-0.4,1.3-1.2
			c0-0.8-0.6-1.2-1.3-1.2h-0.8v2.4H212.4z"/>
		<path class="st3" d="M216.3,202.6c0-1.7,1.3-3.1,3.3-3.1c2.1,0,3.3,1.4,3.3,3.1s-1.3,3.1-3.3,3.1
			C217.6,205.7,216.3,204.3,216.3,202.6z M221,202.6c0-0.8-0.5-1.4-1.3-1.4c-0.8,0-1.3,0.6-1.3,1.4s0.5,1.4,1.3,1.4
			C220.5,204,221,203.4,221,202.6z"/>
		<path class="st3" d="M223.7,204.9l0.6-1.4c0.4,0.3,1.3,0.6,2,0.6c0.5,0,0.7-0.1,0.7-0.3c0-0.3-0.6-0.3-1.4-0.5
			c-0.9-0.2-1.9-0.5-1.9-1.7c0-1.2,1-2,2.5-2c1,0,1.9,0.4,2.3,0.8l-0.7,1.2c-0.4-0.2-1.1-0.5-1.7-0.5c-0.5,0-0.7,0.1-0.7,0.3
			c0,0.2,0.3,0.3,1.4,0.5c0.7,0.1,1.9,0.4,1.9,1.7c0,1.2-0.9,2-2.5,2C225.2,205.7,224.1,205.2,223.7,204.9z"/>
		<path class="st3" d="M140.9,213.1c0-1.7,1.2-3.1,3.3-3.1c1,0,1.8,0.3,2.4,0.9l-1.2,1.2c-0.3-0.2-0.6-0.4-1.1-0.4
			c-0.9,0-1.4,0.6-1.4,1.4c0,0.8,0.6,1.4,1.4,1.4c0.6,0,1-0.3,1.2-0.5l1.2,1.2c-0.6,0.6-1.5,0.9-2.5,0.9
			C142.2,216.1,140.9,214.7,140.9,213.1z"/>
		<path class="st3" d="M147.3,213c0-1.7,1.3-3.1,3.3-3.1c2.1,0,3.3,1.4,3.3,3.1s-1.3,3.1-3.3,3.1C148.6,216.1,147.3,214.7,147.3,213
			z M152,213c0-0.8-0.5-1.4-1.3-1.4c-0.8,0-1.3,0.6-1.3,1.4s0.5,1.4,1.3,1.4C151.4,214.5,152,213.9,152,213z"/>
		<path class="st3" d="M154.9,210.2h1.7l2.2,2.7v-2.7h2v5.7h-1.7l-2.2-2.6v2.6h-2V210.2z"/>
		<path class="st3" d="M161.8,215.3l0.6-1.4c0.4,0.3,1.3,0.6,2,0.6c0.5,0,0.7-0.1,0.7-0.3c0-0.3-0.6-0.3-1.4-0.5
			c-0.9-0.2-1.9-0.5-1.9-1.7c0-1.2,1-2,2.5-2c1,0,1.9,0.4,2.3,0.8L166,212c-0.4-0.2-1.1-0.5-1.7-0.5c-0.5,0-0.7,0.1-0.7,0.3
			c0,0.2,0.3,0.3,1.4,0.5c0.7,0.1,1.9,0.4,1.9,1.7c0,1.2-0.9,2-2.5,2C163.3,216.1,162.3,215.7,161.8,215.3z"/>
		<path class="st3" d="M168,210.2h5.4v1.6H170v0.5h2.9v1.3H170v0.6h3.4v1.6H168V210.2z"/>
		<path class="st3" d="M174.5,210.2h2v4h3.2v1.7h-5.2V210.2z"/>
		<path class="st3" d="M180.6,210.2h2v1.9h2v-1.9h2v5.7h-2v-2h-2v2h-2V210.2z"/>
		<path class="st3" d="M188,210.2h5.4v1.6H190v0.5h2.9v1.3H190v0.6h3.4v1.6H188V210.2z"/>
		<path class="st3" d="M194.5,210.2h2v5.7h-2V210.2z"/>
		<path class="st3" d="M199.8,214.2v1.7h-2v-5.7h4c1.4,0,2.2,0.9,2.2,2.1c0,1.3-1,1.7-2,1.7c0.3,0.3,0.7,0.4,1,0.4
			c0.5,0,0.8-0.2,0.9-0.3l0.7,1.3c-0.2,0.3-0.9,0.6-1.7,0.6C201.8,216.1,201,215.6,199.8,214.2z M201.5,212.8c0.4,0,0.6-0.2,0.6-0.5
			s-0.2-0.5-0.6-0.5h-1.6v1H201.5z"/>
		<path class="st3" d="M204.9,213c0-1.7,1.3-3.1,3.3-3.1c2.1,0,3.3,1.4,3.3,3.1s-1.3,3.1-3.3,3.1C206.2,216.1,204.9,214.7,204.9,213
			z M209.6,213c0-0.8-0.5-1.4-1.3-1.4c-0.8,0-1.3,0.6-1.3,1.4s0.5,1.4,1.3,1.4C209.1,214.5,209.6,213.9,209.6,213z"/>
		<path class="st3" d="M212.3,215.3l0.6-1.4c0.4,0.3,1.3,0.6,2,0.6c0.5,0,0.7-0.1,0.7-0.3c0-0.3-0.6-0.3-1.4-0.5
			c-0.9-0.2-1.9-0.5-1.9-1.7c0-1.2,1-2,2.5-2c1,0,1.9,0.4,2.3,0.8l-0.7,1.2c-0.4-0.2-1.1-0.5-1.7-0.5c-0.5,0-0.7,0.1-0.7,0.3
			c0,0.2,0.3,0.3,1.4,0.5c0.7,0.1,1.9,0.4,1.9,1.7c0,1.2-0.9,2-2.5,2C213.8,216.1,212.8,215.7,212.3,215.3z"/>
	</g>
</g>
<g>
	<g>
		<circle class="st1" cx="179.2" cy="73.9" r="43.3"/>
	</g>
	<g>
		<path class="st2" d="M179.2,118.6c-24.6,0-44.6-20-44.6-44.6s20-44.6,44.6-44.6s44.6,20,44.6,44.6S203.8,118.6,179.2,118.6z
			 M179.2,32c-23.1,0-41.9,18.8-41.9,41.9c0,23.1,18.8,41.9,41.9,41.9c23.1,0,41.9-18.8,41.9-41.9C221.1,50.8,202.3,32,179.2,32z"/>
	</g>
</g>
<g>
	<g>
		<path class="st3" d="M162.1,61.7c-0.3,0.1-0.9,0.3-1.7,0.3c-2.3,0-3.5-1.4-3.5-3.3c0-2.2,1.6-3.5,3.6-3.5c0.8,0,1.4,0.2,1.6,0.3
			l-0.3,1.2c-0.3-0.1-0.7-0.2-1.3-0.2c-1.2,0-2.1,0.7-2.1,2.2c0,1.3,0.8,2.2,2.1,2.2c0.5,0,0.9-0.1,1.2-0.2L162.1,61.7z"/>
		<path class="st3" d="M165.7,61.9l-0.1-0.5h0c-0.3,0.4-0.8,0.6-1.4,0.6c-1,0-1.5-0.7-1.5-1.5c0-1.2,1.1-1.8,2.8-1.8v-0.1
			c0-0.3-0.1-0.6-0.9-0.6c-0.5,0-1,0.2-1.3,0.4l-0.3-1c0.3-0.2,1-0.4,1.9-0.4c1.6,0,2.1,0.9,2.1,2.1v1.7c0,0.5,0,0.9,0.1,1.2H165.7z
			 M165.4,55.1l1,1.5h-1l-0.5-0.9h0l-0.5,0.9h-1l1-1.5H165.4z M165.5,59.7c-0.8,0-1.4,0.2-1.4,0.8c0,0.4,0.3,0.6,0.6,0.6
			c0.4,0,0.7-0.2,0.8-0.5c0-0.1,0-0.2,0-0.3V59.7z"/>
		<path class="st3" d="M168.1,58.7c0-0.6,0-1.1,0-1.5h1.3l0.1,0.6h0c0.2-0.3,0.6-0.8,1.4-0.8c0.6,0,1.1,0.3,1.3,0.8h0
			c0.2-0.2,0.4-0.4,0.6-0.6c0.3-0.2,0.6-0.2,0.9-0.2c0.9,0,1.6,0.6,1.6,2.1v2.8h-1.4v-2.6c0-0.7-0.2-1.1-0.7-1.1
			c-0.3,0-0.6,0.2-0.7,0.5c0,0.1-0.1,0.3-0.1,0.4v2.8H171v-2.7c0-0.6-0.2-1-0.7-1c-0.4,0-0.6,0.3-0.7,0.5c0,0.1-0.1,0.3-0.1,0.4v2.8
			h-1.4V58.7z"/>
		<path class="st3" d="M179.2,61.9l-0.1-0.5h0c-0.3,0.4-0.8,0.6-1.4,0.6c-1,0-1.5-0.7-1.5-1.5c0-1.2,1.1-1.8,2.8-1.8v-0.1
			c0-0.3-0.1-0.6-0.9-0.6c-0.5,0-1,0.2-1.3,0.4l-0.3-1c0.3-0.2,1-0.4,1.9-0.4c1.6,0,2.1,0.9,2.1,2.1v1.7c0,0.5,0,0.9,0.1,1.2H179.2z
			 M179.1,59.7c-0.8,0-1.4,0.2-1.4,0.8c0,0.4,0.3,0.6,0.6,0.6c0.4,0,0.7-0.2,0.8-0.5c0-0.1,0-0.2,0-0.3V59.7z"/>
		<path class="st3" d="M181.7,58.7c0-0.7,0-1.2,0-1.6h1.3l0,0.9h0c0.2-0.7,0.8-1,1.3-1c0.1,0,0.2,0,0.3,0v1.4c-0.1,0-0.2,0-0.4,0
			c-0.5,0-0.9,0.3-1,0.8c0,0.1,0,0.2,0,0.3v2.4h-1.5V58.7z"/>
		<path class="st3" d="M188,61.9l-0.1-0.5h0c-0.3,0.4-0.8,0.6-1.4,0.6c-1,0-1.5-0.7-1.5-1.5c0-1.2,1.1-1.8,2.8-1.8v-0.1
			c0-0.3-0.1-0.6-0.9-0.6c-0.5,0-1,0.2-1.3,0.4l-0.3-1c0.3-0.2,1-0.4,1.9-0.4c1.6,0,2.1,0.9,2.1,2.1v1.7c0,0.5,0,0.9,0.1,1.2H188z
			 M187.8,59.7c-0.8,0-1.4,0.2-1.4,0.8c0,0.4,0.3,0.6,0.6,0.6c0.4,0,0.7-0.2,0.8-0.5c0-0.1,0-0.2,0-0.3V59.7z"/>
		<path class="st3" d="M197,55v5.5c0,0.5,0,1.1,0,1.4h-1.3l-0.1-0.7h0c-0.3,0.5-0.9,0.8-1.5,0.8c-1.1,0-2-1-2-2.5
			c0-1.6,1-2.5,2.1-2.5c0.6,0,1,0.2,1.3,0.5h0V55H197z M195.6,59.2c0-0.1,0-0.2,0-0.3c-0.1-0.4-0.4-0.7-0.9-0.7c-0.7,0-1,0.6-1,1.4
			c0,0.8,0.4,1.3,1,1.3c0.4,0,0.8-0.3,0.9-0.7c0-0.1,0-0.2,0-0.3V59.2z"/>
		<path class="st3" d="M199.4,60c0,0.6,0.7,0.9,1.3,0.9c0.5,0,0.9-0.1,1.3-0.2l0.2,1c-0.5,0.2-1.1,0.3-1.7,0.3
			c-1.6,0-2.6-0.9-2.6-2.4c0-1.2,0.8-2.6,2.4-2.6c1.5,0,2.1,1.2,2.1,2.4c0,0.3,0,0.5,0,0.6H199.4z M201.1,59c0-0.4-0.2-1-0.8-1
			c-0.6,0-0.9,0.6-0.9,1H201.1z"/>
		<path class="st3" d="M150.5,73.6l-2.1-6.6h1.6l0.8,2.8c0.2,0.8,0.4,1.5,0.6,2.4h0c0.2-0.8,0.4-1.6,0.6-2.3l0.8-2.8h1.6l-2.2,6.6
			H150.5z"/>
		<path class="st3" d="M155.8,71.7c0,0.6,0.7,0.9,1.3,0.9c0.5,0,0.9-0.1,1.3-0.2l0.2,1c-0.5,0.2-1.1,0.3-1.7,0.3
			c-1.6,0-2.6-0.9-2.6-2.4c0-1.2,0.8-2.6,2.4-2.6c1.5,0,2.1,1.2,2.1,2.4c0,0.3,0,0.5,0,0.6H155.8z M157.6,70.7c0-0.4-0.2-1-0.8-1
			c-0.6,0-0.9,0.6-0.9,1H157.6z"/>
		<path class="st3" d="M159.8,70.4c0-0.7,0-1.2,0-1.6h1.3l0,0.9h0c0.2-0.7,0.8-1,1.3-1c0.1,0,0.2,0,0.3,0v1.4c-0.1,0-0.2,0-0.4,0
			c-0.5,0-0.9,0.3-1,0.8c0,0.1,0,0.2,0,0.3v2.4h-1.5V70.4z"/>
		<path class="st3" d="M164.6,71.7c0,0.6,0.7,0.9,1.3,0.9c0.5,0,0.9-0.1,1.3-0.2l0.2,1c-0.5,0.2-1.1,0.3-1.7,0.3
			c-1.6,0-2.6-0.9-2.6-2.4c0-1.2,0.8-2.6,2.4-2.6c1.5,0,2.1,1.2,2.1,2.4c0,0.3,0,0.5,0,0.6H164.6z M166.4,70.7c0-0.4-0.2-1-0.8-1
			c-0.6,0-0.9,0.6-0.9,1H166.4z"/>
		<path class="st3" d="M171.4,73.6l-0.1-0.5h0c-0.3,0.4-0.8,0.6-1.4,0.6c-1,0-1.5-0.7-1.5-1.5c0-1.2,1.1-1.8,2.8-1.8v-0.1
			c0-0.3-0.1-0.6-0.9-0.6c-0.5,0-1,0.2-1.3,0.4l-0.3-1c0.3-0.2,1-0.4,1.9-0.4c1.6,0,2.1,0.9,2.1,2.1v1.7c0,0.5,0,0.9,0.1,1.2H171.4z
			 M171.2,71.4c-0.8,0-1.4,0.2-1.4,0.8c0,0.4,0.3,0.6,0.6,0.6c0.4,0,0.7-0.2,0.8-0.5c0-0.1,0-0.2,0-0.3V71.4z"/>
		<path class="st3" d="M178.4,66.7v5.5c0,0.5,0,1.1,0,1.4h-1.3l-0.1-0.7h0c-0.3,0.5-0.9,0.8-1.5,0.8c-1.1,0-2-1-2-2.5
			c0-1.6,1-2.5,2.1-2.5c0.6,0,1,0.2,1.3,0.5h0v-2.6H178.4z M177,70.9c0-0.1,0-0.2,0-0.3c-0.1-0.4-0.4-0.7-0.9-0.7
			c-0.7,0-1,0.6-1,1.4c0,0.8,0.4,1.3,1,1.3c0.4,0,0.8-0.3,0.9-0.7c0-0.1,0-0.2,0-0.3V70.9z"/>
		<path class="st3" d="M184.3,71.2c0,1.8-1.2,2.6-2.5,2.6c-1.4,0-2.5-0.9-2.5-2.5c0-1.5,1-2.5,2.6-2.5
			C183.4,68.8,184.3,69.8,184.3,71.2z M180.9,71.3c0,0.8,0.3,1.4,1,1.4c0.6,0,0.9-0.6,0.9-1.4c0-0.7-0.3-1.4-0.9-1.4
			C181.2,69.8,180.9,70.5,180.9,71.3z"/>
		<path class="st3" d="M185.3,70.4c0-0.7,0-1.2,0-1.6h1.3l0,0.9h0c0.2-0.7,0.8-1,1.3-1c0.1,0,0.2,0,0.3,0v1.4c-0.1,0-0.2,0-0.4,0
			c-0.5,0-0.9,0.3-1,0.8c0,0.1,0,0.2,0,0.3v2.4h-1.5V70.4z"/>
		<path class="st3" d="M190,71.7c0,0.6,0.7,0.9,1.3,0.9c0.5,0,0.9-0.1,1.3-0.2l0.2,1c-0.5,0.2-1.1,0.3-1.7,0.3
			c-1.6,0-2.6-0.9-2.6-2.4c0-1.2,0.8-2.6,2.4-2.6c1.5,0,2.1,1.2,2.1,2.4c0,0.3,0,0.5,0,0.6H190z M191.8,70.7c0-0.4-0.2-1-0.8-1
			c-0.6,0-0.9,0.6-0.9,1H191.8z"/>
		<path class="st3" d="M194.1,72.3c0.3,0.2,0.8,0.4,1.3,0.4c0.5,0,0.6-0.2,0.6-0.4c0-0.2-0.1-0.4-0.7-0.5c-1-0.3-1.4-0.9-1.4-1.4
			c0-0.9,0.8-1.6,1.9-1.6c0.6,0,1.1,0.1,1.3,0.3l-0.3,1c-0.2-0.1-0.6-0.3-1-0.3c-0.4,0-0.6,0.1-0.6,0.4c0,0.2,0.2,0.3,0.8,0.5
			c0.9,0.3,1.3,0.8,1.3,1.5c0,0.9-0.7,1.5-2.1,1.5c-0.6,0-1.2-0.1-1.5-0.3L194.1,72.3z"/>
		<path class="st3" d="M204.9,66.7v5.5c0,0.5,0,1.1,0,1.4h-1.3l-0.1-0.7h0c-0.3,0.5-0.9,0.8-1.5,0.8c-1.1,0-2-1-2-2.5
			c0-1.6,1-2.5,2.1-2.5c0.6,0,1,0.2,1.3,0.5h0v-2.6H204.9z M203.4,70.9c0-0.1,0-0.2,0-0.3c-0.1-0.4-0.4-0.7-0.9-0.7
			c-0.7,0-1,0.6-1,1.4c0,0.8,0.4,1.3,1,1.3c0.4,0,0.8-0.3,0.9-0.7c0-0.1,0-0.2,0-0.3V70.9z"/>
		<path class="st3" d="M210.8,71.2c0,1.8-1.2,2.6-2.5,2.6c-1.4,0-2.5-0.9-2.5-2.5c0-1.5,1-2.5,2.6-2.5
			C209.8,68.8,210.8,69.8,210.8,71.2z M207.4,71.3c0,0.8,0.3,1.4,1,1.4c0.6,0,0.9-0.6,0.9-1.4c0-0.7-0.3-1.4-0.9-1.4
			C207.6,69.8,207.4,70.5,207.4,71.3z"/>
		<path class="st3" d="M158.4,82.1c0-0.6,0-1.1,0-1.5h1.3l0.1,0.6h0c0.2-0.3,0.6-0.8,1.4-0.8c0.6,0,1.1,0.3,1.3,0.8h0
			c0.2-0.2,0.4-0.4,0.6-0.6c0.3-0.2,0.6-0.2,0.9-0.2c0.9,0,1.6,0.6,1.6,2.1v2.8h-1.4v-2.6c0-0.7-0.2-1.1-0.7-1.1
			c-0.3,0-0.6,0.2-0.7,0.5c0,0.1-0.1,0.3-0.1,0.4v2.8h-1.4v-2.7c0-0.6-0.2-1-0.7-1c-0.4,0-0.6,0.3-0.7,0.5c0,0.1-0.1,0.3-0.1,0.4
			v2.8h-1.4V82.1z"/>
		<path class="st3" d="M171.3,83.8c0,0.6,0,1.1,0,1.5h-1.3l-0.1-0.7h0c-0.2,0.3-0.6,0.8-1.5,0.8c-1,0-1.7-0.6-1.7-2.1v-2.8h1.5v2.6
			c0,0.7,0.2,1.1,0.7,1.1c0.4,0,0.6-0.3,0.7-0.5c0-0.1,0-0.2,0-0.3v-2.8h1.5V83.8z"/>
		<path class="st3" d="M172.5,82.1c0-0.6,0-1.1,0-1.5h1.3l0.1,0.7h0c0.2-0.3,0.7-0.8,1.5-0.8c1,0,1.7,0.6,1.7,2.1v2.8h-1.5v-2.7
			c0-0.6-0.2-1-0.8-1c-0.4,0-0.7,0.3-0.8,0.6c0,0.1-0.1,0.2-0.1,0.4v2.8h-1.5V82.1z"/>
		<path class="st3" d="M179.8,79.3c0,0.4-0.3,0.7-0.8,0.7c-0.5,0-0.8-0.3-0.8-0.7c0-0.4,0.3-0.8,0.8-0.8S179.8,78.8,179.8,79.3z
			 M178.3,85.4v-4.8h1.5v4.8H178.3z"/>
		<path class="st3" d="M184.5,85.3c-0.3,0.1-0.8,0.2-1.3,0.2c-1.5,0-2.5-0.9-2.5-2.4c0-1.4,1-2.5,2.7-2.5c0.4,0,0.8,0.1,1.1,0.2
			l-0.2,1.1c-0.2-0.1-0.4-0.1-0.8-0.1c-0.8,0-1.3,0.6-1.3,1.3c0,0.9,0.6,1.3,1.3,1.3c0.4,0,0.6-0.1,0.9-0.1L184.5,85.3z"/>
		<path class="st3" d="M185.3,85.4v-4.8h1.5v4.8H185.3z M187.7,78.5l-1.2,1.5h-1l0.8-1.5H187.7z"/>
		<path class="st3" d="M188,82.2c0-0.6,0-1.2,0-1.6h1.3l0.1,0.7h0c0.4-0.5,0.9-0.8,1.6-0.8c1,0,2,0.9,2,2.4c0,1.7-1.1,2.6-2.2,2.6
			c-0.6,0-1-0.2-1.2-0.5h0v2.4H188V82.2z M189.5,83.3c0,0.1,0,0.2,0,0.3c0.1,0.4,0.4,0.7,0.9,0.7c0.6,0,1-0.5,1-1.4
			c0-0.8-0.3-1.3-1-1.3c-0.4,0-0.8,0.3-0.9,0.8c0,0.1,0,0.2,0,0.3V83.3z"/>
		<path class="st3" d="M195.4,79.3c0,0.4-0.3,0.7-0.8,0.7c-0.5,0-0.8-0.3-0.8-0.7c0-0.4,0.3-0.8,0.8-0.8S195.4,78.8,195.4,79.3z
			 M193.9,85.4v-4.8h1.5v4.8H193.9z"/>
		<path class="st3" d="M201.3,82.9c0,1.8-1.2,2.6-2.5,2.6c-1.4,0-2.5-0.9-2.5-2.5c0-1.5,1-2.5,2.6-2.5
			C200.3,80.5,201.3,81.5,201.3,82.9z M197.8,83c0,0.8,0.3,1.4,1,1.4c0.6,0,0.9-0.6,0.9-1.4c0-0.7-0.3-1.4-0.9-1.4
			C198.1,81.5,197.8,82.3,197.8,83z"/>
	</g>
</g>
<g>
	<g>
		<path class="st3" d="M286.1,162.7l-0.5,1.7h-1.5l2-6.6h2l2,6.6h-1.6l-0.5-1.7H286.1z M287.8,161.6l-0.4-1.4
			c-0.1-0.4-0.2-0.9-0.3-1.3h0c-0.1,0.4-0.2,0.9-0.3,1.3l-0.4,1.4H287.8z"/>
		<path class="st3" d="M290.9,163.1c0.3,0.2,0.8,0.4,1.3,0.4c0.5,0,0.6-0.2,0.6-0.4c0-0.2-0.1-0.4-0.7-0.5c-1-0.3-1.4-0.9-1.4-1.4
			c0-0.9,0.8-1.6,1.9-1.6c0.6,0,1.1,0.1,1.3,0.3l-0.3,1c-0.2-0.1-0.6-0.3-1-0.3c-0.4,0-0.6,0.1-0.6,0.4c0,0.2,0.2,0.3,0.8,0.5
			c0.9,0.3,1.3,0.8,1.3,1.5c0,0.9-0.7,1.5-2.1,1.5c-0.6,0-1.2-0.1-1.5-0.3L290.9,163.1z"/>
		<path class="st3" d="M299.8,164.4l-0.1-0.5h0c-0.3,0.4-0.8,0.6-1.4,0.6c-1,0-1.5-0.7-1.5-1.5c0-1.2,1.1-1.8,2.8-1.8v-0.1
			c0-0.3-0.1-0.6-0.9-0.6c-0.5,0-1,0.2-1.3,0.4l-0.3-1c0.3-0.2,1-0.4,1.9-0.4c1.6,0,2.1,0.9,2.1,2.1v1.7c0,0.5,0,0.9,0.1,1.2H299.8z
			 M299.7,162.1c-0.8,0-1.4,0.2-1.4,0.8c0,0.4,0.3,0.6,0.6,0.6c0.4,0,0.7-0.2,0.8-0.5c0-0.1,0-0.2,0-0.3V162.1z"/>
		<path class="st3" d="M302.3,163.1c0.3,0.2,0.8,0.4,1.3,0.4c0.5,0,0.6-0.2,0.6-0.4c0-0.2-0.1-0.4-0.7-0.5c-1-0.3-1.4-0.9-1.4-1.4
			c0-0.9,0.8-1.6,1.9-1.6c0.6,0,1.1,0.1,1.3,0.3l-0.3,1c-0.2-0.1-0.6-0.3-1-0.3c-0.4,0-0.6,0.1-0.6,0.4c0,0.2,0.2,0.3,0.8,0.5
			c0.9,0.3,1.3,0.8,1.3,1.5c0,0.9-0.7,1.5-2.1,1.5c-0.6,0-1.2-0.1-1.5-0.3L302.3,163.1z"/>
		<path class="st3" d="M306.5,163.1c0.3,0.2,0.8,0.4,1.3,0.4c0.5,0,0.6-0.2,0.6-0.4c0-0.2-0.1-0.4-0.7-0.5c-1-0.3-1.4-0.9-1.4-1.4
			c0-0.9,0.8-1.6,1.9-1.6c0.6,0,1.1,0.1,1.3,0.3l-0.3,1c-0.2-0.1-0.6-0.3-1-0.3c-0.4,0-0.6,0.1-0.6,0.4c0,0.2,0.2,0.3,0.8,0.5
			c0.9,0.3,1.3,0.8,1.3,1.5c0,0.9-0.7,1.5-2.1,1.5c-0.6,0-1.2-0.1-1.5-0.3L306.5,163.1z"/>
		<path class="st3" d="M311.9,162.5c0,0.6,0.7,0.9,1.3,0.9c0.5,0,0.9-0.1,1.3-0.2l0.2,1c-0.5,0.2-1.1,0.3-1.7,0.3
			c-1.6,0-2.6-0.9-2.6-2.4c0-1.2,0.8-2.6,2.4-2.6c1.5,0,2.1,1.2,2.1,2.4c0,0.3,0,0.5,0,0.6H311.9z M313.7,161.5c0-0.4-0.2-1-0.8-1
			c-0.6,0-0.9,0.6-0.9,1H313.7z"/>
		<path class="st3" d="M315.9,161.1c0-0.6,0-1.1,0-1.5h1.3l0.1,0.6h0c0.2-0.3,0.6-0.8,1.4-0.8c0.6,0,1.1,0.3,1.3,0.8h0
			c0.2-0.2,0.4-0.4,0.6-0.6c0.3-0.2,0.6-0.2,0.9-0.2c0.9,0,1.6,0.6,1.6,2.1v2.8h-1.4v-2.6c0-0.7-0.2-1.1-0.7-1.1
			c-0.3,0-0.6,0.2-0.7,0.5c0,0.1-0.1,0.3-0.1,0.4v2.8h-1.4v-2.7c0-0.6-0.2-1-0.7-1c-0.4,0-0.6,0.3-0.7,0.5c0,0.1-0.1,0.3-0.1,0.4
			v2.8h-1.4V161.1z"/>
		<path class="st3" d="M324.3,164.4c0-0.3,0-0.9,0-1.4v-5.5h1.5v2.7h0c0.3-0.4,0.8-0.7,1.4-0.7c1.1,0,2,0.9,2,2.4
			c0,1.7-1.1,2.6-2.2,2.6c-0.6,0-1.1-0.2-1.4-0.8h0l-0.1,0.7H324.3z M325.8,162.4c0,0.1,0,0.2,0,0.3c0.1,0.4,0.4,0.7,0.9,0.7
			c0.6,0,1-0.5,1-1.4c0-0.7-0.3-1.3-1-1.3c-0.4,0-0.8,0.3-0.9,0.7c0,0.1,0,0.2,0,0.3V162.4z"/>
		<path class="st3" d="M330.2,157.5h1.5v6.9h-1.5V157.5z"/>
		<path class="st3" d="M334,162.5c0,0.6,0.7,0.9,1.3,0.9c0.5,0,0.9-0.1,1.3-0.2l0.2,1c-0.5,0.2-1.1,0.3-1.7,0.3
			c-1.6,0-2.6-0.9-2.6-2.4c0-1.2,0.8-2.6,2.4-2.6c1.5,0,2.1,1.2,2.1,2.4c0,0.3,0,0.5,0,0.6H334z M335.8,161.5c0-0.4-0.2-1-0.8-1
			c-0.6,0-0.9,0.6-0.9,1H335.8z"/>
		<path class="st3" d="M339.6,158.3c0,0.4-0.3,0.7-0.8,0.7c-0.5,0-0.8-0.3-0.8-0.7c0-0.4,0.3-0.8,0.8-0.8S339.5,157.9,339.6,158.3z
			 M338,164.4v-4.8h1.5v4.8H338z"/>
		<path class="st3" d="M343.4,164.4l-0.1-0.5h0c-0.3,0.4-0.8,0.6-1.4,0.6c-1,0-1.5-0.7-1.5-1.5c0-1.2,1.1-1.8,2.8-1.8v-0.1
			c0-0.3-0.1-0.6-0.9-0.6c-0.5,0-1,0.2-1.3,0.4l-0.3-1c0.3-0.2,1-0.4,1.9-0.4c1.6,0,2.1,0.9,2.1,2.1v1.7c0,0.5,0,0.9,0.1,1.2H343.4z
			 M343.2,162.1c-0.8,0-1.4,0.2-1.4,0.8c0,0.4,0.3,0.6,0.6,0.6c0.4,0,0.7-0.2,0.8-0.5c0-0.1,0-0.2,0-0.3V162.1z"/>
		<path class="st3" d="M345.8,163.1c0.3,0.2,0.8,0.4,1.3,0.4c0.5,0,0.6-0.2,0.6-0.4c0-0.2-0.1-0.4-0.7-0.5c-1-0.3-1.4-0.9-1.4-1.4
			c0-0.9,0.8-1.6,1.9-1.6c0.6,0,1.1,0.1,1.3,0.3l-0.3,1c-0.2-0.1-0.6-0.3-1-0.3c-0.4,0-0.6,0.1-0.6,0.4c0,0.2,0.2,0.3,0.8,0.5
			c0.9,0.3,1.3,0.8,1.3,1.5c0,0.9-0.7,1.5-2.1,1.5c-0.6,0-1.2-0.1-1.5-0.3L345.8,163.1z"/>
		<path class="st3" d="M292.8,169.2h1.5v6.9h-1.5V169.2z"/>
		<path class="st3" d="M296.6,174.2c0,0.6,0.7,0.9,1.3,0.9c0.5,0,0.9-0.1,1.3-0.2l0.2,1c-0.5,0.2-1.1,0.3-1.7,0.3
			c-1.6,0-2.6-0.9-2.6-2.4c0-1.2,0.8-2.6,2.4-2.6c1.5,0,2.1,1.2,2.1,2.4c0,0.3,0,0.5,0,0.6H296.6z M298.4,173.2c0-0.4-0.2-1-0.8-1
			c-0.6,0-0.9,0.6-0.9,1H298.4z"/>
		<path class="st3" d="M305.2,171.4c0,0.3,0,0.7,0,1.4v2.7c0,0.9-0.2,1.7-0.7,2.2c-0.5,0.4-1.2,0.6-1.9,0.6c-0.6,0-1.3-0.1-1.7-0.4
			l0.3-1.1c0.3,0.2,0.8,0.4,1.4,0.4c0.7,0,1.2-0.4,1.2-1.3v-0.3h0c-0.3,0.4-0.7,0.6-1.3,0.6c-1.2,0-2-1-2-2.3c0-1.5,1-2.5,2.2-2.5
			c0.7,0,1.1,0.3,1.3,0.7h0l0-0.6H305.2z M303.7,173.3c0-0.1,0-0.2,0-0.3c-0.1-0.4-0.4-0.7-0.8-0.7c-0.5,0-1,0.5-1,1.4
			c0,0.7,0.4,1.3,1,1.3c0.4,0,0.7-0.3,0.8-0.6c0-0.1,0-0.3,0-0.4V173.3z"/>
		<path class="st3" d="M307.9,170c0,0.4-0.3,0.7-0.8,0.7c-0.5,0-0.8-0.3-0.8-0.7c0-0.4,0.3-0.8,0.8-0.8S307.9,169.6,307.9,170z
			 M306.4,176.1v-4.8h1.5v4.8H306.4z"/>
		<path class="st3" d="M309,174.8c0.3,0.2,0.8,0.4,1.3,0.4c0.5,0,0.6-0.2,0.6-0.4c0-0.2-0.1-0.4-0.7-0.5c-1-0.3-1.4-0.9-1.4-1.4
			c0-0.9,0.8-1.6,1.9-1.6c0.6,0,1.1,0.1,1.3,0.3l-0.3,1c-0.2-0.1-0.6-0.3-1-0.3c-0.4,0-0.6,0.1-0.6,0.4c0,0.2,0.2,0.3,0.8,0.5
			c0.9,0.3,1.3,0.8,1.3,1.5c0,0.9-0.7,1.5-2.1,1.5c-0.6,0-1.2-0.1-1.5-0.3L309,174.8z"/>
		<path class="st3" d="M313.3,169.2h1.5v6.9h-1.5V169.2z"/>
		<path class="st3" d="M318.7,176.1l-0.1-0.5h0c-0.3,0.4-0.8,0.6-1.4,0.6c-1,0-1.5-0.7-1.5-1.5c0-1.2,1.1-1.8,2.8-1.8v-0.1
			c0-0.3-0.1-0.6-0.9-0.6c-0.5,0-1,0.2-1.3,0.4l-0.3-1c0.3-0.2,1-0.4,1.9-0.4c1.6,0,2.1,0.9,2.1,2.1v1.7c0,0.5,0,0.9,0.1,1.2H318.7z
			 M318.5,173.9c-0.8,0-1.4,0.2-1.4,0.8c0,0.4,0.3,0.6,0.6,0.6c0.4,0,0.7-0.2,0.8-0.5c0-0.1,0-0.2,0-0.3V173.9z"/>
		<path class="st3" d="M322.7,170v1.4h1.1v1.1h-1.1v1.7c0,0.6,0.1,0.8,0.6,0.8c0.2,0,0.3,0,0.4,0l0,1.1c-0.2,0.1-0.5,0.1-1,0.1
			c-0.5,0-0.9-0.2-1.1-0.4c-0.3-0.3-0.4-0.7-0.4-1.4v-2h-0.6v-1.1h0.6v-1L322.7,170z"/>
		<path class="st3" d="M326.2,170c0,0.4-0.3,0.7-0.8,0.7c-0.5,0-0.8-0.3-0.8-0.7c0-0.4,0.3-0.8,0.8-0.8S326.2,169.6,326.2,170z
			 M324.6,176.1v-4.8h1.5v4.8H324.6z"/>
		<path class="st3" d="M328.4,171.4l0.6,2.2c0.1,0.4,0.2,0.8,0.3,1.2h0c0.1-0.4,0.2-0.8,0.3-1.2l0.6-2.2h1.6l-1.8,4.8h-1.5l-1.7-4.8
			H328.4z"/>
		<path class="st3" d="M335.1,176.1l-0.1-0.5h0c-0.3,0.4-0.8,0.6-1.4,0.6c-1,0-1.5-0.7-1.5-1.5c0-1.2,1.1-1.8,2.8-1.8v-0.1
			c0-0.3-0.1-0.6-0.9-0.6c-0.5,0-1,0.2-1.3,0.4l-0.3-1c0.3-0.2,1-0.4,1.9-0.4c1.6,0,2.1,0.9,2.1,2.1v1.7c0,0.5,0,0.9,0.1,1.2H335.1z
			 M335,173.9c-0.8,0-1.4,0.2-1.4,0.8c0,0.4,0.3,0.6,0.6,0.6c0.4,0,0.7-0.2,0.8-0.5c0-0.1,0-0.2,0-0.3V173.9z"/>
		<path class="st3" d="M337.6,174.8c0.3,0.2,0.8,0.4,1.3,0.4c0.5,0,0.6-0.2,0.6-0.4c0-0.2-0.1-0.4-0.7-0.5c-1-0.3-1.4-0.9-1.4-1.4
			c0-0.9,0.8-1.6,1.9-1.6c0.6,0,1.1,0.1,1.3,0.3l-0.3,1c-0.2-0.1-0.6-0.3-1-0.3c-0.4,0-0.6,0.1-0.6,0.4c0,0.2,0.2,0.3,0.8,0.5
			c0.9,0.3,1.3,0.8,1.3,1.5c0,0.9-0.7,1.5-2.1,1.5c-0.6,0-1.2-0.1-1.5-0.3L337.6,174.8z"/>
		<path class="st3" d="M296.2,180.9v5.5c0,0.5,0,1.1,0,1.4h-1.3l-0.1-0.7h0c-0.3,0.5-0.9,0.8-1.5,0.8c-1.1,0-2-1-2-2.5
			c0-1.6,1-2.5,2.1-2.5c0.6,0,1,0.2,1.3,0.5h0v-2.6H296.2z M294.7,185.1c0-0.1,0-0.2,0-0.3c-0.1-0.4-0.4-0.7-0.9-0.7
			c-0.7,0-1,0.6-1,1.4c0,0.8,0.4,1.3,1,1.3c0.4,0,0.8-0.3,0.9-0.7c0-0.1,0-0.2,0-0.3V185.1z"/>
		<path class="st3" d="M302.1,185.4c0,1.8-1.2,2.6-2.5,2.6c-1.4,0-2.5-0.9-2.5-2.5c0-1.5,1-2.5,2.6-2.5
			C301.1,183,302.1,184,302.1,185.4z M298.6,185.5c0,0.8,0.3,1.4,1,1.4c0.6,0,0.9-0.6,0.9-1.4c0-0.7-0.3-1.4-0.9-1.4
			C298.9,184,298.6,184.8,298.6,185.5z"/>
		<path class="st3" d="M303,186.6c0.3,0.2,0.8,0.4,1.3,0.4c0.5,0,0.6-0.2,0.6-0.4s-0.1-0.4-0.7-0.5c-1-0.3-1.4-0.9-1.4-1.4
			c0-0.9,0.8-1.6,1.9-1.6c0.6,0,1.1,0.1,1.3,0.3l-0.3,1c-0.2-0.1-0.6-0.3-1-0.3c-0.4,0-0.6,0.1-0.6,0.4c0,0.2,0.2,0.3,0.8,0.5
			c0.9,0.3,1.3,0.8,1.3,1.5c0,0.9-0.7,1.5-2.1,1.5c-0.6,0-1.2-0.1-1.5-0.3L303,186.6z"/>
		<path class="st3" d="M310.4,185.9c0,0.6,0.7,0.9,1.3,0.9c0.5,0,0.9-0.1,1.3-0.2l0.2,1c-0.5,0.2-1.1,0.3-1.7,0.3
			c-1.6,0-2.6-0.9-2.6-2.4c0-1.2,0.8-2.6,2.4-2.6c1.5,0,2.1,1.2,2.1,2.4c0,0.3,0,0.5,0,0.6H310.4z M312.1,184.9c0-0.4-0.2-1-0.8-1
			c-0.6,0-0.9,0.6-0.9,1H312.1z"/>
		<path class="st3" d="M314.4,186.6c0.3,0.2,0.8,0.4,1.3,0.4c0.5,0,0.6-0.2,0.6-0.4s-0.1-0.4-0.7-0.5c-1-0.3-1.4-0.9-1.4-1.4
			c0-0.9,0.8-1.6,1.9-1.6c0.6,0,1.1,0.1,1.3,0.3l-0.3,1c-0.2-0.1-0.6-0.3-1-0.3c-0.4,0-0.6,0.1-0.6,0.4c0,0.2,0.2,0.3,0.8,0.5
			c0.9,0.3,1.3,0.8,1.3,1.5c0,0.9-0.7,1.5-2.1,1.5c-0.6,0-1.2-0.1-1.5-0.3L314.4,186.6z"/>
		<path class="st3" d="M320.3,181.7v1.4h1.1v1.1h-1.1v1.7c0,0.6,0.1,0.8,0.6,0.8c0.2,0,0.3,0,0.4,0l0,1.1c-0.2,0.1-0.5,0.1-1,0.1
			c-0.5,0-0.9-0.2-1.1-0.4c-0.3-0.3-0.4-0.7-0.4-1.4v-2h-0.6v-1.1h0.6v-1L320.3,181.7z"/>
		<path class="st3" d="M324.9,187.9l-0.1-0.5h0c-0.3,0.4-0.8,0.6-1.4,0.6c-1,0-1.5-0.7-1.5-1.5c0-1.2,1.1-1.8,2.8-1.8v-0.1
			c0-0.3-0.1-0.6-0.9-0.6c-0.5,0-1,0.2-1.3,0.4l-0.3-1c0.3-0.2,1-0.4,1.9-0.4c1.6,0,2.1,0.9,2.1,2.1v1.7c0,0.5,0,0.9,0.1,1.2H324.9z
			 M324.8,185.6c-0.8,0-1.4,0.2-1.4,0.8c0,0.4,0.3,0.6,0.6,0.6c0.4,0,0.7-0.2,0.8-0.5c0-0.1,0-0.2,0-0.3V185.6z"/>
		<path class="st3" d="M332,180.9v5.5c0,0.5,0,1.1,0,1.4h-1.3l-0.1-0.7h0c-0.3,0.5-0.9,0.8-1.5,0.8c-1.1,0-2-1-2-2.5
			c0-1.6,1-2.5,2.1-2.5c0.6,0,1,0.2,1.3,0.5h0v-2.6H332z M330.5,185.1c0-0.1,0-0.2,0-0.3c-0.1-0.4-0.4-0.7-0.9-0.7
			c-0.7,0-1,0.6-1,1.4c0,0.8,0.4,1.3,1,1.3c0.4,0,0.8-0.3,0.9-0.7c0-0.1,0-0.2,0-0.3V185.1z"/>
		<path class="st3" d="M337.9,185.4c0,1.8-1.2,2.6-2.5,2.6c-1.4,0-2.5-0.9-2.5-2.5c0-1.5,1-2.5,2.6-2.5
			C336.9,183,337.9,184,337.9,185.4z M334.5,185.5c0,0.8,0.3,1.4,1,1.4c0.6,0,0.9-0.6,0.9-1.4c0-0.7-0.3-1.4-0.9-1.4
			C334.7,184,334.5,184.8,334.5,185.5z"/>
		<path class="st3" d="M338.8,186.6c0.3,0.2,0.8,0.4,1.3,0.4c0.5,0,0.6-0.2,0.6-0.4s-0.1-0.4-0.7-0.5c-1-0.3-1.4-0.9-1.4-1.4
			c0-0.9,0.8-1.6,1.9-1.6c0.6,0,1.1,0.1,1.3,0.3l-0.3,1c-0.2-0.1-0.6-0.3-1-0.3c-0.4,0-0.6,0.1-0.6,0.4c0,0.2,0.2,0.3,0.8,0.5
			c0.9,0.3,1.3,0.8,1.3,1.5c0,0.9-0.7,1.5-2.1,1.5c-0.6,0-1.2-0.1-1.5-0.3L338.8,186.6z"/>
	</g>
</g>
<g>
	<g>
		<path class="st3" d="M27.5,161c0,2.2-1.3,3.5-3.2,3.5c-2,0-3.1-1.5-3.1-3.4c0-2,1.3-3.5,3.2-3.5C26.3,157.7,27.5,159.2,27.5,161z
			 M22.7,161.1c0,1.3,0.6,2.2,1.6,2.2c1,0,1.6-1,1.6-2.2c0-1.2-0.6-2.2-1.6-2.2C23.3,158.9,22.7,159.8,22.7,161.1z"/>
		<path class="st3" d="M28.4,161.2c0-0.7,0-1.2,0-1.6h1.3l0,0.9h0c0.2-0.7,0.8-1,1.3-1c0.1,0,0.2,0,0.3,0v1.4c-0.1,0-0.2,0-0.4,0
			c-0.5,0-0.9,0.3-1,0.8c0,0.1,0,0.2,0,0.3v2.4h-1.5V161.2z"/>
		<path class="st3" d="M36.7,157.5v5.5c0,0.5,0,1.1,0,1.4h-1.3l-0.1-0.7h0c-0.3,0.5-0.9,0.8-1.5,0.8c-1.1,0-2-1-2-2.5
			c0-1.6,1-2.5,2.1-2.5c0.6,0,1,0.2,1.3,0.5h0v-2.6H36.7z M35.2,161.6c0-0.1,0-0.2,0-0.3c-0.1-0.4-0.4-0.7-0.9-0.7
			c-0.7,0-1,0.6-1,1.4c0,0.8,0.4,1.3,1,1.3c0.4,0,0.8-0.3,0.9-0.7c0-0.1,0-0.2,0-0.3V161.6z"/>
		<path class="st3" d="M39,162.5c0,0.6,0.7,0.9,1.3,0.9c0.5,0,0.9-0.1,1.3-0.2l0.2,1c-0.5,0.2-1.1,0.3-1.7,0.3
			c-1.6,0-2.6-0.9-2.6-2.4c0-1.2,0.8-2.6,2.4-2.6c1.5,0,2.1,1.2,2.1,2.4c0,0.3,0,0.5,0,0.6H39z M40.8,161.5c0-0.4-0.2-1-0.8-1
			c-0.6,0-0.9,0.6-0.9,1H40.8z"/>
		<path class="st3" d="M43,161.1c0-0.6,0-1.1,0-1.5h1.3l0.1,0.6h0c0.2-0.3,0.6-0.8,1.4-0.8c0.6,0,1.1,0.3,1.3,0.8h0
			c0.2-0.2,0.4-0.4,0.6-0.6c0.3-0.2,0.6-0.2,0.9-0.2c0.9,0,1.6,0.6,1.6,2.1v2.8h-1.4v-2.6c0-0.7-0.2-1.1-0.7-1.1
			c-0.3,0-0.6,0.2-0.7,0.5c0,0.1-0.1,0.3-0.1,0.4v2.8h-1.4v-2.7c0-0.6-0.2-1-0.7-1c-0.4,0-0.6,0.3-0.7,0.5c0,0.1-0.1,0.3-0.1,0.4
			v2.8H43V161.1z"/>
		<path class="st3" d="M58,157.5v5.5c0,0.5,0,1.1,0,1.4h-1.3l-0.1-0.7h0c-0.3,0.5-0.9,0.8-1.5,0.8c-1.1,0-2-1-2-2.5
			c0-1.6,1-2.5,2.1-2.5c0.6,0,1,0.2,1.3,0.5h0v-2.6H58z M56.6,161.6c0-0.1,0-0.2,0-0.3c-0.1-0.4-0.4-0.7-0.9-0.7c-0.7,0-1,0.6-1,1.4
			c0,0.8,0.4,1.3,1,1.3c0.4,0,0.8-0.3,0.9-0.7c0-0.1,0-0.2,0-0.3V161.6z"/>
		<path class="st3" d="M64,162c0,1.8-1.2,2.6-2.5,2.6c-1.4,0-2.5-0.9-2.5-2.5c0-1.5,1-2.5,2.6-2.5C63,159.5,64,160.5,64,162z
			 M60.5,162c0,0.8,0.3,1.4,1,1.4c0.6,0,0.9-0.6,0.9-1.4c0-0.7-0.3-1.4-0.9-1.4C60.8,160.6,60.5,161.3,60.5,162z"/>
		<path class="st3" d="M64.9,163.1c0.3,0.2,0.8,0.4,1.3,0.4c0.5,0,0.6-0.2,0.6-0.4c0-0.2-0.1-0.4-0.7-0.5c-1-0.3-1.4-0.9-1.4-1.4
			c0-0.9,0.8-1.6,1.9-1.6c0.6,0,1.1,0.1,1.3,0.3l-0.3,1c-0.2-0.1-0.6-0.3-1-0.3c-0.4,0-0.6,0.1-0.6,0.4c0,0.2,0.2,0.3,0.8,0.5
			c0.9,0.3,1.3,0.8,1.3,1.5c0,0.9-0.7,1.5-2.1,1.5c-0.6,0-1.2-0.1-1.5-0.3L64.9,163.1z"/>
		<path class="st3" d="M22.1,174.4l-0.5,1.7h-1.5l2-6.6h2l2,6.6h-1.6l-0.5-1.7H22.1z M23.8,173.3l-0.4-1.4c-0.1-0.4-0.2-0.9-0.3-1.3
			h0c-0.1,0.4-0.2,0.9-0.3,1.3l-0.4,1.4H23.8z"/>
		<path class="st3" d="M31.5,169.2v5.5c0,0.5,0,1.1,0,1.4h-1.3l-0.1-0.7h0c-0.3,0.5-0.9,0.8-1.5,0.8c-1.1,0-2-1-2-2.5
			c0-1.6,1-2.5,2.1-2.5c0.6,0,1,0.2,1.3,0.5h0v-2.6H31.5z M30,173.4c0-0.1,0-0.2,0-0.3c-0.1-0.4-0.4-0.7-0.9-0.7c-0.7,0-1,0.6-1,1.4
			c0,0.8,0.4,1.3,1,1.3c0.4,0,0.8-0.3,0.9-0.7c0-0.1,0-0.2,0-0.3V173.4z"/>
		<path class="st3" d="M33.8,171.4l0.6,2.2c0.1,0.4,0.2,0.8,0.3,1.2h0c0.1-0.4,0.2-0.8,0.3-1.2l0.6-2.2h1.6l-1.8,4.8h-1.5l-1.7-4.8
			H33.8z"/>
		<path class="st3" d="M42.4,173.7c0,1.8-1.2,2.6-2.5,2.6c-1.4,0-2.5-0.9-2.5-2.5c0-1.5,1-2.5,2.6-2.5
			C41.4,171.2,42.4,172.3,42.4,173.7z M38.9,173.7c0,0.8,0.3,1.4,1,1.4c0.6,0,0.9-0.6,0.9-1.4c0-0.7-0.3-1.4-0.9-1.4
			C39.2,172.3,38.9,173,38.9,173.7z"/>
		<path class="st3" d="M47.9,171.4c0,0.3,0,0.7,0,1.4v2.7c0,0.9-0.2,1.7-0.7,2.2c-0.5,0.4-1.2,0.6-1.9,0.6c-0.6,0-1.3-0.1-1.7-0.4
			l0.3-1.1c0.3,0.2,0.8,0.4,1.4,0.4c0.7,0,1.2-0.4,1.2-1.3v-0.3h0c-0.3,0.4-0.7,0.6-1.3,0.6c-1.2,0-2-1-2-2.3c0-1.5,1-2.5,2.2-2.5
			c0.7,0,1.1,0.3,1.3,0.7h0l0-0.6H47.9z M46.4,173.3c0-0.1,0-0.2,0-0.3c-0.1-0.4-0.4-0.7-0.8-0.7c-0.5,0-1,0.5-1,1.4
			c0,0.7,0.4,1.3,1,1.3c0.4,0,0.7-0.3,0.8-0.6c0-0.1,0-0.3,0-0.4V173.3z"/>
		<path class="st3" d="M51.8,176.1l-0.1-0.5h0c-0.3,0.4-0.8,0.6-1.4,0.6c-1,0-1.5-0.7-1.5-1.5c0-1.2,1.1-1.8,2.8-1.8v-0.1
			c0-0.3-0.1-0.6-0.9-0.6c-0.5,0-1,0.2-1.3,0.4l-0.3-1c0.3-0.2,1-0.4,1.9-0.4c1.6,0,2.1,0.9,2.1,2.1v1.7c0,0.5,0,0.9,0.1,1.2H51.8z
			 M51.6,173.9c-0.8,0-1.4,0.2-1.4,0.8c0,0.4,0.3,0.6,0.6,0.6c0.4,0,0.7-0.2,0.8-0.5c0-0.1,0-0.2,0-0.3V173.9z"/>
		<path class="st3" d="M58.9,169.2v5.5c0,0.5,0,1.1,0,1.4h-1.3l-0.1-0.7h0c-0.3,0.5-0.9,0.8-1.5,0.8c-1.1,0-2-1-2-2.5
			c0-1.6,1-2.5,2.1-2.5c0.6,0,1,0.2,1.3,0.5h0v-2.6H58.9z M57.4,173.4c0-0.1,0-0.2,0-0.3c-0.1-0.4-0.4-0.7-0.9-0.7
			c-0.7,0-1,0.6-1,1.4c0,0.8,0.4,1.3,1,1.3c0.4,0,0.8-0.3,0.9-0.7c0-0.1,0-0.2,0-0.3V173.4z"/>
		<path class="st3" d="M64.8,173.7c0,1.8-1.2,2.6-2.5,2.6c-1.4,0-2.5-0.9-2.5-2.5c0-1.5,1-2.5,2.6-2.5
			C63.8,171.2,64.8,172.3,64.8,173.7z M61.3,173.7c0,0.8,0.3,1.4,1,1.4c0.6,0,0.9-0.6,0.9-1.4c0-0.7-0.3-1.4-0.9-1.4
			C61.6,172.3,61.3,173,61.3,173.7z"/>
		<path class="st3" d="M65.7,174.8c0.3,0.2,0.8,0.4,1.3,0.4c0.5,0,0.6-0.2,0.6-0.4c0-0.2-0.1-0.4-0.7-0.5c-1-0.3-1.4-0.9-1.4-1.4
			c0-0.9,0.8-1.6,1.9-1.6c0.6,0,1.1,0.1,1.3,0.3l-0.3,1c-0.2-0.1-0.6-0.3-1-0.3c-0.4,0-0.6,0.1-0.6,0.4c0,0.2,0.2,0.3,0.8,0.5
			c0.9,0.3,1.3,0.8,1.3,1.5c0,0.9-0.7,1.5-2.1,1.5c-0.6,0-1.2-0.1-1.5-0.3L65.7,174.8z"/>
		<path class="st3" d="M31,180.9v5.5c0,0.5,0,1.1,0,1.4h-1.3l-0.1-0.7h0c-0.3,0.5-0.9,0.8-1.5,0.8c-1.1,0-2-1-2-2.5
			c0-1.6,1-2.5,2.1-2.5c0.6,0,1,0.2,1.3,0.5h0v-2.6H31z M29.5,185.1c0-0.1,0-0.2,0-0.3c-0.1-0.4-0.4-0.7-0.9-0.7c-0.7,0-1,0.6-1,1.4
			c0,0.8,0.4,1.3,1,1.3c0.4,0,0.8-0.3,0.9-0.7c0-0.1,0-0.2,0-0.3V185.1z"/>
		<path class="st3" d="M36.9,185.4c0,1.8-1.2,2.6-2.5,2.6c-1.4,0-2.5-0.9-2.5-2.5c0-1.5,1-2.5,2.6-2.5C36,183,36.9,184,36.9,185.4z
			 M33.5,185.5c0,0.8,0.3,1.4,1,1.4c0.6,0,0.9-0.6,0.9-1.4c0-0.7-0.3-1.4-0.9-1.4C33.7,184,33.5,184.8,33.5,185.5z"/>
		<path class="st3" d="M39.9,181.4c0.4-0.1,1.2-0.1,1.9-0.1c0.9,0,1.5,0.1,1.9,0.4c0.5,0.2,0.8,0.7,0.8,1.3c0,0.6-0.3,1.1-1.1,1.4v0
			c0.8,0.2,1.3,0.8,1.3,1.6c0,0.6-0.3,1.1-0.7,1.4c-0.5,0.4-1.3,0.6-2.6,0.6c-0.7,0-1.3,0-1.6-0.1V181.4z M41.3,183.9h0.5
			c0.8,0,1.2-0.3,1.2-0.8c0-0.5-0.4-0.8-1.1-0.8c-0.3,0-0.5,0-0.6,0V183.9z M41.3,186.8c0.1,0,0.3,0,0.6,0c0.7,0,1.3-0.3,1.3-0.9
			c0-0.7-0.6-0.9-1.3-0.9h-0.5V186.8z"/>
		<path class="st3" d="M45.7,184.7c0-0.7,0-1.2,0-1.6H47l0,0.9h0c0.2-0.7,0.8-1,1.3-1c0.1,0,0.2,0,0.3,0v1.4c-0.1,0-0.2,0-0.4,0
			c-0.5,0-0.9,0.3-1,0.8c0,0.1,0,0.2,0,0.3v2.4h-1.5V184.7z"/>
		<path class="st3" d="M52.1,187.9l-0.1-0.5h0c-0.3,0.4-0.8,0.6-1.4,0.6c-1,0-1.5-0.7-1.5-1.5c0-1.2,1.1-1.8,2.8-1.8v-0.1
			c0-0.3-0.1-0.6-0.9-0.6c-0.5,0-1,0.2-1.3,0.4l-0.3-1c0.3-0.2,1-0.4,1.9-0.4c1.6,0,2.1,0.9,2.1,2.1v1.7c0,0.5,0,0.9,0.1,1.2H52.1z
			 M51.9,185.6c-0.8,0-1.4,0.2-1.4,0.8c0,0.4,0.3,0.6,0.6,0.6c0.4,0,0.7-0.2,0.8-0.5c0-0.1,0-0.2,0-0.3V185.6z"/>
		<path class="st3" d="M54.5,186.6c0.3,0.2,0.8,0.4,1.3,0.4c0.5,0,0.6-0.2,0.6-0.4s-0.1-0.4-0.7-0.5c-1-0.3-1.4-0.9-1.4-1.4
			c0-0.9,0.8-1.6,1.9-1.6c0.6,0,1.1,0.1,1.3,0.3l-0.3,1c-0.2-0.1-0.6-0.3-1-0.3c-0.4,0-0.6,0.1-0.6,0.4c0,0.2,0.2,0.3,0.8,0.5
			c0.9,0.3,1.3,0.8,1.3,1.5c0,0.9-0.7,1.5-2.1,1.5c-0.6,0-1.2-0.1-1.5-0.3L54.5,186.6z"/>
		<path class="st3" d="M60.3,181.7c0,0.4-0.3,0.7-0.8,0.7c-0.5,0-0.8-0.3-0.8-0.7c0-0.4,0.3-0.8,0.8-0.8S60.3,181.3,60.3,181.7z
			 M58.7,187.9v-4.8h1.5v4.8H58.7z"/>
		<path class="st3" d="M61.4,180.9h1.5v6.9h-1.5V180.9z"/>
	</g>
</g>
<g>
	<g>
		<path class="st3" d="M239.9,315.6c0-0.8-0.1-1.8-0.1-2.7h0c-0.2,0.8-0.5,1.8-0.7,2.6l-0.8,2.6h-1.2l-0.7-2.6
			c-0.2-0.8-0.4-1.7-0.6-2.6h0c0,0.9-0.1,1.9-0.1,2.7l-0.1,2.5h-1.4l0.4-6.6h2l0.6,2.2c0.2,0.8,0.4,1.6,0.6,2.4h0
			c0.2-0.8,0.4-1.6,0.6-2.4l0.7-2.2h1.9l0.4,6.6H240L239.9,315.6z"/>
		<path class="st3" d="M244.1,312c0,0.4-0.3,0.7-0.8,0.7c-0.5,0-0.8-0.3-0.8-0.7c0-0.4,0.3-0.8,0.8-0.8S244.1,311.6,244.1,312z
			 M242.6,318.1v-4.8h1.5v4.8H242.6z"/>
		<path class="st3" d="M245.2,314.9c0-0.6,0-1.1,0-1.5h1.3l0.1,0.7h0c0.2-0.3,0.7-0.8,1.5-0.8c1,0,1.7,0.6,1.7,2.1v2.8h-1.5v-2.7
			c0-0.6-0.2-1-0.8-1c-0.4,0-0.7,0.3-0.8,0.6c0,0.1-0.1,0.2-0.1,0.4v2.8h-1.5V314.9z"/>
		<path class="st3" d="M252.5,312c0,0.4-0.3,0.7-0.8,0.7c-0.5,0-0.8-0.3-0.8-0.7c0-0.4,0.3-0.8,0.8-0.8S252.5,311.6,252.5,312z
			 M251,318.1v-4.8h1.5v4.8H251z"/>
		<path class="st3" d="M253.6,316.8c0.3,0.2,0.8,0.4,1.3,0.4c0.5,0,0.6-0.2,0.6-0.4c0-0.2-0.1-0.4-0.7-0.5c-1-0.3-1.4-0.9-1.4-1.4
			c0-0.9,0.8-1.6,1.9-1.6c0.6,0,1.1,0.1,1.3,0.3l-0.3,1c-0.2-0.1-0.6-0.3-1-0.3c-0.4,0-0.6,0.1-0.6,0.4c0,0.2,0.2,0.3,0.8,0.5
			c0.9,0.3,1.3,0.8,1.3,1.5c0,0.9-0.7,1.5-2.1,1.5c-0.6,0-1.2-0.1-1.5-0.3L253.6,316.8z"/>
		<path class="st3" d="M259.5,312v1.4h1.1v1.1h-1.1v1.7c0,0.6,0.1,0.8,0.6,0.8c0.2,0,0.3,0,0.4,0l0,1.1c-0.2,0.1-0.5,0.1-1,0.1
			c-0.5,0-0.9-0.2-1.1-0.4c-0.3-0.3-0.4-0.7-0.4-1.4v-2h-0.6v-1.1h0.6v-1L259.5,312z"/>
		<path class="st3" d="M262.6,316.2c0,0.6,0.7,0.9,1.3,0.9c0.5,0,0.9-0.1,1.3-0.2l0.2,1c-0.5,0.2-1.1,0.3-1.7,0.3
			c-1.6,0-2.6-0.9-2.6-2.4c0-1.2,0.8-2.6,2.4-2.6c1.5,0,2.1,1.2,2.1,2.4c0,0.3,0,0.5,0,0.6H262.6z M264.3,315.2c0-0.4-0.2-1-0.8-1
			c-0.6,0-0.9,0.6-0.9,1H264.3z M265.1,311.3l-1.2,1.5h-1l0.8-1.5H265.1z"/>
		<path class="st3" d="M266.6,314.9c0-0.7,0-1.2,0-1.6h1.3l0,0.9h0c0.2-0.7,0.8-1,1.3-1c0.1,0,0.2,0,0.3,0v1.4c-0.1,0-0.2,0-0.4,0
			c-0.5,0-0.9,0.3-1,0.8c0,0.1,0,0.2,0,0.3v2.4h-1.5V314.9z"/>
		<path class="st3" d="M271.8,312c0,0.4-0.3,0.7-0.8,0.7c-0.5,0-0.8-0.3-0.8-0.7c0-0.4,0.3-0.8,0.8-0.8S271.8,311.6,271.8,312z
			 M270.3,318.1v-4.8h1.5v4.8H270.3z"/>
		<path class="st3" d="M277.7,315.7c0,1.8-1.2,2.6-2.5,2.6c-1.4,0-2.5-0.9-2.5-2.5c0-1.5,1-2.5,2.6-2.5
			C276.7,313.2,277.7,314.2,277.7,315.7z M274.2,315.7c0,0.8,0.3,1.4,1,1.4c0.6,0,0.9-0.6,0.9-1.4c0-0.7-0.3-1.4-0.9-1.4
			C274.5,314.3,274.2,315,274.2,315.7z"/>
		<path class="st3" d="M240.3,323.3c0.5-0.1,1.1-0.1,2-0.1c0.9,0,1.6,0.2,2,0.5c0.4,0.3,0.7,0.9,0.7,1.5s-0.2,1.2-0.6,1.6
			c-0.5,0.5-1.3,0.7-2.1,0.7c-0.2,0-0.4,0-0.5,0v2.4h-1.5V323.3z M241.7,326.3c0.1,0,0.3,0,0.5,0c0.8,0,1.3-0.4,1.3-1.1
			c0-0.6-0.4-1-1.2-1c-0.3,0-0.5,0-0.6,0.1V326.3z"/>
		<path class="st3" d="M250.3,328.3c0,0.6,0,1.1,0,1.5H249l-0.1-0.7h0c-0.2,0.3-0.6,0.8-1.5,0.8c-1,0-1.7-0.6-1.7-2.1v-2.8h1.5v2.6
			c0,0.7,0.2,1.1,0.7,1.1c0.4,0,0.6-0.3,0.7-0.5c0-0.1,0-0.2,0-0.3v-2.8h1.5V328.3z M249.7,323l-1.2,1.5h-1l0.8-1.5H249.7z"/>
		<path class="st3" d="M251.4,329.8c0-0.3,0-0.9,0-1.4v-5.5h1.5v2.7h0c0.3-0.4,0.8-0.7,1.4-0.7c1.1,0,2,0.9,2,2.4
			c0,1.7-1.1,2.6-2.2,2.6c-0.6,0-1.1-0.2-1.4-0.8h0l-0.1,0.7H251.4z M253,327.8c0,0.1,0,0.2,0,0.3c0.1,0.4,0.4,0.7,0.9,0.7
			c0.6,0,1-0.5,1-1.4c0-0.7-0.3-1.3-1-1.3c-0.4,0-0.8,0.3-0.9,0.7c0,0.1,0,0.2,0,0.3V327.8z"/>
		<path class="st3" d="M257.3,322.9h1.5v6.9h-1.5V322.9z"/>
		<path class="st3" d="M261.6,323.7c0,0.4-0.3,0.7-0.8,0.7c-0.5,0-0.8-0.3-0.8-0.7c0-0.4,0.3-0.8,0.8-0.8S261.5,323.3,261.6,323.7z
			 M260,329.8v-4.8h1.5v4.8H260z"/>
		<path class="st3" d="M266.3,329.7c-0.3,0.1-0.8,0.2-1.3,0.2c-1.5,0-2.5-0.9-2.5-2.4c0-1.4,1-2.5,2.7-2.5c0.4,0,0.8,0.1,1.1,0.2
			l-0.2,1.1c-0.2-0.1-0.4-0.1-0.8-0.1c-0.8,0-1.3,0.6-1.3,1.3c0,0.9,0.6,1.3,1.3,1.3c0.4,0,0.6-0.1,0.9-0.1L266.3,329.7z"/>
		<path class="st3" d="M271.7,327.4c0,1.8-1.2,2.6-2.5,2.6c-1.4,0-2.5-0.9-2.5-2.5c0-1.5,1-2.5,2.6-2.5
			C270.7,325,271.7,326,271.7,327.4z M268.3,327.5c0,0.8,0.3,1.4,1,1.4c0.6,0,0.9-0.6,0.9-1.4c0-0.7-0.3-1.4-0.9-1.4
			C268.5,326,268.3,326.7,268.3,327.5z"/>
	</g>
</g>
<g>
	<g>
		<path class="st3" d="M84.2,313.7c-0.3,0.1-0.9,0.3-1.7,0.3c-2.3,0-3.5-1.4-3.5-3.3c0-2.2,1.6-3.5,3.6-3.5c0.8,0,1.4,0.2,1.6,0.3
			l-0.3,1.2c-0.3-0.1-0.7-0.2-1.3-0.2c-1.2,0-2.1,0.7-2.1,2.2c0,1.3,0.8,2.2,2.1,2.2c0.5,0,0.9-0.1,1.2-0.2L84.2,313.7z"/>
		<path class="st3" d="M89.7,311.5c0,1.8-1.2,2.6-2.5,2.6c-1.4,0-2.5-0.9-2.5-2.5c0-1.5,1-2.5,2.6-2.5C88.7,309,89.7,310,89.7,311.5
			z M86.2,311.5c0,0.8,0.3,1.4,1,1.4c0.6,0,0.9-0.6,0.9-1.4c0-0.7-0.3-1.4-0.9-1.4C86.5,310.1,86.2,310.8,86.2,311.5z"/>
		<path class="st3" d="M90.6,310.7c0-0.6,0-1.1,0-1.5h1.3l0.1,0.7h0c0.2-0.3,0.7-0.8,1.5-0.8c1,0,1.7,0.6,1.7,2.1v2.8h-1.5v-2.7
			c0-0.6-0.2-1-0.8-1c-0.4,0-0.7,0.3-0.8,0.6c0,0.1-0.1,0.2-0.1,0.4v2.8h-1.5V310.7z"/>
		<path class="st3" d="M100.9,309.1c0,0.3,0,0.7,0,1.4v2.7c0,0.9-0.2,1.7-0.7,2.2c-0.5,0.4-1.2,0.6-1.9,0.6c-0.6,0-1.3-0.1-1.7-0.4
			l0.3-1.1c0.3,0.2,0.8,0.4,1.4,0.4c0.7,0,1.2-0.4,1.2-1.3v-0.3h0c-0.3,0.4-0.7,0.6-1.3,0.6c-1.2,0-2-1-2-2.3c0-1.5,1-2.5,2.2-2.5
			c0.7,0,1.1,0.3,1.3,0.7h0l0-0.6H100.9z M99.4,311.1c0-0.1,0-0.2,0-0.3c-0.1-0.4-0.4-0.7-0.8-0.7c-0.5,0-1,0.5-1,1.4
			c0,0.7,0.4,1.3,1,1.3c0.4,0,0.7-0.3,0.8-0.6c0-0.1,0-0.3,0-0.4V311.1z"/>
		<path class="st3" d="M102.1,310.7c0-0.7,0-1.2,0-1.6h1.3l0,0.9h0c0.2-0.7,0.8-1,1.3-1c0.1,0,0.2,0,0.3,0v1.4c-0.1,0-0.2,0-0.4,0
			c-0.5,0-0.9,0.3-1,0.8c0,0.1,0,0.2,0,0.3v2.4h-1.5V310.7z"/>
		<path class="st3" d="M106.8,312c0,0.6,0.7,0.9,1.3,0.9c0.5,0,0.9-0.1,1.3-0.2l0.2,1c-0.5,0.2-1.1,0.3-1.7,0.3
			c-1.6,0-2.6-0.9-2.6-2.4c0-1.2,0.8-2.6,2.4-2.6c1.5,0,2.1,1.2,2.1,2.4c0,0.3,0,0.5,0,0.6H106.8z M108.6,311c0-0.4-0.2-1-0.8-1
			c-0.6,0-0.9,0.6-0.9,1H108.6z"/>
		<path class="st3" d="M110.8,312.6c0.3,0.2,0.8,0.4,1.3,0.4c0.5,0,0.6-0.2,0.6-0.4c0-0.2-0.1-0.4-0.7-0.5c-1-0.3-1.4-0.9-1.4-1.4
			c0-0.9,0.8-1.6,1.9-1.6c0.6,0,1.1,0.1,1.3,0.3l-0.3,1c-0.2-0.1-0.6-0.3-1-0.3c-0.4,0-0.6,0.1-0.6,0.4c0,0.2,0.2,0.3,0.8,0.5
			c0.9,0.3,1.3,0.8,1.3,1.5c0,0.9-0.7,1.5-2.1,1.5c-0.6,0-1.2-0.1-1.5-0.3L110.8,312.6z"/>
		<path class="st3" d="M115.1,312.6c0.3,0.2,0.8,0.4,1.3,0.4c0.5,0,0.6-0.2,0.6-0.4c0-0.2-0.1-0.4-0.7-0.5c-1-0.3-1.4-0.9-1.4-1.4
			c0-0.9,0.8-1.6,1.9-1.6c0.6,0,1.1,0.1,1.3,0.3l-0.3,1c-0.2-0.1-0.6-0.3-1-0.3c-0.4,0-0.6,0.1-0.6,0.4c0,0.2,0.2,0.3,0.8,0.5
			c0.9,0.3,1.3,0.8,1.3,1.5c0,0.9-0.7,1.5-2.1,1.5c-0.6,0-1.2-0.1-1.5-0.3L115.1,312.6z"/>
		<path class="st3" d="M124.1,311.5c0,1.8-1.2,2.6-2.5,2.6c-1.4,0-2.5-0.9-2.5-2.5c0-1.5,1-2.5,2.6-2.5
			C123.1,309,124.1,310,124.1,311.5z M120.6,311.5c0,0.8,0.3,1.4,1,1.4c0.6,0,0.9-0.6,0.9-1.4c0-0.7-0.3-1.4-0.9-1.4
			C120.9,310.1,120.6,310.8,120.6,311.5z"/>
		<path class="st3" d="M83.1,325.6V319h1.7l1.4,2.4c0.4,0.7,0.8,1.5,1.1,2.3h0c-0.1-0.9-0.1-1.8-0.1-2.7V319h1.4v6.6H87l-1.4-2.5
			c-0.4-0.7-0.8-1.6-1.1-2.3l0,0c0,0.9,0.1,1.8,0.1,2.9v2H83.1z"/>
		<path class="st3" d="M92.5,325.6l-0.1-0.5h0c-0.3,0.4-0.8,0.6-1.4,0.6c-1,0-1.5-0.7-1.5-1.5c0-1.2,1.1-1.8,2.8-1.8v-0.1
			c0-0.3-0.1-0.6-0.9-0.6c-0.5,0-1,0.2-1.3,0.4l-0.3-1c0.3-0.2,1-0.4,1.9-0.4c1.6,0,2.1,0.9,2.1,2.1v1.7c0,0.5,0,0.9,0.1,1.2H92.5z
			 M92.3,323.4c-0.8,0-1.4,0.2-1.4,0.8c0,0.4,0.3,0.6,0.6,0.6c0.4,0,0.7-0.2,0.8-0.5c0-0.1,0-0.2,0-0.3V323.4z"/>
		<path class="st3" d="M98.5,325.5c-0.3,0.1-0.8,0.2-1.3,0.2c-1.5,0-2.5-0.9-2.5-2.4c0-1.4,1-2.5,2.7-2.5c0.4,0,0.8,0.1,1.1,0.2
			l-0.2,1.1c-0.2-0.1-0.4-0.1-0.8-0.1c-0.8,0-1.3,0.6-1.3,1.3c0,0.9,0.6,1.3,1.3,1.3c0.4,0,0.6-0.1,0.9-0.1L98.5,325.5z"/>
		<path class="st3" d="M100.9,319.5c0,0.4-0.3,0.7-0.8,0.7c-0.5,0-0.8-0.3-0.8-0.7c0-0.4,0.3-0.8,0.8-0.8S100.9,319.1,100.9,319.5z
			 M99.4,325.6v-4.8h1.5v4.8H99.4z"/>
		<path class="st3" d="M106.8,323.2c0,1.8-1.2,2.6-2.5,2.6c-1.4,0-2.5-0.9-2.5-2.5c0-1.5,1-2.5,2.6-2.5
			C105.8,320.8,106.8,321.8,106.8,323.2z M103.3,323.2c0,0.8,0.3,1.4,1,1.4c0.6,0,0.9-0.6,0.9-1.4c0-0.7-0.3-1.4-0.9-1.4
			C103.6,321.8,103.3,322.5,103.3,323.2z"/>
		<path class="st3" d="M107.7,322.4c0-0.6,0-1.1,0-1.5h1.3l0.1,0.7h0c0.2-0.3,0.7-0.8,1.5-0.8c1,0,1.7,0.6,1.7,2.1v2.8h-1.5V323
			c0-0.6-0.2-1-0.8-1c-0.4,0-0.7,0.3-0.8,0.6c0,0.1-0.1,0.2-0.1,0.4v2.8h-1.5V322.4z"/>
		<path class="st3" d="M116.1,325.6l-0.1-0.5h0c-0.3,0.4-0.8,0.6-1.4,0.6c-1,0-1.5-0.7-1.5-1.5c0-1.2,1.1-1.8,2.8-1.8v-0.1
			c0-0.3-0.1-0.6-0.9-0.6c-0.5,0-1,0.2-1.3,0.4l-0.3-1c0.3-0.2,1-0.4,1.9-0.4c1.6,0,2.1,0.9,2.1,2.1v1.7c0,0.5,0,0.9,0.1,1.2H116.1z
			 M115.9,323.4c-0.8,0-1.4,0.2-1.4,0.8c0,0.4,0.3,0.6,0.6,0.6c0.4,0,0.7-0.2,0.8-0.5c0-0.1,0-0.2,0-0.3V323.4z"/>
		<path class="st3" d="M118.6,318.7h1.5v6.9h-1.5V318.7z"/>
	</g>
</g>
</svg>
